<svg version="1.1" id="Layer_1" xmlns="http://www.w3.org/2000/svg" xmlns:xlink="http://www.w3.org/1999/xlink" x="0px" y="0px"
	 width="100%" viewBox="0 0 1024 1024" enable-background="new 0 0 1024 1024" xml:space="preserve">
<path fill="#000000" opacity="1.000000" stroke="none" 
	d="
M773.155151,642.847656 
	C763.841064,630.972168 752.059082,622.382080 738.474487,617.768250 
	C727.662476,614.096069 716.068909,611.367188 704.244324,611.945129 
	C697.645447,612.267700 694.244629,610.200317 691.979370,604.046814 
	C689.774719,598.057800 688.971985,591.690735 688.720947,585.448059 
	C688.550110,581.199219 687.447388,577.641174 685.459412,574.173157 
	C683.369446,570.527161 680.595398,570.030090 677.172302,572.536316 
	C673.847961,574.970215 671.915161,578.513550 669.889648,581.956970 
	C668.904602,583.631653 668.932495,585.145142 671.089600,585.963135 
	C674.464111,587.242859 675.071228,590.065918 675.266602,593.229431 
	C675.471436,596.545715 675.767578,599.865784 676.231018,603.154907 
	C677.237244,610.295471 675.323303,613.755066 668.993530,616.993896 
	C650.298157,626.559875 634.411194,639.240723 624.050659,657.989258 
	C622.259399,661.230896 620.264954,664.234436 615.650818,663.846741 
	C612.401550,663.573730 611.461670,665.455261 612.949158,668.336060 
	C613.579163,669.556152 614.445496,670.901001 613.630676,672.080627 
	C608.889954,678.943542 608.718140,687.910034 602.824463,694.344055 
	C597.022644,700.677673 598.426636,707.969543 602.246399,714.715271 
	C603.600708,717.106750 603.570618,718.595093 601.925476,720.389465 
	C591.908813,731.314331 581.780518,742.156433 570.186035,751.432434 
	C563.811523,756.532288 557.950745,761.700073 556.386292,770.252930 
	C555.459412,775.319946 551.207947,778.272705 548.347168,782.099854 
	C547.455688,783.292419 546.398621,784.407104 545.249756,785.354004 
	C535.642883,793.272400 532.357971,803.788452 531.989929,815.830200 
	C531.658691,826.670288 530.226074,837.462463 526.405396,847.686218 
	C523.408203,855.706604 521.094421,864.350891 512.701904,868.975098 
	C511.684601,869.535645 510.722168,870.364441 509.632874,870.600098 
	C495.478241,873.662109 482.992462,880.571045 470.481415,887.435730 
	C467.114624,889.283020 463.606049,890.704041 459.868225,891.734375 
	C452.756744,893.694641 447.486877,900.956421 447.027405,908.341309 
	C446.425903,918.008667 446.411591,927.643372 447.899353,937.229919 
	C448.879852,943.547791 450.343811,944.708496 456.786316,944.711121 
	C465.118805,944.714539 473.452332,944.617554 481.783569,944.717102 
	C496.567871,944.893677 511.341492,946.973328 526.113037,945.762024 
	C537.269958,944.847168 548.320801,946.298950 559.431152,946.136169 
	C565.071899,946.053467 567.146118,943.382141 567.529785,938.575378 
	C566.543091,936.279541 563.800110,937.796082 562.649597,935.608948 
	C563.424255,932.796326 566.298096,931.825500 568.373352,930.097534 
	C573.242493,926.043457 572.854492,922.994263 567.493774,919.715576 
	C564.128723,917.657410 559.673767,917.964478 556.631409,914.565125 
	C559.595459,911.300232 563.459900,911.224609 566.795471,912.060669 
	C578.163208,914.910034 590.239502,914.661011 600.941772,920.632812 
	C606.405701,923.681641 613.037537,921.412842 619.133728,922.566406 
	C630.072327,924.636292 641.362915,925.242615 650.354492,933.004395 
	C651.067993,933.620300 652.258789,933.814087 652.152588,935.484558 
	C644.874817,937.426758 637.876953,940.274536 630.181763,941.786987 
	C617.207581,944.337158 604.411804,948.025391 591.385437,950.554504 
	C556.057983,957.413574 520.458313,959.380005 484.503357,957.564880 
	C445.842285,955.613281 408.198547,948.562988 371.403900,936.896057 
	C321.034241,920.924622 275.026062,896.492676 233.334625,864.053955 
	C176.840057,820.097351 133.172729,765.740784 102.499809,701.065369 
	C83.620338,661.257141 71.156235,619.487427 64.401482,575.899963 
	C59.760632,545.953247 58.478817,515.870911 59.959507,485.756042 
	C62.480206,434.489136 73.694389,385.000092 93.409088,337.543274 
	C122.020599,268.670197 165.035690,210.343979 222.501938,162.834427 
	C280.777435,114.655853 347.179230,83.416069 421.337494,68.632896 
	C452.128082,62.494907 483.239105,59.187977 514.594910,60.037945 
	C629.793335,63.160660 730.493652,102.785751 815.239563,181.340195 
	C873.852539,235.671082 914.411438,301.544006 938.094727,377.769135 
	C946.948730,406.265778 952.605042,435.455109 955.510437,465.216217 
	C958.158203,492.337891 958.427979,519.472778 956.120789,546.537048 
	C950.376953,613.912048 930.445740,676.924622 896.347046,735.394348 
	C872.392456,776.469788 842.501160,812.684387 807.151978,844.430847 
	C805.348938,846.050049 803.646729,847.626770 803.976257,850.275146 
	C804.760559,856.579590 800.685974,859.060608 795.390381,861.350464 
	C794.798584,857.302246 797.299683,854.167175 797.045776,850.562988 
	C796.387817,841.224854 797.486816,831.944458 798.615906,822.686768 
	C798.856567,820.712585 798.956360,818.611755 799.725525,816.830322 
	C803.027100,809.184631 801.061768,802.130432 797.500427,795.304260 
	C794.166687,788.914490 793.007385,782.318481 793.419800,775.078064 
	C793.987549,765.109741 794.128601,755.069885 793.635803,745.101013 
	C793.076172,733.779785 795.191833,723.298340 802.613647,714.737000 
	C812.219788,703.655945 806.656677,690.113708 800.976929,681.224487 
	C799.646423,679.142151 797.762695,677.408997 796.104431,675.541016 
	C790.619812,669.362671 784.529602,663.841858 781.795288,655.423218 
	C780.323425,650.891602 776.262817,647.200867 773.155151,642.847656 
M810.747498,727.339417 
	C807.060364,737.378845 807.946838,747.614258 808.638306,758.063477 
	C811.542053,757.574219 812.250427,755.689209 813.354126,754.318237 
	C823.709534,741.455505 833.233643,728.006531 841.865723,713.921509 
	C874.467712,660.724670 893.192871,602.934143 898.533997,540.871338 
	C900.794128,514.609070 900.000305,488.330841 896.864197,462.095459 
	C892.486206,425.470154 883.305298,390.137512 868.750488,356.304443 
	C835.897339,279.936432 784.129089,219.637085 713.426697,175.865906 
	C664.250854,145.421585 610.675598,127.197014 553.269592,120.465866 
	C528.746704,117.590431 504.127563,117.360870 479.455444,119.102341 
	C456.798859,120.701538 434.433380,124.044037 412.498230,129.735153 
	C332.789154,150.415833 265.450439,191.436172 211.769714,254.022629 
	C153.597488,321.845734 122.585136,400.879852 117.529602,489.913116 
	C115.310249,528.998169 119.422569,567.667542 129.286819,605.672852 
	C147.324112,675.167542 181.515518,735.466248 232.224411,786.246948 
	C271.760956,825.839600 317.947723,855.358704 370.237946,875.243713 
	C390.808289,883.066223 411.914154,889.136902 433.558777,893.236023 
	C435.407562,893.586121 437.491669,894.609924 438.685486,891.915588 
	C442.616791,883.042969 446.563141,874.181274 452.358704,866.291626 
	C456.640472,860.462952 461.409576,854.725708 466.420197,849.893250 
	C472.865387,843.677124 478.261719,836.657227 484.054443,830.037842 
	C492.946899,819.876160 502.484894,810.662292 513.530396,802.983459 
	C517.749329,800.050354 519.593140,795.896973 519.631348,791.075439 
	C519.710449,781.108215 519.691223,771.156616 520.964539,761.239380 
	C521.484436,757.189758 526.055298,749.268127 528.991272,748.895874 
	C531.710144,748.551086 533.457275,747.048950 535.505371,745.613281 
	C537.910645,743.927307 540.205811,742.037964 543.269775,741.297546 
	C548.507812,740.031799 552.861877,736.860901 556.675415,733.278748 
	C561.423462,728.818848 564.325989,722.103271 572.155945,721.691711 
	C573.162964,721.638794 574.272705,720.681213 575.063843,719.876282 
	C578.492004,716.388245 581.953979,712.907898 584.634949,708.783386 
	C585.328979,707.715637 586.083923,706.941406 587.345642,706.873230 
	C591.177551,706.666382 591.723938,704.180969 591.807983,701.000732 
	C591.997009,693.848694 592.683105,686.760742 596.496033,680.421448 
	C597.392090,678.931763 597.608765,677.342468 597.670288,675.645386 
	C597.919922,668.759521 601.138672,662.578735 602.662048,655.977051 
	C604.205933,649.286804 603.771973,641.906067 598.783386,637.689331 
	C589.894470,630.175659 584.028748,620.610596 579.452881,610.061157 
	C576.157227,602.463196 572.861328,595.103394 564.963745,590.460205 
	C557.167114,585.876526 550.568115,579.479553 544.945435,572.229919 
	C539.817810,565.618591 533.949707,559.821777 527.107605,554.875916 
	C522.885132,551.823669 519.329285,547.600647 517.057373,542.907959 
	C514.186157,536.977356 512.146729,530.739014 505.898285,527.200195 
	C504.050293,526.153625 503.122742,524.125000 502.419556,521.924011 
	C501.629913,519.452271 500.376221,516.954224 497.854980,515.583618 
	C486.608948,509.470276 481.024658,496.959717 485.682770,485.546295 
	C487.379181,481.389709 485.742462,479.247559 484.532990,476.085358 
	C481.531342,468.237518 475.420105,462.019775 473.272125,453.696381 
	C472.612976,451.142365 471.717987,447.930054 469.316681,446.443024 
	C459.326447,440.256470 452.872986,431.362091 448.693054,420.625244 
	C447.639435,417.918793 446.488281,415.498108 443.690826,414.090851 
	C441.756104,413.117615 440.423492,410.991882 441.672333,409.173645 
	C444.103424,405.634125 443.576202,401.854218 443.488495,398.093170 
	C443.240479,387.459747 438.784302,377.326111 443.022797,365.999634 
	C445.338959,359.810181 448.177216,354.546631 452.436340,350.258453 
	C458.380859,344.273346 462.151886,337.385559 465.078674,329.670135 
	C466.032959,327.154510 465.510101,323.583679 468.327881,322.191589 
	C476.544312,318.132324 481.997162,310.782440 488.901184,305.179565 
	C491.056641,303.430328 494.027557,301.006165 493.659027,297.364441 
	C493.190979,292.739655 496.465271,289.851318 498.900482,287.017303 
	C501.253662,284.278839 503.793182,280.502563 508.693115,281.542236 
	C509.473022,281.707703 510.740448,281.095490 511.321106,280.436371 
	C515.472961,275.723663 521.643921,274.887146 526.979492,273.124542 
	C532.495178,271.302338 538.391724,269.647949 543.666992,267.634338 
	C551.152649,264.776947 558.558533,265.108124 565.919250,263.728821 
	C572.226624,262.546844 580.639465,266.440399 584.917542,257.972900 
	C585.252686,257.309479 586.648010,257.119812 587.588684,256.836151 
	C590.120056,256.072723 592.730347,255.536438 595.205627,254.627579 
	C605.105225,250.992783 614.707520,253.402481 624.462158,255.522385 
	C631.217651,256.990479 637.624817,259.414246 645.226990,257.547791 
	C653.812012,255.440048 663.022095,253.398270 671.810974,258.868652 
	C675.796387,261.349274 680.722046,262.379730 685.292419,263.846069 
	C692.711243,266.226318 698.838013,269.996796 701.227539,277.953186 
	C701.692810,279.502563 702.266907,280.790192 703.831299,281.326630 
	C710.246948,283.526398 716.125122,286.314331 719.086487,293.080017 
	C723.278503,302.657532 732.279602,308.595215 737.683716,317.324432 
	C739.570190,320.371826 739.696960,324.094513 741.972778,326.776794 
	C744.884949,330.209106 747.415161,334.028503 748.690247,338.154053 
	C750.163269,342.919891 752.906494,343.889221 757.217224,343.734863 
	C761.701721,343.574280 766.826599,342.517609 770.553284,344.253448 
	C776.562500,347.052612 780.580688,353.074219 786.033264,357.097168 
	C787.248657,357.993835 788.257263,360.048309 789.670532,361.444763 
	C792.681763,364.419983 797.665344,366.654236 797.723267,371.079285 
	C797.799255,376.887756 800.873962,381.295807 802.289490,386.376526 
	C805.598572,398.254181 812.350647,409.030304 812.692322,421.970551 
	C812.810547,426.449463 813.665955,431.418945 814.988647,436.074036 
	C816.925842,442.892090 819.140991,449.927734 813.554016,456.379883 
	C812.304382,457.822968 813.157837,459.180450 814.322937,460.738556 
	C816.652649,463.854187 820.483337,466.341858 820.920715,470.287750 
	C821.323486,473.921326 822.750183,476.824860 824.130676,480.008881 
	C825.624878,483.455231 829.380188,484.940338 830.711243,487.859253 
	C833.070312,493.032349 837.098328,496.110931 841.293701,499.359467 
	C844.097534,501.530609 846.435669,503.871948 846.788330,508.073456 
	C847.194397,512.910767 847.235901,517.724792 847.117126,522.525330 
	C846.912231,530.807861 848.300781,538.728638 851.636719,546.264648 
	C853.594971,550.688354 853.451294,555.405457 851.912109,559.429810 
	C848.092896,569.415833 845.360229,579.717285 842.081970,589.854248 
	C840.716980,594.074890 840.822998,598.714539 838.435120,602.680176 
	C833.333313,611.152710 830.834961,620.627380 828.148987,630.009888 
	C827.017517,633.962219 825.287231,637.865601 825.383057,642.020996 
	C825.464294,645.544678 824.378235,648.354370 821.587219,650.202148 
	C818.430054,652.292542 816.657593,654.845337 816.457825,658.703613 
	C816.386841,660.073730 815.579041,661.799377 814.529114,662.642822 
	C812.365295,664.381348 812.655457,666.618591 812.223206,668.892029 
	C810.506409,677.921021 815.434631,685.261963 817.639709,693.368591 
	C820.264526,703.018250 823.122070,713.474060 813.768799,721.927551 
	C812.489014,723.084229 811.936768,725.045776 810.747498,727.339417 
M638.998840,591.412354 
	C633.940491,587.711243 627.335449,588.835815 621.411682,586.520813 
	C627.839233,580.577454 632.428650,579.638733 638.343994,584.154907 
	C643.565186,588.141174 649.973755,588.728516 655.182922,591.881958 
	C655.594849,591.620728 655.810974,591.563232 655.862976,591.437683 
	C656.177429,590.679016 656.424377,589.891846 656.748413,589.137573 
	C661.252258,578.652954 667.593933,569.733154 677.850464,564.066956 
	C689.749390,557.493347 702.726807,552.201111 708.788025,538.207092 
	C714.884216,541.845215 719.700439,548.071716 727.468994,547.519226 
	C728.199951,545.984741 727.703247,545.278381 727.315674,544.548767 
	C726.497498,543.008789 724.655945,541.505066 726.370178,539.676147 
	C727.778015,538.174011 729.500549,539.439575 731.049133,539.853027 
	C732.011230,540.109924 732.942505,540.493835 733.871216,540.862183 
	C746.868835,546.017395 760.820251,547.737549 774.069824,552.031799 
	C779.962280,553.941528 785.239563,556.543213 788.864380,561.591919 
	C794.883972,569.976196 800.623413,578.561340 806.520508,587.034241 
	C808.524048,589.912903 810.540405,593.311646 814.658264,592.624695 
	C818.722778,591.946655 821.131348,588.900391 822.654358,585.113342 
	C826.444763,575.687988 831.044922,566.641907 835.824097,557.690857 
	C836.861755,555.747437 837.687744,553.851318 837.867554,551.618408 
	C838.479004,544.027649 837.646790,536.388855 838.188843,528.858459 
	C838.909119,518.851868 835.681152,510.454803 829.628723,503.085846 
	C818.513184,489.552460 809.190369,474.725677 798.549683,460.850372 
	C793.049316,453.677887 793.416626,451.503296 799.583679,444.818359 
	C803.693665,440.363129 804.782043,435.655701 802.366699,430.194214 
	C799.862061,424.530701 798.145630,418.677246 796.940552,412.592926 
	C795.357117,404.597900 791.780334,397.042084 786.281616,391.392242 
	C777.955994,382.837616 768.344727,375.531067 759.238464,367.742371 
	C757.723755,366.446808 756.007874,365.101074 753.827881,366.144043 
	C751.095825,367.451141 752.841614,369.563263 753.086548,371.378357 
	C753.813904,376.768768 751.394226,378.933105 746.299988,377.373322 
	C742.296936,376.147583 738.531616,374.348450 734.999023,372.132721 
	C730.052429,369.030121 724.851440,368.208801 719.210205,369.711395 
	C717.726257,370.106659 716.047791,371.106537 714.674622,369.409943 
	C714.372803,366.789642 717.601379,366.370300 718.010376,364.027252 
	C713.881226,361.617676 711.201721,364.189240 708.791870,366.610138 
	C706.297852,369.115570 702.981018,371.510620 704.972717,375.978088 
	C707.545166,381.748566 710.058289,387.545471 712.601990,393.328796 
	C717.586914,404.662170 717.172180,416.717499 707.066040,427.072968 
	C693.869995,440.594543 678.399353,450.858276 663.244385,461.694122 
	C657.245850,465.983093 656.838806,468.389252 662.246826,473.431610 
	C668.484436,479.247437 671.283447,486.454437 672.184265,494.618652 
	C672.685242,499.158905 671.533203,503.012543 667.723999,506.128113 
	C662.776184,510.175049 656.777649,512.565918 651.841064,516.459595 
	C645.443542,521.505676 638.916016,525.073303 630.331970,522.460449 
	C633.379211,525.435791 633.379211,525.435791 634.290466,528.152039 
	C620.350281,525.862732 616.377686,512.780151 607.920715,504.425873 
	C614.194580,505.777283 620.243713,505.054382 626.299866,504.404907 
	C627.947754,504.228180 629.616394,504.206329 631.276306,504.187042 
	C636.624207,504.124908 641.459290,503.332062 645.038940,498.493652 
	C649.171997,492.907379 652.819397,492.648193 658.053955,497.193604 
	C660.503906,499.321075 663.110046,500.906158 666.161499,501.907104 
	C668.984863,502.833221 670.081177,501.538422 669.673218,498.995087 
	C668.824707,493.705261 666.667664,488.796234 664.655823,483.877197 
	C664.025330,482.335480 662.507019,481.459991 660.635742,481.603363 
	C659.642883,484.616028 663.057251,487.181366 661.426575,490.290283 
	C660.864746,490.203796 660.166565,490.305481 659.961487,490.034241 
	C654.379944,482.653259 646.680725,477.473755 640.173889,471.049774 
	C630.223145,461.225739 619.233032,452.540070 608.131104,444.031952 
	C606.430054,442.728333 604.672607,442.254333 602.599854,443.472382 
	C597.776672,446.306732 595.728943,452.437317 597.968628,457.630249 
	C599.681946,461.602570 601.468750,465.548737 603.017761,469.585205 
	C607.029846,480.040009 605.126648,490.270508 597.951355,497.973022 
	C582.216919,514.863708 566.039795,531.714600 541.290894,535.437561 
	C545.443237,538.462219 550.632629,540.163696 552.694092,545.847046 
	C557.686218,559.610168 569.672485,566.599121 581.545593,572.847717 
	C586.596375,575.505859 591.015686,576.485046 588.746948,583.292236 
	C588.648254,583.588562 588.421326,583.842163 588.260010,584.106018 
	C586.988220,584.666504 585.947083,584.039917 584.995972,583.403076 
	C572.050720,574.735229 560.923096,564.048889 550.681335,552.388000 
	C550.248169,551.894775 549.842285,551.307434 549.639160,550.692688 
	C545.070312,536.861633 531.344055,532.143494 522.030151,522.927490 
	C526.460571,531.602173 529.245605,541.158936 536.665771,547.993042 
	C555.900208,565.708374 574.598022,583.979614 593.107239,602.445862 
	C594.864197,604.198792 597.589355,605.847046 597.563965,608.279297 
	C597.499573,614.450439 601.832275,615.248779 606.154846,616.782104 
	C613.120056,619.252930 618.470825,624.057556 623.528625,629.132263 
	C621.800537,631.734253 619.508789,631.001648 617.695740,631.618164 
	C615.900879,632.228516 613.224792,632.043030 613.427795,634.843689 
	C613.605286,637.293274 615.125122,639.175232 617.687317,639.801025 
	C619.492554,640.241882 621.411255,640.377808 623.081299,639.502686 
	C627.926453,636.963745 633.065674,634.810913 636.067444,629.746826 
	C637.297119,627.672424 639.215393,625.798401 641.706604,626.290833 
	C645.170715,626.975647 646.353149,625.014282 647.031555,622.503479 
	C648.070129,618.659668 649.288757,614.750427 649.495667,610.819763 
	C649.921814,602.723328 647.647400,595.684570 638.998840,591.412354 
M539.508484,456.942108 
	C545.288635,453.308075 551.061646,449.662598 556.853394,446.047241 
	C558.561768,444.980835 560.390625,444.186676 562.432861,443.996399 
	C580.847961,442.280731 595.118530,432.921722 606.333252,418.951294 
	C628.434875,391.418640 656.160400,371.607605 688.355530,357.752319 
	C696.287659,354.338715 704.207031,349.402313 713.352539,354.538910 
	C714.002380,354.903870 714.996704,354.746613 715.821472,354.691376 
	C718.019165,354.544159 720.985168,355.530151 721.531738,352.245605 
	C721.995972,349.456299 720.907776,346.888062 718.061096,345.686859 
	C712.179382,343.204987 707.111633,339.382233 701.721375,336.083771 
	C699.882141,334.958252 698.068298,333.080505 695.438538,334.175934 
	C694.785339,337.884003 697.456238,339.304962 699.597412,341.079315 
	C700.638184,341.941711 701.683289,342.936768 700.992126,344.468597 
	C700.346619,345.899170 698.965698,346.085785 697.589478,346.027283 
	C695.532288,345.939850 693.726379,345.065277 691.996887,344.040680 
	C686.251587,340.636780 682.058838,335.709503 678.698425,330.067352 
	C675.940613,325.437134 672.387268,321.579590 668.572876,317.797760 
	C661.750427,311.033630 652.939575,307.673737 644.712097,303.438721 
	C637.400879,299.675323 630.368103,294.056274 621.700684,294.520538 
	C613.124817,294.979980 604.294189,295.167206 596.083801,298.001801 
	C581.370667,303.081421 569.551453,313.054962 557.400330,322.311768 
	C552.553101,326.004456 548.997375,331.847717 543.735352,334.455170 
	C527.820740,342.341431 513.778381,352.442719 502.205139,365.828766 
	C495.806458,373.229767 489.828613,380.750549 488.846283,391.429749 
	C487.858917,402.163269 489.572449,412.647278 489.858521,423.243103 
	C490.018250,429.158478 490.016571,435.122192 492.328735,440.926025 
	C497.174744,453.089996 506.251465,462.373077 513.320007,473.013367 
	C515.279236,475.962646 517.374939,474.200043 519.165710,472.625397 
	C525.429565,467.117249 532.080933,462.118347 539.508484,456.942108 
M657.422424,383.939453 
	C652.292053,387.027557 647.062500,389.963806 642.051575,393.234955 
	C631.168823,400.339294 622.302612,409.510101 615.524597,420.575287 
	C612.872437,424.904907 610.807983,430.183624 613.980164,434.700073 
	C618.854065,441.639374 624.764526,447.987946 633.205078,450.696594 
	C637.035156,451.925720 640.761719,453.071960 644.124695,455.345398 
	C645.968628,456.591919 648.156372,457.206665 650.241089,455.854126 
	C653.891907,453.485504 658.179688,452.546265 661.963135,450.683594 
	C675.384399,444.076111 688.845703,437.332489 698.884949,425.679932 
	C704.966736,418.620789 709.936890,411.284912 703.837280,401.658325 
	C703.325867,400.851196 703.054321,399.773132 703.011841,398.806000 
	C702.520630,387.610504 695.569336,380.323059 687.796997,373.536041 
	C685.943481,371.917419 684.025513,371.141724 681.448242,372.420227 
	C673.712952,376.257477 665.874023,379.885986 657.422424,383.939453 
M571.702209,450.386383 
	C553.813416,457.421387 536.546692,465.507629 522.643494,479.308136 
	C518.338013,483.581818 518.199890,485.927673 521.617798,491.053955 
	C527.408630,499.739258 534.753418,507.510956 537.623779,517.934631 
	C538.030823,519.412659 539.492493,520.864929 537.150085,523.171997 
	C528.123169,513.301941 521.455139,501.875122 514.371094,490.148438 
	C510.726257,495.908630 511.207825,500.561310 514.860596,505.069061 
	C520.112305,511.549896 525.895996,517.547058 531.843750,523.366211 
	C537.919312,529.310486 549.712585,530.811218 556.301514,525.639465 
	C567.532471,516.823975 579.931763,509.356140 589.210144,498.175568 
	C594.646606,491.624603 596.440613,484.536316 593.113831,476.400543 
	C591.416138,472.248718 589.971741,467.989838 588.513916,463.744598 
	C587.199463,459.917053 585.362488,456.431702 582.650879,453.392944 
	C579.856873,450.261810 576.616638,448.776978 571.702209,450.386383 
M747.592407,566.916199 
	C747.513428,562.222229 745.030334,559.637756 740.864685,557.503113 
	C734.105225,554.039246 726.861633,555.260559 719.870361,554.304199 
	C708.845642,552.796143 700.721069,558.535828 693.609863,566.012390 
	C691.253052,568.490295 689.663696,571.703857 691.474854,575.128113 
	C693.304993,578.588135 695.067078,582.953491 699.894958,582.573181 
	C705.026550,582.168945 707.743042,584.744141 710.587891,588.358643 
	C713.356323,591.876282 715.255493,596.394897 719.795288,598.351746 
	C723.060364,595.509827 720.774292,591.160034 722.882141,587.999023 
	C725.207947,590.085938 726.046692,592.293030 726.284851,594.898376 
	C726.597229,598.315125 728.498352,601.585327 731.625549,601.996704 
	C741.348450,603.275696 748.261536,608.908569 754.910278,615.295776 
	C756.608276,616.927063 758.522339,618.333252 760.336670,619.842468 
	C761.045288,612.398315 755.206116,608.365295 752.280945,602.444885 
	C755.868408,601.943420 759.152039,603.869141 761.443787,600.790466 
	C760.977356,597.938171 758.287231,597.029053 756.756104,595.170654 
	C755.170166,593.245605 752.447937,591.954529 752.768005,588.568726 
	C757.006592,587.652588 759.857544,592.229553 764.674133,591.179443 
	C759.626404,587.134949 761.734070,585.161560 766.251709,584.190979 
	C765.128418,580.823120 760.554810,580.791992 760.227844,577.187012 
	C763.321716,574.787781 766.374146,579.071472 769.276306,576.973755 
	C766.312744,568.032288 757.435181,561.196289 748.754883,561.269470 
	C749.996521,566.311951 753.423462,570.699158 753.334473,576.802734 
	C748.075073,575.308533 748.184631,571.324646 747.592407,566.916199 
M777.094910,362.419128 
	C773.235657,358.902557 768.761841,356.339966 764.084839,354.112152 
	C753.364563,349.005646 740.131165,355.338196 736.857788,367.235901 
	C740.750183,369.602142 744.674072,371.987518 749.126709,374.694336 
	C748.999512,371.819794 748.716797,369.543579 748.830566,367.287354 
	C749.319336,357.594452 757.071167,353.309540 765.020813,358.496277 
	C771.659851,362.827942 776.915100,368.588409 780.856750,375.518524 
	C781.747864,377.085266 782.069519,379.289276 784.727783,379.742584 
	C785.101074,372.711975 783.369934,366.960541 777.094910,362.419128 
M469.665955,422.678955 
	C468.316284,418.761414 466.672913,414.910095 468.796539,410.683105 
	C469.620056,409.043945 471.357422,407.130707 469.138855,405.359344 
	C466.481232,403.237457 463.995392,400.139343 460.002136,401.570190 
	C457.325836,402.529144 454.858185,404.870789 456.685669,407.652557 
	C461.066528,414.320923 462.608826,422.007843 465.581055,429.165558 
	C467.903259,434.757812 472.348145,438.678101 478.183685,440.919373 
	C475.337891,435.017853 471.262634,429.883087 469.665955,422.678955 
M456.586090,394.402344 
	C461.289337,395.892853 462.397583,391.875366 464.188477,389.230591 
	C467.049377,385.005646 468.377625,380.486786 465.012604,375.824127 
	C463.852478,374.216644 462.488342,372.176086 460.332367,372.721222 
	C458.077728,373.291229 457.207214,375.515717 457.157501,377.845642 
	C457.111084,380.020325 457.253845,382.413818 455.904449,384.104492 
	C453.111542,387.603821 453.727203,390.697357 456.586090,394.402344 
M665.258362,599.334229 
	C665.106567,600.642456 665.296143,602.250610 664.004028,602.957031 
	C659.338867,605.507263 662.314880,608.293884 663.264587,611.280334 
	C670.920593,606.209351 672.695435,598.044800 667.564453,592.846924 
	C665.784851,595.363892 665.784851,595.363892 665.258362,599.334229 
z"/>
<path fill="#000000" opacity="1.000000" stroke="none" 
	d="
M629.657349,866.007690 
	C647.248413,872.077881 665.701904,869.198181 683.070923,873.775757 
	C697.184998,877.495483 711.308533,881.180359 725.447571,884.803650 
	C735.300781,887.328552 743.871521,882.859497 747.599182,873.534119 
	C748.381836,871.576294 748.347778,867.843506 751.348145,868.742737 
	C754.534607,869.697693 753.384460,873.356079 752.892700,875.785522 
	C751.014282,885.064148 741.601257,892.454224 731.518677,893.220520 
	C722.186951,893.929749 713.698547,890.641663 705.455994,887.290833 
	C692.583435,882.057800 678.977600,881.375183 665.572632,879.312256 
	C660.873291,878.588989 660.349670,883.098022 657.204163,885.478577 
	C664.159851,888.928467 671.117859,889.632385 677.647827,891.651123 
	C686.246399,894.309326 695.094177,896.347290 701.371704,903.533203 
	C702.783142,905.148926 704.158447,906.881958 705.136169,908.774963 
	C708.280396,914.862427 706.968689,916.815735 699.364075,917.153320 
	C699.672791,913.228333 699.979126,909.229370 697.094055,905.987122 
	C693.414185,901.851746 688.608765,899.740601 683.443054,898.141418 
	C665.330811,892.533997 646.911377,888.079163 628.600769,883.206055 
	C618.018066,880.389465 607.970886,875.746704 597.308411,873.022400 
	C589.744507,871.089844 582.226196,868.951172 574.773010,866.630127 
	C572.615173,865.958130 569.759949,865.934509 568.339966,862.401367 
	C575.239380,860.183533 582.017517,860.434143 588.609070,861.499512 
	C602.081909,863.677246 615.722168,864.132446 629.657349,866.007690 
z"/>
<path fill="#000000" opacity="1.000000" stroke="none" 
	d="
M636.953857,806.060608 
	C646.918518,810.107849 657.088928,812.503845 667.188965,813.778992 
	C686.727234,816.245728 703.577393,826.280762 722.080017,831.510071 
	C732.076355,834.335388 735.200317,833.432678 740.771667,824.761719 
	C740.951721,824.481384 741.139160,824.205811 741.318054,823.924805 
	C745.804932,816.877075 749.496033,816.744263 754.871033,823.177429 
	C757.845642,826.737549 757.673950,830.070129 754.952881,833.537231 
	C752.189880,837.057617 748.277527,838.206848 744.090210,839.030640 
	C729.166931,841.966553 715.462769,838.725525 702.185669,831.757446 
	C695.592651,828.297241 688.482666,825.778320 681.493591,823.131897 
	C676.790649,821.351135 674.797424,823.436096 674.171753,830.219727 
	C673.873230,830.338989 673.425842,830.642944 673.294250,830.540649 
	C669.870605,827.879089 666.111755,827.917786 661.886292,827.957153 
	C655.961731,828.012329 650.050354,826.475464 644.326965,824.503113 
	C637.363831,822.103577 630.195923,820.761597 622.743958,821.104919 
	C617.388062,821.351624 612.070007,820.549194 606.937988,819.083496 
	C602.074036,817.694214 597.224243,816.935059 592.166199,817.235352 
	C585.529480,817.629272 581.154297,813.007812 575.922241,810.140259 
	C578.794373,808.399170 581.690552,809.067810 584.194519,809.523804 
	C594.846252,811.463684 605.706543,809.316284 616.359802,811.683411 
	C621.872803,812.908386 627.234863,811.039185 631.923157,807.699036 
	C633.293030,806.723083 634.827515,806.068359 636.953857,806.060608 
M746.629822,828.002869 
	C745.938538,829.163818 744.092590,829.703491 744.627441,831.573792 
	C750.062744,831.268066 751.028320,830.212158 749.914185,825.861816 
	C748.523438,825.657104 747.892029,826.754395 746.629822,828.002869 
z"/>
<path fill="#000000" opacity="1.000000" stroke="none" 
	d="
M748.679688,766.914307 
	C750.431458,765.786133 750.862976,763.397888 753.174072,763.670776 
	C754.914246,769.443359 751.795898,773.976196 745.725220,773.963623 
	C739.909424,773.951538 733.920959,774.069763 728.322266,772.774109 
	C720.700134,771.010315 714.365601,772.617126 708.942993,777.724548 
	C704.345581,782.054871 700.302490,782.621521 693.995667,780.321838 
	C685.213623,777.119568 675.768677,775.707031 666.795593,772.597900 
	C661.728638,770.842285 656.707275,769.175476 652.173950,766.390503 
	C643.910400,761.314148 635.025696,758.400452 625.361328,757.818726 
	C619.416626,757.460754 614.005798,760.092957 608.262573,760.897522 
	C604.655640,761.402832 601.098206,762.253357 597.504150,762.863892 
	C596.183716,763.088257 594.814270,763.089172 593.931702,761.637390 
	C593.925537,759.284302 595.916809,758.705811 597.508850,758.087708 
	C606.208435,754.710022 615.030640,751.443176 624.341736,750.541321 
	C631.217773,749.875366 637.695740,752.834473 644.219604,754.766235 
	C646.291260,755.379639 648.328125,756.110962 650.377502,756.798645 
	C653.408142,757.815430 655.668701,757.471375 657.431519,754.240356 
	C659.414185,750.606262 662.895996,748.781860 667.098633,749.444702 
	C670.946838,750.051636 672.394043,753.150513 673.200256,756.556213 
	C674.610107,762.512024 678.413025,766.013550 684.209778,767.621033 
	C686.933960,768.376526 689.591797,769.367920 692.297424,770.194214 
	C700.975342,772.844360 708.529114,768.945557 711.592163,760.256165 
	C712.182678,758.580933 712.292175,756.594421 715.043884,755.717896 
	C716.856812,760.501587 719.017212,765.440613 724.818115,766.446045 
	C732.615417,767.797729 740.436523,770.036133 748.679688,766.914307 
z"/>
<path fill="#000000" opacity="1.000000" stroke="none" 
	d="
M722.880371,646.208618 
	C726.447693,646.770081 729.691956,647.132874 732.730774,646.304443 
	C738.056091,644.852783 742.597168,647.184265 746.840088,649.344910 
	C751.852478,651.897461 756.854614,653.719421 762.439453,653.912292 
	C766.001038,654.035339 769.409851,654.701294 772.367859,656.768433 
	C773.696716,657.697021 775.326782,658.864685 774.372864,660.805298 
	C773.546326,662.487000 771.815857,661.968567 770.353577,661.672302 
	C761.542297,659.886536 752.807861,657.805664 744.500183,654.281860 
	C741.047119,652.817261 737.670837,652.294434 733.844849,652.870483 
	C727.077209,653.889160 720.231750,653.925781 713.580017,651.787354 
	C712.036377,651.291077 709.955566,650.938904 710.258850,648.756042 
	C710.577148,646.465210 712.586670,646.025085 714.508240,646.413391 
	C717.210999,646.959534 719.805237,646.057678 722.880371,646.208618 
z"/>
<path fill="#000000" opacity="1.000000" stroke="none" 
	d="
M663.576721,650.414307 
	C665.274658,649.919983 666.558777,649.471985 664.976501,647.726746 
	C663.773132,646.399414 662.498291,645.065186 662.654419,643.010803 
	C669.823608,643.377869 674.289917,639.059448 674.726685,631.613159 
	C674.835754,629.753967 674.063843,627.538025 676.415161,626.343018 
	C678.700928,626.902222 678.706177,628.913574 679.306946,630.584045 
	C681.199402,635.845947 681.487793,641.286438 681.201538,646.787720 
	C680.985596,650.938232 678.625793,653.645813 674.834351,654.826355 
	C670.393982,656.209045 665.633118,657.693604 661.522522,654.283447 
	C658.534607,651.804626 660.510010,650.746948 663.576721,650.414307 
z"/>
<path fill="#000000" opacity="1.000000" stroke="none" 
	d="
M749.395142,783.474976 
	C751.099548,784.495056 752.857605,784.915039 753.596069,788.174866 
	C741.170227,785.483337 728.574036,787.521301 717.174133,780.890137 
	C719.106018,777.788391 722.611328,778.351624 725.521729,779.228699 
	C730.254822,780.654968 734.858337,781.277893 739.747864,780.392090 
	C743.252258,779.757141 746.151245,781.708923 749.395142,783.474976 
z"/>
<path fill="#000000" opacity="1.000000" stroke="none" 
	d="
M702.767944,636.541504 
	C698.057495,634.967590 696.847900,632.888306 697.514404,627.722473 
	C703.979492,629.673767 709.527039,624.549438 717.146667,625.298462 
	C712.613220,630.209412 709.181030,634.864563 702.767944,636.541504 
z"/>
<path fill="#000000" opacity="1.000000" stroke="none" 
	d="
M760.709229,861.108337 
	C769.297607,863.540894 778.188965,863.917114 785.119141,869.968079 
	C774.581360,869.002258 764.651367,865.795105 754.077087,862.831360 
	C756.349976,860.196472 758.441895,861.252686 760.709229,861.108337 
z"/>
<path fill="#000000" opacity="1.000000" stroke="none" 
	d="
M725.394409,849.511475 
	C727.655579,850.771912 730.221802,850.931580 731.347229,853.316650 
	C726.512268,856.028442 714.579163,851.445068 708.540710,844.653748 
	C711.835815,843.110046 711.835815,843.110046 725.394409,849.511475 
z"/>
<path fill="#000000" opacity="1.000000" stroke="none" 
	d="
M789.954224,818.134460 
	C789.758789,813.618286 789.661621,809.497986 789.622559,805.377136 
	C789.608337,803.874207 789.667114,802.233398 791.454895,801.719727 
	C793.662170,801.085571 794.221313,802.979187 794.995361,804.381714 
	C796.575317,807.244568 795.154358,816.616394 792.872559,818.861877 
	C791.758484,819.958252 790.877869,819.735596 789.954224,818.134460 
z"/>
<path fill="#000000" opacity="1.000000" stroke="none" 
	d="
M754.029785,805.363647 
	C749.622009,801.066650 743.873901,801.978210 738.895752,800.514099 
	C737.053467,799.972229 734.846802,800.328247 733.975830,797.969604 
	C738.937988,794.342896 752.357849,797.454285 754.926514,802.827637 
	C755.377197,803.770508 756.312988,805.004761 754.029785,805.363647 
z"/>
<path fill="#000000" opacity="1.000000" stroke="none" 
	d="
M671.489990,926.616028 
	C674.124634,928.061584 672.920166,929.290771 671.441223,929.841064 
	C667.424255,931.335571 663.210266,932.100525 658.914612,932.189636 
	C657.581116,932.217346 656.120361,931.867798 655.992554,930.180664 
	C655.867920,928.535461 657.234802,927.969910 658.526917,927.622314 
	C662.661316,926.510010 666.796814,925.257141 671.489990,926.616028 
z"/>
<path fill="#000000" opacity="1.000000" stroke="none" 
	d="
M783.194458,683.714417 
	C783.722351,685.711182 782.693848,686.032166 781.373596,686.045349 
	C776.964844,686.089233 768.550598,680.190063 766.411133,675.101685 
	C773.386719,675.623657 777.901184,680.168152 783.194458,683.714417 
z"/>
<path fill="#000000" opacity="1.000000" stroke="none" 
	d="
M648.835632,653.085999 
	C647.640625,649.868347 646.557068,647.014404 645.473511,644.160522 
	C651.290161,647.836243 651.042969,655.632996 657.298645,659.077881 
	C652.837769,660.624146 651.324341,659.476318 648.835632,653.085999 
z"/>
<path fill="#000000" opacity="1.000000" stroke="none" 
	d="
M736.335083,630.225403 
	C738.210815,631.002319 739.888062,631.470093 740.093384,633.527100 
	C736.310730,635.321350 729.482910,633.640381 726.617004,630.053406 
	C729.801086,627.684204 732.902039,629.300415 736.335083,630.225403 
z"/>
<path fill="#000000" opacity="1.000000" stroke="none" 
	d="
M769.280029,504.311584 
	C762.990662,508.690002 757.035828,512.918640 751.010742,517.044556 
	C745.852295,520.577026 740.877136,525.196960 734.061951,520.096252 
	C732.884460,519.214966 731.183899,520.942383 729.566101,519.944641 
	C728.113098,518.168396 728.352478,515.775330 728.877319,513.867493 
	C732.173767,501.884491 737.699097,491.225403 748.079834,483.716583 
	C749.812622,482.463165 751.785645,482.386444 753.827087,482.660645 
	C760.876099,483.607422 766.580383,489.743805 766.923157,497.055481 
	C767.005554,498.814911 767.445618,499.788635 769.127319,500.419098 
	C771.392151,501.268219 771.309387,502.650024 769.280029,504.311584 
M736.989136,507.560730 
	C735.382080,508.214233 735.427185,509.145020 736.715515,510.025452 
	C738.275757,511.091614 739.588623,513.070557 741.885071,512.108582 
	C743.396851,511.475311 745.069702,510.566528 744.560059,508.525269 
	C744.072815,506.573822 742.562927,506.844086 740.976318,507.293854 
	C739.912842,507.595306 738.725952,507.461060 736.989136,507.560730 
z"/>
<path fill="#000000" opacity="1.000000" stroke="none" 
	d="
M651.277893,575.380249 
	C647.906250,572.752808 647.876160,569.680481 647.480103,565.806030 
	C646.337219,554.625671 652.177429,544.967407 652.806885,534.314209 
	C652.942810,532.012756 654.193359,529.932251 656.356689,529.317505 
	C658.482727,528.713379 659.296631,531.020020 660.373962,532.421204 
	C668.193848,542.591492 665.814819,552.570251 659.712463,562.415344 
	C657.168213,566.520020 652.958740,569.718506 652.893311,575.167603 
	C652.891846,575.291809 652.036865,575.405884 651.277893,575.380249 
z"/>
<path fill="#000000" opacity="1.000000" stroke="none" 
	d="
M748.525757,389.470398 
	C744.964050,385.668884 740.105652,383.636169 737.238098,378.361816 
	C742.173218,378.511963 745.332642,380.952698 748.085632,383.215179 
	C753.297119,387.498077 759.135376,389.706116 765.595154,391.094208 
	C772.775574,392.637115 778.440857,396.379028 781.207214,403.669189 
	C782.329590,406.626984 781.519897,408.864105 779.337952,410.792206 
	C777.176147,412.702484 774.933411,411.929840 772.904358,410.587952 
	C763.964905,404.676147 756.565674,396.969482 748.525757,389.470398 
z"/>
<path fill="#000000" opacity="1.000000" stroke="none" 
	d="
M601.112244,571.679443 
	C593.225525,568.770325 587.768982,563.894470 584.487427,556.361755 
	C582.336792,551.424988 577.472534,548.943787 573.266113,545.987732 
	C570.307312,543.908447 567.224609,541.988342 566.001953,537.978394 
	C570.716248,539.237915 574.781250,541.817017 578.482422,544.806702 
	C581.704895,547.409790 584.994080,550.226318 587.309448,553.597168 
	C592.796814,561.586304 601.190491,565.312988 609.190247,569.683960 
	C612.968689,571.748352 617.155212,571.819519 621.361084,571.771667 
	C623.919373,571.742554 626.640076,571.225586 629.877441,573.407349 
	C626.073914,576.638733 622.221130,578.117432 617.925781,578.259216 
	C612.911682,578.424744 607.997253,578.568848 603.280518,580.729858 
	C600.877930,581.830627 598.369568,581.389709 596.810913,578.751282 
	C597.342773,576.371033 599.468750,576.473877 601.084351,575.855835 
	C604.020142,574.732910 603.955688,573.401245 601.112244,571.679443 
z"/>
<path fill="#000000" opacity="1.000000" stroke="none" 
	d="
M643.268677,535.898682 
	C646.471497,539.409668 644.839233,542.829590 643.578613,546.399292 
	C639.520935,543.771118 639.385742,540.510742 643.268677,535.898682 
z"/>
<path fill="#000000" opacity="1.000000" stroke="none" 
	d="
M635.728882,541.920410 
	C635.977783,543.950500 636.512512,545.789185 634.511047,546.916504 
	C631.996582,543.287415 632.281128,541.965149 635.728882,541.920410 
z"/>
<path fill="#000000" opacity="1.000000" stroke="none" 
	d="
M550.185974,441.154144 
	C535.362549,440.292480 524.683899,445.337952 520.408325,460.369812 
	C517.739746,457.157227 517.636597,447.731262 520.577087,443.895111 
	C526.035950,436.773285 532.005432,430.048401 539.876892,425.382782 
	C540.445984,425.045502 541.050293,424.737213 541.676392,424.532471 
	C543.730896,423.860626 546.013977,422.886536 547.810669,424.580048 
	C549.682495,426.344299 546.604675,427.690826 546.838379,429.381287 
	C550.711060,434.799957 555.890625,434.050079 561.250244,432.663239 
	C565.364929,431.598541 569.484680,430.981262 573.576416,433.511963 
	C566.580505,438.236145 558.946777,440.720795 550.185974,441.154144 
z"/>
<path fill="#000000" opacity="1.000000" stroke="none" 
	d="
M633.362488,374.337402 
	C626.170898,385.045807 618.874695,395.211243 609.426514,405.371643 
	C608.653259,401.164764 608.552490,398.573334 604.935974,397.323669 
	C601.903137,396.275635 601.871155,388.672729 604.498169,385.197693 
	C609.871460,378.089844 617.630249,374.057281 625.141052,369.765533 
	C626.858704,368.784058 628.796936,368.159058 630.680969,367.506836 
	C632.426147,366.902710 634.462097,366.269989 635.807800,367.930603 
	C637.146057,369.581940 635.471558,370.990448 634.666809,372.377838 
	C634.333130,372.953033 633.938293,373.492767 633.362488,374.337402 
z"/>
<path fill="#000000" opacity="1.000000" stroke="none" 
	d="
M638.640625,434.617188 
	C643.748901,433.289185 648.486511,432.661652 653.362000,432.828003 
	C654.965332,432.882690 656.734680,432.513092 658.187805,431.827911 
	C669.524963,426.482544 678.532898,418.683746 683.503784,406.883911 
	C685.094727,403.107361 687.661682,400.087677 690.374146,397.161346 
	C691.659790,395.774353 693.341675,394.730713 695.253235,395.943115 
	C697.317505,397.252350 697.312195,399.240204 696.315613,401.226227 
	C695.571777,402.708405 694.750671,404.178040 693.770447,405.510864 
	C688.828613,412.230316 684.700745,419.308380 681.366882,427.049133 
	C675.722534,440.154633 664.247437,445.672668 650.136230,443.263245 
	C647.513000,442.815338 644.809998,441.852966 642.258362,442.141479 
	C632.356567,443.260986 625.581482,437.969299 619.076843,431.714691 
	C616.329285,429.072723 615.787109,426.740967 619.260437,424.457275 
	C622.315613,422.448425 623.983276,419.395844 625.771667,416.380585 
	C627.073364,414.185791 628.099609,411.635590 630.972473,410.699738 
	C632.955933,420.324921 629.403076,425.605988 619.197205,427.644012 
	C625.512878,431.198761 630.691284,435.904205 638.640625,434.617188 
z"/>
<path fill="#000000" opacity="1.000000" stroke="none" 
	d="
M637.227051,412.363953 
	C643.579712,402.999634 651.442017,396.143707 662.047058,392.729218 
	C670.197205,390.105164 674.829041,391.443909 680.959290,398.528259 
	C677.714844,402.690735 673.624268,404.274963 667.901001,402.264099 
	C669.799133,410.430817 665.216797,414.761749 659.352905,417.534058 
	C652.732117,420.664215 651.013306,413.539032 646.895081,409.979797 
	C641.507629,418.055725 638.747559,428.511169 627.106689,430.280701 
	C629.588074,423.895905 635.013062,419.207489 637.227051,412.363953 
z"/>
<path fill="#000000" opacity="1.000000" stroke="none" 
	d="
M579.389038,460.712219 
	C575.153625,467.137207 573.059998,474.496033 567.237671,479.627075 
	C562.013062,484.231384 559.837769,484.288544 555.743896,478.613556 
	C554.709717,477.179932 554.107544,475.328918 551.982361,474.536835 
	C549.714600,476.153687 549.107666,478.384308 549.451294,481.003540 
	C549.666626,482.645081 550.047974,484.271271 550.162598,485.917725 
	C550.277710,487.571869 550.373657,489.520203 548.492798,490.222046 
	C546.579834,490.935822 544.880127,489.951660 543.720825,488.384125 
	C541.409180,485.258209 539.001953,481.849091 541.332275,477.915405 
	C548.519470,465.782959 558.340271,456.219147 573.956421,457.826721 
	C575.985229,458.035583 578.434082,457.726044 579.389038,460.712219 
z"/>
<path fill="#000000" opacity="1.000000" stroke="none" 
	d="
M546.466431,497.300629 
	C556.555786,490.369171 567.540039,485.537964 576.995300,477.583374 
	C578.221191,480.500610 576.707214,481.789948 575.505798,482.955048 
	C567.518311,490.701263 557.647522,495.616516 548.070984,500.956299 
	C546.736389,501.700500 544.979248,502.022217 544.045959,500.416351 
	C542.815552,498.299103 544.830200,498.011597 546.466431,497.300629 
z"/>
<path fill="#000000" opacity="1.000000" stroke="none" 
	d="
M731.838562,573.058777 
	C727.421692,569.678406 721.751770,569.118713 717.567200,565.161865 
	C725.514893,562.730774 735.730896,568.836365 738.114258,577.182495 
	C735.104187,577.201294 734.055481,574.497986 731.838562,573.058777 
z"/>
<path fill="#000000" opacity="1.000000" stroke="none" 
	d="
M716.068481,580.052063 
	C718.395325,581.148193 719.968140,582.406006 719.688049,585.284546 
	C715.853271,585.604675 714.266418,582.637512 711.901428,580.936096 
	C712.897827,578.605774 714.452393,579.880676 716.068481,580.052063 
z"/>
</svg>