<?xml version="1.0" standalone="no"?>
<!DOCTYPE svg PUBLIC "-//W3C//DTD SVG 20010904//EN"
 "http://www.w3.org/TR/2001/REC-SVG-20010904/DTD/svg10.dtd">
<svg version="1.0" xmlns="http://www.w3.org/2000/svg"
 width="2900.000000pt" height="2900.000000pt" viewBox="0 0 2900.000000 2900.000000"
 preserveAspectRatio="xMidYMid meet">

<g transform="translate(0.000000,2900.000000) scale(0.100000,-0.100000)"
fill="#000000" stroke="none">
<path d="M13835 27299 c-3184 -137 -6195 -1460 -8445 -3709 -2660 -2661 -3999
-6349 -3669 -10105 168 -1912 773 -3766 1771 -5430 1059 -1764 2564 -3267
4339 -4332 2485 -1492 5372 -2085 8259 -1697 444 60 858 139 1334 255 91 22
184 39 217 39 46 0 59 3 63 18 9 26 153 63 241 61 44 -1 70 2 73 10 2 6 17 11
33 11 16 0 40 6 52 14 12 8 46 19 76 26 34 8 64 22 78 38 20 22 34 26 109 31
l85 6 -53 37 c-313 219 -337 230 -598 267 -248 36 -345 52 -408 66 -50 11 -84
11 -159 3 -128 -14 -188 -1 -338 71 -142 69 -235 101 -290 101 -22 0 -80 9
-129 20 -50 11 -106 20 -126 20 -20 0 -66 8 -101 19 -75 22 -211 41 -292 41
-49 0 -158 -28 -175 -45 -13 -12 36 -47 87 -61 31 -9 63 -22 71 -29 8 -8 29
-17 45 -20 17 -4 46 -17 65 -30 19 -12 48 -30 63 -39 47 -29 69 -73 64 -134
-3 -49 -8 -58 -50 -97 -26 -24 -47 -50 -47 -59 0 -10 -12 -16 -37 -18 -33 -3
-38 -6 -35 -25 2 -18 -4 -24 -34 -32 -39 -11 -114 -58 -114 -72 0 -19 57 -21
124 -5 81 18 86 19 104 7 11 -7 10 -15 -7 -46 -11 -20 -17 -43 -15 -50 3 -7
-2 -53 -11 -101 -24 -130 -20 -128 -268 -132 -182 -3 -200 -2 -212 15 -13 17
-49 18 -775 14 -759 -3 -761 -3 -783 17 -22 21 -30 21 -680 24 -725 3 -667 -2
-687 68 -6 21 -10 260 -10 604 l-1 570 34 35 c18 20 45 52 59 71 75 102 165
168 260 190 113 27 207 64 382 149 184 91 269 128 341 151 83 26 306 125 399
177 12 6 44 17 71 23 172 41 191 49 288 121 138 104 267 243 267 289 0 9 29
73 64 141 43 84 74 161 95 239 18 63 47 162 66 220 55 171 75 339 81 675 2
160 9 322 15 360 16 100 60 172 202 327 292 319 349 399 411 573 18 50 47 119
66 154 47 88 215 260 354 365 61 45 143 111 181 146 99 89 715 702 715 712 0
4 18 27 40 49 22 23 40 45 40 50 0 4 -13 15 -29 25 -56 33 -105 168 -117 319
-13 162 -20 144 117 340 84 121 132 208 148 270 42 167 102 272 183 321 18 11
48 55 48 71 0 6 -24 19 -53 27 -61 18 -81 44 -63 83 15 32 63 45 135 37 56 -6
64 -4 95 20 44 33 124 154 211 317 85 160 157 250 390 484 111 111 147 142
198 173 15 9 27 19 27 23 0 4 19 17 43 28 23 12 76 48 117 82 102 83 204 149
230 149 12 0 41 12 64 28 22 15 59 33 81 41 48 16 143 94 156 127 5 14 17 24
27 24 24 0 52 31 52 57 0 12 -9 74 -20 139 -11 65 -22 164 -25 219 -7 154 -14
206 -35 250 -11 22 -22 66 -25 98 -7 62 -19 67 -29 12 -8 -43 -21 -51 -53 -34
-21 11 -24 18 -19 44 4 16 15 42 26 57 11 15 20 33 20 41 0 17 23 44 150 177
91 96 97 100 138 100 66 0 113 -50 191 -204 62 -122 64 -128 53 -165 -17 -56
-15 -98 13 -213 14 -57 25 -128 25 -158 0 -99 51 -255 107 -328 14 -19 48 -44
77 -57 45 -20 68 -23 196 -23 170 -1 369 -28 558 -78 52 -13 146 -31 210 -39
136 -18 214 -44 359 -122 120 -63 379 -229 500 -318 108 -80 269 -246 354
-365 18 -25 39 -52 48 -61 9 -9 27 -35 41 -58 14 -23 39 -61 55 -84 17 -23 44
-71 62 -107 97 -202 112 -225 197 -323 49 -56 123 -138 165 -183 129 -137 200
-219 256 -299 11 -15 27 -35 35 -44 26 -28 57 -101 97 -226 34 -109 38 -130
38 -230 0 -103 -2 -114 -32 -177 -18 -38 -42 -83 -55 -100 -13 -18 -28 -40
-33 -49 -6 -9 -32 -50 -59 -90 -107 -159 -196 -355 -196 -429 0 -21 -9 -85
-20 -142 -16 -88 -20 -160 -24 -493 -2 -214 -9 -462 -16 -550 -22 -292 -8
-398 80 -605 17 -41 38 -95 47 -120 9 -25 20 -49 24 -55 5 -5 9 -15 9 -23 0
-7 9 -33 20 -57 27 -60 36 -194 17 -260 -20 -67 -45 -136 -57 -157 -5 -9 -14
-56 -20 -105 -6 -48 -18 -127 -26 -175 -18 -99 -20 -353 -4 -519 6 -57 8 -142
5 -189 -3 -51 0 -111 7 -149 l13 -65 32 32 c17 18 34 32 38 32 3 0 20 13 37
29 32 30 32 30 36 150 l4 120 167 148 c331 295 819 797 1132 1163 1700 1990
2735 4422 2994 7035 49 499 70 1304 46 1797 -104 2139 -711 4149 -1806 5973
-1225 2042 -3023 3713 -5155 4789 -1793 906 -3776 1374 -5775 1364 -170 0
-391 -5 -490 -9z m1185 -1609 c849 -56 1611 -185 2385 -405 2856 -809 5284
-2748 6707 -5355 746 -1367 1192 -2856 1323 -4420 38 -456 45 -1201 15 -1605
-40 -549 -98 -982 -195 -1470 -312 -1562 -958 -3043 -1892 -4333 -181 -250
-507 -662 -525 -662 -4 0 -8 170 -8 379 l0 379 25 16 c24 15 25 22 25 104 0
75 3 90 20 105 11 9 20 27 20 40 0 13 9 32 20 42 11 10 20 28 20 39 0 14 36
58 100 121 l100 100 -1 267 c-2 247 -3 269 -20 284 -11 10 -19 30 -19 45 0 18
-7 32 -20 39 -17 9 -20 21 -20 76 l0 66 -60 60 -60 59 0 294 0 295 28 6 c49
10 52 13 52 43 0 20 7 34 20 41 18 9 20 21 20 96 0 81 1 87 29 115 16 16 39
29 50 29 13 0 49 28 91 72 l70 72 0 123 c0 111 2 125 20 140 16 14 20 30 20
85 0 57 3 70 20 80 15 10 20 24 20 59 0 33 6 51 20 64 14 13 20 31 20 62 0 31
6 48 20 60 16 14 20 30 20 80 0 55 3 66 25 85 20 17 25 31 25 67 0 35 5 49 20
59 11 7 20 23 20 36 0 12 9 31 20 41 11 10 20 30 20 44 0 15 8 31 20 39 13 8
20 23 20 42 0 19 7 33 20 40 13 7 20 21 20 40 0 19 7 33 20 40 16 8 20 21 20
60 0 39 4 52 20 60 18 9 20 21 20 99 0 75 3 91 20 106 16 14 20 31 20 80 0 53
4 65 25 85 22 21 25 32 25 92 0 66 1 68 28 74 15 3 33 7 40 10 8 2 12 26 12
73 0 60 3 72 20 81 18 9 20 21 20 99 0 75 3 91 20 106 11 10 20 28 20 40 0 12
9 30 20 40 11 10 20 29 20 41 0 13 9 29 20 36 19 12 20 24 20 170 0 148 -1
157 -20 163 -14 4 -20 15 -20 36 0 18 -7 33 -20 41 -15 10 -20 24 -20 59 0 33
-6 51 -20 64 -17 15 -20 31 -20 106 0 78 -2 90 -20 99 -19 10 -20 21 -20 345
0 324 -1 335 -20 347 -14 9 -20 24 -20 46 0 25 -5 35 -20 39 -16 4 -20 14 -20
51 0 38 -5 52 -32 79 -18 18 -42 33 -54 33 -15 0 -65 43 -153 131 -126 127
-131 133 -131 173 0 47 -13 66 -46 66 -28 0 -123 97 -124 126 0 11 -9 29 -20
39 -11 10 -20 28 -20 40 0 11 -18 38 -40 60 l-40 39 0 104 c0 100 -1 104 -28
132 -16 16 -42 30 -58 32 -27 3 -29 6 -32 52 -4 57 -40 102 -88 108 -27 3 -29
6 -32 54 -2 40 1 54 18 69 11 10 20 29 20 42 0 15 15 37 40 60 l40 37 0 148
c0 137 -1 149 -20 160 -17 11 -20 24 -20 79 0 53 -4 69 -20 84 -18 16 -20 31
-20 146 0 118 -2 129 -20 139 -19 10 -20 21 -20 200 l0 188 -65 64 -65 64 0
65 c0 53 -3 66 -20 77 -17 10 -20 23 -20 80 0 55 -4 71 -20 85 -14 12 -20 29
-20 60 0 31 -6 49 -20 62 -14 13 -20 31 -20 60 0 29 -6 47 -20 60 -11 10 -20
28 -20 40 0 12 -9 30 -20 40 -11 10 -20 31 -20 46 0 23 -5 30 -27 35 -16 3
-34 7 -40 10 -10 2 -13 46 -13 174 0 128 -3 172 -12 174 -7 3 -25 7 -40 10
-22 5 -28 12 -28 34 0 36 -57 92 -93 92 -21 0 -28 6 -33 28 -10 48 -13 52 -38
52 -13 0 -38 13 -54 28 -25 23 -31 38 -34 78 l-3 49 -50 3 c-43 3 -54 8 -86
43 -21 23 -45 39 -58 39 -13 0 -36 14 -52 31 -22 24 -29 41 -29 73 0 33 -6 47
-34 74 -19 18 -44 32 -57 32 -13 0 -30 9 -37 20 -11 19 -25 20 -309 22 l-298
3 -3 32 c-2 20 -11 37 -23 43 -15 8 -19 21 -19 60 0 39 -4 53 -20 62 -12 8
-20 24 -20 38 0 17 -13 38 -40 63 -35 32 -40 42 -40 80 0 48 -11 63 -50 69
-18 2 -26 10 -28 29 -2 15 -12 35 -23 45 -13 12 -19 30 -19 59 0 31 -6 47 -25
65 -14 13 -25 34 -25 47 0 15 -15 37 -40 60 -27 25 -40 46 -40 63 0 14 -8 30
-20 38 -12 7 -20 23 -20 38 0 31 -50 84 -80 84 -29 0 -160 132 -160 162 0 14
-16 37 -40 58 -27 24 -40 43 -40 61 0 17 -9 33 -25 43 -16 11 -25 26 -25 42 0
19 -17 42 -59 83 -55 53 -60 61 -63 107 -3 46 -5 49 -33 52 -19 3 -43 18 -65
42 -31 33 -43 39 -85 42 -49 3 -50 4 -55 38 l-5 35 -69 3 c-63 3 -73 6 -103
35 -28 27 -33 39 -33 79 0 37 -4 50 -20 58 -13 7 -20 21 -20 40 0 19 -7 33
-19 40 -12 6 -21 23 -23 43 -3 27 -7 32 -33 35 -19 3 -43 18 -66 43 -22 24
-45 39 -60 39 -15 0 -37 14 -59 40 -34 39 -36 40 -102 40 -57 0 -70 3 -80 20
-8 12 -24 20 -39 20 -14 0 -34 9 -44 20 -12 13 -31 20 -56 20 -25 0 -47 8 -67
25 -22 18 -42 25 -74 25 -32 0 -46 5 -56 20 -7 12 -23 20 -40 20 -16 0 -32 8
-40 20 -8 13 -23 20 -42 20 -19 0 -33 7 -40 20 -10 19 -21 20 -180 20 -159 0
-171 -1 -182 -20 -12 -18 -24 -20 -119 -20 -93 0 -108 -2 -124 -20 -16 -18
-31 -20 -149 -20 -120 0 -132 2 -144 20 -11 18 -23 20 -122 20 -99 0 -110 2
-120 20 -7 13 -21 20 -39 20 -15 0 -36 9 -46 20 -16 18 -31 20 -146 20 -119 0
-128 1 -134 20 -6 19 -15 20 -183 20 -166 0 -178 -1 -190 -20 -9 -15 -23 -20
-56 -20 -30 0 -48 -6 -61 -20 -15 -16 -31 -20 -86 -20 -58 0 -70 -3 -79 -20
-8 -15 -21 -20 -56 -20 -64 0 -104 -40 -104 -102 0 -24 -5 -49 -12 -56 -8 -8
-62 -12 -178 -12 -154 0 -168 -2 -185 -20 -17 -19 -31 -20 -285 -20 -254 0
-268 -1 -285 -20 -10 -11 -30 -20 -44 -20 -15 0 -31 -8 -39 -20 -7 -12 -23
-20 -40 -20 -16 0 -32 -8 -40 -20 -11 -18 -23 -20 -120 -20 l-107 0 -35 -40
c-31 -36 -40 -40 -81 -40 -33 0 -51 -6 -64 -20 -14 -16 -31 -20 -80 -20 -49 0
-66 -4 -80 -20 -10 -11 -28 -20 -40 -20 -11 0 -38 -18 -60 -40 l-38 -39 -91
-3 -91 -3 -3 -30 c-2 -17 -18 -44 -36 -62 -32 -32 -33 -32 -141 -35 l-110 -3
-3 -27 c-4 -37 -52 -86 -88 -90 -27 -3 -29 -6 -34 -58 -5 -54 -6 -55 -40 -60
-29 -4 -35 -10 -41 -38 -4 -19 -16 -40 -28 -48 -19 -13 -21 -25 -21 -101 l0
-87 -59 -56 c-41 -39 -60 -65 -63 -86 -2 -24 -8 -30 -32 -32 -22 -3 -59 -34
-151 -128 -95 -97 -127 -124 -148 -124 -21 0 -28 -6 -33 -27 -10 -50 -13 -53
-40 -53 -19 0 -42 -16 -83 -59 -53 -55 -61 -60 -107 -63 l-49 -3 -3 -72 c-2
-60 -6 -75 -22 -83 -16 -8 -20 -21 -20 -60 0 -39 -4 -53 -20 -62 -12 -8 -20
-24 -20 -39 0 -14 -9 -34 -20 -44 -11 -10 -20 -28 -20 -40 0 -12 -9 -30 -20
-40 -11 -10 -20 -28 -20 -40 0 -12 -11 -32 -25 -45 -14 -13 -25 -33 -25 -44 0
-14 -49 -70 -140 -161 -87 -87 -140 -147 -140 -160 0 -11 -26 -47 -60 -80 -37
-37 -60 -69 -60 -83 0 -12 -9 -30 -20 -39 -18 -15 -20 -30 -20 -123 0 -101 -1
-108 -25 -128 -14 -12 -25 -32 -25 -45 0 -12 -9 -30 -20 -40 -18 -15 -20 -29
-20 -162 0 -134 1 -146 20 -157 15 -10 20 -24 20 -59 0 -36 5 -50 25 -67 l25
-22 0 -263 c0 -278 -2 -287 -46 -287 -31 0 -39 -17 -20 -39 9 -10 16 -26 16
-37 0 -26 19 -44 44 -44 27 0 126 -98 126 -126 0 -11 9 -29 20 -39 14 -13 20
-31 20 -64 0 -35 5 -49 19 -58 15 -9 21 -26 23 -65 3 -52 4 -53 38 -58 34 -5
35 -6 40 -60 5 -54 6 -55 40 -60 30 -4 35 -9 38 -34 3 -21 23 -48 67 -91 44
-43 64 -71 67 -91 2 -24 8 -30 32 -32 37 -5 83 -51 88 -88 3 -29 4 -29 78 -34
l75 -5 3 -52 c2 -40 8 -55 23 -63 12 -7 19 -21 19 -40 0 -19 7 -33 20 -40 16
-8 20 -21 20 -60 0 -39 4 -53 20 -62 15 -10 20 -24 20 -58 0 -43 4 -50 65
-110 39 -39 65 -73 65 -86 0 -11 9 -29 20 -39 11 -10 20 -28 20 -40 0 -12 9
-30 20 -40 14 -13 20 -31 20 -62 0 -38 5 -48 40 -80 28 -26 40 -45 40 -65 0
-17 7 -31 20 -38 13 -7 20 -21 20 -40 0 -19 7 -33 21 -40 15 -9 19 -19 17 -43
-3 -28 -7 -33 -38 -37 l-35 -5 -3 -274 -2 -275 60 -58 c37 -37 60 -67 60 -81
0 -13 27 -48 72 -94 67 -67 76 -73 114 -73 37 0 49 -6 93 -49 34 -33 51 -57
51 -74 0 -13 9 -32 20 -42 14 -12 20 -31 20 -59 0 -37 6 -47 72 -113 42 -42
81 -73 92 -73 11 0 44 -23 73 -52 47 -46 53 -57 53 -93 0 -35 6 -47 40 -80 22
-22 40 -49 40 -60 0 -12 9 -30 20 -40 15 -13 20 -31 20 -66 0 -45 2 -49 28
-55 49 -10 52 -13 52 -43 0 -20 7 -34 19 -41 12 -6 21 -23 23 -43 3 -27 7 -32
33 -35 38 -5 82 -49 87 -87 3 -28 6 -30 53 -33 59 -4 75 -15 75 -53 0 -25 4
-29 26 -29 36 0 94 -56 94 -91 0 -26 16 -39 47 -39 28 0 112 -90 115 -124 3
-26 8 -32 33 -34 36 -4 84 -49 85 -79 0 -13 25 -46 65 -85 47 -46 65 -72 65
-90 0 -25 16 -38 48 -38 26 -1 70 -51 74 -85 2 -25 8 -31 32 -33 20 -3 48 -23
88 -63 37 -37 67 -59 81 -59 14 0 44 -22 82 -60 34 -35 68 -60 80 -60 12 0 46
-25 80 -60 37 -38 68 -60 82 -60 12 0 36 -15 52 -33 28 -29 31 -39 31 -97 0
-63 2 -66 40 -99 29 -25 40 -43 40 -63 0 -17 7 -31 20 -38 13 -7 20 -21 20
-40 0 -19 7 -33 20 -40 16 -8 20 -21 20 -59 0 -44 3 -51 45 -87 30 -27 45 -47
45 -64 0 -14 9 -33 20 -43 14 -12 20 -29 20 -60 0 -39 5 -48 60 -102 39 -39
60 -67 60 -83 0 -23 4 -26 53 -36 21 -5 27 -12 27 -34 0 -19 12 -40 40 -67 22
-21 40 -48 40 -60 0 -27 18 -45 44 -45 12 0 51 -30 93 -72 67 -67 73 -76 73
-114 0 -28 6 -46 20 -59 11 -10 20 -28 20 -40 0 -12 9 -30 20 -40 17 -15 20
-31 20 -100 l0 -81 -40 -39 -40 -39 0 -88 c0 -77 -2 -89 -20 -98 -16 -8 -20
-21 -20 -60 0 -39 -4 -53 -20 -62 -15 -10 -20 -24 -20 -59 0 -36 -5 -51 -25
-69 -24 -22 -25 -29 -25 -129 0 -95 -2 -107 -20 -119 -12 -7 -20 -23 -20 -40
0 -16 -8 -32 -20 -40 -13 -8 -20 -23 -20 -42 0 -19 -7 -33 -20 -40 -18 -10
-20 -21 -20 -119 0 -95 -2 -110 -20 -126 -18 -17 -20 -31 -20 -162 l0 -145
-29 -28 c-25 -25 -37 -29 -97 -32 -67 -3 -68 -3 -75 -34 -4 -20 -28 -52 -67
-90 -59 -56 -62 -61 -62 -106 0 -52 -3 -54 -80 -60 -30 -3 -35 -7 -38 -31 -4
-34 -57 -87 -86 -87 -12 0 -29 -9 -39 -20 -13 -16 -29 -20 -80 -20 -51 0 -68
-4 -82 -20 -10 -11 -28 -20 -40 -20 -11 0 -35 -15 -52 -33 -24 -24 -33 -43
-35 -77 -3 -39 -6 -45 -28 -48 -33 -5 -88 -59 -92 -90 -2 -19 -11 -28 -32 -33
-16 -5 -38 -17 -50 -28 -11 -10 -32 -21 -46 -23 -18 -2 -26 -10 -28 -28 -5
-34 -20 -50 -47 -50 -12 0 -30 -9 -40 -20 -13 -14 -31 -20 -64 -20 -35 0 -49
-5 -59 -20 -9 -15 -23 -20 -60 -20 -42 0 -50 -4 -82 -40 -22 -25 -44 -40 -59
-40 -15 0 -43 -20 -81 -60 l-58 -60 -62 0 c-57 0 -66 -3 -96 -32 -19 -18 -34
-43 -34 -56 0 -14 -16 -37 -40 -59 -28 -26 -40 -45 -40 -65 0 -17 -7 -31 -20
-38 -19 -10 -20 -21 -20 -159 0 -135 -2 -149 -20 -166 -19 -17 -20 -31 -20
-371 0 -343 -1 -354 -20 -364 -15 -8 -20 -21 -20 -56 0 -42 -4 -49 -70 -114
-46 -47 -77 -70 -93 -70 -14 0 -37 -16 -62 -43 -24 -26 -50 -44 -69 -47 -25
-4 -32 -10 -34 -34 -5 -38 -53 -86 -86 -86 -15 0 -30 -8 -36 -20 -6 -12 -21
-20 -36 -20 -31 0 -84 -50 -84 -80 0 -28 -55 -80 -84 -80 -28 0 -46 -18 -46
-47 0 -29 -46 -75 -85 -83 -24 -4 -31 -12 -33 -34 -5 -38 -51 -83 -88 -88 -27
-3 -29 -6 -34 -58 -5 -52 -7 -55 -34 -58 -35 -4 -126 -92 -126 -122 0 -13 -25
-45 -65 -83 -43 -42 -65 -70 -65 -85 0 -31 -50 -80 -86 -84 -24 -2 -30 -8 -32
-32 -4 -35 -52 -86 -82 -86 -29 0 -80 -52 -80 -82 0 -14 -15 -36 -40 -58 -25
-22 -40 -44 -40 -59 0 -35 -135 -168 -175 -173 -25 -2 -31 -8 -33 -33 -3 -19
-18 -43 -43 -66 -23 -21 -39 -45 -39 -58 0 -30 -50 -79 -86 -83 -29 -3 -29 -4
-32 -76 -2 -59 -6 -75 -22 -85 -12 -7 -20 -23 -20 -37 0 -17 -14 -40 -40 -65
-34 -33 -40 -45 -40 -80 0 -37 -6 -47 -65 -105 l-65 -64 0 -88 c0 -86 0 -88
-24 -88 -30 0 -369 69 -570 116 -518 122 -1016 278 -1526 479 -3342 1315
-5842 4173 -6705 7665 -283 1145 -382 2351 -289 3525 183 2326 1085 4518 2593
6305 374 443 855 923 1301 1301 1883 1593 4215 2504 6706 2619 226 10 897 4
1114 -10z m2645 -4994 c78 -11 111 -23 245 -88 85 -41 173 -83 195 -93 50 -22
154 -73 315 -156 69 -35 149 -75 178 -88 88 -40 178 -105 308 -222 152 -136
192 -182 285 -329 101 -160 143 -215 219 -290 141 -140 276 -205 468 -229 46
-6 89 -14 95 -18 7 -4 39 -10 71 -14 44 -5 64 -13 76 -28 8 -12 32 -24 53 -28
22 -3 42 -14 48 -24 5 -10 23 -26 39 -34 37 -19 38 -41 3 -50 -19 -4 -34 0
-55 15 -25 19 -32 20 -63 9 -28 -10 -48 -9 -120 6 -149 31 -174 25 -462 -115
-376 -184 -554 -275 -713 -365 -80 -45 -153 -85 -164 -88 -50 -19 -343 -209
-592 -385 -132 -93 -157 -112 -212 -161 -15 -13 -43 -35 -62 -50 -96 -73 -399
-374 -468 -466 -29 -38 -59 -73 -67 -78 -8 -4 -15 -15 -15 -22 0 -8 -4 -15 -9
-15 -9 0 -111 -133 -111 -144 0 -7 -259 -265 -301 -301 -96 -80 -280 -200
-334 -217 -110 -36 -196 -51 -256 -45 -67 6 -79 11 -61 29 17 17 15 38 -5 60
-15 17 -15 18 5 18 27 0 95 71 81 85 -6 6 -82 11 -175 13 -136 3 -172 1 -207
-13 -50 -20 -292 -37 -321 -22 -11 5 -38 27 -60 48 -25 24 -50 39 -66 39 -44
0 -70 12 -70 30 0 11 10 20 28 23 15 3 50 10 77 16 69 13 101 27 109 46 11 29
-56 50 -164 50 -85 0 -101 -3 -150 -29 -64 -34 -112 -66 -123 -83 -4 -7 -14
-13 -22 -13 -8 0 -19 -9 -25 -20 -6 -11 -15 -20 -20 -20 -12 0 -70 -60 -70
-71 0 -5 -7 -9 -15 -9 -8 0 -15 -4 -15 -9 0 -5 -16 -24 -35 -43 -187 -175
-254 -254 -279 -326 -21 -59 -27 -397 -8 -430 8 -13 16 -21 19 -18 14 14 65
155 74 204 11 57 54 139 97 185 28 30 190 117 218 117 9 0 28 8 42 18 39 26
159 79 213 93 39 11 56 9 130 -10 75 -19 94 -21 179 -12 52 6 113 15 135 20
112 29 143 34 169 27 28 -7 31 -29 5 -33 -78 -10 -90 -14 -79 -28 16 -19 6
-45 -16 -45 -10 0 -25 -7 -34 -15 -10 -9 -36 -26 -58 -38 -22 -12 -66 -41 -99
-65 -32 -23 -88 -62 -124 -85 -210 -133 -285 -182 -427 -280 -86 -60 -173
-121 -192 -137 -19 -16 -98 -79 -174 -138 -112 -89 -143 -108 -162 -103 -12 3
-44 35 -71 71 -27 36 -73 97 -103 135 -101 129 -272 360 -297 399 -55 87 -71
120 -168 372 -42 108 -55 177 -55 290 0 60 -7 165 -15 234 -8 69 -15 155 -15
191 0 36 -5 90 -10 120 -32 174 -29 328 9 459 11 36 27 104 35 151 31 168 86
292 194 439 76 103 191 230 289 321 33 30 190 152 308 239 26 19 69 52 94 73
25 20 49 37 52 37 4 0 9 9 12 19 3 11 17 22 36 26 17 4 31 13 31 20 0 18 21
24 44 12 15 -7 23 -5 36 10 14 18 62 37 95 38 6 0 16 8 23 18 7 9 20 17 28 17
21 0 17 -38 -6 -50 -11 -6 -20 -16 -20 -23 0 -7 -9 -18 -20 -25 -11 -7 -20
-17 -20 -23 0 -7 -8 -18 -17 -25 -15 -10 -16 -15 -5 -26 10 -10 14 -9 18 10 4
12 13 22 20 22 8 0 38 24 67 54 72 75 77 82 77 108 0 16 17 36 54 65 50 39
126 123 171 192 89 135 110 159 235 276 105 98 138 125 195 165 28 19 53 39
56 43 7 9 20 18 88 55 22 12 41 27 41 32 0 6 5 10 10 10 13 0 119 71 210 140
36 28 74 54 85 59 11 5 57 31 102 59 115 69 299 145 443 183 19 5 105 15 190
24 85 8 187 24 225 36 58 17 191 45 230 48 6 0 51 -6 100 -13z m2005 -1118 c0
-11 -48 -10 -55 2 -3 6 -4 14 0 20 7 11 55 -8 55 -22z m79 -38 c24 -17 50 -30
58 -30 14 0 72 -42 169 -122 25 -21 50 -38 56 -38 14 0 75 -50 150 -123 60
-58 60 -67 -2 -67 -30 0 -46 14 -52 45 -2 11 -12 21 -23 23 -11 2 -31 14 -45
26 -14 12 -56 41 -95 64 -38 23 -76 50 -83 62 -7 12 -28 22 -52 26 -31 5 -44
13 -56 35 -8 16 -19 29 -23 29 -12 0 -81 67 -81 78 0 12 11 22 24 22 6 0 31
-14 55 -30z m1688 -439 c62 -12 259 -107 373 -179 106 -68 220 -163 285 -238
28 -31 55 -62 60 -68 25 -28 53 -97 64 -161 12 -70 31 -150 57 -235 27 -89 62
-236 68 -286 8 -62 37 -135 110 -274 83 -160 111 -239 149 -426 22 -109 48
-202 70 -255 19 -46 51 -122 71 -169 21 -50 36 -102 36 -126 0 -68 -65 -179
-185 -314 -75 -84 -85 -103 -85 -163 0 -91 33 -149 199 -361 251 -319 293
-372 329 -412 8 -8 30 -38 50 -67 19 -28 38 -54 41 -57 4 -3 54 -77 112 -165
58 -88 153 -218 210 -290 204 -254 259 -336 259 -387 0 -11 4 -27 10 -37 26
-50 40 -171 37 -341 -1 -98 4 -228 11 -295 26 -229 6 -402 -65 -565 -27 -61
-79 -145 -105 -172 -10 -10 -18 -23 -18 -30 0 -7 -11 -23 -24 -37 -25 -28 -55
-82 -126 -234 -33 -71 -51 -97 -67 -102 -13 -3 -23 -10 -23 -16 0 -16 -109
-210 -134 -238 -12 -13 -41 -33 -65 -43 l-43 -20 -64 32 c-52 27 -93 64 -227
204 -161 167 -307 336 -307 353 0 5 -15 24 -33 42 -19 17 -44 53 -57 79 -23
48 -134 163 -182 188 -15 8 -49 29 -75 46 -99 67 -205 104 -353 122 -25 3 -97
25 -160 50 -75 29 -151 50 -220 60 -58 10 -121 21 -141 26 -19 6 -62 14 -95
19 -101 15 -281 68 -336 99 -141 78 -298 152 -324 152 -10 0 -32 7 -47 15 -15
8 -45 17 -65 21 -20 4 -40 12 -44 18 -4 6 -9 8 -12 5 -11 -10 39 -94 78 -131
34 -33 37 -41 25 -53 -12 -11 -28 -7 -108 31 -51 25 -101 54 -110 64 -18 22
-118 60 -174 67 -23 3 -44 0 -54 -8 -9 -8 -24 -13 -34 -11 -11 2 -29 -4 -41
-12 -12 -9 -32 -16 -44 -16 -12 0 -27 -7 -34 -15 -18 -22 -47 -18 -61 6 -8 17
-7 35 6 80 9 33 13 64 10 69 -12 19 -26 10 -41 -25 -8 -19 -18 -35 -23 -35 -6
0 -13 -10 -16 -22 -19 -62 -111 -171 -332 -394 l-23 -23 5 132 c4 96 3 127 -5
115 -16 -26 -35 -22 -50 10 -19 36 -103 118 -132 128 -13 4 -28 14 -35 23 -13
20 -145 91 -168 91 -22 0 -141 124 -166 172 -28 54 -55 89 -63 81 -11 -11 -6
-40 9 -53 8 -7 17 -27 21 -46 3 -19 10 -34 15 -34 5 0 14 -11 19 -25 5 -14 14
-25 20 -25 5 0 10 -7 10 -15 0 -8 14 -28 30 -45 17 -17 30 -35 30 -40 0 -18
-60 -15 -75 4 -14 17 -114 64 -153 71 -18 4 -38 15 -45 26 -6 10 -16 19 -22
19 -6 0 -18 9 -28 20 -9 11 -26 20 -38 20 -12 0 -23 -8 -26 -20 -3 -13 -14
-20 -28 -20 -20 0 -25 -7 -34 -52 -5 -29 -13 -87 -17 -128 -3 -41 -10 -83 -15
-92 -5 -9 -13 -47 -19 -85 -5 -37 -19 -86 -30 -108 -11 -21 -20 -46 -20 -55 0
-9 -4 -20 -8 -25 -5 -6 -23 -50 -39 -100 -27 -79 -30 -96 -22 -140 6 -27 12
-75 15 -105 5 -51 3 -58 -25 -94 -17 -21 -31 -42 -31 -46 0 -3 -23 -17 -50
-30 l-50 -23 -26 23 c-41 39 -91 122 -119 196 -28 74 -50 114 -64 114 -5 0
-16 -17 -24 -38 -8 -21 -22 -44 -31 -51 -9 -8 -16 -22 -16 -32 0 -10 -4 -21
-10 -24 -5 -3 -10 -17 -10 -31 0 -19 7 -28 30 -35 18 -7 39 -27 54 -53 13 -23
47 -64 74 -92 73 -74 107 -151 52 -116 -11 7 -27 12 -35 12 -9 0 -46 18 -83
41 -76 46 -84 46 -268 9 -65 -13 -139 -20 -214 -20 -102 0 -124 3 -190 28 -41
16 -107 47 -147 69 -39 23 -82 44 -94 48 -12 4 -46 23 -75 41 -29 19 -57 34
-62 34 -25 0 -136 87 -197 155 -69 75 -368 378 -399 403 -8 6 -28 18 -43 24
-15 7 -49 27 -75 45 -26 18 -52 33 -57 33 -5 0 -16 7 -24 15 -8 8 -37 26 -63
40 -55 29 -80 20 -48 -17 73 -87 112 -122 193 -173 17 -11 93 -62 118 -80 34
-23 92 -74 156 -137 61 -59 69 -70 65 -97 -3 -21 0 -31 9 -31 7 0 13 -8 13
-17 0 -28 78 -149 133 -206 50 -51 109 -94 210 -152 27 -15 45 -31 40 -35 -4
-4 -45 -26 -90 -50 l-83 -42 -117 7 c-81 5 -132 13 -162 26 -24 10 -51 19 -61
19 -10 0 -23 7 -30 15 -6 8 -21 17 -32 21 -20 6 -88 49 -98 62 -3 4 -25 20
-50 37 -25 16 -57 39 -71 50 -14 11 -35 26 -45 32 -186 122 -218 149 -313 263
-41 49 -74 110 -141 255 -28 62 -43 150 -30 175 13 24 4 77 -16 101 -26 29
-14 42 138 152 132 96 286 206 352 253 117 82 234 172 383 293 43 35 164 150
268 256 164 164 197 203 239 278 47 86 48 89 53 195 3 64 11 113 18 122 22 26
28 106 11 163 -8 28 -20 81 -27 117 -12 68 -99 332 -127 385 -8 16 -28 70 -43
119 -24 76 -27 92 -15 105 7 9 27 43 45 76 47 89 134 175 192 189 34 7 125
-37 196 -96 28 -24 68 -54 88 -68 57 -40 139 -103 161 -125 11 -11 49 -45 84
-75 34 -30 70 -62 79 -70 9 -8 56 -44 105 -80 173 -128 223 -171 297 -260 89
-106 167 -179 324 -306 76 -61 129 -114 202 -204 7 -8 29 -33 49 -55 l35 -40
-4 30 c-7 44 -54 168 -77 205 -6 8 -15 26 -21 40 -5 13 -26 43 -45 66 -19 23
-34 45 -34 49 0 16 -76 95 -92 95 -17 0 -17 2 -4 23 7 12 21 46 31 75 28 87
129 200 243 272 31 19 165 107 299 195 133 88 275 180 315 205 214 132 528
404 691 599 123 146 147 192 147 274 0 21 7 52 16 69 23 45 29 137 10 168 -8
14 -21 36 -28 50 -17 34 -59 92 -76 107 -13 11 -12 13 4 18 40 13 49 23 47 51
-7 95 -26 190 -53 269 -17 50 -51 151 -75 225 -24 74 -51 153 -59 175 -30 79
-23 102 60 206 63 79 112 119 177 143 43 16 52 17 106 3 33 -9 74 -26 91 -39
l32 -23 -59 -6 c-32 -3 -68 -11 -79 -17 -48 -26 -118 -135 -112 -175 4 -30 28
-24 102 24 34 22 91 49 128 60 61 19 75 20 164 9 53 -7 107 -16 120 -20 53
-20 158 -73 171 -85 7 -7 26 -16 42 -20 16 -3 35 -13 42 -21 6 -8 16 -14 22
-14 5 0 28 -8 51 -19 93 -42 115 -49 135 -44 12 3 32 -2 46 -11 34 -23 64 -20
76 7 5 12 16 33 24 47 21 35 18 107 -5 159 -34 74 -24 103 51 152 24 16 27 16
87 -25 34 -23 76 -55 94 -72 18 -16 71 -61 118 -99 79 -66 141 -119 180 -155
8 -8 58 -53 110 -100 51 -47 111 -102 132 -122 21 -21 43 -38 49 -38 5 0 12
-7 15 -15 4 -8 17 -15 29 -15 30 0 36 32 16 80 -8 19 -22 62 -32 95 -25 89
-74 199 -111 253 -43 63 -252 270 -308 306 -25 16 -56 37 -70 46 -40 27 -102
58 -139 69 -108 35 -172 -8 -270 -179 -23 -41 -26 -54 -25 -152 1 -87 5 -114
22 -149 12 -24 20 -43 19 -44 -60 -28 -77 -31 -77 -12 0 20 -60 69 -185 150
-64 41 -105 56 -177 62 -68 7 -86 18 -48 30 11 4 46 39 77 78 84 106 322 341
373 368 66 35 151 46 237 30z m-2042 -592 c50 -26 201 -174 306 -298 51 -61
94 -126 124 -186 25 -51 45 -97 45 -102 0 -5 11 -20 24 -32 13 -13 27 -35 31
-49 3 -15 18 -44 31 -66 18 -26 27 -57 30 -97 3 -33 16 -89 30 -126 23 -61 25
-76 18 -153 -3 -47 -13 -97 -20 -112 -8 -15 -14 -36 -14 -48 0 -53 -296 -377
-475 -520 -44 -36 -84 -70 -90 -76 -24 -27 -243 -178 -470 -324 -64 -41 -153
-99 -198 -127 -44 -29 -85 -53 -90 -53 -5 0 -20 -9 -34 -20 -34 -27 -65 -25
-92 4 l-23 24 -79 -40 c-120 -61 -147 -61 -275 1 -82 40 -109 49 -120 40 -7
-6 -13 -14 -12 -17 3 -29 -4 -32 -28 -13 -15 12 -34 21 -43 21 -55 0 -449 344
-579 506 -62 77 -96 199 -69 251 9 17 26 59 38 94 96 282 437 658 864 954 438
304 613 403 883 501 53 19 119 46 146 59 61 30 89 31 141 4z m-6360 -290 c6
-23 -1 -33 -47 -73 -52 -45 -71 -46 -50 -3 5 12 14 40 18 62 7 30 15 41 34 46
30 7 37 2 45 -32z m45 -714 c7 -8 22 -15 35 -15 44 0 60 -34 58 -123 -3 -114
15 -264 38 -313 10 -23 19 -50 19 -60 0 -10 14 -41 30 -69 16 -27 38 -68 48
-90 11 -22 27 -46 36 -54 9 -7 16 -19 16 -27 0 -7 17 -31 38 -52 78 -81 128
-166 116 -197 -5 -12 -11 -11 -37 7 -44 32 -227 219 -227 232 0 7 -5 17 -12
24 -16 16 -37 97 -38 143 0 20 -7 42 -15 49 -8 7 -15 27 -15 45 0 18 -8 43
-18 56 -10 13 -28 49 -41 79 -46 108 -104 225 -121 245 -10 11 -22 35 -29 54
-17 51 6 72 90 80 9 0 22 -6 29 -14z m3279 -1259 c161 -154 173 -169 201 -244
11 -30 31 -68 45 -86 14 -18 32 -52 40 -76 9 -25 33 -77 54 -116 84 -155 141
-328 141 -425 0 -39 -50 -208 -79 -268 -18 -39 -150 -190 -263 -303 -113 -112
-196 -181 -353 -293 -77 -54 -178 -127 -225 -162 -131 -96 -173 -116 -249
-118 -51 -2 -82 -10 -133 -35 -38 -17 -68 -36 -68 -41 0 -18 -45 -9 -81 17
-53 36 -183 247 -223 362 -26 73 -97 210 -146 282 -9 14 -32 52 -50 85 -18 33
-51 89 -75 125 -56 87 -164 308 -171 351 -4 25 -1 39 10 48 9 7 16 19 16 27 0
17 89 124 171 204 68 67 139 130 146 130 3 0 38 22 78 49 41 28 118 73 172
102 54 28 114 63 133 75 19 13 38 24 42 24 4 0 26 13 50 29 24 16 97 54 163
86 176 84 201 95 215 95 22 0 180 52 186 61 3 5 20 9 38 9 19 0 44 9 57 20 17
13 39 19 73 20 42 0 54 -5 85 -34z m6251 -52 c0 -8 -5 -12 -10 -9 -6 4 -8 11
-5 16 9 14 15 11 15 -7z m-4182 -300 c2 -11 -9 -35 -23 -54 -14 -19 -28 -43
-31 -52 -11 -30 -39 -20 -93 33 -75 74 -70 84 39 80 25 -1 52 3 60 9 22 15 45
8 48 -16z m-3858 -820 c0 -7 24 -64 54 -126 37 -78 67 -125 96 -153 38 -36
110 -122 150 -181 8 -11 47 -63 85 -115 69 -92 153 -247 158 -292 2 -18 -3
-22 -25 -20 -15 1 -36 10 -47 20 -11 10 -39 34 -63 53 -36 29 -118 114 -243
253 -95 106 -176 250 -174 312 1 23 -11 67 -26 105 -27 63 -32 112 -19 173 l6
29 24 -23 c13 -12 24 -28 24 -35z m952 -1286 c-12 -12 -35 -1 -27 12 3 5 13 6
21 3 10 -4 12 -9 6 -15z m-219 -283 c20 -3 37 -10 37 -15 0 -5 19 -15 43 -20
39 -10 56 -22 142 -92 18 -16 35 -28 38 -28 3 0 37 -30 74 -67 62 -61 101 -97
229 -213 21 -19 57 -49 79 -65 40 -29 255 -243 255 -253 0 -7 18 -27 74 -84
33 -34 46 -56 46 -76 0 -26 3 -29 25 -24 24 4 25 3 19 -41 -6 -44 -6 -45 19
-40 28 5 47 -14 23 -23 -21 -8 -20 -39 1 -75 9 -15 14 -31 10 -35 -16 -16 -73
35 -447 396 -107 103 -215 206 -240 227 -44 38 -438 430 -492 491 -16 17 -28
40 -28 52 0 20 1 20 28 6 15 -8 44 -18 65 -21z m3692 -117 c14 -6 25 -17 25
-24 0 -7 7 -17 16 -22 22 -12 3 -24 -51 -32 -37 -5 -40 -7 -37 -32 4 -30 -40
-84 -58 -73 -16 10 1 69 27 94 18 17 23 30 18 48 -6 24 8 53 26 53 4 0 20 -5
34 -12z m1799 -104 c98 -34 228 -108 281 -160 35 -36 75 -133 75 -185 0 -19 7
-62 16 -94 22 -83 20 -112 -10 -136 -14 -11 -28 -29 -31 -40 -4 -11 -30 -33
-58 -49 -63 -36 -127 -93 -127 -114 0 -10 -12 -16 -37 -18 -33 -3 -38 -7 -41
-30 -2 -16 -10 -28 -17 -28 -8 0 -40 -16 -72 -35 -32 -19 -62 -35 -66 -35 -5
0 -32 -16 -61 -35 -29 -19 -61 -35 -70 -35 -14 0 -16 -6 -10 -36 6 -34 6 -35
-14 -23 -12 8 -24 26 -28 42 -3 17 -15 32 -29 37 -16 6 -24 19 -28 49 -5 42
-23 70 -97 153 -51 57 -78 73 -169 99 -79 23 -91 23 -116 5 -18 -13 -18 -15
15 -28 52 -22 108 -63 171 -124 31 -30 63 -54 72 -54 9 0 19 -4 22 -10 3 -5
14 -10 25 -10 24 0 30 -19 30 -104 0 -46 -7 -92 -20 -129 -11 -31 -20 -63 -20
-71 0 -44 -51 -22 -80 34 -11 21 -29 41 -39 45 -11 3 -23 16 -27 27 -3 12 -26
42 -50 67 -38 41 -113 130 -184 220 -35 44 -72 51 -189 39 -66 -7 -109 -7
-128 0 -26 9 -26 10 -8 18 11 4 31 16 44 26 13 10 38 18 55 18 18 0 41 6 51
14 19 14 19 15 -8 27 -21 10 -43 10 -90 2 -83 -13 -108 -3 -151 61 -58 88 -55
123 20 225 54 73 129 134 236 190 31 17 59 35 62 40 4 5 24 12 45 16 22 3 47
13 58 20 10 8 31 15 46 15 15 0 38 7 50 15 19 12 29 13 54 3 25 -9 37 -9 60 2
15 8 42 13 59 11 18 -1 36 4 44 13 7 9 28 16 49 16 20 0 47 8 61 17 17 12 55
19 125 23 170 11 200 11 249 -6z m-1829 -1306 c23 -46 20 -120 -6 -144 -31
-28 -52 -8 -66 62 -6 32 -17 79 -23 104 -17 68 -9 193 14 219 11 12 16 27 12
37 -4 9 0 27 9 40 8 13 19 45 23 71 5 34 9 -12 14 -155 5 -152 11 -211 23
-234z m-2518 340 c-3 -8 -6 -5 -6 6 -1 11 2 17 5 13 3 -3 4 -12 1 -19z m1736
-220 c10 -5 26 -7 35 -3 31 9 108 -90 97 -125 -3 -11 1 -30 10 -44 12 -18 14
-30 7 -43 -7 -12 -7 -24 0 -37 7 -13 7 -52 -1 -125 -6 -58 -13 -146 -16 -196
-7 -104 -29 -189 -59 -227 -25 -32 -42 -35 -64 -9 -26 30 -74 36 -97 11 -32
-36 -60 -25 -135 53 -95 97 -147 200 -160 318 -5 46 -12 101 -16 122 -8 46 15
112 62 177 24 34 52 55 106 83 122 61 178 72 231 45z m3137 -239 c0 -12 -29
-24 -37 -16 -3 4 -3 13 0 21 6 16 37 11 37 -5z m5 -39 c18 0 29 -8 38 -27 6
-16 17 -32 24 -36 7 -4 13 -18 13 -30 0 -14 11 -29 29 -40 18 -11 35 -34 48
-69 21 -56 46 -69 51 -28 6 41 19 44 26 6 4 -22 13 -36 22 -36 8 0 19 -11 23
-24 5 -13 17 -26 25 -29 9 -4 16 -13 16 -22 0 -8 6 -15 13 -15 8 0 19 -11 25
-25 6 -14 16 -25 22 -25 5 0 10 -7 10 -15 0 -8 9 -24 20 -35 12 -12 25 -32 30
-45 5 -14 16 -25 25 -25 8 0 15 -8 15 -17 0 -10 18 -55 41 -101 40 -82 60
-152 43 -152 -5 0 -31 26 -59 56 -27 31 -116 124 -197 208 -80 83 -176 181
-211 218 -80 82 -127 149 -127 180 0 13 -7 33 -15 44 -8 10 -15 38 -15 62 0
39 2 42 19 32 11 -5 31 -10 46 -10z m185 -160 c0 -5 -4 -10 -9 -10 -6 0 -13 5
-16 10 -3 6 1 10 9 10 9 0 16 -4 16 -10z m330 -86 c0 -8 -4 -12 -10 -9 -5 3
-10 13 -10 21 0 8 5 12 10 9 6 -3 10 -13 10 -21z m50 -76 c0 -5 -4 -8 -10 -8
-5 0 -10 10 -10 23 0 18 2 19 10 7 5 -8 10 -18 10 -22z m112 -170 c-9 -9 -12
-7 -12 12 0 19 3 21 12 12 9 -9 9 -15 0 -24z m46 -51 c2 -15 -1 -27 -7 -27 -6
0 -11 3 -11 8 0 4 -3 18 -7 31 -4 18 -2 23 8 19 8 -2 15 -17 17 -31z m-4371
-184 c6 -17 -36 -37 -82 -38 -22 -1 -59 -5 -82 -10 -49 -9 -57 4 -15 23 15 7
38 19 52 27 29 18 121 16 127 -2z"/>
<path d="M22145 19020 c-3 -6 1 -13 10 -16 19 -8 30 0 20 15 -8 14 -22 14 -30
1z"/>
<path d="M23907 14743 c-4 -3 -7 -12 -7 -20 0 -15 26 -18 34 -4 7 11 -18 33
-27 24z"/>
<path d="M14920 19180 c0 -5 5 -10 10 -10 6 0 10 5 10 10 0 6 -4 10 -10 10 -5
0 -10 -4 -10 -10z"/>
<path d="M15005 19100 c-3 -5 1 -10 10 -10 9 0 13 5 10 10 -3 6 -8 10 -10 10
-2 0 -7 -4 -10 -10z"/>
<path d="M18213 18893 c9 -2 25 -2 35 0 9 3 1 5 -18 5 -19 0 -27 -2 -17 -5z"/>
<path d="M17815 18599 c-102 -33 -217 -97 -430 -237 -158 -104 -284 -231 -325
-327 -24 -55 -25 -83 -5 -109 8 -11 15 -40 15 -65 0 -63 18 -95 55 -99 17 -2
35 -8 41 -13 26 -21 39 22 39 127 0 103 0 103 33 135 30 30 32 30 32 9 0 -12
8 -35 17 -50 15 -26 15 -35 3 -87 -8 -32 -21 -68 -31 -80 -9 -13 -20 -44 -24
-70 -3 -27 -13 -58 -21 -70 -8 -12 -14 -36 -14 -53 0 -17 -7 -47 -15 -67 -18
-42 -18 -43 -5 -43 6 0 10 7 10 15 0 8 7 15 15 15 8 0 23 12 32 27 10 15 58
68 107 118 48 49 104 115 124 145 20 30 77 107 127 170 164 208 194 251 265
378 21 38 53 86 61 92 13 11 57 113 55 128 -5 34 -76 39 -161 11z"/>
<path d="M20840 18320 c0 -5 7 -10 16 -10 8 0 12 5 9 10 -3 6 -10 10 -16 10
-5 0 -9 -4 -9 -10z"/>
<path d="M20880 18287 c0 -15 57 -71 155 -152 39 -32 131 -117 205 -189 74
-72 152 -143 172 -159 20 -15 52 -42 70 -61 59 -60 242 -221 294 -259 86 -62
171 -100 209 -93 40 8 85 41 85 64 0 8 10 26 22 39 l22 24 -23 72 c-31 92 -60
138 -135 210 -71 68 -212 141 -299 153 -23 3 -62 12 -87 19 -25 8 -65 17 -89
20 -77 12 -217 89 -299 165 -19 17 -46 37 -60 45 -38 21 -63 37 -91 58 -13 9
-31 17 -41 17 -9 0 -25 9 -35 20 -20 22 -75 28 -75 7z"/>
<path d="M18752 15511 c-8 -5 -3 -23 17 -64 15 -31 33 -62 39 -69 6 -7 14 -27
18 -43 4 -17 15 -46 26 -65 10 -19 18 -44 18 -55 0 -11 8 -36 19 -55 10 -19
21 -52 25 -72 4 -21 12 -40 18 -44 32 -20 38 100 8 176 -11 28 -20 60 -20 71
0 20 -31 79 -76 146 -30 44 -78 83 -92 74z"/>
<path d="M21660 15420 c0 -5 6 -10 14 -10 8 0 21 -8 28 -19 13 -19 92 -61 114
-61 24 0 -13 53 -53 77 -38 23 -103 31 -103 13z"/>
<path d="M21336 15209 c-35 -5 -75 -19 -96 -34 -20 -14 -41 -25 -47 -25 -10 0
-30 -28 -70 -94 -19 -31 -16 -66 5 -66 30 0 45 16 39 40 -4 17 2 30 24 51 26
24 41 29 112 35 45 4 91 10 101 14 11 3 47 -1 82 -10 47 -13 69 -25 94 -53 35
-40 38 -41 59 -28 12 8 13 16 3 49 -29 95 -155 145 -306 121z"/>
<path d="M21251 15031 c-25 -3 -46 -11 -48 -17 -8 -25 124 -33 176 -11 l32 13
-51 12 c-29 7 -55 11 -58 10 -4 0 -27 -4 -51 -7z"/>
<path d="M18342 14999 c-29 -16 -83 -61 -120 -99 -69 -73 -89 -85 -135 -81
-18 2 -29 -3 -33 -14 -12 -30 -86 -46 -299 -66 -320 -29 -376 -36 -387 -47
-19 -19 -36 -14 -40 11 -3 19 -8 21 -37 19 -24 -3 -39 2 -53 17 -15 17 -23 19
-38 11 -27 -14 -25 -28 4 -41 13 -6 29 -22 35 -35 7 -16 19 -24 36 -24 15 0
25 -6 25 -15 0 -8 11 -22 25 -31 13 -9 27 -26 31 -37 8 -28 62 -111 135 -207
82 -108 160 -174 268 -226 49 -23 141 -82 171 -109 36 -33 103 -33 129 0 10
14 31 29 47 35 34 13 21 26 -41 36 -22 3 -69 23 -105 44 -36 20 -73 40 -82 43
-10 4 -18 11 -18 16 0 6 46 9 118 8 109 -2 123 0 189 27 39 16 102 53 140 82
81 64 277 197 399 270 92 55 167 162 144 205 -10 18 -66 39 -103 39 -11 0 -45
26 -77 58 -31 32 -89 77 -127 100 -86 52 -126 55 -201 11z m-762 -358 c0 -12
-30 -22 -42 -15 -6 4 -36 10 -67 14 -55 7 -55 7 27 9 45 0 82 -3 82 -8z m264
-411 c-7 -7 -19 -7 -35 -1 -23 9 -22 10 11 10 23 1 31 -2 24 -9z"/>
<path d="M18961 14993 c1 -21 5 -51 9 -68 6 -23 8 -15 9 38 1 39 -3 67 -9 67
-5 0 -9 -17 -9 -37z"/>
<path d="M21650 14801 c-8 -6 -26 -7 -40 -5 -18 4 -31 -1 -44 -15 -13 -14 -26
-19 -42 -15 -19 5 -26 1 -35 -20 -13 -28 -25 -32 -49 -16 -10 6 -20 3 -34 -12
-17 -19 -26 -20 -95 -14 -135 12 -135 12 -139 -5 -3 -18 86 -79 116 -79 12 0
24 -5 27 -10 9 -15 -64 -100 -87 -100 -10 0 -31 -6 -46 -14 -51 -25 -251 -37
-303 -18 -38 15 -109 85 -118 118 -7 26 -12 29 -47 29 -35 0 -40 -3 -49 -31
-6 -17 -17 -39 -25 -49 -11 -13 -16 -49 -18 -131 -3 -104 -2 -113 16 -123 16
-8 25 -6 45 9 14 12 29 29 32 40 6 17 15 20 77 20 54 0 76 -4 91 -17 18 -17
19 -17 32 0 17 24 135 25 135 1 0 -14 -7 -16 -39 -11 -31 4 -44 1 -57 -14 -9
-10 -28 -19 -41 -19 -13 0 -54 -16 -90 -35 l-66 -35 39 -2 c69 -3 98 2 119 22
12 11 30 20 42 20 11 0 28 9 37 19 10 11 28 22 42 25 13 4 24 13 24 20 0 8 10
16 22 18 13 2 24 11 27 23 4 24 19 35 47 35 11 0 29 9 39 20 10 11 27 22 39
26 11 3 30 14 41 23 11 10 44 28 73 40 29 12 61 29 70 37 9 8 49 42 87 75 39
34 81 69 95 77 21 14 56 39 95 70 6 5 19 14 30 20 18 10 15 11 -20 12 -22 0
-47 -4 -55 -9z"/>
<path d="M19156 14082 c-3 -5 3 -23 12 -40 58 -108 76 -139 88 -153 8 -8 14
-21 14 -27 0 -6 9 -16 20 -22 13 -7 20 -21 20 -41 0 -19 6 -32 18 -36 9 -3 27
-17 39 -31 20 -24 23 -25 29 -8 4 10 2 26 -4 36 -6 10 -14 35 -18 56 -4 22
-17 59 -30 84 -13 25 -24 49 -24 54 0 12 -89 108 -115 123 -24 15 -42 16 -49
5z"/>
<path d="M17982 13918 c-7 -7 -12 -21 -12 -33 0 -11 -8 -25 -19 -32 -12 -7
-20 -27 -23 -56 -3 -27 -14 -53 -27 -66 -39 -39 -23 -200 27 -253 48 -52 53
-41 46 95 -5 95 -2 138 11 197 24 110 28 147 18 153 -6 4 -15 1 -21 -5z"/>
<path d="M18173 13858 c-19 -34 -36 -82 -43 -129 -11 -65 -11 -79 4 -113 9
-21 16 -47 16 -57 0 -10 11 -31 24 -46 l24 -28 11 28 c6 15 14 103 17 195 5
137 4 170 -8 186 -14 17 -17 15 -45 -36z"/>
<path d="M17980 13433 c1 -18 18 -35 24 -24 4 6 4 16 1 21 -7 12 -25 13 -25 3z"/>
<path d="M18810 17916 c-152 -41 -277 -94 -379 -160 -139 -91 -347 -276 -391
-348 -9 -15 -28 -36 -42 -47 -14 -11 -28 -34 -31 -50 -5 -23 -13 -31 -37 -36
-17 -4 -34 -13 -37 -21 -3 -8 -9 -12 -13 -9 -4 3 -2 22 6 43 15 45 39 211 31
219 -18 18 -162 -141 -232 -256 -64 -105 -118 -177 -167 -220 -20 -17 -39 -31
-43 -31 -5 0 -23 -16 -42 -35 l-34 -35 30 -37 c17 -20 56 -56 87 -79 31 -23
81 -66 112 -96 73 -68 157 -138 169 -138 4 0 25 -9 45 -19 30 -17 64 -21 210
-26 95 -3 187 -10 203 -15 17 -5 63 -14 104 -20 41 -6 94 -17 118 -25 58 -20
216 -20 232 -1 7 8 28 17 47 21 19 3 38 13 41 21 3 7 15 14 28 14 12 0 34 9
48 20 14 11 28 20 31 20 8 0 137 99 186 144 25 23 59 59 76 81 36 45 124 202
124 219 0 6 6 23 14 38 8 14 19 42 26 62 6 20 22 55 34 78 13 24 32 59 42 78
11 19 23 38 27 41 5 3 16 18 25 31 9 14 37 54 62 89 46 66 102 159 132 220 44
90 49 108 40 126 -5 10 -7 23 -5 30 2 7 -1 21 -7 32 -28 53 -113 1 -206 -124
-36 -49 -84 -111 -105 -136 -22 -26 -39 -53 -39 -61 0 -8 -6 -23 -14 -34 -8
-10 -13 -28 -10 -40 4 -14 -6 -38 -28 -68 -18 -27 -37 -55 -43 -64 -5 -9 -18
-23 -27 -30 -10 -7 -18 -22 -18 -32 0 -11 -27 -47 -60 -81 -33 -34 -60 -65
-60 -70 0 -5 -4 -9 -10 -9 -5 0 -19 -9 -30 -20 -11 -11 -40 -35 -63 -53 -23
-18 -51 -40 -62 -49 -70 -59 -191 -135 -269 -170 l-91 -40 -175 -5 c-139 -4
-180 -8 -200 -21 -20 -13 -58 -17 -179 -20 -143 -4 -155 -3 -182 17 -15 12
-34 21 -42 21 -13 0 -44 23 -92 68 -11 10 -33 23 -50 28 l-30 8 33 4 c23 2 38
-2 46 -14 9 -12 28 -17 67 -18 86 -1 153 37 265 150 122 121 137 144 214 324
25 57 66 109 87 110 6 0 27 -28 47 -63 19 -35 55 -82 79 -104 49 -45 138 -80
179 -70 80 21 225 155 287 269 36 66 38 83 11 123 -11 17 -20 38 -20 48 0 21
33 23 50 2 35 -42 119 -33 184 19 22 17 69 50 104 72 64 42 64 42 41 56 -44
25 -56 33 -130 83 -136 92 -202 106 -329 71z m-1285 -986 c3 -5 -1 -10 -9 -10
-9 0 -16 5 -16 10 0 6 4 10 9 10 6 0 13 -4 16 -10z m93 -7 c-10 -2 -18 -12
-18 -22 0 -10 -2 -20 -5 -23 -10 -9 -55 4 -55 16 0 14 45 34 75 34 16 0 17 -1
3 -5z"/>
<path d="M16235 16199 c-17 -11 -48 -19 -71 -19 -42 0 -103 -25 -199 -80 -27
-16 -60 -33 -73 -39 -12 -6 -51 -30 -85 -53 -34 -23 -89 -59 -122 -81 -91 -61
-471 -451 -507 -521 -9 -18 -28 -41 -42 -50 -30 -19 -33 -53 -15 -152 29 -164
179 -356 289 -371 37 -5 130 23 170 52 8 6 35 21 60 34 25 13 52 30 60 36 8 7
25 16 36 19 12 4 29 15 39 26 10 11 24 20 30 20 7 0 18 7 25 16 8 8 28 21 47
29 18 8 33 19 33 24 0 6 8 11 18 11 18 0 138 78 206 133 56 46 168 155 180
176 6 10 23 37 39 59 27 41 33 63 21 75 -7 7 -49 -18 -76 -45 -10 -10 -21 -18
-25 -18 -5 0 -25 -15 -45 -33 -21 -17 -48 -40 -60 -50 -13 -9 -37 -28 -54 -42
-18 -14 -37 -25 -43 -25 -6 0 -16 -9 -23 -20 -7 -11 -20 -20 -29 -20 -9 0 -22
-7 -29 -15 -6 -8 -22 -17 -33 -21 -12 -3 -29 -12 -37 -18 -8 -7 -37 -18 -65
-25 -27 -7 -57 -19 -66 -27 -8 -8 -33 -14 -55 -14 -29 0 -35 3 -24 10 8 5 27
10 43 10 34 0 37 27 3 40 -35 13 -42 31 -20 46 10 7 26 20 35 29 14 14 19 14
45 0 56 -29 107 -16 159 40 100 108 190 223 250 319 35 56 147 184 171 194 15
7 21 17 18 30 -4 12 9 31 40 60 25 23 46 45 46 48 0 3 -12 21 -27 40 -25 30
-33 34 -75 34 -49 0 -55 4 -39 29 7 11 3 21 -12 36 -12 12 -30 36 -39 53 -19
37 -31 38 -73 11z"/>
<path d="M20065 13150 c-4 -6 -3 -16 3 -22 6 -6 12 -6 17 2 4 6 3 16 -3 22 -6
6 -12 6 -17 -2z"/>
<path d="M20140 13110 c-21 -13 -1 -44 31 -48 13 -2 29 -9 34 -16 13 -16 222
-116 242 -116 6 0 24 -7 40 -15 15 -8 67 -33 116 -55 71 -34 103 -57 168 -121
78 -77 120 -98 132 -66 7 19 -80 145 -149 213 -38 37 -79 67 -101 74 -21 7
-43 16 -48 21 -6 4 -33 13 -60 19 -27 6 -56 17 -65 25 -8 7 -43 17 -77 21 -35
3 -68 13 -74 20 -6 8 -26 14 -44 14 -18 0 -44 9 -58 20 -27 21 -63 26 -87 10z"/>
<path d="M21540 11544 c0 -8 5 -12 10 -9 6 4 8 11 5 16 -9 14 -15 11 -15 -7z"/>
<path d="M19786 11343 c-9 -10 -7 -55 3 -49 12 8 21 45 11 51 -4 2 -10 2 -14
-2z"/>
<path d="M19093 11304 c-3 -9 -3 -59 0 -112 8 -142 -8 -193 -100 -308 -78
-100 -112 -121 -161 -103 -15 6 -35 17 -44 26 -10 8 -24 13 -32 10 -13 -5 -13
-10 -3 -29 23 -45 71 -99 98 -114 34 -17 140 -19 157 -2 9 9 12 7 12 -10 0
-16 -8 -23 -27 -27 -93 -20 -171 -40 -194 -51 -20 -10 -35 -10 -63 -2 -75 23
-74 -38 2 -76 69 -34 148 -40 267 -19 117 20 155 42 205 115 l35 51 -2 183
c-2 136 -6 191 -16 211 -8 15 -18 48 -22 73 -4 25 -21 80 -37 123 -23 59 -34
77 -49 77 -11 0 -22 -7 -26 -16z"/>
<path d="M20167 11299 c-9 -6 -45 -14 -80 -20 -110 -17 -191 -40 -234 -67 -24
-15 -43 -30 -43 -34 0 -5 -9 -8 -19 -8 -14 0 -18 5 -14 20 7 26 -5 90 -18 90
-16 0 -49 -64 -49 -96 0 -23 6 -34 25 -42 19 -9 25 -19 25 -43 0 -22 9 -40 32
-61 28 -26 37 -29 72 -23 86 13 147 51 251 156 55 55 110 104 123 109 12 5 22
14 22 20 0 13 -70 13 -93 -1z"/>
<path d="M20561 11189 l-34 -10 51 -24 c28 -13 73 -27 99 -31 26 -4 70 -15 96
-25 26 -11 68 -19 94 -19 42 0 45 2 39 23 -3 12 -6 25 -6 30 0 4 -12 7 -27 7
-16 0 -47 9 -70 19 -23 11 -68 22 -100 26 -32 3 -69 8 -83 10 -14 2 -40 -1
-59 -6z"/>
<path d="M20600 10700 c-91 -4 -178 -13 -193 -19 -17 -7 -72 -9 -145 -6 -97 3
-122 1 -149 -13 l-33 -17 43 -22 c53 -27 261 -65 387 -71 56 -2 124 2 165 10
39 7 117 13 175 13 102 -1 107 -2 192 -43 48 -23 94 -42 102 -42 8 0 17 -4 20
-9 3 -5 30 -15 58 -21 29 -7 64 -18 78 -25 14 -7 45 -15 69 -19 24 -4 55 -13
70 -20 15 -8 45 -17 66 -21 22 -3 65 -12 95 -20 106 -26 216 -45 268 -45 45 0
52 3 52 19 0 29 -42 74 -97 103 -52 28 -190 58 -269 58 -62 0 -148 15 -239 41
-102 30 -117 36 -191 85 -59 39 -73 44 -123 44 -31 0 -76 -7 -100 -16 -30 -10
-58 -13 -85 -8 l-41 7 33 15 c43 21 39 47 -8 48 -19 1 -109 -2 -200 -6z"/>
<path d="M18073 10684 c-3 -8 -1 -20 4 -25 14 -14 43 0 43 22 0 24 -38 26 -47
3z"/>
<path d="M18402 10490 c0 -14 2 -19 5 -12 2 6 2 18 0 25 -3 6 -5 1 -5 -13z"/>
<path d="M21784 9838 c-11 -18 81 -96 186 -160 35 -21 76 -30 104 -22 l24 6
-23 22 c-13 13 -44 33 -68 45 -25 12 -74 40 -108 62 -77 50 -106 62 -115 47z"/>
<path d="M17550 7735 c-150 -27 -289 -67 -492 -138 -159 -57 -249 -111 -232
-139 7 -11 66 -6 144 11 25 6 69 10 98 11 29 0 68 6 87 14 18 8 60 18 92 21
32 4 69 13 83 20 14 7 50 16 80 20 30 4 70 14 89 21 49 21 232 34 328 24 99
-10 153 -24 403 -105 107 -35 211 -66 230 -70 31 -7 33 -6 21 9 -7 9 -10 16
-5 16 16 0 -93 93 -136 115 -84 43 -312 125 -347 125 -8 0 -26 6 -41 14 -27
14 -173 45 -242 51 -19 2 -91 -7 -160 -20z"/>
<path d="M20167 7538 c-14 -29 -30 -72 -36 -95 -25 -93 -120 -189 -251 -254
-56 -29 -79 -34 -170 -39 -95 -6 -109 -5 -165 17 -127 51 -251 71 -239 38 9
-23 140 -114 234 -163 47 -24 92 -47 100 -52 204 -118 220 -124 220 -81 0 14
11 23 37 32 20 6 80 44 132 84 53 40 132 92 176 116 l80 44 140 0 c104 0 154
-5 194 -18 45 -14 94 -17 282 -17 124 0 241 3 258 6 37 8 121 78 121 102 1 10
9 41 19 70 10 29 14 55 9 58 -16 10 -57 -25 -72 -60 -11 -26 -28 -40 -72 -61
l-58 -28 -206 6 c-198 5 -341 24 -450 58 -92 30 -205 133 -216 198 -17 102
-34 112 -67 39z"/>
<path d="M20360 6943 c-32 -6 -48 -21 -29 -27 115 -34 161 -50 194 -66 133
-63 140 -65 206 -64 39 1 78 8 98 18 26 14 52 16 129 13 53 -2 115 -10 138
-17 23 -7 50 -10 60 -6 18 7 18 8 -1 21 -11 8 -25 19 -31 24 -26 22 -130 64
-170 69 -25 2 -64 -2 -97 -13 -38 -12 -74 -15 -123 -12 -71 5 -179 31 -202 49
-14 12 -133 19 -172 11z"/>
<path d="M20806 6416 c17 -28 32 -32 159 -46 261 -29 273 -33 325 -84 20 -20
20 -20 20 1 0 21 -82 93 -107 93 -8 0 -24 7 -37 15 -27 18 -210 45 -309 45
l-67 0 16 -24z"/>
<path d="M22375 6318 c-11 -6 -23 -16 -27 -22 -10 -14 -9 -285 0 -389 6 -65
12 -81 34 -104 l26 -26 12 44 c7 24 21 56 31 71 13 18 21 52 25 105 4 43 13
90 20 105 22 42 18 105 -6 118 -11 6 -20 16 -20 23 0 7 -5 29 -11 50 -8 31
-14 37 -37 37 -15 0 -36 -6 -47 -12z"/>
<path d="M17945 6183 c-11 -3 -27 -11 -35 -18 -8 -8 -26 -19 -40 -24 -14 -6
-46 -25 -73 -41 -26 -16 -81 -41 -123 -56 -71 -24 -85 -26 -228 -22 -97 2
-158 7 -167 15 -26 21 -89 25 -407 28 -174 2 -356 6 -404 10 -56 5 -88 3 -88
-3 0 -5 8 -12 18 -15 9 -4 49 -24 87 -47 150 -86 154 -87 332 -94 145 -6 172
-10 270 -40 96 -30 173 -48 308 -71 22 -4 141 -11 265 -15 211 -8 234 -10 370
-44 161 -40 174 -44 280 -81 85 -29 182 -50 285 -60 39 -4 103 -15 144 -26 79
-20 101 -15 101 22 0 23 19 24 46 4 10 -8 24 -15 29 -15 6 0 37 -25 70 -55 32
-30 64 -55 71 -55 6 0 17 -7 24 -15 7 -8 24 -15 37 -15 22 0 24 2 12 16 -29
35 -79 139 -79 164 0 9 9 25 20 35 11 10 20 24 20 32 0 7 6 13 14 13 7 0 25 9
39 20 45 35 99 24 262 -55 114 -55 189 -85 212 -85 10 0 32 -9 48 -20 17 -11
38 -20 49 -20 15 0 107 -40 156 -69 25 -15 137 -61 147 -61 6 0 23 -6 39 -14
114 -57 252 -101 389 -126 158 -29 206 -30 400 -10 336 35 379 48 466 132 40
39 89 133 89 171 0 41 -43 108 -107 166 -53 49 -75 62 -119 72 -30 7 -57 16
-60 21 -12 19 -68 -47 -110 -129 -24 -49 -44 -93 -44 -99 0 -6 -9 -23 -21 -38
-26 -33 -18 -56 18 -56 41 0 82 29 153 109 63 72 64 72 104 66 72 -12 85 -62
39 -147 -24 -41 -38 -54 -93 -80 l-65 -32 -240 -7 c-234 -8 -243 -8 -335 16
-113 28 -184 51 -226 71 -17 9 -46 19 -65 24 -45 12 -146 47 -186 66 -17 7
-38 14 -47 14 -9 0 -33 9 -53 20 -21 11 -44 20 -51 20 -7 0 -25 9 -40 19 -15
11 -43 22 -63 25 -21 4 -42 13 -49 21 -7 8 -22 15 -33 15 -11 0 -38 8 -61 19
-23 10 -79 31 -126 45 -80 25 -115 39 -184 72 -41 21 -190 51 -308 64 -57 6
-128 18 -158 27 -30 9 -75 19 -100 23 -25 4 -87 19 -139 33 -52 15 -147 34
-210 43 -116 16 -148 26 -273 90 -66 34 -156 50 -203 37z"/>
<path d="M20061 5107 c-8 -8 -4 -15 18 -27 16 -8 55 -33 88 -54 112 -75 153
-98 225 -127 57 -22 176 -49 221 -49 42 0 36 33 -10 54 -21 9 -49 23 -63 31
-22 13 -174 85 -255 120 -119 53 -204 72 -224 52z"/>
<path d="M16208 4611 c-35 -7 -68 -26 -68 -40 0 -16 169 -88 265 -113 22 -5
69 -18 105 -28 36 -10 83 -21 105 -24 22 -3 99 -24 170 -47 72 -23 180 -54
240 -69 61 -15 157 -46 215 -67 58 -22 128 -46 155 -53 28 -8 86 -29 130 -48
188 -79 290 -110 510 -157 43 -9 91 -23 105 -30 14 -7 45 -16 70 -20 25 -4 53
-12 63 -17 10 -5 57 -16 105 -23 180 -30 208 -35 232 -46 14 -6 48 -17 75 -24
28 -8 82 -25 120 -40 39 -15 90 -33 115 -41 25 -8 59 -21 77 -29 17 -8 43 -15
57 -15 14 0 48 -9 76 -20 28 -11 65 -20 83 -20 18 0 52 -9 76 -20 24 -11 55
-20 70 -20 14 0 42 -8 61 -18 19 -11 48 -22 64 -26 16 -4 41 -16 54 -27 14
-10 31 -19 38 -19 22 0 184 -160 190 -189 3 -14 13 -41 22 -60 22 -44 21 -145
-1 -186 -19 -34 -16 -41 12 -25 27 14 139 50 156 50 28 0 27 75 -2 130 -7 14
-13 32 -13 41 0 8 -11 31 -25 50 -14 19 -33 45 -42 59 -23 31 -134 140 -144
140 -4 0 -15 7 -24 16 -27 27 -84 63 -110 70 -13 3 -29 12 -36 20 -6 7 -27 16
-48 20 -20 4 -52 15 -71 25 -19 11 -45 19 -57 19 -13 0 -40 9 -60 20 -21 11
-47 20 -59 20 -12 0 -41 9 -65 20 -24 11 -57 20 -74 20 -16 0 -50 9 -74 20
-24 11 -56 20 -73 20 -16 0 -48 8 -71 19 -23 10 -68 21 -100 25 -32 3 -69 13
-81 21 -13 9 -53 19 -89 23 -89 11 -138 52 -80 67 15 3 50 17 79 31 28 13 56
24 63 24 20 0 35 45 22 68 -6 11 -11 23 -11 26 0 11 244 6 280 -5 19 -5 82
-10 140 -9 114 1 267 -15 315 -32 17 -6 53 -16 80 -23 28 -6 67 -19 87 -28 21
-9 50 -17 65 -17 16 0 38 -7 50 -15 11 -8 40 -17 64 -21 24 -4 53 -13 64 -20
11 -7 38 -17 60 -23 53 -13 130 -40 181 -62 23 -11 52 -19 65 -19 13 -1 42 -9
64 -20 22 -11 49 -20 60 -20 11 0 33 -7 48 -15 16 -8 82 -23 147 -34 114 -18
214 -17 310 5 39 8 153 55 170 69 8 7 37 25 64 40 93 54 226 213 226 270 0 9
7 27 17 41 22 34 31 211 11 236 -17 22 -58 27 -69 8 -24 -47 -49 -109 -49
-126 -1 -10 -13 -40 -28 -65 -95 -161 -148 -209 -287 -263 -68 -26 -257 -34
-323 -12 -26 8 -74 18 -107 22 -33 3 -67 12 -75 19 -8 7 -40 16 -70 20 -30 4
-64 13 -75 19 -11 7 -42 16 -70 21 -27 4 -59 12 -70 18 -11 6 -47 16 -80 23
-33 7 -78 19 -100 28 -22 8 -55 15 -73 16 -18 0 -46 7 -61 15 -16 8 -48 17
-72 21 -24 3 -54 13 -66 20 -12 8 -52 18 -88 23 -37 5 -72 15 -80 21 -7 6 -48
15 -91 20 -44 5 -92 13 -109 19 -16 6 -80 15 -141 20 -60 6 -121 14 -135 20
-14 5 -52 12 -85 16 -32 3 -113 13 -179 21 -79 9 -179 13 -290 10 -163 -3
-255 7 -289 33 -19 13 -159 59 -218 71 -31 6 -78 10 -105 9 -47 -3 -304 31
-393 52 -25 6 -128 14 -230 19 -102 4 -198 13 -214 19 -16 7 -84 16 -151 21
-67 5 -134 14 -149 20 -31 11 -389 12 -448 1z"/>
<path d="M21351 4611 c-11 -7 -4 -12 25 -20 21 -6 45 -11 52 -11 7 0 27 -7 43
-16 17 -8 63 -21 102 -29 40 -7 86 -18 102 -23 17 -6 53 -15 80 -20 28 -5 64
-14 80 -20 31 -12 137 -42 215 -62 87 -22 119 -27 129 -21 13 9 -36 56 -69 66
-14 4 -38 15 -55 25 -16 10 -46 21 -65 25 -19 4 -44 14 -55 21 -11 7 -45 16
-75 20 -30 4 -67 13 -81 20 -14 7 -54 16 -90 20 -35 4 -81 13 -103 20 -43 16
-213 19 -235 5z"/>
<path d="M18714 2751 c-57 -11 -102 -26 -119 -39 -15 -12 -35 -22 -44 -22 -14
0 -14 -2 -1 -10 18 -12 327 -13 334 -2 3 5 31 15 63 22 59 14 93 39 70 52 -31
17 -214 17 -303 -1z"/>
</g>
</svg>
