<?xml version="1.0" standalone="no"?>
<!DOCTYPE svg PUBLIC "-//W3C//DTD SVG 20010904//EN"
 "http://www.w3.org/TR/2001/REC-SVG-20010904/DTD/svg10.dtd">
<svg version="1.0" xmlns="http://www.w3.org/2000/svg"
 width="1500.000000pt" height="1500.000000pt" viewBox="0 0 1500.000000 1500.000000"
 preserveAspectRatio="xMidYMid meet">
<metadata>
Created by potrace 1.10, written by Peter Selinger 2001-2011
</metadata>
<g transform="translate(0.000000,1500.000000) scale(0.100000,-0.100000)"
fill="#000000" stroke="none">
<path d="M6345 14190 c-38 -4 -106 -8 -150 -9 -44 0 -118 -7 -165 -15 -47 -8
-130 -22 -185 -31 -199 -32 -283 -47 -420 -77 -178 -38 -299 -66 -328 -77 -12
-5 -69 -24 -127 -42 -144 -44 -201 -63 -300 -100 -47 -17 -103 -37 -125 -44
-40 -13 -171 -68 -255 -107 -168 -78 -482 -234 -515 -257 -22 -15 -47 -30 -55
-34 -18 -9 -40 -23 -97 -60 -24 -15 -45 -27 -48 -27 -14 0 -358 -235 -464
-318 -178 -139 -396 -328 -540 -467 -124 -121 -380 -394 -446 -476 -178 -222
-337 -447 -466 -659 -45 -74 -88 -142 -95 -150 -15 -18 -216 -415 -263 -520
-19 -41 -42 -93 -52 -115 -29 -66 -64 -154 -108 -275 -23 -63 -48 -131 -55
-150 -23 -61 -38 -104 -46 -135 -5 -16 -17 -55 -26 -85 -110 -372 -193 -822
-225 -1220 -36 -468 -17 -923 58 -1380 46 -285 135 -670 193 -840 12 -36 26
-78 30 -95 5 -16 18 -55 30 -85 11 -30 28 -75 37 -100 53 -156 156 -394 248
-574 279 -548 469 -835 864 -1296 229 -268 643 -648 956 -877 331 -242 506
-348 860 -522 261 -128 293 -143 485 -219 69 -27 306 -105 425 -138 28 -8 75
-21 105 -30 30 -8 75 -21 100 -29 25 -7 79 -21 120 -30 41 -9 91 -21 110 -25
188 -47 512 -98 735 -116 289 -24 790 -29 1013 -10 401 35 608 68 927 151 107
27 152 38 200 46 28 5 78 18 110 29 33 12 77 26 99 31 90 23 97 44 29 87 -62
39 -102 54 -193 75 -169 37 -234 47 -311 47 -66 0 -88 4 -131 26 -55 28 -131
50 -218 65 -30 5 -102 17 -160 28 -91 16 -109 17 -137 5 -18 -7 -33 -17 -33
-22 0 -10 33 -42 44 -42 14 0 97 -41 116 -58 12 -10 20 -29 20 -49 0 -26 -9
-39 -50 -74 -55 -46 -60 -61 -29 -82 30 -21 23 -74 -14 -101 -28 -20 -38 -21
-370 -20 -188 1 -414 7 -502 13 -88 6 -263 11 -390 11 -268 0 -251 -7 -272
115 -18 106 -16 363 2 416 30 84 86 136 190 173 28 10 93 41 145 69 169 90
273 138 365 167 135 43 159 53 201 92 54 50 84 101 119 203 57 165 81 295 91
475 9 169 41 243 166 378 105 113 143 168 163 236 24 79 50 109 226 263 132
116 359 352 373 388 8 19 5 36 -13 72 -46 95 -38 175 26 265 19 26 48 81 63
122 16 42 38 93 50 115 13 27 19 56 17 87 l-2 47 50 16 c44 14 55 24 93 81
168 255 326 400 569 524 27 13 63 39 81 57 l32 33 0 110 c0 131 -12 180 -51
217 -16 15 -29 34 -29 43 0 45 102 156 143 156 30 0 75 -47 87 -91 6 -19 17
-88 24 -154 18 -147 45 -224 92 -264 35 -28 39 -29 182 -34 81 -3 165 -10 187
-17 22 -6 65 -18 95 -27 30 -8 69 -21 85 -28 17 -8 55 -23 85 -35 67 -27 168
-89 233 -144 88 -74 229 -247 271 -332 44 -90 74 -132 161 -224 69 -73 129
-172 156 -262 33 -106 23 -171 -44 -268 -62 -91 -78 -119 -99 -180 -18 -50
-21 -86 -24 -380 -3 -354 1 -409 41 -497 14 -32 33 -73 41 -91 18 -42 18 -141
0 -206 -18 -62 -44 -310 -50 -463 -3 -105 -2 -113 15 -113 10 0 32 12 49 27
24 22 32 40 40 88 l9 60 193 190 c210 206 242 240 397 420 152 176 284 351
456 600 51 75 162 258 211 350 20 39 52 96 70 128 19 32 34 60 34 62 0 2 34
75 75 162 91 189 91 189 148 328 52 124 142 382 180 515 8 30 23 82 33 115 44
156 61 218 74 290 5 22 15 72 24 110 21 94 61 350 80 510 64 540 46 1139 -49
1705 -34 202 -63 324 -131 565 -64 228 -165 513 -254 720 -87 204 -245 524
-300 610 -11 17 -23 37 -27 45 -22 47 -132 224 -216 346 -437 643 -1010 1203
-1687 1648 -74 49 -147 97 -162 108 -15 10 -30 18 -34 18 -4 0 -15 6 -23 14
-41 35 -587 316 -616 316 -2 0 -36 15 -77 34 -77 35 -334 132 -428 162 -30 9
-71 22 -90 29 -69 24 -116 38 -150 46 -19 4 -62 15 -95 24 -96 25 -402 91
-500 108 -84 15 -206 32 -405 57 -259 33 -795 49 -985 30z m835 -776 c85 -9
188 -22 229 -30 40 -8 89 -14 108 -14 19 0 62 -7 96 -15 34 -8 98 -22 142 -31
238 -48 568 -144 775 -224 30 -12 66 -25 80 -30 14 -4 54 -21 90 -37 36 -17
97 -44 136 -61 254 -112 625 -327 880 -512 110 -80 159 -118 314 -244 77 -63
451 -430 541 -531 103 -117 290 -361 396 -520 94 -139 183 -280 183 -289 0 -2
21 -41 47 -87 166 -299 291 -585 398 -909 33 -98 42 -126 79 -255 20 -68 72
-310 90 -420 71 -426 79 -525 80 -935 0 -394 -2 -427 -66 -825 -27 -174 -39
-232 -84 -425 -14 -61 -53 -197 -76 -265 -5 -16 -14 -43 -18 -60 -5 -16 -18
-55 -30 -85 -11 -30 -34 -91 -49 -135 -66 -186 -232 -548 -327 -710 -22 -38
-54 -95 -71 -125 -48 -86 -210 -325 -324 -479 -96 -130 -130 -163 -147 -146
-4 3 -7 61 -7 128 1 178 22 256 93 355 l56 77 -1 105 c0 59 -6 118 -13 135 -7
17 -16 44 -20 60 -5 17 -20 62 -35 100 -38 100 -38 215 0 275 15 23 29 58 32
76 4 23 20 49 48 77 53 52 61 68 69 137 7 55 62 255 94 340 9 25 33 79 53 120
19 41 44 107 54 145 10 39 28 102 40 140 13 39 44 135 70 215 26 80 47 165 48
190 0 25 -14 89 -32 145 -31 93 -34 114 -41 292 -9 221 -11 227 -102 298 -32
25 -71 64 -86 86 -15 22 -46 62 -69 89 -43 51 -83 128 -83 162 0 27 -27 76
-71 129 -22 26 -39 53 -39 60 0 8 11 32 25 54 29 47 33 125 11 196 -20 65 -35
143 -46 239 -10 93 -31 170 -80 300 -17 47 -35 99 -40 115 -5 17 -18 55 -30
85 -12 30 -26 76 -31 102 -18 86 -35 111 -178 247 -188 179 -182 175 -311 176
-124 1 -139 8 -172 79 -13 28 -41 78 -63 111 -22 33 -57 94 -79 137 -23 46
-63 104 -101 145 -35 37 -88 106 -117 152 -65 105 -95 135 -167 168 -73 34
-88 47 -112 102 -35 80 -93 119 -259 174 -41 13 -104 37 -140 53 -82 35 -170
42 -275 20 -122 -25 -157 -22 -481 46 -99 21 -346 -36 -380 -87 -25 -38 -83
-55 -186 -55 -101 0 -274 -23 -328 -45 -19 -7 -82 -28 -140 -45 -208 -63 -229
-72 -271 -105 -26 -20 -59 -36 -85 -40 -71 -10 -174 -130 -174 -202 0 -33 -9
-46 -92 -129 -51 -50 -131 -120 -178 -155 -80 -60 -86 -68 -106 -126 -31 -93
-81 -186 -132 -245 -179 -210 -204 -297 -165 -595 16 -125 16 -136 0 -186 -9
-30 -17 -59 -17 -64 0 -6 19 -31 43 -55 23 -25 50 -67 61 -94 43 -112 118
-212 214 -283 69 -51 71 -53 119 -173 9 -24 41 -86 70 -139 77 -139 89 -178
72 -237 -20 -69 -16 -177 10 -233 27 -60 90 -131 145 -163 33 -19 48 -37 65
-75 12 -29 43 -71 72 -99 54 -52 54 -52 114 -168 29 -56 59 -95 110 -143 121
-114 257 -253 332 -337 45 -51 104 -103 157 -139 119 -80 155 -122 226 -271
80 -166 134 -248 226 -345 41 -43 79 -90 84 -104 19 -51 12 -157 -19 -256 -16
-52 -32 -118 -35 -146 -4 -29 -16 -74 -27 -100 -33 -75 -59 -183 -59 -245 0
-51 -3 -59 -31 -80 -38 -28 -86 -74 -157 -151 -39 -41 -67 -61 -104 -74 -37
-13 -67 -34 -107 -76 -67 -70 -164 -147 -185 -147 -8 0 -17 -4 -20 -9 -3 -5
-18 -12 -32 -15 -14 -4 -67 -31 -118 -61 -176 -104 -178 -109 -195 -486 -6
-141 -11 -182 -24 -203 -10 -14 -61 -61 -115 -103 -111 -89 -295 -268 -372
-363 -29 -36 -101 -117 -160 -180 -198 -212 -249 -283 -345 -474 -33 -66 -67
-124 -76 -130 -12 -7 -70 4 -210 38 -107 25 -205 51 -219 55 -14 5 -54 16 -90
26 -36 9 -76 22 -90 27 -14 6 -38 14 -55 19 -53 14 -300 105 -435 160 -71 29
-181 82 -325 155 -365 186 -708 419 -1040 708 -139 121 -419 407 -520 530 -22
27 -44 54 -50 60 -44 49 -142 179 -281 376 -47 66 -181 285 -264 430 -72 127
-256 526 -290 630 -5 14 -23 63 -40 110 -49 131 -64 181 -120 385 -87 322
-107 415 -151 715 -17 118 -39 452 -39 600 0 268 25 596 66 850 51 315 160
737 254 980 12 30 25 67 30 81 4 14 12 34 18 45 6 10 27 60 48 109 42 104 147
322 197 410 18 33 48 87 67 120 203 364 527 784 859 1115 301 300 542 491 891
707 96 59 184 113 195 119 160 89 311 161 510 245 96 41 104 44 155 64 25 10
54 21 65 26 11 5 34 13 50 18 17 5 55 19 85 30 30 12 132 43 225 70 162 47
231 63 390 96 39 8 102 21 141 30 40 8 82 15 95 15 13 0 71 6 129 15 373 52
834 64 1180 29z m1110 -2326 c19 -6 73 -31 120 -56 47 -26 123 -66 170 -90
108 -55 113 -58 187 -115 63 -49 129 -126 197 -230 64 -97 167 -171 229 -165
45 4 46 31 3 78 -40 44 -42 52 -23 68 15 13 51 -4 159 -74 37 -24 71 -44 76
-44 5 0 28 -14 51 -30 38 -28 42 -35 39 -68 -4 -51 -36 -62 -116 -38 -67 21
-154 18 -219 -7 -39 -16 -331 -157 -363 -177 -8 -5 -58 -34 -110 -66 -263
-157 -480 -339 -676 -569 -146 -171 -196 -214 -329 -282 -82 -42 -153 -65
-261 -82 -48 -7 -81 -22 -153 -68 -50 -32 -123 -78 -162 -103 -39 -25 -124
-87 -187 -138 -76 -61 -123 -92 -136 -90 -26 4 -223 274 -275 378 -50 98 -60
155 -71 407 -16 341 -3 408 103 552 136 182 355 367 565 476 63 33 112 68 155
110 65 64 154 136 272 220 212 151 326 196 540 214 105 9 157 6 215 -11z
m1760 -765 c97 -36 223 -133 257 -198 20 -37 33 -93 26 -111 -8 -21 -28 -6
-63 48 -83 128 -209 228 -287 228 -68 0 -123 -78 -123 -177 0 -26 -5 -43 -11
-43 -7 0 -33 13 -58 28 -25 16 -54 31 -63 35 -25 9 -22 41 6 86 64 101 202
147 316 104z m-610 -143 c0 -10 -4 -22 -10 -25 -5 -3 -10 -15 -10 -26 0 -22
18 -24 69 -9 43 12 132 -9 211 -51 63 -33 134 -59 161 -59 10 0 28 10 39 23
17 17 21 31 17 65 -4 41 10 72 32 72 18 0 85 -51 181 -138 26 -23 61 -52 76
-64 65 -49 182 -171 211 -220 35 -57 84 -194 104 -288 4 -19 17 -60 30 -90 45
-111 37 -175 -36 -265 -17 -22 -37 -50 -44 -62 -21 -40 -16 -47 338 -527 230
-311 225 -297 223 -596 l-1 -235 -54 -105 c-30 -58 -67 -134 -82 -170 -81
-193 -97 -215 -160 -225 -47 -8 -77 11 -123 78 -16 23 -52 76 -81 117 -29 41
-72 105 -96 141 -25 36 -60 81 -79 101 -58 60 -174 106 -386 153 -41 10 -133
35 -205 57 -165 51 -178 54 -195 34 -10 -13 -10 -22 -1 -42 6 -14 8 -30 5 -36
-13 -21 -83 0 -151 46 -38 25 -76 46 -84 46 -9 0 -26 -19 -39 -42 -42 -74
-120 -141 -257 -219 -70 -39 -141 -81 -158 -93 -87 -60 -166 -157 -218 -267
-29 -62 -45 -74 -73 -55 -11 6 -44 20 -74 31 -30 10 -73 29 -94 43 -71 44 -99
52 -142 41 -44 -12 -89 -48 -76 -61 5 -5 44 -17 87 -28 130 -32 193 -70 231
-142 33 -63 26 -227 -13 -306 -15 -30 -26 -38 -61 -47 -32 -7 -55 -23 -90 -61
-105 -113 -235 -154 -272 -84 -19 35 -4 55 55 74 30 9 55 23 55 30 0 25 -116
112 -214 161 -100 49 -101 50 -114 97 -12 43 -40 73 -324 350 -580 564 -549
531 -601 638 -72 146 -66 150 71 43 114 -90 156 -135 194 -210 65 -130 438
-472 515 -473 27 0 40 38 24 69 -9 15 -171 121 -186 121 -2 0 -30 17 -62 39
-82 54 -175 157 -211 233 -27 58 -81 120 -127 145 -21 12 -12 33 13 33 28 0
130 38 217 80 114 56 200 123 362 285 157 157 196 217 207 323 7 57 -8 137
-38 206 -33 78 -40 94 -52 135 -18 56 -4 112 37 154 44 43 71 33 218 -82 121
-95 174 -142 435 -385 66 -61 127 -111 135 -111 17 0 17 4 7 46 -7 34 22 50
41 23 26 -36 55 -131 57 -184 1 -53 0 -55 -24 -52 -14 1 -62 25 -108 53 -97
59 -109 58 -182 -16 -59 -60 -103 -72 -290 -80 -85 -4 -158 -9 -163 -12 -4 -2
5 -21 21 -41 16 -20 35 -48 42 -62 24 -44 124 -141 170 -165 52 -26 72 -23 64
9 -5 22 -2 23 53 29 73 8 98 19 191 82 105 71 124 84 148 94 44 20 102 85 114
129 25 96 -17 225 -115 345 -30 38 -55 73 -55 78 0 24 39 64 114 116 326 228
536 412 596 523 34 63 35 69 35 170 l0 105 -67 157 c-38 86 -68 165 -68 176 0
33 73 117 111 129 40 12 49 8 49 -17z m-378 -122 c85 -59 177 -202 193 -297 4
-24 16 -64 27 -89 56 -126 -20 -266 -227 -423 -118 -89 -306 -190 -492 -264
-41 -16 -43 -16 -90 8 -26 13 -68 32 -93 42 -111 43 -158 71 -215 129 -61 61
-105 130 -105 165 0 60 104 216 225 336 67 67 170 146 245 187 19 11 49 28 65
38 30 20 357 183 385 193 20 7 49 -2 82 -25z m-2945 -27 c33 -48 30 -103 -8
-169 -34 -60 -65 -80 -97 -63 -32 17 -38 70 -13 124 12 25 21 60 21 77 0 77
55 94 97 31z m-6 -345 c19 -8 43 -24 53 -35 17 -19 18 -26 7 -79 -18 -83 0
-163 68 -296 44 -87 30 -99 -40 -37 -47 41 -69 82 -120 226 -17 50 -40 104
-50 121 -25 41 -24 69 3 94 26 24 35 24 79 6z m1555 -672 c31 -36 74 -120 109
-214 10 -25 24 -61 32 -82 24 -57 20 -174 -7 -228 -27 -52 -211 -240 -285
-290 -28 -18 -93 -65 -145 -104 l-95 -71 -80 1 c-119 1 -150 18 -279 157 -146
156 -176 199 -176 253 0 58 41 99 57 57 10 -26 90 -157 145 -237 115 -166 177
-196 122 -59 -29 73 -62 128 -161 273 -80 116 -81 132 -11 206 123 130 387
284 648 378 8 3 33 4 55 1 31 -3 47 -12 71 -41z m1889 -1338 c141 -15 210 -35
248 -70 26 -24 47 -81 47 -128 0 -36 44 -88 61 -71 9 9 6 28 -14 85 -14 39
-23 76 -21 80 15 24 107 -4 160 -49 34 -30 84 -105 84 -126 0 -17 -5 -19 -41
-14 -49 6 -62 -13 -30 -47 25 -26 27 -51 6 -60 -9 -3 -15 -19 -15 -41 0 -40
-3 -41 -55 -19 -70 29 -91 -14 -30 -60 20 -15 43 -38 51 -52 22 -32 4 -54 -43
-54 -39 0 -53 -22 -30 -48 27 -31 77 -122 77 -142 0 -33 -14 -30 -60 12 -124
112 -186 151 -272 169 -68 15 -104 50 -113 112 -9 58 -31 80 -51 52 -8 -10
-14 -30 -14 -44 -1 -77 -39 -65 -116 34 -63 82 -110 114 -166 115 -36 0 -94
51 -108 96 -19 57 -6 96 53 151 63 59 114 91 182 114 61 22 52 21 210 5z
m-737 -559 c17 -66 -31 -167 -80 -167 -24 0 -25 56 -2 81 9 10 20 40 25 66 14
70 41 80 57 20z"/>
<path d="M8320 10153 c-84 -31 -197 -97 -279 -163 -108 -86 -131 -169 -66
-241 19 -22 35 -45 35 -53 0 -22 27 -27 49 -8 40 35 265 331 308 408 10 17 9
25 -3 42 -16 23 -19 24 -44 15z"/>
<path d="M7109 9378 c-77 -38 -210 -168 -252 -246 -23 -43 -27 -62 -25 -109 4
-70 21 -77 51 -19 27 52 87 109 142 136 34 16 76 25 157 31 118 8 189 22 253
47 61 25 106 53 99 63 -7 12 -132 11 -193 -2 -41 -9 -55 -8 -83 7 -44 23 -58
43 -51 76 4 19 0 29 -15 37 -16 8 -32 4 -83 -21z"/>
<path d="M9746 9993 c-15 -15 -3 -37 41 -76 26 -23 86 -78 134 -123 114 -107
258 -223 286 -230 31 -8 49 0 68 30 27 40 12 96 -40 154 -38 43 -55 52 -139
80 -53 18 -101 32 -109 32 -7 0 -50 25 -95 55 -99 66 -137 86 -146 78z"/>
<path d="M9870 8619 c-32 -13 -102 -80 -149 -144 -67 -90 -124 -231 -119 -293
3 -33 7 -38 43 -51 22 -8 67 -14 100 -15 55 -1 66 3 120 40 153 105 213 147
245 174 l35 29 -22 43 c-12 24 -27 59 -33 78 -19 65 -48 100 -103 125 -56 27
-78 29 -117 14z m-72 -343 c8 -38 -57 -50 -82 -14 -21 30 -11 40 37 36 32 -2
43 -8 45 -22z"/>
<path d="M8624 7991 c-14 -12 -26 -48 -38 -107 -10 -49 -24 -107 -32 -129 -19
-57 -34 -212 -24 -263 8 -45 34 -82 57 -82 7 0 13 7 13 16 0 19 25 66 61 114
68 90 105 206 93 286 -11 73 -72 184 -102 184 -5 0 -17 -8 -28 -19z"/>
<path d="M8444 7876 c-8 -34 4 -68 24 -64 24 5 24 81 0 86 -12 2 -19 -5 -24
-22z"/>
<path d="M7482 7871 c-16 -10 12 -40 103 -108 58 -44 90 -77 115 -119 44 -73
114 -142 174 -172 64 -32 83 -72 35 -72 -10 0 -23 -10 -30 -21 -9 -17 -8 -25
5 -37 14 -14 23 -14 68 -4 29 7 91 17 138 23 206 27 246 99 56 99 -83 0 -112
10 -229 78 -58 34 -109 76 -186 155 -133 137 -218 197 -249 178z"/>
<path d="M8340 7815 c0 -8 5 -15 10 -15 6 0 10 7 10 15 0 8 -4 15 -10 15 -5 0
-10 -7 -10 -15z"/>
<path d="M8765 9823 c-67 -15 -154 -57 -225 -109 -56 -41 -157 -161 -179 -214
-12 -27 -22 -44 -63 -103 -46 -65 -35 -81 35 -52 40 17 90 74 137 158 37 66
53 70 96 26 50 -53 74 -60 121 -39 59 26 96 72 108 133 l10 52 50 5 c47 5 105
33 105 50 0 19 -44 60 -85 79 -43 20 -68 24 -110 14z"/>
<path d="M9069 9722 c-24 -27 -57 -76 -74 -108 -65 -125 -146 -211 -274 -288
-48 -29 -72 -35 -166 -46 -222 -26 -220 -26 -301 15 -41 21 -74 44 -74 51 0 8
19 23 43 34 58 28 79 61 81 123 2 72 -20 72 -63 1 -18 -31 -53 -78 -77 -106
-24 -27 -44 -52 -44 -57 0 -20 111 -115 166 -142 50 -25 84 -33 175 -42 217
-22 303 -11 386 46 52 36 89 89 157 219 30 57 79 141 110 188 46 69 56 92 54
120 -3 29 -7 35 -29 38 -21 2 -36 -7 -70 -46z"/>
<path d="M7415 8941 c-65 -18 -142 -66 -188 -115 -52 -56 -107 -148 -107 -179
0 -40 39 -106 67 -113 40 -10 56 13 50 76 -5 65 8 110 32 110 9 0 34 -20 54
-45 44 -52 73 -57 121 -24 64 44 184 236 171 271 -16 40 -100 48 -200 19z"/>
<path d="M7484 8614 c-54 -36 -108 -70 -119 -75 -29 -14 -56 -31 -95 -59 -19
-14 -48 -32 -65 -41 -42 -23 -45 -49 -6 -49 30 0 246 120 305 170 16 14 44 38
63 54 30 25 45 66 25 66 -4 0 -53 -30 -108 -66z"/>
<path d="M9497 7543 c-30 -8 -14 -26 54 -62 35 -18 82 -46 103 -62 51 -37 68
-23 31 25 -28 36 -109 96 -131 96 -7 0 -18 2 -26 4 -7 2 -21 2 -31 -1z"/>
<path d="M9390 7327 c0 -18 59 -52 71 -40 14 14 -19 53 -47 53 -13 0 -24 -6
-24 -13z"/>
<path d="M9275 6721 c-84 -18 -93 -27 -81 -76 8 -31 50 -45 94 -31 36 11 132
94 132 114 0 16 -47 14 -145 -7z"/>
<path d="M8896 6708 c-2 -7 -10 -35 -16 -63 -18 -72 -35 -94 -91 -117 l-50
-21 6 -42 c6 -37 4 -42 -19 -53 -30 -13 -32 -21 -12 -48 12 -16 27 -19 83 -19
59 0 76 4 112 28 23 15 47 40 52 55 15 36 3 195 -17 249 -16 41 -41 57 -48 31z"/>
<path d="M9597 6693 c-16 -16 -4 -31 36 -47 59 -22 97 -21 97 3 0 28 -113 65
-133 44z"/>
<path d="M9378 6459 c-28 -16 -22 -48 10 -55 15 -3 37 -10 50 -15 13 -5 92 -9
177 -9 110 0 164 -4 187 -14 54 -23 223 -76 242 -76 9 0 39 -7 67 -16 27 -9
56 -14 64 -10 23 8 18 52 -7 68 -27 18 -142 48 -181 48 -14 0 -41 6 -59 14
-196 82 -166 76 -358 76 -100 0 -182 -5 -192 -11z"/>
<path d="M8536 6403 c18 -74 78 -137 98 -104 6 10 -82 131 -95 131 -5 0 -6
-12 -3 -27z"/>
<path d="M10115 6070 c-16 -26 124 -124 167 -118 40 6 29 26 -43 77 -70 49
-111 62 -124 41z"/>
<path d="M8716 5099 c-10 -6 -35 -29 -56 -51 -22 -21 -47 -40 -57 -40 -16 -1
-153 40 -213 64 -50 20 -185 22 -277 3 -48 -10 -97 -23 -108 -30 -11 -6 -31
-14 -45 -18 -98 -22 -162 -72 -116 -90 25 -10 227 26 288 50 56 23 223 3 313
-37 22 -10 90 -41 151 -68 111 -51 178 -75 289 -106 147 -41 172 -49 203 -62
18 -8 43 -14 56 -14 13 0 37 -5 55 -11 27 -10 39 -8 84 15 28 14 64 37 79 51
42 39 111 58 182 51 34 -4 118 -9 188 -12 l127 -6 31 30 c20 21 30 40 30 61 0
36 -7 38 -53 11 -46 -27 -145 -36 -237 -20 -125 21 -155 39 -195 115 -20 39
-42 29 -75 -34 -40 -75 -64 -97 -121 -112 -63 -17 -164 1 -258 46 -64 31 -72
38 -95 88 -14 30 -26 59 -26 64 0 6 -13 25 -29 42 -31 33 -78 41 -115 20z"/>
<path d="M9483 4723 c-7 -2 -13 -13 -13 -23 0 -36 144 -72 343 -86 99 -7 113
-2 80 28 -48 42 -101 58 -190 58 -49 0 -110 7 -137 15 -51 16 -63 17 -83 8z"/>
<path d="M9685 4481 c-11 -19 14 -40 54 -46 60 -10 124 -27 159 -43 71 -32 47
34 -25 68 -55 27 -176 40 -188 21z"/>
<path d="M10412 4398 c-8 -8 -12 -46 -12 -105 0 -84 2 -93 19 -93 24 0 35 15
49 66 15 52 15 86 0 119 -12 27 -36 33 -56 13z"/>
<path d="M8285 4324 c-67 -34 -73 -35 -150 -30 -44 3 -177 10 -295 16 -264 12
-283 5 -153 -59 48 -24 75 -31 120 -31 32 0 90 -7 128 -16 39 -8 90 -20 115
-26 25 -5 101 -12 170 -15 69 -2 139 -9 155 -15 86 -28 232 -61 330 -73 61 -7
122 -16 138 -20 25 -7 29 -4 48 39 17 39 24 46 49 46 32 0 138 -39 285 -107
55 -25 147 -61 205 -79 94 -31 117 -34 221 -34 170 0 265 34 304 110 23 44 19
63 -26 114 -32 37 -47 46 -72 46 -40 0 -42 -2 -106 -80 -56 -68 -100 -100
-139 -100 -45 0 -207 47 -297 85 -16 7 -51 20 -77 29 -26 9 -56 20 -65 25 -18
9 -66 27 -133 50 -59 21 -247 65 -325 76 -61 10 -157 33 -243 61 -42 13 -86
24 -97 23 -11 0 -51 -16 -90 -35z m1585 -258 c0 -18 -21 -35 -36 -29 -19 7
-17 30 3 42 20 11 33 6 33 -13z"/>
<path d="M9350 3847 c0 -19 105 -85 162 -102 45 -13 98 -8 98 10 0 3 -46 28
-102 55 -102 49 -158 62 -158 37z"/>
<path d="M7600 3642 c-14 -2 -36 -7 -50 -12 -14 -4 -33 -11 -44 -14 -15 -5
-16 -9 -6 -21 12 -14 78 -36 275 -89 105 -29 295 -88 355 -110 80 -30 167 -58
240 -76 151 -38 381 -99 470 -125 30 -9 73 -21 95 -26 22 -5 49 -13 60 -18 11
-5 40 -17 65 -27 53 -21 116 -67 131 -96 6 -11 14 -41 18 -66 8 -56 29 -72 65
-49 18 12 26 26 26 46 0 41 -54 115 -123 168 -67 52 -139 81 -297 119 -180 44
-202 53 -198 82 3 28 44 63 74 63 69 2 380 -44 411 -59 10 -6 83 -32 163 -58
141 -48 148 -49 265 -49 114 0 122 1 167 28 92 55 162 162 156 236 -2 28 -8
37 -25 39 -18 3 -27 -7 -48 -52 -49 -104 -124 -156 -222 -156 -51 0 -187 29
-213 45 -6 4 -31 10 -58 15 -45 8 -92 21 -212 55 -123 35 -246 56 -450 75
-118 11 -255 29 -305 40 -123 27 -211 40 -269 40 -26 0 -94 7 -150 15 -140 21
-336 41 -366 37z"/>
<path d="M9965 3631 c-10 -17 14 -41 41 -41 12 0 35 -5 51 -11 55 -21 206 -50
215 -41 20 20 -71 60 -187 83 -102 20 -113 21 -120 10z"/>
<path d="M8695 2766 c-42 -13 -58 -41 -33 -57 24 -16 170 10 184 32 22 35 -68
50 -151 25z"/>
</g>
</svg>
