<?xml version="1.0" standalone="no"?>
<!DOCTYPE svg PUBLIC "-//W3C//DTD SVG 20010904//EN"
 "http://www.w3.org/TR/2001/REC-SVG-20010904/DTD/svg10.dtd">
<svg version="1.0" xmlns="http://www.w3.org/2000/svg"
 width="500.000000pt" height="500.000000pt" viewBox="0 0 500.000000 500.000000"
<g transform="translate(0.000000,500.000000) scale(0.100000,-0.100000)"
fill="#000000" stroke="none">
<path d="M2280 4704 c-14 -2 -59 -9 -100 -15 -368 -51 -717 -195 -1020 -420
-97 -71 -300 -267 -380 -364 -253 -310 -430 -726 -479 -1125 -17 -130 -14
-434 5 -563 62 -427 241 -824 513 -1137 375 -431 875 -692 1440 -751 129 -13
457 -7 561 11 90 15 353 80 363 89 22 22 -103 71 -180 71 -19 0 -61 9 -94 20
-118 40 -262 35 -165 -5 47 -20 50 -28 20 -56 -21 -20 -23 -25 -10 -34 10 -8
12 -16 6 -26 -8 -12 -53 -13 -282 -11 -195 3 -275 7 -280 15 -4 7 -8 51 -8 99
0 76 3 90 23 111 23 25 232 127 260 127 30 0 76 51 97 106 11 31 24 96 29 144
11 100 18 118 72 177 21 23 45 58 53 78 9 21 59 78 121 137 87 83 105 105 100
122 -17 52 -16 76 2 103 27 40 53 100 53 123 0 10 9 21 19 25 11 3 31 25 45
49 31 53 113 129 183 168 28 16 54 36 57 45 8 21 -3 104 -16 120 -13 16 -1 51
22 63 26 14 40 -8 50 -80 12 -87 30 -110 83 -110 52 0 141 -22 201 -51 53 -24
140 -109 167 -161 10 -20 37 -57 59 -83 43 -50 70 -103 70 -140 0 -12 -15 -44
-32 -71 -33 -48 -33 -49 -36 -194 -3 -129 -1 -151 17 -199 19 -46 20 -61 12
-110 -14 -77 -21 -211 -12 -211 12 0 38 33 42 52 2 9 47 61 100 115 321 327
522 703 608 1138 77 394 43 810 -99 1185 -296 785 -977 1318 -1808 1415 -113
13 -385 18 -452 9z m437 -299 c429 -56 808 -242 1113 -546 577 -578 721 -1449
360 -2184 -59 -121 -153 -271 -210 -335 l-31 -35 4 69 c4 49 11 76 26 97 33
44 36 80 12 158 -11 38 -21 78 -21 90 0 25 19 70 41 96 9 11 24 52 33 90 10
39 28 95 41 125 13 30 38 103 56 162 32 107 32 108 16 159 -10 28 -17 81 -17
116 0 65 -1 66 -52 122 -28 31 -60 76 -71 101 -11 25 -26 52 -34 62 -10 11
-11 18 -4 23 26 15 0 174 -54 330 -29 86 -45 116 -74 144 -71 69 -82 76 -133
81 -50 5 -50 5 -84 70 -19 36 -49 83 -67 105 -18 22 -44 56 -59 76 -14 20 -38
39 -52 43 -14 3 -26 10 -26 15 0 20 -51 69 -77 75 -16 4 -51 16 -79 28 -44 17
-57 19 -100 10 -38 -9 -67 -8 -132 5 -68 13 -91 14 -136 4 -30 -7 -57 -18 -59
-25 -3 -8 -34 -16 -83 -20 -85 -8 -177 -34 -264 -74 -59 -28 -85 -53 -94 -92
-4 -14 -33 -47 -67 -75 -39 -33 -67 -66 -80 -95 -11 -25 -33 -62 -50 -83 -51
-63 -59 -93 -55 -211 2 -71 8 -112 17 -124 8 -9 23 -35 34 -56 11 -21 35 -51
53 -65 20 -16 48 -58 72 -107 32 -65 38 -87 33 -116 -8 -54 3 -84 50 -133 61
-64 76 -83 100 -123 24 -42 195 -216 245 -251 20 -14 46 -50 69 -94 19 -40 53
-91 74 -114 45 -49 47 -62 18 -169 -11 -44 -24 -97 -28 -120 -7 -42 -82 -134
-108 -134 -7 0 -31 -17 -52 -38 -22 -21 -69 -53 -104 -71 -40 -20 -69 -42 -76
-58 -6 -13 -14 -65 -18 -115 -5 -81 -9 -93 -31 -112 -14 -12 -41 -34 -60 -51
-73 -62 -255 -281 -280 -335 -14 -30 -26 -56 -28 -58 -5 -7 -235 58 -330 93
-450 168 -833 522 -1039 958 -130 276 -185 520 -185 817 0 316 54 554 185 825
109 224 208 361 399 550 292 289 679 473 1096 520 160 18 318 18 457 0z m431
-892 c67 -34 105 -61 131 -92 73 -89 99 -111 125 -111 29 0 33 11 11 30 -36
30 -10 26 45 -7 79 -46 79 -65 3 -57 -52 5 -66 2 -133 -31 -130 -63 -231 -138
-337 -249 -102 -107 -174 -156 -232 -156 -26 0 -130 -62 -199 -118 l-43 -36
-24 30 c-59 73 -89 137 -97 203 -12 110 -9 180 9 219 21 45 133 158 192 192
58 34 90 57 158 113 94 78 173 111 273 116 14 0 67 -20 118 -46z m342 -308 c0
-10 11 -15 35 -15 43 0 87 -20 81 -36 -5 -14 123 -139 161 -156 28 -13 53 -4
53 19 0 32 -29 61 -78 77 -26 9 -65 27 -87 41 l-40 24 30 -2 c26 -2 30 2 33
26 2 15 6 27 10 27 14 0 143 -116 162 -145 11 -17 32 -67 46 -113 l25 -83 -20
-35 c-12 -19 -21 -42 -21 -51 0 -8 41 -72 92 -142 50 -69 97 -140 105 -158 7
-18 13 -65 12 -105 0 -66 -5 -82 -47 -168 -27 -55 -54 -96 -63 -98 -11 -2 -36
23 -72 75 -69 98 -80 107 -147 127 -30 9 -86 25 -124 36 -87 26 -100 26 -93 0
7 -26 -3 -25 -45 4 l-34 23 -31 -37 c-17 -20 -61 -54 -99 -76 -59 -34 -93 -68
-130 -130 -10 -17 -14 -17 -67 10 -55 28 -57 29 -84 11 l-27 -18 54 -18 c30
-10 56 -19 57 -19 1 0 9 -13 18 -30 19 -36 10 -109 -14 -118 -9 -3 -34 -21
-56 -39 -39 -33 -74 -40 -83 -15 -2 7 5 12 17 12 11 0 22 4 25 8 8 13 -45 60
-82 73 -20 7 -34 20 -38 33 -3 13 -76 90 -162 173 -88 84 -168 169 -181 194
l-25 44 45 -36 c24 -20 54 -51 67 -70 43 -64 177 -189 203 -189 5 0 9 10 9 23
0 18 -15 31 -65 60 -44 25 -74 51 -92 80 -15 23 -36 52 -47 65 -19 22 -19 22
0 22 86 1 284 181 284 259 0 14 -10 54 -22 88 -21 59 -22 64 -6 80 24 23 42
12 181 -113 109 -98 133 -113 120 -76 -4 13 -3 14 6 6 6 -6 15 -28 18 -49 l6
-39 -35 22 c-45 28 -54 28 -90 -3 -25 -21 -40 -25 -99 -25 -38 0 -69 -4 -69
-9 0 -17 96 -111 113 -111 9 0 17 5 17 10 0 6 7 10 16 10 28 0 152 84 164 110
13 32 0 79 -37 133 -27 39 -27 40 -8 53 11 7 60 44 109 81 159 122 180 168
128 291 -27 64 -28 73 -15 91 17 25 33 27 33 6z m-111 -59 c33 -34 61 -107 61
-158 0 -42 -81 -117 -181 -167 -45 -23 -87 -41 -95 -41 -29 0 -122 49 -142 75
-40 50 -30 79 51 159 51 50 98 85 162 118 50 26 95 48 101 48 5 0 25 -15 43
-34z m-529 -378 c11 -18 28 -56 37 -85 14 -43 14 -56 3 -83 -14 -34 -71 -88
-154 -145 -71 -49 -99 -43 -170 32 -53 57 -71 89 -57 97 5 3 24 -20 44 -52 19
-32 45 -66 58 -77 l22 -20 -7 35 c-3 19 -24 62 -46 95 -22 34 -40 64 -40 68 0
31 222 167 273 167 9 0 26 -15 37 -32z m742 -488 c41 -12 48 -20 57 -63 4 -17
13 -33 20 -35 11 -4 12 3 7 32 -9 46 9 48 49 6 28 -29 28 -30 7 -30 -22 0 -30
-14 -13 -24 5 -3 7 -15 4 -26 -4 -15 -11 -18 -29 -14 -30 8 -30 -3 -2 -33 l22
-24 -22 -6 c-27 -7 -27 -4 0 -50 l21 -38 -35 33 c-20 19 -53 39 -74 47 -38 13
-47 22 -58 58 -7 23 -26 22 -26 -3 0 -28 -13 -25 -38 10 -12 16 -37 33 -55 38
-42 11 -59 52 -33 81 42 47 119 62 198 41z"/>
<path d="M3035 3189 c-50 -26 -95 -73 -95 -100 0 -12 8 -31 19 -44 l18 -24 25
27 c40 44 108 138 108 150 0 18 -31 14 -75 -9z"/>
<path d="M2632 2923 c-50 -24 -102 -90 -102 -129 0 -40 16 -53 24 -19 9 36 49
58 122 67 70 8 135 35 115 48 -7 4 -33 5 -57 2 -40 -4 -44 -2 -54 22 -5 14
-11 26 -12 26 -2 0 -18 -8 -36 -17z"/>
<path d="M3621 2612 c-33 -35 -80 -136 -68 -148 2 -3 21 -8 41 -11 33 -5 46 0
105 41 l68 46 -20 44 c-18 40 -49 66 -79 66 -6 0 -27 -17 -47 -38z"/>
<path d="M3199 3070 c-34 -18 -80 -64 -106 -106 -11 -18 -11 -18 -6 2 8 37
-14 36 -37 -1 -12 -19 -26 -35 -32 -35 -5 0 -8 -10 -6 -22 5 -37 60 -66 142
-73 95 -9 136 8 173 74 14 25 39 67 55 93 16 26 27 52 23 58 -14 23 -37 7 -76
-53 -23 -35 -57 -74 -76 -87 -43 -29 -146 -46 -185 -29 -34 14 -35 20 -5 38
20 13 21 13 8 -3 -8 -9 -11 -19 -8 -22 13 -13 48 10 69 46 l23 38 24 -19 c21
-17 25 -17 51 -4 15 8 31 26 34 40 4 15 13 25 24 25 31 0 44 21 25 42 -21 23
-68 22 -114 -2z"/>
<path d="M2718 2749 c-68 -36 -101 -108 -62 -140 20 -17 34 -2 35 39 0 37 0
37 16 15 28 -41 69 -21 107 54 9 18 16 37 16 43 0 17 -72 10 -112 -11z"/>
<path d="M2963 1319 c-40 -12 -63 -25 -63 -34 0 -18 7 -18 85 -2 70 15 109 9
203 -32 37 -16 106 -40 154 -53 l87 -23 31 24 c27 19 45 23 123 24 l92 2 3 27
c3 27 3 27 -27 12 -44 -22 -115 -10 -142 25 -20 25 -22 25 -33 7 -28 -48 -47
-58 -90 -52 -53 9 -80 27 -96 65 -14 36 -51 42 -82 15 -16 -16 -22 -16 -76 0
-73 20 -92 20 -169 -5z"/>
<path d="M3070 1055 c-19 -10 -52 -12 -145 -8 -111 6 -119 5 -106 -10 17 -22
63 -33 181 -46 52 -6 137 -20 189 -31 97 -20 111 -19 111 6 0 20 6 19 115 -27
75 -31 112 -41 156 -42 95 -1 146 33 120 81 -20 37 -44 36 -76 -2 -38 -46 -60
-46 -178 0 -51 19 -132 44 -182 54 -49 10 -103 23 -118 29 -35 14 -36 13 -67
-4z"/>
<path d="M2775 791 c-3 -5 -1 -13 5 -16 16 -10 242 -78 415 -126 172 -47 204
-62 212 -102 4 -19 11 -27 22 -25 25 5 25 37 -1 65 -31 34 -63 49 -142 69 -39
10 -65 21 -63 28 7 20 117 8 223 -24 89 -27 107 -30 142 -20 47 12 92 60 92
96 0 30 -22 31 -35 2 -6 -12 -22 -31 -37 -42 l-28 -20 -157 36 c-87 20 -198
42 -248 48 -49 7 -137 18 -195 25 -126 16 -197 18 -205 6z"/>
</g>
</svg>
