<svg xmlns="http://www.w3.org/2000/svg" xmlns:xlink="http://www.w3.org/1999/xlink" version="1.1" width="49px" height="52px" viewBox="-0.5 -0.5 49 52"><defs><style type="text/css">@import url(https://fonts.googleapis.com/css2?family=Architects+Daughter:wght@400;500);&#xa;@import url(https://fonts.googleapis.com/css2?family=Caveat:wght@400;500);&#xa;</style></defs>

    <g transform="translate(0.000000,589.000000) scale(0.100000,-0.100000)" fill="#347DBE" stroke="none">
        <path d="M3390 5398 c-19 -6 -64 -8 -99 -5 -65 5 -177 -19 -207 -44 -8 -6 -14 -8 -14 -4 0 4 -6 2 -13 -4 -8 -6 -45 -24 -83 -39 -38 -16 -100 -48 -138 -70 -37 -23 -71 -42 -75 -42 -4 0 -18 -12 -32 -26 -13 -14 -39 -35 -59 -46 -19 -12 -50 -34 -68 -50 -18 -16 -37 -26 -43 -23 -5 4 -12 -2 -15 -12 -4 -10 -19 "-29 -34 -43 -53 -49 -139 -165 -174 -235 -19 -38 -44 -86 -55 -105 -47 -83 "-71 -145 -83 -208 -12 -71 -27 -99 -93 -173 -22 -25 -53 -71 -68 -102 -15 -32 "-31 -57 -35 -57 -4 1 -32 9 -62 20 -74 26 -158 26 -221 -1 -27 -12 -49 -25 "-49 -29 0 -4 -11 -12 -24 -18 -48 -22 -128 -87 -255 -209 -42 -40 -136 -130 "-209 -200 -73 -70 -143 -143 -157 -163 -29 -42 -78 -233 -69 -273 3 -15 1 -33 "-5 -40 -5 -7 -9 -26 -9 -43 1 -16 -5 -40 -12 -53 -6 -13 -13 -56 -15 -95 -3 "-86 -31 -297 -51 -386 -8 -36 -14 -75 -14 -86 0 -12 -16 -53 -35 -90 -19 -38 "-40 -98 -46 -134 -6 -36 -13 -72 -16 -80 -4 -8 -7 -17 -7 -20 -1 -3 -18 -39 "-38 -81 -46 -95 -53 -121 -83 -294 -25 -145 -35 -278 -22 -291 4 -4 7 -23 7 "-43 0 -20 7 -45 15 -55 8 -11 15 -29 15 -41 0 -22 25 -91 61 -172 16 -35 36 "-59 61 -75 21 -13 38 -28 38 -33 0 -6 9 -18 20 -28 11 -9 20 -23 20 -30 0 -7 "16 -30 35 -52 19 -22 35 -49 35 -60 0 -13 10 -24 29 -32 20 -7 31 -20 36 -42 "4 -21 13 -31 25 -31 17 0 70 -52 70 -68 0 -4 13 -16 30 -27 20 -14 31 -31 35 "-57 6 -35 9 -38 41 -38 29 0 36 -5 49 -36 8 -21 31 -50 50 -67 19 -16 35 -36 "35 -43 0 -8 10 -14 22 -14 13 0 34 -11 48 -25 65 -65 171 -119 252 -129 32 -3 "77 -13 101 -21 65 -22 324 -23 455 -2 101 16 172 40 172 58 0 5 11 9 25 9 22 "0 43 12 80 47 8 7 16 13 20 13 29 0 82 118 104 235 45 228 59 281 77 296 7 6 "16 24 19 40 4 16 25 56 46 89 22 32 59 97 83 143 24 46 55 95 70 110 14 14 26 "31 26 37 0 15 33 12 56 -5 10 -8 26 -15 35 -15 21 0 33 30 18 44 -9 8 -10 8 "-5 -1 8 -15 -10 -18 -19 -3 -3 5 -15 10 -26 10 -15 0 -19 7 -19 33 0 31 2 33 "33 29 26 -3 38 -12 51 -37 10 -19 29 -44 42 -56 26 -24 34 -49 9 -29 -8 6 -20 "8 -26 4 -7 -4 17 -18 61 -35 40 -16 85 -39 99 -52 31 -29 161 -92 216 -105 22 "-6 110 -18 195 -27 124 -13 181 -14 285 -6 217 17 249 24 302 67 25 21 71 50 "102 65 37 17 72 45 101 80 91 107 101 124 112 196 9 63 45 179 69 229 6 12 14 "54 17 95 l7 74 41 3 c38 3 43 0 55 -27 8 -17 17 -31 20 -31 14 0 69 -59 69 "-72 0 -8 9 -23 20 -33 45 -41 153 -217 167 -273 8 -31 19 -74 24 -95 5 -21 9 "-55 8 -75 -2 -47 48 -204 96 -307 21 -44 41 -82 45 -85 4 -3 11 -12 16 -21 51 "-90 220 -242 395 -354 85 -55 120 -78 153 -102 78 -56 152 -103 204 -129 46 "-23 61 -25 108 -19 33 4 57 12 61 21 3 8 11 14 19 14 8 0 14 6 14 14 0 7 22 "29 49 47 26 18 52 42 57 53 5 11 26 28 48 39 23 12 50 39 67 66 16 25 51 66 "77 91 32 29 66 78 99 141 27 53 60 106 71 117 12 12 22 26 22 32 0 9 32 54 91 "130 10 13 19 31 19 40 0 9 9 34 21 55 11 22 31 72 44 110 13 39 31 90 41 115 "20 55 33 106 45 185 4 33 11 79 15 102 3 24 10 43 15 43 5 0 9 36 9 80 0 44 "-4 80 -9 80 -4 0 -11 33 -13 74 -4 55 -10 81 -26 100 -11 15 -23 40 -27 56 -3 "16 -13 34 -21 41 -8 6 -21 35 -30 64 -8 29 -26 65 -39 79 -14 15 -32 50 -41 "79 -10 29 -20 57 -24 62 -4 6 -29 51 -56 100 -61 115 -189 312 -223 345 -28 "27 -121 161 -121 175 0 4 -20 48 -44 96 -25 48 -45 96 -45 106 -1 34 -7 58 "-16 60 -16 3 -28 34 -16 46 8 8 4 19 -13 41 -13 17 -27 47 -31 66 -4 19 -33 "90 -66 157 -32 67 -59 126 -59 133 0 45 -118 210 -150 210 -16 0 -80 61 -80 "76 0 9 -12 14 -34 14 -18 0 -39 7 -46 15 -7 8 -22 15 -34 15 -12 0 -30 6 -41 "14 -11 8 -40 20 -65 27 -25 7 -68 26 -97 41 -28 15 -62 28 -76 28 -13 0 -49 "11 -79 25 -69 31 -209 44 -268 25 -22 -7 -40 -17 -40 -22 0 -4 -11 -8 -25 -8 "-18 0 -26 -7 -31 -25 -6 -25 -20 -29 -84 -26 l-25 2 23 -20 c12 -10 22 -24 22 "-29 0 -6 4 -12 9 -14 14 -5 152 -138 143 -138 -4 -1 7 -13 24 -28 17 -15 67 "-72 111 -127 44 -55 90 -109 103 -120 25 -22 84 -134 76 -143 -3 -3 -2 -10 3 "-16 4 -6 23 -56 41 -111 36 -110 62 -160 91 -175 10 -6 65 -13 121 -16 129 -6 "157 -6 175 5 14 8 -117 21 -211 21 -38 0 -44 4 -78 53 -62 89 -118 238 -118 "313 0 17 19 56 51 101 27 40 47 77 44 83 -3 6 -36 -5 -77 -26 -66 -33 -74 -35 "-110 -25 -31 10 -50 27 -93 86 -30 41 -55 79 -55 84 0 6 -4 11 -10 11 -5 0 "-10 6 -10 13 0 13 -40 43 -52 39 -11 -3 -96 87 -111 117 -11 23 -10 29 12 54 "13 15 32 27 42 27 10 0 33 9 51 20 18 11 42 20 53 20 34 0 274 -79 420 -140 "77 -32 173 -71 213 -86 40 -16 84 -38 96 -49 13 -11 32 -25 42 -31 11 -6 19 "-20 19 -30 0 -11 33 -84 73 -164 73 -144 81 -162 128 -295 13 -38 27 -77 31 "-85 3 -8 7 -17 8 -20 1 -3 4 -12 8 -20 3 -8 11 -33 18 -55 25 -86 171 -347 "224 -401 71 -73 239 -362 270 -465 4 -13 13 -31 20 -39 32 -38 125 -220 125 "-245 0 -7 6 -15 14 -18 8 -3 17 -20 21 -38 4 -18 14 -39 22 -48 11 -10 13 -26 "8 -58 -4 -30 -2 -49 6 -60 17 -19 17 -112 2 -183 -7 -30 -19 -96 -27 -146 -8 "-50 -26 -116 -40 -147 -14 -31 -26 -65 -26 -76 0 -24 -48 -121 -60 -121 -5 0 "-11 -13 -15 -29 -11 -49 -102 -220 -135 -253 -9 -8 -31 -45 -49 -81 -19 -37 "-37 -67 -42 -67 -4 0 -10 -13 -14 -28 -3 -17 -22 -41 -45 -58 -21 -16 -56 -56 "-78 -90 -26 -40 -54 -68 -79 -81 -21 -11 -42 -28 -47 -39 -14 -31 -110 -93 "-156 -100 -28 -5 -44 -13 -49 -26 -6 -18 -10 -17 -64 12 -31 16 -63 30 -71 30 "-9 0 -39 19 -68 42 -85 69 -116 90 -248 173 -139 86 -195 133 -288 238 -77 87 "-182 286 -182 345 0 20 -7 62 -15 92 -16 60 -20 160 -6 160 14 0 36 239 23 "252 -6 6 -8 24 -5 40 4 19 0 35 -10 46 -8 9 -21 40 -27 67 -6 28 -16 59 -20 "70 -5 11 -11 38 -14 60 -20 174 -29 214 -69 300 -42 90 -42 90 -40 202 1 64 "-3 115 -8 119 -18 11 -57 -25 -69 -62 -17 -50 -7 -174 19 -254 12 -36 28 -105 "37 -155 8 -49 19 -97 24 -106 11 -21 4 -29 -26 -29 -31 0 -69 -33 -61 -53 5 "-14 20 -17 74 -17 l68 0 -40 -23 c-25 -14 -40 -30 -40 -42 0 -17 8 -20 53 -23 "32 -2 52 -8 52 -15 0 -7 7 -25 15 -41 15 -29 15 -31 -13 -59 l-29 -29 -23 32 "c-27 38 -67 79 -73 74 -5 -6 -97 103 -97 115 0 6 -4 11 -9 11 -23 0 -59 106 "-62 185 -2 44 -9 85 -15 90 -6 6 -8 36 -5 80 5 52 8 64 13 45 4 -14 8 -37 8 "-52 0 -19 5 -28 16 -28 14 0 15 7 10 40 -3 23 -13 59 -21 82 -11 33 -11 45 -2 "56 8 10 11 54 9 139 -2 77 1 122 7 119 5 -3 12 0 14 6 3 7 6 4 6 -6 2 -33 24 "-86 37 -86 25 0 84 31 93 49 16 29 33 192 35 336 3 142 18 191 71 231 14 10 "25 22 25 27 0 5 12 24 26 43 15 19 24 37 21 40 -9 9 -28 -6 -22 -17 4 -5 1 -9 "-4 -9 -6 0 -11 6 -11 13 0 8 -25 39 -55 70 -30 31 -55 61 -55 67 0 6 -20 32 "-43 58 -54 58 -97 131 -97 163 0 23 -23 67 -42 79 -10 7 -50 80 -83 150 -14 "30 -33 69 -42 85 -9 17 -28 53 -43 81 -15 28 -37 65 -49 82 -27 38 -57 154 "-46 179 5 10 9 20 9 23 7 27 28 48 46 43 11 -3 20 -1 20 4 0 13 46 33 77 33 "24 0 93 -57 104 -86 7 -20 114 -164 122 -164 16 0 5 27 -26 66 -17 22 -41 58 "-52 80 -23 45 -39 64 -54 64 -7 0 -11 29 -10 79 0 43 -4 88 -10 99 -6 11 -11 "39 -11 61 0 22 -4 43 -10 46 -5 3 -22 31 -37 60 -14 30 -37 62 -50 70 -13 9 "-34 33 -48 55 -13 21 -37 52 -52 68 -68 70 -133 145 -133 152 0 5 -12 12 -27 "18 -16 5 -51 28 -80 51 -29 22 -58 41 -64 41 -7 0 -27 11 -44 24 -18 14 -45 "28 -61 31 -41 9 -85 26 -113 44 -28 18 -49 22 -124 24 -31 1 -57 6 -57 10 0 4 "-6 7 -12 6 -7 -1 -20 0 -28 3 -8 3 -42 11 -75 18 -33 6 -76 16 -96 21 -46 11 "-124 10 -169 -3z m250 -101 c79 -6 242 -35 263 -47 9 -6 42 -20 72 -31 30 -11 "55 -25 55 -31 0 -6 15 -8 35 -6 19 2 32 2 30 -1 -5 -4 123 -91 134 -91 4 0 12 "-5 19 -12 7 -7 26 -17 42 -22 64 -22 237 -197 272 -274 9 -20 27 -71 39 -112 "12 -41 26 -80 31 -87 5 -6 6 -24 2 -40 -9 -39 -14 -45 -27 -35 -22 17 -54 19 "-78 6 -49 -27 -74 -18 -131 46 -43 49 -71 69 -143 105 -50 24 -107 55 -128 69 "-82 56 -293 123 -422 135 -254 22 -531 -18 -684 -100 -131 -71 -157 -86 -199 "-113 -70 -44 -184 -159 -242 -243 -96 -140 -130 -193 -140 -215 l-9 -23 0 23 "c-2 62 -111 160 -170 153 -20 -2 -23 0 -17 16 8 19 16 43 60 183 26 79 70 177 "113 247 45 75 253 293 278 293 7 0 15 3 17 8 5 12 80 59 123 77 22 10 48 21 "57 26 10 5 26 9 36 9 10 0 50 11 88 24 64 21 243 60 324 69 37 5 208 1 300 -6z "m-40 -517 c11 -7 3 -10 -30 -10 -25 0 -54 -8 -65 -16 -18 -14 -15 -15 40 -9 "47 6 76 3 125 -13 36 -11 94 -22 130 -26 65 -6 65 -6 25 8 -62 21 -112 45 -95 "46 35 0 168 -43 215 -71 80 -48 86 -52 123 -91 19 -21 39 -38 45 -38 6 0 18 "-6 26 -14 9 -8 37 -25 63 -39 25 -13 85 -55 132 -93 70 -55 86 -73 86 -95 0 "-33 30 -132 43 -140 5 -4 7 -11 3 -17 -3 -5 1 -15 9 -22 8 -7 15 -16 15 -21 0 "-5 -19 11 -43 34 -23 24 -65 58 -92 76 -28 19 -67 54 -89 78 -21 24 -50 50 "-65 57 -29 15 -263 66 -303 66 -43 0 -128 -40 -128 -61 0 -13 8 -17 33 -17 49 "1 167 -18 215 -36 24 -8 66 -18 95 -22 29 -4 69 -15 90 -25 21 -10 51 -21 67 "-24 40 -9 48 -25 13 -25 -244 1 -394 -18 -498 -61 -16 -7 -32 -13 -35 -13 -3 "-1 -11 -5 -17 -9 -7 -4 -40 -17 -73 -28 -71 -23 -163 -19 -295 13 -44 10 -87 "20 -95 22 -9 1 -20 5 -25 8 -25 14 -103 20 -264 20 l-173 -1 22 25 c13 13 28 "24 33 24 5 0 39 14 75 31 146 69 171 77 238 84 134 12 140 18 59 54 -40 17 "-66 22 -94 18 -39 -5 -139 -41 -196 -71 -17 -9 -50 -16 -73 -16 -70 0 -162 "-54 -178 -104 -8 -26 -33 -45 -57 -46 -14 0 -17 5 -11 23 27 88 191 297 232 "297 21 0 66 35 97 75 44 59 21 52 -51 -14 -46 -42 -71 -58 -78 -51 -7 7 14 34 "65 84 57 57 84 77 119 86 25 7 62 21 84 32 21 11 62 21 90 23 28 1 85 9 126 "18 229 49 265 53 290 37z m-1262 -502 c40 -28 66 -74 81 -148 13 -62 10 -110 "-14 -225 -29 -141 -42 -181 -82 -251 -46 -81 -68 -134 -78 -189 -4 -22 -10 "-44 -15 -50 -4 -5 -17 -41 -29 -80 -12 -38 -48 -117 -80 -173 -41 -72 -62 "-120 -66 -155 -9 -63 -40 -97 -89 -97 -47 0 -263 -56 -301 -78 -16 -10 -31 "-25 -33 -34 -2 -13 12 -10 80 14 123 44 248 78 291 78 21 0 50 6 65 14 38 19 "107 28 150 20 28 -6 53 -24 103 -77 63 -65 67 -73 73 -128 4 -32 13 -81 20 "-109 7 -27 9 -50 5 -50 -10 0 -12 -44 -2 -53 7 -7 20 13 52 78 15 31 20 35 20 "18 1 -12 -3 -32 -8 -45 -13 -31 -23 -62 -21 -66 0 -2 -9 -11 -21 -21 l-23 -18 "20 -55 c18 -47 19 -66 12 -134 -4 -43 -15 -114 -24 -156 -17 -77 -17 -78 6 "-130 31 -70 32 -168 3 -258 -12 -36 -29 -107 -37 -159 -9 -51 -26 -120 -37 "-153 l-22 -59 22 -27 c12 -15 24 -35 28 -45 3 -9 9 -17 14 -17 5 0 31 -21 57 "-46 26 -26 56 -50 67 -55 11 -5 30 -16 43 -25 21 -16 22 -16 16 2 -10 27 -61 "80 -121 125 -29 22 -53 46 -53 54 0 8 -7 18 -15 23 -14 7 -14 15 -1 70 8 34 "12 81 10 104 -5 39 -4 41 8 21 22 -36 60 -59 138 -83 41 -13 81 -25 88 -28 6 "-2 12 1 12 7 0 5 -17 15 -38 22 -52 15 -128 72 -148 110 -15 30 -15 36 7 103 "17 53 23 96 23 171 1 91 -2 105 -27 154 -23 46 -27 62 -21 95 4 23 7 44 6 49 "-1 4 2 7 8 7 5 0 10 14 10 31 0 23 13 43 51 84 l51 54 -20 63 c-28 87 -32 111 "-23 126 9 15 22 -11 57 -111 21 -62 22 -71 8 -84 -14 -14 -11 -17 23 -33 78 "-35 144 -133 147 -219 3 -57 6 -63 62 -131 93 -112 143 -181 154 -216 12 -37 "1 -72 -44 -138 -14 -21 -26 -45 -26 -54 0 -19 -52 -136 -62 -140 -4 -2 -8 -8 "-8 -13 0 -11 -71 -119 -107 -163 -33 -39 -122 -231 -134 -286 -5 -25 -14 -72 "-20 -104 -5 -33 -13 -64 -17 -70 -7 -11 -12 -32 -14 -53 -1 -7 -4 -13 -8 -13 "-4 0 -12 -20 -19 -45 -6 -25 -16 -65 -22 -90 -8 -31 -17 -45 -28 -45 -9 0 -24 "-8 -32 -17 -28 -32 -59 -53 -75 -53 -9 0 -28 -8 -42 -19 -15 -10 -45 -24 -67 "-30 -34 -9 -46 -8 -80 9 -23 11 -47 20 -53 20 -16 0 -15 -27 1 -37 7 -5 -3 "-11 -28 -16 -81 -17 -127 -19 -172 -6 l-46 14 7 145 c8 186 10 194 51 209 60 "21 82 49 153 195 39 79 98 183 131 231 58 84 72 115 52 115 -19 0 -200 -250 "-201 -277 0 -7 -3 -13 -8 -13 -4 0 -18 -32 -32 -71 -27 -81 -53 -119 -80 -119 "-23 0 -27 23 -33 177 -3 64 -1 110 4 107 5 -3 9 7 9 23 0 49 19 98 49 127 33 "32 33 54 0 111 -16 27 -19 44 -14 75 7 42 27 60 67 60 30 0 170 68 143 69 -11 "1 -54 -11 -96 -26 -74 -26 -78 -26 -103 -9 -15 9 -46 47 -70 84 -37 59 -81 "102 -101 102 -11 0 7 -44 26 -65 52 -58 73 -163 43 -223 -22 -45 -87 -93 -132 "-98 -257 -26 -281 -31 -266 -56 7 -11 188 -1 225 14 36 13 81 -11 114 -60 23 "-36 26 -52 36 -227 6 -105 14 -209 18 -232 5 -23 5 -47 0 -54 -4 -7 -10 -84 "-14 -172 l-8 -159 -31 6 c-186 32 -265 55 -308 87 -20 16 -47 34 -61 40 -13 6 "-32 24 -41 41 -14 22 -24 29 -40 26 -17 -4 -26 2 -35 24 -7 15 -17 28 -23 28 "-13 0 -47 41 -48 58 0 6 5 12 10 12 6 0 10 7 10 15 0 8 -4 15 -10 15 -5 0 -10 "9 -10 20 0 25 -25 26 -48 3 -16 -16 -17 -15 -20 5 -2 12 -9 22 -16 22 -6 0 "-17 14 -23 30 -8 20 -18 30 -32 30 -12 0 -21 5 -21 10 0 16 -56 70 -72 70 -9 "0 -20 16 -26 39 -9 28 -19 41 -37 45 -20 5 -25 13 -25 36 0 19 -5 30 -14 30 "-17 0 -56 51 -56 73 0 8 -7 17 -15 21 -8 3 -20 17 -25 31 -5 14 -15 25 -22 25 "-19 1 -58 36 -58 52 0 8 -4 18 -8 24 -9 10 -27 84 -37 151 -4 26 -16 52 -31 "65 -18 18 -24 34 -24 68 0 25 -4 51 -8 58 -5 7 -4 36 0 65 5 28 11 63 12 77 2 "14 6 32 9 40 3 8 8 33 11 55 3 22 10 58 15 80 5 22 16 75 25 119 9 45 29 102 "47 135 23 40 34 76 40 130 6 56 19 96 52 165 51 105 72 202 82 376 7 138 17 "198 55 350 16 63 30 126 32 140 2 14 9 24 16 23 7 -2 12 7 12 20 0 52 31 124 "75 175 26 28 52 52 58 52 7 0 46 35 89 78 42 42 95 95 118 117 22 22 50 50 63 "62 97 98 194 174 271 213 32 16 219 21 268 7 24 -6 26 -10 21 -45 -6 -38 -28 "-76 -96 -170 -21 -29 -49 -82 -62 -118 -45 -124 -184 -277 -241 -266 -39 7 "-29 -39 22 -100 20 -25 22 -35 18 -120 -3 -51 -9 -109 -14 -128 -28 -104 -50 "-330 -32 -330 21 0 43 63 40 113 -2 38 0 51 10 50 8 -2 12 11 12 40 0 23 5 58 "11 77 6 19 12 94 13 166 2 88 8 139 17 156 8 14 29 54 48 89 18 35 52 93 76 "129 60 92 207 393 210 430 2 17 17 54 34 81 17 28 31 54 31 58 0 10 74 81 102 "96 37 21 88 17 126 -7z m1981 -139 c118 -19 131 -29 172 -131 31 -77 41 -117 "44 -173 3 -56 8 -81 17 -91 11 -10 -3 -37 -41 -77 -51 -54 -88 -73 -151 -76 "-30 -1 -77 -7 -104 -12 -70 -13 -144 -11 -200 6 -27 8 -59 12 -73 9 -47 -12 "-115 16 -170 73 -28 29 -54 63 -58 75 -11 39 -56 151 -68 170 -9 14 -9 23 1 "38 6 11 12 26 12 33 0 20 71 84 100 90 14 3 68 17 120 32 83 24 181 38 299 44 "19 0 64 -4 100 -10z m-1241 -53 c23 -8 70 -20 104 -26 104 -19 156 -48 184 "-102 12 -24 12 -32 -5 -71 -23 -53 -46 -63 -95 -43 -38 16 -133 102 -123 112 "3 4 24 -8 47 -26 65 -52 48 -10 -24 57 -79 75 -132 93 -210 73 -71 -18 -96 "-32 -148 -85 -58 -58 -76 -115 -58 -179 7 -25 9 -50 4 -58 -5 -7 -10 -24 -12 "-38 -2 -13 -7 -29 -12 -35 -5 -6 -10 -28 -12 -50 -5 -65 23 -51 50 24 12 36 "28 71 34 78 6 8 34 13 72 14 60 0 123 15 84 20 -10 1 -21 2 -25 4 -51 13 -64 "19 -78 35 -9 10 -23 16 -31 13 -9 -3 -14 1 -14 11 0 22 92 110 137 131 41 20 "97 15 122 -10 15 -14 13 -15 -16 -5 -27 10 -37 9 -63 -6 -16 -10 -30 -24 -30 "-31 0 -8 -7 -16 -15 -19 -25 -10 -17 -47 20 -86 18 -21 31 -38 28 -38 -4 0 -4 "-2 -1 -5 3 -3 18 0 34 6 79 31 215 48 242 30 23 -14 -34 -51 -82 -52 -39 -1 "-39 -2 14 -10 30 -5 65 -6 78 -4 34 8 29 -37 -10 -81 -30 -34 -139 -96 -162 "-92 -6 0 -18 -2 -26 -5 -8 -3 -37 -8 -65 -11 -27 -2 -86 -10 -130 -17 -71 -10 "-87 -10 -140 7 -33 10 -67 17 -75 16 -31 -4 -99 71 -120 133 -23 67 -26 97 -7 "90 12 -5 47 61 47 90 0 27 -21 16 -32 -17 -10 -29 -12 -30 -25 -13 -20 28 -16 "52 16 98 71 103 89 116 186 137 50 10 108 26 130 34 52 19 162 20 213 2z "m1488 -111 c3 -11 13 -35 22 -52 12 -24 13 -36 5 -44 -9 -9 -14 -3 -21 22 -6 "19 -20 59 -32 89 -20 54 -20 54 0 30 11 -14 22 -34 26 -45z m-949 -60 c23 -25 "42 -49 41 -53 -4 -18 17 -91 38 -132 25 -50 115 -142 184 -187 43 -28 51 -29 "160 -31 63 -1 136 -5 161 -8 52 -6 213 25 266 51 17 8 51 37 74 64 39 43 46 "48 66 38 16 -7 28 -26 38 -61 19 -70 30 -166 18 -166 -15 0 -15 -83 -1 -92 14 "-8 14 -225 1 -408 -3 -47 -5 -107 -4 -135 1 -27 -3 -124 -10 -215 -9 -125 -18 "-181 -35 -231 -24 -68 -32 -149 -14 -149 6 0 6 -9 0 -24 -5 -14 -6 -41 -3 -60 "3 -23 2 -36 -5 -36 -6 0 -11 -8 -11 -17 -2 -43 -21 -184 -31 -224 -7 -24 -14 "-56 -17 -71 -6 -33 -19 -36 -28 -7 -9 28 -29 19 -35 -17 -6 -32 -36 -45 -46 "-20 -6 15 10 60 37 109 7 13 5 22 -6 34 -16 16 -19 113 -4 113 5 0 15 15 24 "33 9 19 22 34 30 34 19 0 19 -14 0 -50 -26 -51 -35 -97 -20 -103 7 -3 17 -23 "20 -45 4 -24 12 -38 18 -36 8 3 11 31 9 91 -3 66 0 91 11 104 8 9 17 37 20 62 "3 25 4 39 1 33 -3 -7 -10 -13 -15 -13 -5 0 -2 14 7 32 19 37 14 92 -17 196 "-23 73 -45 104 -90 122 -16 7 -29 19 -29 26 0 7 -11 21 -25 30 -18 12 -23 22 "-19 39 3 13 1 26 -6 30 -12 7 -60 110 -60 128 0 15 -59 107 -87 137 -32 34 "-70 89 -88 128 -8 17 -22 32 -30 32 -8 0 -17 11 -21 24 -3 14 -15 27 -28 30 "-12 3 -46 28 -76 56 -30 27 -70 55 -87 61 -18 6 -33 15 -33 20 0 5 -4 9 -10 9 "-5 0 -10 -9 -10 -20 0 -11 6 -20 14 -20 14 0 26 -27 30 -68 2 -22 -1 -23 -34 "-17 -19 4 -38 10 -42 14 -4 3 -3 35 3 70 10 62 9 64 -22 113 -18 27 -47 61 "-66 75 -33 25 -34 25 -54 7 -32 -28 -41 -61 -26 -89 14 -27 90 -85 112 -85 8 "0 -1 -16 -24 -39 -23 -24 -34 -42 -28 -45 14 -5 -12 -8 -62 -8 -34 1 -93 -28 "-136 -66 -29 -25 -65 -95 -65 -126 0 -31 -16 -35 -25 -6 -9 29 10 85 50 146 "33 49 40 85 18 84 -4 -1 -26 -37 -48 -81 -37 -73 -40 -86 -39 -154 1 -75 1 "-75 -18 -53 -10 12 -21 31 -24 43 -6 25 -12 56 -13 69 -1 6 -8 1 -16 -10 -19 "-25 -19 -84 1 -112 8 -12 11 -22 7 -22 -5 0 -19 21 -31 46 -18 36 -27 45 -42 "41 -48 -12 4 68 109 170 46 46 83 85 80 87 -2 3 -22 6 -44 8 -22 2 -46 9 -53 "16 -7 6 -20 12 -28 12 -7 0 -21 16 -29 37 -17 41 -14 77 16 166 32 96 21 112 "-27 36 -13 -22 -33 -77 -45 -124 -20 -84 -18 -135 5 -135 7 0 25 -14 40 -31 "33 -36 41 -20 -82 -161 -52 -59 -87 -112 -123 -185 -46 -95 -86 -143 -118 "-143 -30 0 -71 -62 -71 -108 0 -16 -9 -37 -19 -46 -10 -10 -22 -38 -26 -64 -4 "-26 -10 -49 -13 -52 -15 -11 -42 -82 -42 -108 0 -15 9 -45 20 -67 11 -22 20 "-47 20 -58 0 -10 10 -31 21 -47 14 -18 22 -43 22 -70 0 -22 4 -43 8 -46 5 -3 "9 -11 9 -17 0 -7 -18 8 -40 33 -24 27 -39 52 -36 62 6 26 -33 137 -61 176 -13 "18 -48 50 -76 71 -51 37 -53 41 -71 117 -10 44 -26 99 -36 124 -27 66 -32 121 "-16 174 11 36 11 46 2 46 -9 0 -14 22 -15 73 -1 39 -4 86 -7 103 -5 30 11 273 "22 322 l5 23 -22 -22 c-20 -20 -22 -35 -27 -162 -3 -76 -8 -133 -12 -126 -16 "29 -23 102 -30 304 -5 144 -12 227 -23 264 -13 43 -14 64 -6 103 6 26 14 48 "17 48 4 0 14 -15 21 -32 21 -47 138 -165 175 -177 37 -12 112 -24 146 -22 86 "2 224 14 280 24 75 14 130 11 130 -6 0 -7 -7 -25 -15 -41 -33 -63 -11 -56 61 "20 83 86 114 133 140 209 9 27 29 77 44 110 15 33 33 77 39 98 15 45 57 97 79 "97 8 0 35 -20 59 -45z m-472 -46 c14 -26 15 -53 2 -65 -4 -4 -7 8 -7 28 0 24 "-8 42 -25 58 -14 13 -25 27 -25 32 0 13 41 -25 55 -53z m1515 -106 c21 -54 47 "-103 69 -128 20 -22 27 -32 16 -23 -11 9 -32 19 -47 23 -15 4 -35 18 -45 31 "-10 13 -25 24 -34 24 -14 0 -18 12 -21 55 -3 59 8 119 21 111 4 -3 23 -45 41 "-93z m149 -220 c23 -22 37 -52 61 -134 34 -122 36 -136 16 -184 -8 -19 -24 "-87 -36 -151 -19 -106 -20 -129 -9 -241 10 -110 9 -127 -6 -149 -9 -14 -23 "-24 -32 -22 -18 4 -63 127 -63 175 0 17 -4 34 -9 37 -4 3 -14 26 -21 51 -10 "36 -10 67 -1 147 6 56 15 106 20 112 17 22 22 94 11 179 -17 141 -19 191 -6 "199 21 14 46 8 75 -19z m-2469 -189 c50 -43 56 -65 54 -212 -3 -186 -12 -262 "-32 -262 -8 0 -12 3 -9 7 4 3 2 12 -5 20 -6 7 -14 60 -18 116 -3 56 -11 111 "-17 122 -18 33 -26 130 -14 154 16 29 5 44 -20 30 -54 -28 -70 -188 -31 -298 "25 -70 22 -98 -4 -35 -9 21 -23 55 -32 74 -34 70 -11 233 40 287 28 30 49 29 "88 -3z m1425 -340 c-37 -64 -42 -48 -8 26 21 46 29 57 31 41 2 -12 -8 -42 -23 "-67z m180 46 c8 -13 -5 -13 -25 0 -13 8 -13 10 2 10 9 0 20 -4 23 -10z m-263 "-33 c-12 -13 -22 -31 -22 -40 0 -9 -5 -17 -11 -17 -6 0 -8 -9 -3 -22 6 -20 5 "-21 -10 -9 -24 20 -20 55 10 85 35 34 68 37 36 3z m208 -13 c0 -27 -5 -37 -19 "-41 -11 -3 -28 -24 -39 -47 -19 -41 -21 -77 -7 -147 8 -42 -10 -88 -28 -70 -8 "8 -7 17 2 35 13 24 7 66 -10 66 -14 0 -11 30 4 36 8 3 12 16 9 34 -5 37 19 "110 49 144 30 35 39 33 39 -10z m70 -2 c0 -14 -62 -103 -68 -98 -3 3 7 24 22 "46 14 22 26 44 26 50 0 5 5 10 10 10 6 0 10 -4 10 -8z m47 -97 c-5 -35 -4 -45 "8 -45 9 0 12 -6 9 -15 -3 -8 -9 -47 -13 -87 -3 -41 -11 -73 -18 -75 -11 -4 "-10 30 2 65 9 24 -7 71 -21 65 -19 -7 -18 26 1 51 8 11 15 35 15 53 0 18 5 33 "11 33 8 0 10 -14 6 -45z m-339 -31 c-6 -21 -13 -33 -15 -26 -5 13 16 76 23 69 "2 -2 -2 -21 -8 -43z m268 -20 c-9 -6 -16 -20 -16 -32 0 -33 -33 -82 -55 -82 "-18 1 -18 1 -3 11 10 5 25 35 34 65 9 30 22 58 30 61 8 3 15 13 15 22 1 9 4 5 "6 -8 3 -16 -1 -29 -11 -37z m-176 -44 c-11 -22 -24 -40 -29 -40 -5 0 0 18 12 "40 29 52 44 52 17 0z m-512 -80 c9 -19 26 -42 37 -52 11 -9 16 -17 10 -17 -23 "-1 -105 93 -105 120 0 6 8 18 18 25 15 11 17 9 20 -14 2 -15 11 -43 20 -62z "m903 30 c13 -38 44 -74 58 -66 5 3 14 -9 21 -27 7 -17 22 -42 32 -53 26 -29 "21 -79 -7 -79 -12 0 -25 -11 -33 -27 -23 -49 -34 -33 -26 40 6 64 5 70 -20 98 "-17 20 -25 24 -26 13 0 -8 -13 -25 -29 -37 -27 -20 -30 -20 -34 -4 -2 9 5 34 "15 54 20 41 24 93 8 103 -5 3 -10 15 -10 26 0 31 38 1 51 -41z m-1654 -67 c-2 "-21 -4 -4 -4 37 0 41 2 58 4 38 2 -21 2 -55 0 -75z m1141 77 c12 -16 34 -33 "48 -36 34 -9 11 -25 -26 -18 -14 2 -38 6 -55 8 -16 2 -31 5 -32 6 -2 2 -8 3 "-15 4 -22 2 -19 24 8 45 35 28 46 27 72 -9z m-445 -152 c34 -31 38 -37 22 -38 "-29 0 -105 83 -105 115 0 16 6 25 15 25 8 0 16 8 17 18 1 9 3 -5 5 -33 3 -44 "8 -54 46 -87z m907 124 c0 -4 -10 -12 -22 -17 -13 -6 -31 -27 -42 -48 -10 -21 "-20 -36 -23 -33 -10 10 19 76 40 91 23 16 47 20 47 7z m-1663 -24 c-3 -8 -6 "-5 -6 6 -1 11 2 17 5 13 3 -3 4 -12 1 -19z m1468 -73 c55 -19 122 -51 150 -70 "68 -47 125 -99 125 -112 0 -9 42 -43 54 -43 3 0 6 10 8 22 5 36 28 34 28 -2 0 "-27 3 -30 14 -21 8 6 19 25 26 42 9 20 16 27 23 20 16 -16 -39 -81 -69 -81 "-25 0 -30 -16 -15 -55 5 -11 2 -30 -6 -45 -7 -14 -13 -30 -13 -37 0 -21 21 "-25 35 -7 7 11 17 15 22 10 4 -5 2 -11 -4 -13 -7 -3 -13 -12 -13 -22 0 -9 -4 "-21 -10 -27 -5 -5 -6 -15 0 -24 7 -11 12 -7 23 19 8 18 17 29 20 24 3 -5 -1 "-22 -9 -37 -7 -16 -14 -37 -14 -47 0 -16 3 -18 19 -10 15 9 20 7 24 -9 3 -10 "0 -21 -7 -23 -6 -2 -8 -8 -3 -12 4 -5 14 0 22 11 14 18 16 18 29 2 24 -31 10 "-123 -31 -200 -13 -26 -13 -27 4 -21 39 15 58 43 58 86 0 32 4 42 18 45 17 3 "18 -2 13 -55 -18 -188 -19 -191 -53 -157 -13 13 -14 20 -5 35 15 23 5 25 -20 "2 -10 -9 -28 -21 -41 -27 -12 -6 -23 -21 -25 -33 -2 -12 -10 -27 -18 -33 -8 "-7 -14 -24 -14 -39 0 -15 -4 -31 -10 -37 -5 -5 -13 -32 -16 -59 -9 -72 -34 "-155 -46 -155 -6 0 -8 -12 -4 -30 3 -17 1 -30 -4 -30 -14 0 -12 -12 6 -35 15 "-19 16 -20 29 -1 21 28 45 13 44 -26 -1 -41 -47 -83 -102 -93 -31 -6 -37 -4 "-37 10 0 9 9 19 20 22 15 4 20 14 20 39 0 19 -4 34 -10 34 -5 0 -10 20 -10 45 "0 57 -22 52 -40 -8 -12 -41 -65 -131 -95 -161 -9 -8 -22 -13 -31 -9 -13 5 -12 "8 3 26 18 19 17 19 -19 15 -21 -2 -38 -2 -38 0 0 10 52 52 64 52 21 0 73 53 "80 83 4 18 2 27 -5 27 -17 0 -89 -78 -89 -95 0 -9 -6 -12 -15 -8 -18 6 -54 "-23 -66 -54 -5 -13 -17 -23 -27 -23 -10 0 -27 -7 -38 -15 -10 -8 -29 -15 -40 "-15 -17 0 -20 5 -16 26 3 16 9 23 18 20 16 -6 56 42 47 57 -4 7 -12 2 -21 -11 "-8 -12 -23 -22 -33 -22 -10 0 -26 -13 -35 -29 -12 -20 -28 -31 -51 -35 -18 -3 "-48 -9 -66 -12 -26 -4 -37 -1 -56 20 l-24 25 -18 -22 -18 -22 -1 23 c0 12 6 "22 13 22 8 0 7 4 -3 10 -13 8 -12 10 3 10 10 0 21 8 24 17 4 9 20 29 37 44 23 "21 28 31 20 39 -17 17 -40 2 -97 -60 -26 -28 -52 -48 -57 -45 -13 8 -13 -1 0 "-26 6 -10 7 -19 2 -19 -5 0 -14 11 -20 25 -10 21 -9 30 4 50 9 14 20 25 24 25 "4 0 10 9 13 19 3 12 20 24 45 31 34 11 42 19 62 66 12 30 28 54 36 54 18 0 18 "-2 -3 -45 -20 -42 -12 -53 22 -31 19 12 25 25 26 54 0 20 3 31 6 25 8 -20 26 "-15 71 19 28 21 42 40 42 55 0 31 -9 29 -69 -11 -28 -19 -49 -29 -48 -23 4 20 "64 67 86 67 11 0 26 9 33 20 7 11 20 20 28 20 9 0 37 13 63 30 26 16 58 32 72 "36 29 7 73 54 110 119 15 25 31 45 36 45 4 0 16 23 26 50 10 28 21 50 25 50 "15 0 49 95 44 121 -4 20 -1 28 13 32 16 4 19 18 23 83 5 86 -9 136 -43 155 "-11 5 -19 17 -19 27 -1 46 -58 67 -72 27 -4 -11 -5 -3 -2 18 4 28 1 37 -10 37 "-19 0 -31 -39 -17 -53 6 -6 11 -17 11 -24 0 -16 -31 -53 -41 -48 -4 3 -12 -2 "-19 -10 -34 -41 -42 17 -9 59 13 17 19 36 17 51 -3 13 0 26 6 28 6 2 1 9 -12 "16 -28 15 -59 6 -67 -20 -4 -10 -11 -19 -16 -19 -5 0 -9 -8 -9 -17 0 -10 -9 "-42 -20 -71 -30 -79 -28 -92 18 -90 20 1 44 0 52 -3 8 -2 14 1 13 7 -1 6 22 "23 52 39 30 15 55 34 57 43 3 11 13 -1 29 -33 14 -27 36 -68 48 -90 21 -36 22 "-43 10 -70 l-13 -30 -4 40 c-3 39 -29 77 -64 96 -16 8 -17 7 -8 -16 12 -33 12 "-35 0 -35 -5 0 -10 9 -10 21 0 11 -4 17 -10 14 -6 -4 -10 7 -10 27 l-1 33 -14 "-27 c-13 -23 -13 -32 1 -69 8 -24 21 -54 30 -66 21 -33 35 -73 25 -73 -5 0 "-12 11 -15 25 -7 29 -46 36 -46 8 0 -15 -2 -16 -10 -3 -7 11 -10 6 -10 -22 0 "-55 -15 -86 -70 -142 -28 -28 -50 -56 -50 -62 0 -16 28 -26 44 -17 31 19 96 "78 96 88 0 6 9 21 21 34 11 12 27 34 35 49 12 23 14 24 14 7 0 -11 -33 -69 "-73 -130 -55 -84 -87 -121 -133 -155 -33 -25 -80 -62 -104 -82 -24 -21 -48 "-38 -54 -38 -6 0 -17 -9 -24 -20 -7 -11 -19 -20 -27 -20 -8 0 -15 -3 -15 -8 0 "-8 -43 -27 -85 -37 -30 -6 -75 -41 -75 -57 0 -4 9 -8 20 -8 24 0 37 -27 21 "-43 -8 -8 -11 -8 -11 1 0 24 -20 11 -34 -22 -18 -42 -50 -55 -77 -30 -19 17 "-19 19 -4 30 13 9 15 21 10 43 -4 21 -3 31 6 31 8 0 10 13 6 44 -5 37 -3 45 "12 49 21 5 39 59 22 65 -6 2 -2 19 11 42 13 21 20 41 17 44 -3 4 -28 -15 -56 "-41 -27 -27 -67 -63 -89 -81 -31 -26 -34 -32 -16 -29 19 5 17 -1 -18 -40 -36 "-41 -48 -63 -36 -63 3 0 42 37 88 83 45 45 73 70 60 56 -16 -18 -22 -38 -22 "-72 0 -26 -4 -47 -9 -47 -5 0 -35 -21 -66 -46 -49 -40 -56 -50 -53 -77 3 -34 "28 -51 28 -19 0 11 7 25 15 32 13 11 14 8 10 -21 -4 -27 -3 -30 4 -14 7 15 10 "16 12 5 1 -8 5 8 9 35 4 33 3 53 -4 57 -6 4 -8 8 -4 8 3 0 14 3 23 6 14 6 15 "0 9 -47 -4 -30 -13 -61 -20 -70 -19 -21 -18 -29 6 -29 10 0 24 8 29 18 10 16 "10 15 10 -3 0 -23 -21 -55 -37 -55 -5 0 -13 -11 -16 -25 -4 -14 -10 -25 -15 "-25 -6 0 -6 12 -1 30 7 26 6 30 -10 30 -46 0 -120 65 -104 91 4 7 -1 9 -14 5 "-24 -8 -48 25 -38 51 9 22 -14 49 -25 31 -7 -10 -9 -10 -9 1 0 8 -7 19 -16 26 "-9 6 -17 27 -19 46 -3 44 -35 55 -35 13 0 -19 -3 -25 -10 -18 -12 12 -2 76 11 "68 5 -3 6 2 3 10 -3 9 3 27 15 42 11 14 18 30 15 35 -3 5 1 9 9 9 15 0 67 38 "127 92 63 57 118 130 130 173 8 27 21 47 36 56 13 7 24 15 24 19 0 4 19 28 41 "54 23 26 39 49 36 52 -2 3 -20 -2 -38 -11 -26 -13 -46 -37 -82 -103 -49 -90 "-136 -181 -145 -153 -4 11 -6 11 -13 0 -4 -7 -11 -10 -15 -7 -7 7 24 52 41 58 "6 3 21 18 35 35 14 16 28 33 32 36 23 16 58 76 58 98 0 14 7 39 15 55 9 16 13 "31 10 34 -3 3 -5 0 -5 -6 0 -7 -4 -12 -9 -12 -5 0 -8 12 -7 27 3 28 47 73 72 "73 26 0 112 47 174 96 44 35 69 63 86 99 19 40 23 45 24 25 1 -24 1 -24 15 -7 "21 29 8 47 -34 47 -20 0 -42 5 -48 11 -16 16 -77 6 -158 -26 -38 -15 -110 -38 "-158 -50 -126 -33 -127 -38 -10 -35 46 1 83 10 145 36 128 54 130 55 123 44 "-4 -6 6 -10 22 -10 l28 -1 -28 -17 c-15 -9 -25 -22 -22 -29 2 -7 1 -13 -4 -13 "-4 0 -16 -16 -27 -35 -20 -38 -42 -51 -58 -35 -7 7 3 29 32 70 40 58 44 81 7 "40 -22 -24 -109 -70 -133 -70 -9 0 -28 -9 -42 -20 -27 -21 -52 -25 -78 -11 -9 "4 -36 11 -59 14 -33 4 -43 2 -43 -9 0 -22 40 -42 98 -50 49 -6 55 -5 82 21 20 "19 34 25 47 20 16 -6 15 -8 -7 -18 -14 -6 -28 -15 -31 -19 -3 -5 -46 -18 -96 "-30 l-91 -22 -21 -45 c-24 -54 -61 -84 -61 -51 0 11 5 20 11 20 5 0 7 5 4 10 "-7 11 19 42 28 34 3 -3 7 -1 10 3 3 5 -5 10 -18 11 -15 1 -24 -5 -28 -17 -4 "-18 -47 -37 -47 -20 0 5 7 9 15 9 17 0 20 25 5 35 -5 3 -20 -2 -33 -12 -22 "-16 -23 -19 -9 -46 9 -19 17 -25 22 -18 5 9 10 8 19 -2 9 -11 8 -17 -1 -25 -7 "-6 -22 -31 -33 -56 -13 -30 -26 -46 -38 -46 -14 0 -17 -5 -12 -22 13 -42 25 "-45 50 -13 13 16 22 31 20 34 -6 5 42 71 65 88 24 20 40 15 40 -12 0 -16 -6 "-25 -15 -25 -8 0 -15 -6 -15 -12 -1 -14 -34 -58 -45 -58 -3 0 -3 5 1 12 5 7 3 "8 -5 4 -7 -5 -10 -14 -7 -22 3 -7 1 -16 -4 -19 -5 -3 -19 -19 -30 -35 -18 -25 "-19 -30 -6 -30 9 0 16 7 16 15 0 19 26 20 33 1 3 -8 -1 -20 -9 -26 -8 -7 -14 "-18 -14 -26 0 -7 -9 -19 -20 -27 -18 -12 -18 -15 -5 -20 8 -4 15 -12 15 -18 0 "-9 -3 -9 -14 0 -11 9 -16 5 -26 -19 -17 -40 -35 -33 -34 14 2 44 -9 46 -26 6 "-9 -21 -19 -30 -35 -30 -18 0 -21 4 -17 25 2 14 9 25 14 25 5 0 6 5 3 10 -3 6 "1 10 9 10 9 0 16 -5 16 -11 0 -6 7 -3 16 6 10 10 14 24 10 40 -3 13 -2 27 4 "30 16 10 12 22 -10 28 -17 4 -19 11 -14 31 4 19 1 28 -15 38 -26 16 -26 22 2 "49 14 14 18 23 10 26 -8 3 -9 12 -4 26 5 12 6 36 4 53 -4 23 0 35 14 45 25 18 "43 52 43 81 l-1 23 -23 -27 c-13 -15 -26 -33 -29 -40 -3 -9 -8 -10 -16 -2 -19 "18 3 57 54 95 25 19 70 52 98 75 71 55 121 84 144 84 11 0 69 25 129 56 117 "60 160 70 319 73 68 1 96 -5 180 -34z m-815 -44 c0 -15 5 -32 12 -39 9 -9 9 "-15 0 -24 -8 -8 -13 -5 -20 13 -5 13 -10 26 -10 29 0 3 -5 17 -11 31 -5 15 -7 "30 -4 33 12 11 33 -17 33 -43z m-90 -48 c0 -18 -13 -42 -36 -67 -36 -39 -51 "-42 -40 -8 7 22 63 102 71 102 3 0 5 -12 5 -27z m719 -79 c-16 -19 -29 -18 "-29 4 0 10 -6 24 -12 31 -8 8 0 7 20 -3 27 -14 31 -20 21 -32z m691 -64 c0 -5 "-4 -10 -10 -10 -5 0 -10 5 -10 10 0 6 5 10 10 10 6 0 10 -4 10 -10z m-47 -6 "c9 -3 13 -13 10 -24 -3 -11 4 -35 16 -53 26 -42 27 -57 3 -57 -25 0 -52 51 "-52 99 0 44 0 44 23 35z m-833 -59 c7 -8 17 -12 24 -8 7 4 8 3 1 -4 -5 -5 -26 "-16 -45 -23 -19 -7 -42 -19 -50 -25 -8 -7 -26 -16 -40 -20 -14 -4 -44 -25 -67 "-46 -24 -22 -49 -39 -56 -39 -22 0 -57 39 -57 63 0 16 3 19 9 8 7 -11 13 -11 "32 3 13 9 30 16 39 16 8 1 53 20 100 44 100 52 94 50 110 31z m970 -85 c9 -31 "9 -32 -9 -16 -17 16 -19 15 -31 -14 -11 -28 -40 -42 -40 -21 0 24 21 61 35 61 "9 0 18 7 22 15 7 20 11 15 23 -25z m-1571 -29 c-10 -7 -19 -24 -19 -37 0 -12 "-5 -26 -12 -30 -19 -12 -2 75 19 95 16 16 19 16 25 2 4 -10 -1 -21 -13 -30z "m1429 6 c2 -19 -1 -27 -12 -27 -11 0 -16 10 -16 31 0 38 24 35 28 -4z m-1048 "-99 c0 -16 -31 -48 -47 -48 -7 0 -13 -7 -13 -16 0 -8 -4 -12 -10 -9 -5 3 -7 0 "-4 -8 3 -8 -6 -21 -22 -32 -26 -17 -27 -17 -20 0 5 15 4 16 -9 5 -34 -28 -23 "-1 15 36 22 21 40 43 40 48 0 25 70 49 70 24z m1145 -19 c8 -25 7 -25 -28 -34 "-21 -6 -27 -4 -27 9 0 20 20 45 37 46 6 0 15 -9 18 -21z m195 -9 c0 -5 -2 -10 "-4 -10 -3 0 -8 5 -11 10 -3 6 -1 10 4 10 6 0 11 -4 11 -10z m-1709 -36 c-5 "-30 -4 -66 5 -99 7 -28 6 -29 -10 -16 -14 12 -17 27 -14 68 2 29 -1 53 -5 53 "-5 0 -5 5 -2 11 11 16 30 4 26 -17z m370 -19 c-9 -19 -23 -33 -31 -32 -9 1 "-14 -5 -13 -18 1 -13 -14 -31 -43 -53 -24 -18 -44 -38 -44 -45 0 -7 -9 -18 "-21 -25 -46 -29 -6 31 79 119 48 49 88 89 88 89 1 0 -6 -16 -15 -35z m-226 "-275 c-3 -5 7 -18 22 -29 24 -17 26 -22 13 -31 -24 -16 -48 -12 -65 13 -16 22 "-17 21 -13 -20 2 -24 0 -43 -4 -43 -5 0 -8 6 -8 14 0 7 -7 19 -15 26 -17 14 "-20 50 -4 50 6 0 8 9 4 20 -3 11 -2 20 4 20 5 0 11 -8 13 -17 3 -14 8 -11 23 "15 18 30 20 31 27 11 5 -11 6 -25 3 -29z m1280 -4 c17 -12 18 -17 7 -40 -16 "-36 -15 -63 3 -70 8 -3 15 -17 15 -31 0 -14 1 -25 3 -25 18 0 87 44 87 55 0 8 "4 15 9 15 9 0 -25 -139 -36 -150 -3 -3 -8 1 -10 8 -3 6 -9 9 -14 6 -14 -9 -39 "15 -39 38 0 10 -4 16 -10 13 -5 -3 -10 -19 -10 -34 0 -15 -9 -36 -20 -46 -11 "-10 -20 -24 -20 -31 0 -19 -53 -74 -71 -74 -27 0 -33 47 -10 78 11 15 22 46 "26 67 3 22 12 50 18 63 8 18 8 27 -1 40 -25 35 -26 46 -4 60 14 9 22 25 22 43 "0 33 23 39 55 15z m-1195 -20 c0 -3 -4 -8 -10 -11 -5 -3 -10 -1 -10 4 0 6 5 "11 10 11 6 0 10 -2 10 -4z m-120 -151 c0 -8 -4 -17 -10 -20 -6 -4 -10 5 -10 "20 0 15 4 24 10 20 6 -3 10 -12 10 -20z m1374 -137 c-8 -78 -39 -118 -91 -118 "-40 0 -42 12 -7 39 25 20 53 78 54 113 0 16 13 26 37 27 10 1 11 -15 7 -61z "m-1290 -59 c10 -19 11 -29 4 -27 -10 4 -32 58 -23 58 2 0 10 -14 19 -31z m76 "-65 c0 -8 -5 -12 -10 -9 -6 4 -8 11 -5 16 9 14 15 11 15 -7z m865 -112 c-5 "-20 -8 -23 -15 -12 -6 9 -5 19 0 24 6 6 11 19 11 31 1 17 2 18 6 2 3 -10 2 "-30 -2 -45z m-191 -49 c-10 -7 -25 -13 -33 -13 -10 1 -5 7 12 16 15 8 27 20 "28 27 0 8 3 7 6 -2 3 -8 -2 -20 -13 -28z"/>

        <path d="M3565 4659 c-44 -9 -101 -20 -127 -24 -27 -3 -48 -10 -48 -16 0 -12 124 -11 173 1 20 6 52 14 71 19 22 5 43 4 63 -4 16 -7 69 -16 118 -20 49 -4 120 -15 157 -25 75 -20 87 -13 33 19 -37 22 -89 33 -255 53 -93 11 -115 11 -185 -3z"/>

        <path d="M2075 2305 c-67 -73 -82 -85 -110 -85 -42 0 -103 22 -152 54 -44 29 -93 43 -93 27 0 -19 119 -110 157 -120 21 -6 59 -11 85 -11 46 0 47 1 110 78 71 84 98 122 98 134 0 21 -24 1 -95 -77z"/> 
        <path d="M1533 2262 c-16 -10 33 -28 99 -37 65 -9 69 10 5 25 -87 19 -92 19 -104 12z"/>
        <path d="M724 1905 c-3 -8 -3 -19 1 -25 3 -5 1 -10 -4 -10 -6 0 -11 -9 -11 -20 0 -10 -9 -42 -20 -70 -11 -28 -20 -64 -20 -81 0 -17 -5 -39 -11 -50 -5 -11 -9 -28 -7 -37 4 -23 48 47 48 78 0 20 21 93 41 145 4 11 11 35 14 53 5 25
        3 32 -10 32 -8 0 -18 -7 -21 -15z"/>
        <path d="M812 1860 c0 -19 2 -27 5 -17 2 9 2 25 0 35 -3 9 -5 1 -5 -18z"/>
        <path d="M821 1790 c-1 -19 -10 -84 -21 -145 -11 -60 -17 -111 -15 -113 6 -6 35 68 46 119 6 29 6 69 1 110 -7 44 -10 53 -11 29z"/>
        <path d="M1552 1589 c6 -19 130 -85 196 -105 101 -30 88 -9 -29 48 -130 64 -174 79 -167 57z"/>
        <path d="M4003 4083 c-39 -21 -116 -93 -161 -150 -30 -39 -27 -50 8 -28 8 6 25 15 38 22 l23 12 -20 -27 c-10 -15 -37 -40 -60 -57 -40 -30 -50 -48 -31 -60
        6 -3 10 -2 10 2 0 11 119 -1 145 -14 30 -16 85 -24 85 -13 0 5 -15 16 -32 23 -18 8 -42 24 -52 35 -13 15 -27 20 -42 17 -13 -3 -36 -7 -51 -10 l-28 -5 30
        16 c17 9 53 38 80 64 57 55 81 69 126 74 46 5 88 -11 131 -52 52 -49 62 -84 36 -117 -27 -34 -18 -41 29 -23 44 18 67 56 58 97 -9 42 -109 133 -193 175 -82 41 -86 42 -129 19z"/>
        <path d="M4105 3953 c-50 -12 -81 -67 -63 -111 28 -64 98 -83 143 -37 35 34 32 68 -11 115 -20 22 -39 39 -43 39 -3 -1 -15 -4 -26 -6z"/>
        <path d="M3810 3771 c0 -16 57 -51 83 -51 14 0 39 6 57 14 41 17 21 26 -55 26 -30 0 -57 5 -60 10 -8 13 -25 13 -25 1z"/>
        <path d="M3820 3725 c29 -32 138 -115 151 -115 38 0 -52 76 -161 135 -8 5 -4 -4 10 -20z"/>
        <path d="M3451 3648 c-17 -27 -23 -68 -10 -68 5 0 9 4 9 8 0 11 45 32 69 32 10 0 32 -7 50 -16 18 -9 34 -14 37 -11 7 7 -7 37 -18 37 -6 0 -17 8 -24 18 -8 10 -13 12 -14 4 0 -9 -4 -10 -19 0 -15 9 -23 9 -35 -2 -14 -11 -16 -10 -10 4 9 25 -19 20 -35 -6z"/>
        <path d="M3714 3494 c3 -9 6 -18 6 -20 0 -2 7 -4 15 -4 8 0 15 -3 15 -8 0 -4 23 -32 50 -62 29 -31 50 -64 50 -77 0 -31 21 -73 37 -73 45 0 -24 121 -125 218 -49 46 -57 51 -48 26z"/>
        <path d="M3910 3468 c0 -16 87 -98 104 -98 7 0 34 9 60 21 26 11 70 22 99 24 28 2 53 8 55 13 5 15 -35 22 -124 22 -47 0 -100 6 -124 15 -51 18 -70 19 -70 3z"/>
        <path d="M3390 3332 c-45 -48 -52 -70 -34 -108 21 -43 46 -44 84 -2 41 45 48 83 19 114 -28 30 -38 29 -69 -4z"/>
        <path d="M3560 3307 c0 -13 -5 -28 -11 -34 -6 -6 -8 -17 -4 -23 5 -8 12 -1 21 20 17 38 18 60 4 60 -5 0 -10 -10 -10 -23z"/>
        <path d="M4793 3514 c-17 -17 -9 -183 12 -283 8 -40 15 -87 16 -104 0 -24 8 -9 30 57 30 93 35 125 20 142 -6 7 -51 142 -64 196 -1 3 -8 0 -14 -8z"/>
        <path d="M4749 3090 c-3 -43 -3 -44 9 -100 l9 -45 13 27 c10 22 9 36 -8 90 -19 59 -20 61 -23 28z"/>
        <path d="M4741 2924 c0 -11 3 -14 6 -6 3 7 2 16 -1 19 -3 4 -6 -2 -5 -13z"/>
        <path d="M3858 2562 c-10 -2 -18 -13 -18 -24 0 -11 -16 -34 -35 -51 -41 -35 -49 -65 -12 -46 47 24 106 75 107 90 0 21 -20 36 -42 31z"/>
        <path d="M3888 2471 c-16 -15 -28 -35 -28 -44 0 -10 -11 -22 -25 -27 -15 -6 -25 -17 -25 -28 0 -11 -16 -37 -35 -58 -36 -39 -43 -54 -24 -54 5 0 8 4 5 8 -3 5 8 22 24 37 17 16 30 23 30 17 0 -9 5 -9 20 0 11 7 18 18 16 25 -3 6 8 28 24 50 16 21 30 43 30 49 0 7 7 14 15 18 15 5 22 37 8 35 -5 -1 -20 -13 -35 -28z"/>
        <path d="M3172 2458 c-14 -14 -16 -56 -3 -76 15 -25 32 11 24 52 -7 30 -11 34 -21 24z"/>
        <path d="M3750 2377 c-25 -13 -49 -23 -53 -24 -18 -3 -197 -124 -197 -133 0 -16 8 -13 88 36 60 36 82 45 105 40 25 -5 36 0 68 33 22 21 39 46 39 55 0 9 1 16 -2 15 -2 0 -23 -10 -48 -22z"/>
        <path d="M3086 2382 c-9 -14 4 -47 23 -59 15 -10 17 -8 16 16 -2 42 -24 66 -39 43z"/>
        <path d="M3140 2330 c0 -6 7 -10 15 -10 8 0 15 2 15 4 0 2 -7 6 -15 10 -8 3 -15 1 -15 -4z"/>
        <path d="M3075 2309 c-4 -6 -5 -12 -2 -15 2 -3 7 2 10 11 7 17 1 20 -8 4z"/> <path d="M3680 2270 c-13 -9 -13 -10 0 -10 8 0 22 5 30 10 13 9 13 10 0 10 -8 0 -22 -5 -30 -10z"/>
        <path d="M3825 2250 c-8 -16 -15 -40 -15 -55 0 -14 -4 -25 -10 -25 -5 0 -10 -13 -10 -29 0 -15 -9 -39 -19 -53 -19 -24 -19 -24 0 -36 16 -10 23 -10 35 3 9 9 14 25 11 36 -3 12 0 22 9 26 13 5 17 20 29 116 7 54 -6 63 -30 17z"/>
        <path d="M3040 2238 c0 -9 -3 -23 -6 -32 -4 -11 -1 -16 10 -16 18 0 22 -15 6 -25 -5 -3 -10 -13 -10 -22 0 -13 5 -12 25 7 30 29 31 36 4 43 -12 3 -18 10 -14 16 3 6 1 19 -4 28 -9 16 -10 16 -11 1z"/>
        <path d="M3721 2185 c-57 -54 -70 -63 -80 -51 -10 12 -6 21 20 45 41 40 14 42 -32 4 -18 -16 -49 -33 -68 -38 -28 -8 -38 -18 -47 -44 -6 -19 -18 -40 -28 -46 -9 -7 -16 -16 -16 -20 0 -5 -6 -16 -13 -24 -8 -9 -20 -32 -27 -51 -8 -19 -31 -54 -52 -77 -21 -24 -38 -47 -38 -53 0 -19 32 -10 37 10 3 11 10 20 15 20 18 0 38 29 47 70 9 42 54 100 77 100 15 0 26 42 13 51 -10 6 44 59 61 59 5 0 2 -12 -6 -27 -20 -39 -17 -55 3 -18 l17 30 9 -33 c8 -25 6 -41 -6 -68 -23 -46 -21 -64 4 -64 14 0 19 5 16 14 -3 7 1 26 9 41 8 15 14 38 14 50 0 16 19 40 60 76 49 43 101 109 84 109 -2 0 -35 -29 -73 -65z"/>
        <path d="M3940 2165 c-7 -8 -10 -21 -7 -30 4 -8 2 -17 -3 -20 -6 -4 -10 -17 -10 -30 0 -13 -4 -27 -10 -30 -5 -3 -10 -15 -10 -25 0 -11 -21 -41 -46 -67 -49 -51 -98 -113 -90 -113 3 0 26 20 53 45 26 24 52 45 57 45 6 0 23 12 38 27 38 36 35 22 -4 -24 -18 -21 -25 -32 -15 -24 10 8 32 33 50 55 17 23 24 35 14 27 -20 -16 -21 -8 -3 43 9 25 11 51 5 74 -4 19 -5 41 -2 48 7 18 -1 18 -17 -1z"/>
        <path d="M4227 2173 c-3 -4 1 -27 9 -51 14 -38 13 -46 -5 -85 -18 -39 -19 -40 -20 -14 -1 18 -6 27 -17 27 -14 0 -15 -7 -10 -39 3 -23 2 -42 -4 -46 -15 -9 -12 -58 4 -81 14 -18 15 -18 22 -1 4 12 0 23 -12 32 -11 8 -14 14 -6 15 6 0 12 8 12 18 0 9 8 22 18 28 9 7 28 32 41 57 l25 45 -26 52 c-14 28 -28 48 -31 43z"/>
        <path d="M3890 2159 c0 -5 5 -7 10 -4 6 3 10 8 10 11 0 2 -4 4 -10 4 -5 0 -10 -5 -10 -11z"/>
        <path d="M4310 2070 c0 -5 5 -10 10 -10 6 0 10 5 10 10 0 6 -4 10 -10 10 -5 0 -10 -4 -10 -10z"/>
        <path d="M3550 2031 c-5 -11 -10 -37 -10 -59 0 -27 -6 -45 -21 -58 -13 -12 -18 -26 -15 -40 4 -14 1 -24 -10 -28 -20 -8 -9 -26 16 -26 27 0 51 41 55 92 2 24 7 64 13 91 7 37 6 47 -4 47 -7 0 -18 -9 -24 -19z"/>
        <path d="M3861 2024 c0 -11 3 -14 6 -6 3 7 2 16 -1 19 -3 4 -6 -2 -5 -13z"/> 
        <path d="M4271 2000 c-12 -22 -29 -44 -38 -48 -9 -5 -13 -14 -10 -19 13 -20 46 -21 66 -2 11 11 25 19 31 19 5 0 10 20 10 45 0 60 -27 62 -59 5z"/>
        <path d="M3691 2015 c-28 -16 -50 -51 -51 -81 0 -11 -11 -30 -25 -42 -24 -21 -34 -52 -16 -52 5 0 14 7 21 15 7 8 16 13 20 10 11 -7 20 21 20 65 0 33 4 41 32 54 17 9 39 16 50 16 10 0 18 7 18 15 0 18 -35 18 -69 0z"/>
        <path d="M3720 1961 c0 -6 5 -13 10 -16 6 -3 10 1 10 9 0 9 -4 16 -10 16 -5 0 -10 -4 -10 -9z"/>
        <path d="M3756 1935 c-3 -8 -11 -15 -19 -15 -7 0 -28 -15 -46 -34 -19 -19 -47 -40 -63 -47 -21 -9 -28 -17 -25 -31 3 -10 1 -21 -4 -24 -5 -3 -9 -15 -9 -27 0 -20 0 -20 15 -1 8 10 15 27 15 37 0 21 1 21 36 2 25 -13 26 -15 9 -21 -27 -11 -136 -124 -129 -135 4 -6 11 -6 19 1 8 7 23 9 34 5 17 -5 24 1 38 29 9 20 23 36 31 36 8 0 12 6 8 15 -3 9 3 19 15 25 11 6 19 19 18 28 -1 9 3 30 9 45 7 16 12 32 12 36 0 4 14 23 30 41 17 18 30 37 30 42 0 14 -18 9 -24 -7z m-146 -249 c0 -3 -4 -8 -10 -11 -5 -3 -10 -1 -10 4 0 6 5 11 10 11 6 0 10 -2 10 -4z"/>
        <path d="M4291 1897 c-6 -8 -8 -17 -4 -20 11 -12 21 -7 26 13 6 23 -5 26 -22 7z"/>
        <path d="M4223 1884 c-3 -8 -2 -19 4 -25 5 -5 9 1 11 16 2 28 -6 33 -15 9z"/>
        <path d="M4120 1879 c0 -7 9 -26 20 -44 19 -31 19 -32 -1 -69 -11 -21 -18 -41 -15 -43 15 -15 66 58 66 95 0 10 -13 30 -28 45 -30 29 -42 33 -42 16z"/>
        <path d="M3851 1866 c-15 -18 6 -27 34 -14 18 8 18 8 -2 4 -24 -4 -32 9 -10 17 7 4 8 6 1 6 -6 1 -17 -5 -23 -13z"/>
        <path d="M4275 1850 c-3 -5 -1 -10 4 -10 6 0 11 5 11 10 0 6 -2 10 -4 10 -3 0 -8 -4 -11 -10z"/>
        <path d="M4056 1817 c-17 -40 -83 -117 -101 -117 -7 0 -18 -6 -25 -14 -6 -8 -18 -12 -26 -9 -8 3 -14 0 -14 -6 0 -6 -25 -26 -55 -46 -36 -22 -55 -42 -55 -54 0 -18 6 -16 70 16 38 20 86 53 105 74 39 43 41 45 43 27 1 -7 4 -29 6 -48 3 -19 3 -27 0 -17 -5 18 -7 18 -20 -2 -9 -12 -20 -21 -25 -21 -5 0 0 13 12 30 13 16 20 32 17 36 -3 3 -19 -12 -35 -32 -15 -21 -41 -51 -57 -68 -37 -38 -63 -99 -46 -104 6 -2 1 -9 -12 -16 -12 -6 -27 -21 -33 -34 -5 -12 -15 -22 -22 -22 -7 0 -17 -8 -22 -17 -10 -17 -10 -17 -11 0 0 9 5 17 10 17 9 0 9 15 1 59 -1 3 -6 0 -13 -7 -7 -7 -18 -12 -26 -12 -12 0 -12 3 -2 15 7 9 10 18 6 22 -7 7 -65 -47 -66 -61 0 -5 -8 -15 -17 -22 -10 -7 -14  16 -10 -21 5 -4 13 0 18 10 6 9 16 17 23 17 8 0 19 7 26 15 7 9 15 13 18 10 9 -9 -51 -65 -70 -65 -12 0 -18 -8 -19 -22 -3 -53 -7 -70 -18 -81 -15 -15 -14 -27 4 -27 9 0 18 7 21 15 4 8 13 15 21 15 8 0 21 6 28 13 8 6 32 26 53 42 22 17 43 39 48 50 5 11 21 21 37 23 15 2 27 9 27 18 0 8 5 14 10 14 6 0 10 6 10 14 0 8 13 23 30 32 21 13 26 21 19 30 -7 9 -5 16 9 23 24 13 32 5 32 -28 0 -21 -2 -23 -10 -11 -8 13 -10 12 -10 -2 0 -10 -6 -18 -14 -18 -19 0 -39 -27 -31 -40 5 -8 13 -6 27 7 19 17 20 17 17 -2 -2 -11 0 -26 4 -32 11 -18 37 -16 37 2 0 8 11 22 25 31 28 18 33 44 10 44 -8 0 -15 5 -15 11 0 5 5 7 11 4 35 -22 139 37 139 79 0 36 -11 38 -42 9 -27 -26 -28 -26 -43 -7 -19 25 -15 36 21 53 l29 15 -25 6 c-17 4 -21 8 -12 14 17 10 16 40 -1 33 -11 -4 -12 3 -7 31 3 21 11 46 17 57 14 26 12 73 -4 80 -8 2 -19 -9 -27 -28z m-53 -237 c3 -11 2 -18 -3 -15 -9 6 -24 -24 -21 -42 1 -7 -3 -13 -9 -13 -5 0 -10 3 -10 7 0 7 33 83 36 83 1 0 4 -9 7 -20z m-273 -244 c0 -2 -7 -9 -15 -16 -13 -11 -14 -10 -9 4 5 14 24 23 24 12z"/>
        <path d="M4210 1840 c0 -5 5 -10 11 -10 5 0 7 5 4 10 -3 6 -8 10 -11 10 -2 0 -4 -4 -4 -10z"/>
        <path d="M3813 1828 c-25 -12 -31 -28 -10 -28 14 1 47 24 47 34 0 8 -11 7 -37 -6z"/>
        <path d="M3425 1817 c-6 -7 -17 -27 -25 -46 -7 -19 -24 -45 -37 -59 -26 -28 -29 -42 -10 -42 8 0 22 15 32 34 11 19 22 33 26 30 15 -9 40 47 32 71 -6 17 -11 20 -18 12z"/>
        <path d="M4265 1820 c3 -5 8 -10 11 -10 2 0 4 5 4 10 0 6 -5 10 -11 10 -5 0 -7 -4 -4 -10z"/>
        <path d="M3257 1744 c-26 -31 -50 -68 -53 -83 -4 -14 -16 -36 -27 -48 -11 -13 -17 -26 -14 -29 12 -12 72 11 82 32 6 11 18 28 28 38 9 10 17 23 17 30 0 6 9 29 20 51 42 83 14 88 -53 9z"/>
        <path d="M4180 1734 c-13 -33 -13 -61 0 -69 6 -3 10 -1 10 6 0 7 7 20 16 30 10 11 13 25 9 38 -9 28 -23 26 -35 -5z"/>
        <path d="M3770 1734 c-14 -7 -54 -34 -90 -59 -36 -25 -80 -56 -99 -68 -39 -25 -58 -57 -23 -38 11 6 31 11 44 11 14 0 42 17 66 39 23 22 66 60 94 85 53 46 55 56 8 30z"/>
        <path d="M3126 1631 c-3 -5 1 -14 9 -21 13 -10 15 -9 15 9 0 21 -14 28 -24 12z"/>
        <path d="M3232 1568 c-6 -13 -13 -36 -17 -53 -3 -16 -8 -37 -11 -46 -3 -13 1 -15 19 -12 18 4 24 11 24 31 -1 15 3 44 7 65 9 41 -4 50 -22 15z"/>
        <path d="M3300 1560 c-6 -12 -9 -24 -7 -27 3 -2 11 5 17 17 6 12 9 24 7 27 -3 2 -11 -5 -17 -17z"/>
        <path d="M3800 1523 c-19 -6 -65 -63 -51 -63 11 0 33 20 60 53 7 9 12 16 10 16 -2 -1 -11 -3 -19 -6z"/>
        <path d="M3815 1490 c-22 -23 -25 -30 -12 -30 9 0 23 14 32 30 9 17 14 30 12 30 -2 0 -16 -13 -32 -30z"/>
        <path d="M5111 3321 c-11 -7 -10 -10 5 -14 91 -27 269 -37 262 -14 -3 7 -31 14 -69 18 -35 3 -91 9 -124 13 -33 3 -66 2 -74 -3z"/>
        <path d="M5640 2836 c-38 -13 -65 -29 -65 -37 0 -17 -1 -17 110 -1 139 21 160 26 160 42 0 26 -128 24 -205 -4z"/>
        <path d="M5480 2830 c-13 -25 -53 -46 -116 -60 -27 -7 -56 -14 -64 -17 -39 -15 -62 -12 -100 13 -49 32 -61 26 -29 -15 38 -47 54 -50 151 -29 110 24 171 51 185 80 18 42 -6 67 -27 28z"/>
        <path d="M4920 2498 c0 -27 75 -198 87 -198 16 0 16 5 2 69 -15 73 -89 180 -89 129z"/>
        <path d="M5648 2312 c-26 -20 -69 -65 -97 -99 -52 -64 -86 -93 -108 -93 -7 0 -36 15 -65 34 -70 44 -101 54 -96 31 1 -10 12 -23 22 -29 11 -6 27 -18 36 -27 10 -9 31 -24 47 -34 17 -10 38 -30 46 -45 16 -26 15 -29 -14 -74 -17 -25 -34 -46 -39 -46 -4 0 -11 -7 -14 -16 -5 -13 0 -15 33 -9 36 6 41 4 72 -33 30 -35 86 -136 111 -197 17 -43 27 -144 17 -178 -9 -34 -62 -99 -89 -110 -13 -5 -13 -7 -1 -15 8 -6 20 -8 27 -5 16 6 94 -50 151 -109 40 -41 61 -79 68 -123 23 -141 61 -301 117 -485 48 -158 57 -180 75 -180 21 0 18 20 -38 205 -17 55 -37 123 -44 150 -8 28 -21 75 -29 105 -9 30 -20 87 -27 125 -6 39 -14 86 -18 106 -8 34 4 69 23 69 8 0 28 -48 30 -70 2 -35 59  -120 72 -108 6 7 -44 129 -61 148 -12 13 -15 44 -15 136 0 65 -5 135 -10 154 -5 19 -23 85 -39 145 -37 130 -41 221 -13 255 16 20 39 26 142 42 119 17 153 29 136 45 -12 12 -143 8 -217 -6 -56 -11 -73 -10 -110 2 -129 45 -179 82 -179 131 0 39 15 61 102 154 38 40 66 77 63 82 -9 15 -16 12 -67 -28z"/> 
        <path d="M5814 2251 c-90 -58 -117 -81 -94 -81 29 0 220 118 220 136 0 16 -49 -5 -126 -55z"/>
        <path d="M5160 1698 c0 -26 35 -88 50 -88 5 0 22 -19 37 -42 45 -69 122 -162 151 -180 33 -22 62 -23 62 -3 0 8 -6 15 -14 15 -25 0 -62 42 -97 110 -19 36 -37 67 -40 70 -3 3 -8 10 -10 16 -2 6 -34 37 -71 68 -61 52 -68 55 -68 34z"/>
    </g>

    <g>
        <path d="M 3 42 L 3 21 L 24 3 L 45 21 L 45 42 Z" fill="none" stroke="#347dbe" stroke-width="0.5" stroke-miterlimit="10" pointer-events="all"/>
        <path d="M 8.4 13.8 L 8.4 6 L 12 6 L 12 10.8" fill="none" stroke="#347dbe" stroke-width="0.5" stroke-miterlimit="10" pointer-events="all"/>
        <path d="M 0 21 L 24 0 L 48 21" fill="none" stroke="#347dbe" stroke-width="0.5" stroke-miterlimit="10" pointer-events="all"/>
    </g>
</svg>