<?xml version="1.0" encoding="UTF-8" standalone="no" ?>
<!DOCTYPE svg PUBLIC "-//W3C//DTD SVG 1.1//EN" "http://www.w3.org/Graphics/SVG/1.1/DTD/svg11.dtd">
<svg xmlns="http://www.w3.org/2000/svg" xmlns:xlink="http://www.w3.org/1999/xlink" version="1.1" width="700" height="700" viewBox="0 0 700 700" xml:space="preserve">
<defs>
</defs>


<style>
	path {
		stroke: none;
		stroke-width: 1;
		stroke-dasharray: none;
		stroke-linecap: butt;
		stroke-dashoffset: 0;
		stroke-linejoin: miter;
		stroke-miterlimit: 4;
		fill: #347DBE;
		fill-rule: nonzero;
		opacity: 1;
	}
</style>

<g transform="matrix(0.83 0 0 0.83 350 350)"  >
	<g style="" vector-effect="non-scaling-stroke"   >
		<g transform="matrix(0.13 0 0 -0.13 0 0)"  >
			 <path vector-effect="non-scaling-stroke"  transform=" translate(-3763.65, -2858.21)" d="M 3390 5398 C 3371 5392 3326 5390 3291 5393 C 3226 5398 3114 5374 3084 5349 C 3076 5343 3070 5341 3070 5345 C 3070 5349 3064 5347 3057 5341 C 3049 5335 3012 5317 2974 5302 C 2936 5286 2874 5254 2836 5232 C 2799 5209 2765 5190 2761 5190 C 2757 5190 2743 5178 2729 5164 C 2716 5150 2690 5129 2670 5118 C 2651 5106 2620 5084 2602 5068 C 2584 5052 2565 5042 2559 5045 C 2554 5049 2547 5043 2544 5033 C 2540 5023 2525 5004 2510 4990 C 2457 4941 2371 4825 2336 4755 C 2317 4717 2292 4669 2281 4650 C 2234 4567 2210 4505 2198 4442 C 2186 4371 2171 4343 2105 4269 C 2083 4244 2052 4198 2037 4167 C 2022 4135 2006 4110 2002 4110 C 1998 4111 1970 4119 1940 4130 C 1866 4156 1782 4156 1719 4129 C 1692 4117 1670 4104 1670 4100 C 1670 4096 1659 4088 1646 4082 C 1598 4060 1518 3995 1391 3873 C 1349 3833 1255 3743 1182 3673 C 1109 3603 1039 3530 1025 3510 C 996 3468 947 3277 956 3237 C 959 3222 957 3204 951 3197 C 946 3190 942 3171 942 3154 C 943 3138 937 3114 930 3101 C 924 3088 917 3045 915 3006 C 912 2920 884 2709 864 2620 C 856 2584 850 2545 850 2534 C 850 2522 834 2481 815 2444 C 796 2406 775 2346 769 2310 C 763 2274 756 2238 753 2230 C 749 2222 746 2213 746 2210 C 745 2207 728 2171 708 2129 C 662 2034 655 2008 625 1835 C 600 1690 590 1557 603 1544 C 607 1540 610 1521 610 1501 C 610 1481 617 1456 625 1446 C 633 1435 640 1417 640 1405 C 640 1383 665 1314 701 1233 C 717 1198 737 1174 762 1158 C 783 1145 800 1130 800 1125 C 800 1119 809 1107 820 1097 C 831 1088 840 1074 840 1067 C 840 1060 856 1037 875 1015 C 894 993 910 966 910 955 C 910 942 920 931 939 923 C 959 916 970 903 975 881 C 979 860 988 850 1000 850 C 1017 850 1070 798 1070 782 C 1070 778 1083 766 1100 755 C 1120 741 1131 724 1135 698 C 1141 663 1144 660 1176 660 C 1205 660 1212 655 1225 624 C 1233 603 1256 574 1275 557 C 1294 541 1310 521 1310 514 C 1310 506 1320 500 1332 500 C 1345 500 1366 489 1380 475 C 1445 410 1551 356 1632 346 C 1664 343 1709 333 1733 325 C 1798 303 2057 302 2188 323 C 2289 339 2360 363 2360 381 C 2360 386 2371 390 2385 390 C 2407 390 2428 402 2465 437 C 2473 444 2481 450 2485 450 C 2514 450 2567 568 2589 685 C 2634 913 2648 966 2666 981 C 2673 987 2682 1005 2685 1021 C 2689 1037 2710 1077 2731 1110 C 2753 1142 2790 1207 2814 1253 C 2838 1299 2869 1348 2884 1363 C 2898 1377 2910 1394 2910 1400 C 2910 1415 2943 1412 2966 1395 C 2976 1387 2992 1380 3001 1380 C 3022 1380 3034 1410 3019 1424 C 3010 1432 3009 1432 3014 1423 C 3022 1408 3004 1405 2995 1420 C 2992 1425 2980 1430 2969 1430 C 2954 1430 2950 1437 2950 1463 C 2950 1494 2952 1496 2983 1492 C 3009 1489 3021 1480 3034 1455 C 3044 1436 3063 1411 3076 1399 C 3102 1375 3110 1350 3085 1370 C 3077 1376 3065 1378 3059 1374 C 3052 1370 3076 1356 3120 1339 C 3160 1323 3205 1300 3219 1287 C 3250 1258 3380 1195 3435 1182 C 3457 1176 3545 1164 3630 1155 C 3754 1142 3811 1141 3915 1149 C 4132 1166 4164 1173 4217 1216 C 4242 1237 4288 1266 4319 1281 C 4356 1298 4391 1326 4420 1361 C 4511 1468 4521 1485 4532 1557 C 4541 1620 4577 1736 4601 1786 C 4607 1798 4615 1840 4618 1881 L 4625 1955 L 4666 1958 C 4704 1961 4709 1958 4721 1931 C 4729 1914 4738 1900 4741 1900 C 4755 1900 4810 1841 4810 1828 C 4810 1820 4819 1805 4830 1795 C 4875 1754 4983 1578 4997 1522 C 5005 1491 5016 1448 5021 1427 C 5026 1406 5030 1372 5029 1352 C 5027 1305 5077 1148 5125 1045 C 5146 1001 5166 963 5170 960 C 5174 957 5181 948 5186 939 C 5237 849 5406 697 5581 585 C 5666 530 5701 507 5734 483 C 5812 427 5886 380 5938 354 C 5984 331 5999 329 6046 335 C 6079 339 6103 347 6107 356 C 6110 364 6118 370 6126 370 C 6134 370 6140 376 6140 384 C 6140 391 6162 413 6189 431 C 6215 449 6241 473 6246 484 C 6251 495 6272 512 6294 523 C 6317 535 6344 562 6361 589 C 6377 614 6412 655 6438 680 C 6470 709 6504 758 6537 821 C 6564 874 6597 927 6608 938 C 6620 950 6630 964 6630 970 C 6630 979 6662 1024 6721 1100 C 6731 1113 6740 1131 6740 1140 C 6740 1149 6749 1174 6761 1195 C 6772 1217 6792 1267 6805 1305 C 6818 1344 6836 1395 6846 1420 C 6866 1475 6879 1526 6891 1605 C 6895 1638 6902 1684 6906 1707 C 6909 1731 6916 1750 6921 1750 C 6926 1750 6930 1786 6930 1830 C 6930 1874 6926 1910 6921 1910 C 6917 1910 6910 1943 6908 1984 C 6904 2039 6898 2065 6882 2084 C 6871 2099 6859 2124 6855 2140 C 6852 2156 6842 2174 6834 2181 C 6826 2187 6813 2216 6804 2245 C 6796 2274 6778 2310 6765 2324 C 6751 2339 6733 2374 6724 2403 C 6714 2432 6704 2460 6700 2465 C 6696 2471 6671 2516 6644 2565 C 6583 2680 6455 2877 6421 2910 C 6393 2937 6300 3071 6300 3085 C 6300 3089 6280 3133 6256 3181 C 6231 3229 6211 3277 6211 3287 C 6210 3321 6204 3345 6195 3347 C 6179 3350 6167 3381 6179 3393 C 6187 3401 6183 3412 6166 3434 C 6153 3451 6139 3481 6135 3500 C 6131 3519 6102 3590 6069 3657 C 6037 3724 6010 3783 6010 3790 C 6010 3835 5892 4000 5860 4000 C 5844 4000 5780 4061 5780 4076 C 5780 4085 5768 4090 5746 4090 C 5728 4090 5707 4097 5700 4105 C 5693 4113 5678 4120 5666 4120 C 5654 4120 5636 4126 5625 4134 C 5614 4142 5585 4154 5560 4161 C 5535 4168 5492 4187 5463 4202 C 5435 4217 5401 4230 5387 4230 C 5374 4230 5338 4241 5308 4255 C 5239 4286 5099 4299 5040 4280 C 5018 4273 5000 4263 5000 4258 C 5000 4254 4989 4250 4975 4250 C 4957 4250 4949 4243 4944 4225 C 4938 4200 4924 4196 4860 4199 L 4835 4201 L 4858 4181 C 4870 4171 4880 4157 4880 4152 C 4880 4146 4884 4140 4889 4138 C 4903 4133 5041 4000 5032 4000 C 5028 3999 5039 3987 5056 3972 C 5073 3957 5123 3900 5167 3845 C 5211 3790 5257 3736 5270 3725 C 5295 3703 5354 3591 5346 3582 C 5343 3579 5344 3572 5349 3566 C 5353 3560 5372 3510 5390 3455 C 5426 3345 5452 3295 5481 3280 C 5491 3274 5546 3267 5602 3264 C 5731 3258 5759 3258 5777 3269 C 5791 3277 5660 3290 5566 3290 C 5528 3290 5522 3294 5488 3343 C 5426 3432 5370 3581 5370 3656 C 5370 3673 5389 3712 5421 3757 C 5448 3797 5468 3834 5465 3840 C 5462 3846 5429 3835 5388 3814 C 5322 3781 5314 3779 5278 3789 C 5247 3799 5228 3816 5185 3875 C 5155 3916 5130 3954 5130 3959 C 5130 3965 5126 3970 5120 3970 C 5115 3970 5110 3976 5110 3983 C 5110 3996 5070 4026 5058 4022 C 5047 4019 4962 4109 4947 4139 C 4936 4162 4937 4168 4959 4193 C 4972 4208 4991 4220 5001 4220 C 5011 4220 5034 4229 5052 4240 C 5070 4251 5094 4260 5105 4260 C 5139 4260 5379 4181 5525 4120 C 5602 4088 5698 4049 5738 4034 C 5778 4018 5822 3996 5834 3985 C 5847 3974 5866 3960 5876 3954 C 5887 3948 5895 3934 5895 3924 C 5895 3913 5928 3840 5968 3760 C 6041 3616 6049 3598 6096 3465 C 6109 3427 6123 3388 6127 3380 C 6130 3372 6134 3363 6135 3360 C 6136 3357 6139 3348 6143 3340 C 6146 3332 6154 3307 6161 3285 C 6186 3199 6332 2938 6385 2884 C 6456 2811 6624 2522 6655 2419 C 6659 2406 6668 2388 6675 2380 C 6707 2342 6800 2160 6800 2135 C 6800 2128 6806 2120 6814 2117 C 6822 2114 6831 2097 6835 2079 C 6839 2061 6849 2040 6857 2031 C 6868 2021 6870 2005 6865 1973 C 6861 1943 6863 1924 6871 1913 C 6888 1894 6888 1801 6873 1730 C 6866 1700 6854 1634 6846 1584 C 6838 1534 6820 1468 6806 1437 C 6792 1406 6780 1372 6780 1361 C 6780 1337 6732 1240 6720 1240 C 6715 1240 6709 1227 6705 1211 C 6694 1162 6603 991 6570 958 C 6561 950 6539 913 6521 877 C 6502 840 6484 810 6479 810 C 6475 810 6469 797 6465 782 C 6462 765 6443 741 6420 724 C 6399 708 6364 668 6342 634 C 6316 594 6288 566 6263 553 C 6242 542 6221 525 6216 514 C 6202 483 6106 421 6060 414 C 6032 409 6016 401 6011 388 C 6005 370 6001 371 5947 400 C 5916 416 5884 430 5876 430 C 5867 430 5837 449 5808 472 C 5723 541 5692 562 5560 645 C 5421 731 5365 778 5272 883 C 5195 970 5090 1169 5090 1228 C 5090 1248 5083 1290 5075 1320 C 5059 1380 5055 1480 5069 1480 C 5083 1480 5105 1719 5092 1732 C 5086 1738 5084 1756 5087 1772 C 5091 1791 5087 1807 5077 1818 C 5069 1827 5056 1858 5050 1885 C 5044 1913 5034 1944 5030 1955 C 5025 1966 5019 1993 5016 2015 C 4996 2189 4987 2229 4947 2315 C 4905 2405 4905 2405 4907 2517 C 4908 2581 4904 2632 4899 2636 C 4881 2647 4842 2611 4830 2574 C 4813 2524 4823 2400 4849 2320 C 4861 2284 4877 2215 4886 2165 C 4894 2116 4905 2068 4910 2059 C 4921 2038 4914 2030 4884 2030 C 4853 2030 4815 1997 4823 1977 C 4828 1963 4843 1960 4897 1960 L 4965 1960 L 4925 1937 C 4900 1923 4885 1907 4885 1895 C 4885 1878 4893 1875 4938 1872 C 4970 1870 4990 1864 4990 1857 C 4990 1850 4997 1832 5005 1816 C 5020 1787 5020 1785 4992 1757 L 4963 1728 L 4940 1760 C 4913 1798 4873 1839 4867 1834 C 4862 1828 4770 1937 4770 1949 C 4770 1955 4766 1960 4761 1960 C 4738 1960 4702 2066 4699 2145 C 4697 2189 4690 2230 4684 2235 C 4678 2241 4676 2271 4679 2315 C 4684 2367 4687 2379 4692 2360 C 4696 2346 4700 2323 4700 2308 C 4700 2289 4705 2280 4716 2280 C 4730 2280 4731 2287 4726 2320 C 4723 2343 4713 2379 4705 2402 C 4694 2435 4694 2447 4703 2458 C 4711 2468 4714 2512 4712 2597 C 4710 2674 4713 2719 4719 2716 C 4724 2713 4731 2716 4733 2722 C 4736 2729 4739 2726 4739 2716 C 4741 2683 4763 2630 4776 2630 C 4801 2630 4860 2661 4869 2679 C 4885 2708 4902 2871 4904 3015 C 4907 3157 4922 3206 4975 3246 C 4989 3256 5000 3268 5000 3273 C 5000 3278 5012 3297 5026 3316 C 5041 3335 5050 3353 5047 3356 C 5038 3365 5019 3350 5025 3339 C 5029 3334 5026 3330 5021 3330 C 5015 3330 5010 3336 5010 3343 C 5010 3351 4985 3382 4955 3413 C 4925 3444 4900 3474 4900 3480 C 4900 3486 4880 3512 4857 3538 C 4803 3596 4760 3669 4760 3701 C 4760 3724 4737 3768 4718 3780 C 4708 3787 4668 3860 4635 3930 C 4621 3960 4602 3999 4593 4015 C 4584 4032 4565 4068 4550 4096 C 4535 4124 4513 4161 4501 4178 C 4474 4216 4444 4332 4455 4357 C 4460 4367 4464 4377 4464 4380 C 4471 4407 4492 4428 4510 4423 C 4521 4420 4530 4422 4530 4427 C 4530 4440 4576 4460 4607 4460 C 4631 4460 4700 4403 4711 4374 C 4718 4354 4825 4210 4833 4210 C 4849 4210 4838 4237 4807 4276 C 4790 4298 4766 4334 4755 4356 C 4732 4401 4716 4420 4701 4420 C 4694 4420 4690 4449 4691 4499 C 4691 4542 4687 4587 4681 4598 C 4675 4609 4670 4637 4670 4659 C 4670 4681 4666 4702 4660 4705 C 4655 4708 4638 4736 4623 4765 C 4609 4795 4586 4827 4573 4835 C 4560 4844 4539 4868 4525 4890 C 4512 4911 4488 4942 4473 4958 C 4405 5028 4340 5103 4340 5110 C 4340 5115 4328 5122 4313 5128 C 4297 5133 4262 5156 4233 5179 C 4204 5201 4175 5220 4169 5220 C 4162 5220 4142 5231 4125 5244 C 4107 5258 4080 5272 4064 5275 C 4023 5284 3979 5301 3951 5319 C 3923 5337 3902 5341 3827 5343 C 3796 5344 3770 5349 3770 5353 C 3770 5357 3764 5360 3758 5359 C 3751 5358 3738 5359 3730 5362 C 3722 5365 3688 5373 3655 5380 C 3622 5386 3579 5396 3559 5401 C 3513 5412 3435 5411 3390 5398 z M 3640 5297 C 3719 5291 3882 5262 3903 5250 C 3912 5244 3945 5230 3975 5219 C 4005 5208 4030 5194 4030 5188 C 4030 5182 4045 5180 4065 5182 C 4084 5184 4097 5184 4095 5181 C 4090 5177 4218 5090 4229 5090 C 4233 5090 4241 5085 4248 5078 C 4255 5071 4274 5061 4290 5056 C 4354 5034 4527 4859 4562 4782 C 4571 4762 4589 4711 4601 4670 C 4613 4629 4627 4590 4632 4583 C 4637 4577 4638 4559 4634 4543 C 4625 4504 4620 4498 4607 4508 C 4585 4525 4553 4527 4529 4514 C 4480 4487 4455 4496 4398 4560 C 4355 4609 4327 4629 4255 4665 C 4205 4689 4148 4720 4127 4734 C 4045 4790 3834 4857 3705 4869 C 3451 4891 3174 4851 3021 4769 C 2890 4698 2864 4683 2822 4656 C 2752 4612 2638 4497 2580 4413 C 2484 4273 2450 4220 2440 4198 L 2431 4175 L 2431 4198 C 2429 4260 2320 4358 2261 4351 C 2241 4349 2238 4351 2244 4367 C 2252 4386 2260 4410 2304 4550 C 2330 4629 2374 4727 2417 4797 C 2462 4872 2670 5090 2695 5090 C 2702 5090 2710 5093 2712 5098 C 2717 5110 2792 5157 2835 5175 C 2857 5185 2883 5196 2892 5201 C 2902 5206 2918 5210 2928 5210 C 2938 5210 2978 5221 3016 5234 C 3080 5255 3259 5294 3340 5303 C 3377 5308 3548 5304 3640 5297 z M 3600 4780 C 3611 4773 3603 4770 3570 4770 C 3545 4770 3516 4762 3505 4754 C 3487 4740 3490 4739 3545 4745 C 3592 4751 3621 4748 3670 4732 C 3706 4721 3764 4710 3800 4706 C 3865 4700 3865 4700 3825 4714 C 3763 4735 3713 4759 3730 4760 C 3765 4760 3898 4717 3945 4689 C 4025 4641 4031 4637 4068 4598 C 4087 4577 4107 4560 4113 4560 C 4119 4560 4131 4554 4139 4546 C 4148 4538 4176 4521 4202 4507 C 4227 4494 4287 4452 4334 4414 C 4404 4359 4420 4341 4420 4319 C 4420 4286 4450 4187 4463 4179 C 4468 4175 4470 4168 4466 4162 C 4463 4157 4467 4147 4475 4140 C 4483 4133 4490 4124 4490 4119 C 4490 4114 4471 4130 4447 4153 C 4424 4177 4382 4211 4355 4229 C 4327 4248 4288 4283 4266 4307 C 4245 4331 4216 4357 4201 4364 C 4172 4379 3938 4430 3898 4430 C 3855 4430 3770 4390 3770 4369 C 3770 4356 3778 4352 3803 4352 C 3852 4353 3970 4334 4018 4316 C 4042 4308 4084 4298 4113 4294 C 4142 4290 4182 4279 4203 4269 C 4224 4259 4254 4248 4270 4245 C 4310 4236 4318 4220 4283 4220 C 4039 4221 3889 4202 3785 4159 C 3769 4152 3753 4146 3750 4146 C 3747 4145 3739 4141 3733 4137 C 3726 4133 3693 4120 3660 4109 C 3589 4086 3497 4090 3365 4122 C 3321 4132 3278 4142 3270 4144 C 3261 4145 3250 4149 3245 4152 C 3220 4166 3142 4172 2981 4172 L 2808 4171 L 2830 4196 C 2843 4209 2858 4220 2863 4220 C 2868 4220 2902 4234 2938 4251 C 3084 4320 3109 4328 3176 4335 C 3310 4347 3316 4353 3235 4389 C 3195 4406 3169 4411 3141 4407 C 3102 4402 3002 4366 2945 4336 C 2928 4327 2895 4320 2872 4320 C 2802 4320 2710 4266 2694 4216 C 2686 4190 2661 4171 2637 4170 C 2623 4170 2620 4175 2626 4193 C 2653 4281 2817 4490 2858 4490 C 2879 4490 2924 4525 2955 4565 C 2999 4624 2976 4617 2904 4551 C 2858 4509 2833 4493 2826 4500 C 2819 4507 2840 4534 2891 4584 C 2948 4641 2975 4661 3010 4670 C 3035 4677 3072 4691 3094 4702 C 3115 4713 3156 4723 3184 4725 C 3212 4726 3269 4734 3310 4743 C 3539 4792 3575 4796 3600 4780 z M 2338 4278 C 2378 4250 2404 4204 2419 4130 C 2432 4068 2429 4020 2405 3905 C 2376 3764 2363 3724 2323 3654 C 2277 3573 2255 3520 2245 3465 C 2241 3443 2235 3421 2230 3415 C 2226 3410 2213 3374 2201 3335 C 2189 3297 2153 3218 2121 3162 C 2080 3090 2059 3042 2055 3007 C 2046 2944 2015 2910 1966 2910 C 1919 2910 1703 2854 1665 2832 C 1649 2822 1634 2807 1632 2798 C 1630 2785 1644 2788 1712 2812 C 1835 2856 1960 2890 2003 2890 C 2024 2890 2053 2896 2068 2904 C 2106 2923 2175 2932 2218 2924 C 2246 2918 2271 2900 2321 2847 C 2384 2782 2388 2774 2394 2719 C 2398 2687 2407 2638 2414 2610 C 2421 2583 2423 2560 2419 2560 C 2409 2560 2407 2516 2417 2507 C 2424 2500 2437 2520 2469 2585 C 2484 2616 2489 2620 2489 2603 C 2490 2591 2486 2571 2481 2558 C 2468 2527 2458 2496 2460 2492 C 2460 2490 2451 2481 2439 2471 L 2416 2453 L 2436 2398 C 2454 2351 2455 2332 2448 2264 C 2444 2221 2433 2150 2424 2108 C 2407 2031 2407 2030 2430 1978 C 2461 1908 2462 1810 2433 1720 C 2421 1684 2404 1613 2396 1561 C 2387 1510 2370 1441 2359 1408 L 2337 1349 L 2359 1322 C 2371 1307 2383 1287 2387 1277 C 2390 1268 2396 1260 2401 1260 C 2406 1260 2432 1239 2458 1214 C 2484 1188 2514 1164 2525 1159 C 2536 1154 2555 1143 2568 1134 C 2589 1118 2590 1118 2584 1136 C 2574 1163 2523 1216 2463 1261 C 2434 1283 2410 1307 2410 1315 C 2410 1323 2403 1333 2395 1338 C 2381 1345 2381 1353 2394 1408 C 2402 1442 2406 1489 2404 1512 C 2399 1551 2400 1553 2412 1533 C 2434 1497 2472 1474 2550 1450 C 2591 1437 2631 1425 2638 1422 C 2644 1420 2650 1423 2650 1429 C 2650 1434 2633 1444 2612 1451 C 2560 1466 2484 1523 2464 1561 C 2449 1591 2449 1597 2471 1664 C 2488 1717 2494 1760 2494 1835 C 2495 1926 2492 1940 2467 1989 C 2444 2035 2440 2051 2446 2084 C 2450 2107 2453 2128 2452 2133 C 2451 2137 2454 2140 2460 2140 C 2465 2140 2470 2154 2470 2171 C 2470 2194 2483 2214 2521 2255 L 2572 2309 L 2552 2372 C 2524 2459 2520 2483 2529 2498 C 2538 2513 2551 2487 2586 2387 C 2607 2325 2608 2316 2594 2303 C 2580 2289 2583 2286 2617 2270 C 2695 2235 2761 2137 2764 2051 C 2767 1994 2770 1988 2826 1920 C 2919 1808 2969 1739 2980 1704 C 2992 1667 2981 1632 2936 1566 C 2922 1545 2910 1521 2910 1512 C 2910 1493 2858 1376 2848 1372 C 2844 1370 2840 1364 2840 1359 C 2840 1348 2769 1240 2733 1196 C 2700 1157 2611 965 2599 910 C 2594 885 2585 838 2579 806 C 2574 773 2566 742 2562 736 C 2555 725 2550 704 2548 683 C 2547 676 2544 670 2540 670 C 2536 670 2528 650 2521 625 C 2515 600 2505 560 2499 535 C 2491 504 2482 490 2471 490 C 2462 490 2447 482 2439 473 C 2411 441 2380 420 2364 420 C 2355 420 2336 412 2322 401 C 2307 391 2277 377 2255 371 C 2221 362 2209 363 2175 380 C 2152 391 2128 400 2122 400 C 2106 400 2107 373 2123 363 C 2130 358 2120 352 2095 347 C 2014 330 1968 328 1923 341 L 1877 355 L 1884 500 C 1892 686 1894 694 1935 709 C 1995 730 2017 758 2088 904 C 2127 983 2186 1087 2219 1135 C 2277 1219 2291 1250 2271 1250 C 2252 1250 2071 1000 2070 973 C 2070 966 2067 960 2062 960 C 2058 960 2044 928 2030 889 C 2003 808 1977 770 1950 770 C 1927 770 1923 793 1917 947 C 1914 1011 1916 1057 1921 1054 C 1926 1051 1930 1061 1930 1077 C 1930 1126 1949 1175 1979 1204 C 2012 1236 2012 1258 1979 1315 C 1963 1342 1960 1359 1965 1390 C 1972 1432 1992 1450 2032 1450 C 2062 1450 2202 1518 2175 1519 C 2164 1520 2121 1508 2079 1493 C 2005 1467 2001 1467 1976 1484 C 1961 1493 1930 1531 1906 1568 C 1869 1627 1825 1670 1805 1670 C 1794 1670 1812 1626 1831 1605 C 1883 1547 1904 1442 1874 1382 C 1852 1337 1787 1289 1742 1284 C 1485 1258 1461 1253 1476 1228 C 1483 1217 1664 1227 1701 1242 C 1737 1255 1782 1231 1815 1182 C 1838 1146 1841 1130 1851 955 C 1857 850 1865 746 1869 723 C 1874 700 1874 676 1869 669 C 1865 662 1859 585 1855 497 L 1847 338 L 1816 344 C 1630 376 1551 399 1508 431 C 1488 447 1461 465 1447 471 C 1434 477 1415 495 1406 512 C 1392 534 1382 541 1366 538 C 1349 534 1340 540 1331 562 C 1324 577 1314 590 1308 590 C 1295 590 1261 631 1260 648 C 1260 654 1265 660 1270 660 C 1276 660 1280 667 1280 675 C 1280 683 1276 690 1270 690 C 1265 690 1260 699 1260 710 C 1260 735 1235 736 1212 713 C 1196 697 1195 698 1192 718 C 1190 730 1183 740 1176 740 C 1170 740 1159 754 1153 770 C 1145 790 1135 800 1121 800 C 1109 800 1100 805 1100 810 C 1100 826 1044 880 1028 880 C 1019 880 1008 896 1002 919 C 993 947 983 960 965 964 C 945 969 940 977 940 1000 C 940 1019 935 1030 926 1030 C 909 1030 870 1081 870 1103 C 870 1111 863 1120 855 1124 C 847 1127 835 1141 830 1155 C 825 1169 815 1180 808 1180 C 789 1181 750 1216 750 1232 C 750 1240 746 1250 742 1256 C 733 1266 715 1340 705 1407 C 701 1433 689 1459 674 1472 C 656 1490 650 1506 650 1540 C 650 1565 646 1591 642 1598 C 637 1605 638 1634 642 1663 C 647 1691 653 1726 654 1740 C 656 1754 660 1772 663 1780 C 666 1788 671 1813 674 1835 C 677 1857 684 1893 689 1915 C 694 1937 705 1990 714 2034 C 723 2079 743 2136 761 2169 C 784 2209 795 2245 801 2299 C 807 2355 820 2395 853 2464 C 904 2569 925 2666 935 2840 C 942 2978 952 3038 990 3190 C 1006 3253 1020 3316 1022 3330 C 1024 3344 1031 3354 1038 3353 C 1045 3351 1050 3360 1050 3373 C 1050 3425 1081 3497 1125 3548 C 1151 3576 1177 3600 1183 3600 C 1190 3600 1229 3635 1272 3678 C 1314 3720 1367 3773 1390 3795 C 1412 3817 1440 3845 1453 3857 C 1550 3955 1647 4031 1724 4070 C 1756 4086 1943 4091 1992 4077 C 2016 4071 2018 4067 2013 4032 C 2007 3994 1985 3956 1917 3862 C 1896 3833 1868 3780 1855 3744 C 1810 3620 1671 3467 1614 3478 C 1575 3485 1585 3439 1636 3378 C 1656 3353 1658 3343 1654 3258 C 1651 3207 1645 3149 1640 3130 C 1612 3026 1590 2800 1608 2800 C 1629 2800 1651 2863 1648 2913 C 1646 2951 1648 2964 1658 2963 C 1666 2961 1670 2974 1670 3003 C 1670 3026 1675 3061 1681 3080 C 1687 3099 1693 3174 1694 3246 C 1696 3334 1702 3385 1711 3402 C 1719 3416 1740 3456 1759 3491 C 1777 3526 1811 3584 1835 3620 C 1895 3712 2042 4013 2045 4050 C 2047 4067 2062 4104 2079 4131 C 2096 4159 2110 4185 2110 4189 C 2110 4199 2184 4270 2212 4285 C 2249 4306 2300 4302 2338 4278 z M 4319 4139 C 4437 4120 4450 4110 4491 4008 C 4522 3931 4532 3891 4535 3835 C 4538 3779 4543 3754 4552 3744 C 4563 3734 4549 3707 4511 3667 C 4460 3613 4423 3594 4360 3591 C 4330 3590 4283 3584 4256 3579 C 4186 3566 4112 3568 4056 3585 C 4029 3593 3997 3597 3983 3594 C 3936 3582 3868 3610 3813 3667 C 3785 3696 3759 3730 3755 3742 C 3744 3781 3699 3893 3687 3912 C 3678 3926 3678 3935 3688 3950 C 3694 3961 3700 3976 3700 3983 C 3700 4003 3771 4067 3800 4073 C 3814 4076 3868 4090 3920 4105 C 4003 4129 4101 4143 4219 4149 C 4238 4149 4283 4145 4319 4139 z M 3078 4086 C 3101 4078 3148 4066 3182 4060 C 3286 4041 3338 4012 3366 3958 C 3378 3934 3378 3926 3361 3887 C 3338 3834 3315 3824 3266 3844 C 3228 3860 3133 3946 3143 3956 C 3146 3960 3167 3948 3190 3930 C 3255 3878 3238 3920 3166 3987 C 3087 4062 3034 4080 2956 4060 C 2885 4042 2860 4028 2808 3975 C 2750 3917 2732 3860 2750 3796 C 2757 3771 2759 3746 2754 3738 C 2749 3731 2744 3714 2742 3700 C 2740 3687 2735 3671 2730 3665 C 2725 3659 2720 3637 2718 3615 C 2713 3550 2741 3564 2768 3639 C 2780 3675 2796 3710 2802 3717 C 2808 3725 2836 3730 2874 3731 C 2934 3731 2997 3746 2958 3751 C 2948 3752 2937 3753 2933 3755 C 2882 3768 2869 3774 2855 3790 C 2846 3800 2832 3806 2824 3803 C 2815 3800 2810 3804 2810 3814 C 2810 3836 2902 3924 2947 3945 C 2988 3965 3044 3960 3069 3935 C 3084 3921 3082 3920 3053 3930 C 3026 3940 3016 3939 2990 3924 C 2974 3914 2960 3900 2960 3893 C 2960 3885 2953 3877 2945 3874 C 2920 3864 2928 3827 2965 3788 C 2983 3767 2996 3750 2993 3750 C 2989 3750 2989 3748 2992 3745 C 2995 3742 3010 3745 3026 3751 C 3105 3782 3241 3799 3268 3781 C 3291 3767 3234 3730 3186 3729 C 3147 3728 3147 3727 3200 3719 C 3230 3714 3265 3713 3278 3715 C 3312 3723 3307 3678 3268 3634 C 3238 3600 3129 3538 3106 3542 C 3100 3542 3088 3540 3080 3537 C 3072 3534 3043 3529 3015 3526 C 2988 3524 2929 3516 2885 3509 C 2814 3499 2798 3499 2745 3516 C 2712 3526 2678 3533 2670 3532 C 2639 3528 2571 3603 2550 3665 C 2527 3732 2524 3762 2543 3755 C 2555 3750 2590 3816 2590 3845 C 2590 3872 2569 3861 2558 3828 C 2548 3799 2546 3798 2533 3815 C 2513 3843 2517 3867 2549 3913 C 2620 4016 2638 4029 2735 4050 C 2785 4060 2843 4076 2865 4084 C 2917 4103 3027 4104 3078 4086 z M 4566 3975 C 4569 3964 4579 3940 4588 3923 C 4600 3899 4601 3887 4593 3879 C 4584 3870 4579 3876 4572 3901 C 4566 3920 4552 3960 4540 3990 C 4520 4044 4520 4044 4540 4020 C 4551 4006 4562 3986 4566 3975 z M 3617 3915 C 3640 3890 3659 3866 3658 3862 C 3654 3844 3675 3771 3696 3730 C 3721 3680 3811 3588 3880 3543 C 3923 3515 3931 3514 4040 3512 C 4103 3511 4176 3507 4201 3504 C 4253 3498 4414 3529 4467 3555 C 4484 3563 4518 3592 4541 3619 C 4580 3662 4587 3667 4607 3657 C 4623 3650 4635 3631 4645 3596 C 4664 3526 4675 3430 4663 3430 C 4648 3430 4648 3347 4662 3338 C 4676 3330 4676 3113 4663 2930 C 4660 2883 4658 2823 4659 2795 C 4660 2768 4656 2671 4649 2580 C 4640 2455 4631 2399 4614 2349 C 4590 2281 4582 2200 4600 2200 C 4606 2200 4606 2191 4600 2176 C 4595 2162 4594 2135 4597 2116 C 4600 2093 4599 2080 4592 2080 C 4586 2080 4581 2072 4581 2063 C 4579 2020 4560 1879 4550 1839 C 4543 1815 4536 1783 4533 1768 C 4527 1735 4514 1732 4505 1761 C 4496 1789 4476 1780 4470 1744 C 4464 1712 4434 1699 4424 1724 C 4418 1739 4434 1784 4461 1833 C 4468 1846 4466 1855 4455 1867 C 4439 1883 4436 1980 4451 1980 C 4456 1980 4466 1995 4475 2013 C 4484 2032 4497 2047 4505 2047 C 4524 2047 4524 2033 4505 1997 C 4479 1946 4470 1900 4485 1894 C 4492 1891 4502 1871 4505 1849 C 4509 1825 4517 1811 4523 1813 C 4531 1816 4534 1844 4532 1904 C 4529 1970 4532 1995 4543 2008 C 4551 2017 4560 2045 4563 2070 C 4566 2095 4567 2109 4564 2103 C 4561 2096 4554 2090 4549 2090 C 4544 2090 4547 2104 4556 2122 C 4575 2159 4570 2214 4539 2318 C 4516 2391 4494 2422 4449 2440 C 4433 2447 4420 2459 4420 2466 C 4420 2473 4409 2487 4395 2496 C 4377 2508 4372 2518 4376 2535 C 4379 2548 4377 2561 4370 2565 C 4358 2572 4310 2675 4310 2693 C 4310 2708 4251 2800 4223 2830 C 4191 2864 4153 2919 4135 2958 C 4127 2975 4113 2990 4105 2990 C 4097 2990 4088 3001 4084 3014 C 4081 3028 4069 3041 4056 3044 C 4044 3047 4010 3072 3980 3100 C 3950 3127 3910 3155 3893 3161 C 3875 3167 3860 3176 3860 3181 C 3860 3186 3856 3190 3850 3190 C 3845 3190 3840 3181 3840 3170 C 3840 3159 3846 3150 3854 3150 C 3868 3150 3880 3123 3884 3082 C 3886 3060 3883 3059 3850 3065 C 3831 3069 3812 3075 3808 3079 C 3804 3082 3805 3114 3811 3149 C 3821 3211 3820 3213 3789 3262 C 3771 3289 3742 3323 3723 3337 C 3690 3362 3689 3362 3669 3344 C 3637 3316 3628 3283 3643 3255 C 3657 3228 3733 3170 3755 3170 C 3763 3170 3754 3154 3731 3131 C 3708 3107 3697 3089 3703 3086 C 3717 3081 3691 3078 3641 3078 C 3607 3079 3548 3050 3505 3012 C 3476 2987 3440 2917 3440 2886 C 3440 2855 3424 2851 3415 2880 C 3406 2909 3425 2965 3465 3026 C 3498 3075 3505 3111 3483 3110 C 3479 3109 3457 3073 3435 3029 C 3398 2956 3395 2943 3396 2875 C 3397 2800 3397 2800 3378 2822 C 3368 2834 3357 2853 3354 2865 C 3348 2890 3342 2921 3341 2934 C 3340 2940 3333 2935 3325 2924 C 3306 2899 3306 2840 3326 2812 C 3334 2800 3337 2790 3333 2790 C 3328 2790 3314 2811 3302 2836 C 3284 2872 3275 2881 3260 2877 C 3212 2865 3264 2945 3369 3047 C 3415 3093 3452 3132 3449 3134 C 3447 3137 3427 3140 3405 3142 C 3383 3144 3359 3151 3352 3158 C 3345 3164 3332 3170 3324 3170 C 3317 3170 3303 3186 3295 3207 C 3278 3248 3281 3284 3311 3373 C 3343 3469 3332 3485 3284 3409 C 3271 3387 3251 3332 3239 3285 C 3219 3201 3221 3150 3244 3150 C 3251 3150 3269 3136 3284 3119 C 3317 3083 3325 3099 3202 2958 C 3150 2899 3115 2846 3079 2773 C 3033 2678 2993 2630 2961 2630 C 2931 2630 2890 2568 2890 2522 C 2890 2506 2881 2485 2871 2476 C 2861 2466 2849 2438 2845 2412 C 2841 2386 2835 2363 2832 2360 C 2817 2349 2790 2278 2790 2252 C 2790 2237 2799 2207 2810 2185 C 2821 2163 2830 2138 2830 2127 C 2830 2117 2840 2096 2851 2080 C 2865 2062 2873 2037 2873 2010 C 2873 1988 2877 1967 2881 1964 C 2886 1961 2890 1953 2890 1947 C 2890 1940 2872 1955 2850 1980 C 2826 2007 2811 2032 2814 2042 C 2820 2068 2781 2179 2753 2218 C 2740 2236 2705 2268 2677 2289 C 2626 2326 2624 2330 2606 2406 C 2596 2450 2580 2505 2570 2530 C 2543 2596 2538 2651 2554 2704 C 2565 2740 2565 2750 2556 2750 C 2547 2750 2542 2772 2541 2823 C 2540 2862 2537 2909 2534 2926 C 2529 2956 2545 3199 2556 3248 L 2561 3271 L 2539 3249 C 2519 3229 2517 3214 2512 3087 C 2509 3011 2504 2954 2500 2961 C 2484 2990 2477 3063 2470 3265 C 2465 3409 2458 3492 2447 3529 C 2434 3572 2433 3593 2441 3632 C 2447 3658 2455 3680 2458 3680 C 2462 3680 2472 3665 2479 3648 C 2500 3601 2617 3483 2654 3471 C 2691 3459 2766 3447 2800 3449 C 2886 3451 3024 3463 3080 3473 C 3155 3487 3210 3484 3210 3467 C 3210 3460 3203 3442 3195 3426 C 3162 3363 3184 3370 3256 3446 C 3339 3532 3370 3579 3396 3655 C 3405 3682 3425 3732 3440 3765 C 3455 3798 3473 3842 3479 3863 C 3494 3908 3536 3960 3558 3960 C 3566 3960 3593 3940 3617 3915 z M 3145 3869 C 3159 3843 3160 3816 3147 3804 C 3143 3800 3140 3812 3140 3832 C 3140 3856 3132 3874 3115 3890 C 3101 3903 3090 3917 3090 3922 C 3090 3935 3131 3897 3145 3869 z M 4660 3763 C 4681 3709 4707 3660 4729 3635 C 4749 3613 4756 3603 4745 3612 C 4734 3621 4713 3631 4698 3635 C 4683 3639 4663 3653 4653 3666 C 4643 3679 4628 3690 4619 3690 C 4605 3690 4601 3702 4598 3745 C 4595 3804 4606 3864 4619 3856 C 4623 3853 4642 3811 4660 3763 z M 4809 3543 C 4832 3521 4846 3491 4870 3409 C 4904 3287 4906 3273 4886 3225 C 4878 3206 4862 3138 4850 3074 C 4831 2968 4830 2945 4841 2833 C 4851 2723 4850 2706 4835 2684 C 4826 2670 4812 2660 4803 2662 C 4785 2666 4740 2789 4740 2837 C 4740 2854 4736 2871 4731 2874 C 4727 2877 4717 2900 4710 2925 C 4700 2961 4700 2992 4709 3072 C 4715 3128 4724 3178 4729 3184 C 4746 3206 4751 3278 4740 3363 C 4723 3504 4721 3554 4734 3562 C 4755 3576 4780 3570 4809 3543 z M 2340 3354 C 2390 3311 2396 3289 2394 3142 C 2391 2956 2382 2880 2362 2880 C 2354 2880 2350 2883 2353 2887 C 2357 2890 2355 2899 2348 2907 C 2342 2914 2334 2967 2330 3023 C 2327 3079 2319 3134 2313 3145 C 2295 3178 2287 3275 2299 3299 C 2315 3328 2304 3343 2279 3329 C 2225 3301 2209 3141 2248 3031 C 2273 2961 2270 2933 2244 2996 C 2235 3017 2221 3051 2212 3070 C 2178 3140 2201 3303 2252 3357 C 2280 3387 2301 3386 2340 3354 z M 3765 3014 C 3728 2950 3723 2966 3757 3040 C 3778 3086 3786 3097 3788 3081 C 3790 3069 3780 3039 3765 3014 z M 3945 3060 C 3953 3047 3940 3047 3920 3060 C 3907 3068 3907 3070 3922 3070 C 3931 3070 3942 3066 3945 3060 z M 3682 3027 C 3670 3014 3660 2996 3660 2987 C 3660 2978 3655 2970 3649 2970 C 3643 2970 3641 2961 3646 2948 C 3652 2928 3651 2927 3636 2939 C 3612 2959 3616 2994 3646 3024 C 3681 3058 3714 3061 3682 3027 z M 3890 3014 C 3890 2987 3885 2977 3871 2973 C 3860 2970 3843 2949 3832 2926 C 3813 2885 3811 2849 3825 2779 C 3833 2737 3815 2691 3797 2709 C 3789 2717 3790 2726 3799 2744 C 3812 2768 3806 2810 3789 2810 C 3775 2810 3778 2840 3793 2846 C 3801 2849 3805 2862 3802 2880 C 3797 2917 3821 2990 3851 3024 C 3881 3059 3890 3057 3890 3014 z M 3960 3012 C 3960 2998 3898 2909 3892 2914 C 3889 2917 3899 2938 3914 2960 C 3928 2982 3940 3004 3940 3010 C 3940 3015 3945 3020 3950 3020 C 3956 3020 3960 3016 3960 3012 z M 4007 2915 C 4002 2880 4003 2870 4015 2870 C 4024 2870 4027 2864 4024 2855 C 4021 2847 4015 2808 4011 2768 C 4008 2727 4000 2695 3993 2693 C 3982 2689 3983 2723 3995 2758 C 4004 2782 3988 2829 3974 2823 C 3955 2816 3956 2849 3975 2874 C 3983 2885 3990 2909 3990 2927 C 3990 2945 3995 2960 4001 2960 C 4009 2960 4011 2946 4007 2915 z M 3668 2884 C 3662 2863 3655 2851 3653 2858 C 3648 2871 3669 2934 3676 2927 C 3678 2925 3674 2906 3668 2884 z M 3936 2864 C 3927 2858 3920 2844 3920 2832 C 3920 2799 3887 2750 3865 2750 C 3847 2751 3847 2751 3862 2761 C 3872 2766 3887 2796 3896 2826 C 3905 2856 3918 2884 3926 2887 C 3934 2890 3941 2900 3941 2909 C 3942 2918 3945 2914 3947 2901 C 3950 2885 3946 2872 3936 2864 z M 3760 2820 C 3749 2798 3736 2780 3731 2780 C 3726 2780 3731 2798 3743 2820 C 3772 2872 3787 2872 3760 2820 z M 3248 2740 C 3257 2721 3274 2698 3285 2688 C 3296 2679 3301 2671 3295 2671 C 3272 2670 3190 2764 3190 2791 C 3190 2797 3198 2809 3208 2816 C 3223 2827 3225 2825 3228 2802 C 3230 2787 3239 2759 3248 2740 z M 4151 2770 C 4164 2732 4195 2696 4209 2704 C 4214 2707 4223 2695 4230 2677 C 4237 2660 4252 2635 4262 2624 C 4288 2595 4283 2545 4255 2545 C 4243 2545 4230 2534 4222 2518 C 4199 2469 4188 2485 4196 2558 C 4202 2622 4201 2628 4176 2656 C 4159 2676 4151 2680 4150 2669 C 4150 2661 4137 2644 4121 2632 C 4094 2612 4091 2612 4087 2628 C 4085 2637 4092 2662 4102 2682 C 4122 2723 4126 2775 4110 2785 C 4105 2788 4100 2800 4100 2811 C 4100 2842 4138 2812 4151 2770 z M 2497 2703 C 2495 2682 2493 2699 2493 2740 C 2493 2781 2495 2798 2497 2778 C 2499 2757 2499 2723 2497 2703 z M 3638 2780 C 3650 2764 3672 2747 3686 2744 C 3720 2735 3697 2719 3660 2726 C 3646 2728 3622 2732 3605 2734 C 3589 2736 3574 2739 3573 2740 C 3571 2742 3565 2743 3558 2744 C 3536 2746 3539 2768 3566 2789 C 3601 2817 3612 2816 3638 2780 z M 3193 2628 C 3227 2597 3231 2591 3215 2590 C 3186 2590 3110 2673 3110 2705 C 3110 2721 3116 2730 3125 2730 C 3133 2730 3141 2738 3142 2748 C 3143 2757 3145 2743 3147 2715 C 3150 2671 3155 2661 3193 2628 z M 4100 2752 C 4100 2748 4090 2740 4078 2735 C 4065 2729 4047 2708 4036 2687 C 4026 2666 4016 2651 4013 2654 C 4003 2664 4032 2730 4053 2745 C 4076 2761 4100 2765 4100 2752 z M 2437 2728 C 2434 2720 2431 2723 2431 2734 C 2430 2745 2433 2751 2436 2747 C 2439 2744 2440 2735 2437 2728 z M 3905 2655 C 3960 2636 4027 2604 4055 2585 C 4123 2538 4180 2486 4180 2473 C 4180 2464 4222 2430 4234 2430 C 4237 2430 4240 2440 4242 2452 C 4247 2488 4270 2486 4270 2450 C 4270 2423 4273 2420 4284 2429 C 4292 2435 4303 2454 4310 2471 C 4319 2491 4326 2498 4333 2491 C 4349 2475 4294 2410 4264 2410 C 4239 2410 4234 2394 4249 2355 C 4254 2344 4251 2325 4243 2310 C 4236 2296 4230 2280 4230 2273 C 4230 2252 4251 2248 4265 2266 C 4272 2277 4282 2281 4287 2276 C 4291 2271 4289 2265 4283 2263 C 4276 2260 4270 2251 4270 2241 C 4270 2232 4266 2220 4260 2214 C 4255 2209 4254 2199 4260 2190 C 4267 2179 4272 2183 4283 2209 C 4291 2227 4300 2238 4303 2233 C 4306 2228 4302 2211 4294 2196 C 4287 2180 4280 2159 4280 2149 C 4280 2133 4283 2131 4299 2139 C 4314 2148 4319 2146 4323 2130 C 4326 2120 4323 2109 4316 2107 C 4310 2105 4308 2099 4313 2095 C 4317 2090 4327 2095 4335 2106 C 4349 2124 4351 2124 4364 2108 C 4388 2077 4374 1985 4333 1908 C 4320 1882 4320 1881 4337 1887 C 4376 1902 4395 1930 4395 1973 C 4395 2005 4399 2015 4413 2018 C 4430 2021 4431 2016 4426 1963 C 4408 1775 4407 1772 4373 1806 C 4360 1819 4359 1826 4368 1841 C 4383 1864 4373 1866 4348 1843 C 4338 1834 4320 1822 4307 1816 C 4295 1810 4284 1795 4282 1783 C 4280 1771 4272 1756 4264 1750 C 4256 1743 4250 1726 4250 1711 C 4250 1696 4246 1680 4240 1674 C 4235 1669 4227 1642 4224 1615 C 4215 1543 4190 1460 4178 1460 C 4172 1460 4170 1448 4174 1430 C 4177 1413 4175 1400 4170 1400 C 4156 1400 4158 1388 4176 1365 C 4191 1346 4192 1345 4205 1364 C 4226 1392 4250 1377 4249 1338 C 4248 1297 4202 1255 4147 1245 C 4116 1239 4110 1241 4110 1255 C 4110 1264 4119 1274 4130 1277 C 4145 1281 4150 1291 4150 1316 C 4150 1335 4146 1350 4140 1350 C 4135 1350 4130 1370 4130 1395 C 4130 1452 4108 1447 4090 1387 C 4078 1346 4025 1256 3995 1226 C 3986 1218 3973 1213 3964 1217 C 3951 1222 3952 1225 3967 1243 C 3985 1262 3984 1262 3948 1258 C 3927 1256 3910 1256 3910 1258 C 3910 1268 3962 1310 3974 1310 C 3995 1310 4047 1363 4054 1393 C 4058 1411 4056 1420 4049 1420 C 4032 1420 3960 1342 3960 1325 C 3960 1316 3954 1313 3945 1317 C 3927 1323 3891 1294 3879 1263 C 3874 1250 3862 1240 3852 1240 C 3842 1240 3825 1233 3814 1225 C 3804 1217 3785 1210 3774 1210 C 3757 1210 3754 1215 3758 1236 C 3761 1252 3767 1259 3776 1256 C 3792 1250 3832 1298 3823 1313 C 3819 1320 3811 1315 3802 1302 C 3794 1290 3779 1280 3769 1280 C 3759 1280 3743 1267 3734 1251 C 3722 1231 3706 1220 3683 1216 C 3665 1213 3635 1207 3617 1204 C 3591 1200 3580 1203 3561 1224 L 3537 1249 L 3519 1227 L 3501 1205 L 3500 1228 C 3500 1240 3506 1250 3513 1250 C 3521 1250 3520 1254 3510 1260 C 3497 1268 3498 1270 3513 1270 C 3523 1270 3534 1278 3537 1287 C 3541 1296 3557 1316 3574 1331 C 3597 1352 3602 1362 3594 1370 C 3577 1387 3554 1372 3497 1310 C 3471 1282 3445 1262 3440 1265 C 3427 1273 3427 1264 3440 1239 C 3446 1229 3447 1220 3442 1220 C 3437 1220 3428 1231 3422 1245 C 3412 1266 3413 1275 3426 1295 C 3435 1309 3446 1320 3450 1320 C 3454 1320 3460 1329 3463 1339 C 3466 1351 3483 1363 3508 1370 C 3542 1381 3550 1389 3570 1436 C 3582 1466 3598 1490 3606 1490 C 3624 1490 3624 1488 3603 1445 C 3583 1403 3591 1392 3625 1414 C 3644 1426 3650 1439 3651 1468 C 3651 1488 3654 1499 3657 1493 C 3665 1473 3683 1478 3728 1512 C 3756 1533 3770 1552 3770 1567 C 3770 1598 3761 1596 3701 1556 C 3673 1537 3652 1527 3653 1533 C 3657 1553 3717 1600 3739 1600 C 3750 1600 3765 1609 3772 1620 C 3779 1631 3792 1640 3800 1640 C 3809 1640 3837 1653 3863 1670 C 3889 1686 3921 1702 3935 1706 C 3964 1713 4008 1760 4045 1825 C 4060 1850 4076 1870 4081 1870 C 4085 1870 4097 1893 4107 1920 C 4117 1948 4128 1970 4132 1970 C 4147 1970 4181 2065 4176 2091 C 4172 2111 4175 2119 4189 2123 C 4205 2127 4208 2141 4212 2206 C 4217 2292 4203 2342 4169 2361 C 4158 2366 4150 2378 4150 2388 C 4149 2434 4092 2455 4078 2415 C 4074 2404 4073 2412 4076 2433 C 4080 2461 4077 2470 4066 2470 C 4047 2470 4035 2431 4049 2417 C 4055 2411 4060 2400 4060 2393 C 4060 2377 4029 2340 4019 2345 C 4015 2348 4007 2343 4000 2335 C 3966 2294 3958 2352 3991 2394 C 4004 2411 4010 2430 4008 2445 C 4005 2458 4008 2471 4014 2473 C 4020 2475 4015 2482 4002 2489 C 3974 2504 3943 2495 3935 2469 C 3931 2459 3924 2450 3919 2450 C 3914 2450 3910 2442 3910 2433 C 3910 2423 3901 2391 3890 2362 C 3860 2283 3862 2270 3908 2272 C 3928 2273 3952 2272 3960 2269 C 3968 2267 3974 2270 3973 2276 C 3972 2282 3995 2299 4025 2315 C 4055 2330 4080 2349 4082 2358 C 4085 2369 4095 2357 4111 2325 C 4125 2298 4147 2257 4159 2235 C 4180 2199 4181 2192 4169 2165 L 4156 2135 L 4152 2175 C 4149 2214 4123 2252 4088 2271 C 4072 2279 4071 2278 4080 2255 C 4092 2222 4092 2220 4080 2220 C 4075 2220 4070 2229 4070 2241 C 4070 2252 4066 2258 4060 2255 C 4054 2251 4050 2262 4050 2282 L 4049 2315 L 4035 2288 C 4022 2265 4022 2256 4036 2219 C 4044 2195 4057 2165 4066 2153 C 4087 2120 4101 2080 4091 2080 C 4086 2080 4079 2091 4076 2105 C 4069 2134 4030 2141 4030 2113 C 4030 2098 4028 2097 4020 2110 C 4013 2121 4010 2116 4010 2088 C 4010 2033 3995 2002 3940 1946 C 3912 1918 3890 1890 3890 1884 C 3890 1868 3918 1858 3934 1867 C 3965 1886 4030 1945 4030 1955 C 4030 1961 4039 1976 4051 1989 C 4062 2001 4078 2023 4086 2038 C 4098 2061 4100 2062 4100 2045 C 4100 2034 4067 1976 4027 1915 C 3972 1831 3940 1794 3894 1760 C 3861 1735 3814 1698 3790 1678 C 3766 1657 3742 1640 3736 1640 C 3730 1640 3719 1631 3712 1620 C 3705 1609 3693 1600 3685 1600 C 3677 1600 3670 1597 3670 1592 C 3670 1584 3627 1565 3585 1555 C 3555 1549 3510 1514 3510 1498 C 3510 1494 3519 1490 3530 1490 C 3554 1490 3567 1463 3551 1447 C 3543 1439 3540 1439 3540 1448 C 3540 1472 3520 1459 3506 1426 C 3488 1384 3456 1371 3429 1396 C 3410 1413 3410 1415 3425 1426 C 3438 1435 3440 1447 3435 1469 C 3431 1490 3432 1500 3441 1500 C 3449 1500 3451 1513 3447 1544 C 3442 1581 3444 1589 3459 1593 C 3480 1598 3498 1652 3481 1658 C 3475 1660 3479 1677 3492 1700 C 3505 1721 3512 1741 3509 1744 C 3506 1748 3481 1729 3453 1703 C 3426 1676 3386 1640 3364 1622 C 3333 1596 3330 1590 3348 1593 C 3367 1598 3365 1592 3330 1553 C 3294 1512 3282 1490 3294 1490 C 3297 1490 3336 1527 3382 1573 C 3427 1618 3455 1643 3442 1629 C 3426 1611 3420 1591 3420 1557 C 3420 1531 3416 1510 3411 1510 C 3406 1510 3376 1489 3345 1464 C 3296 1424 3289 1414 3292 1387 C 3295 1353 3320 1336 3320 1368 C 3320 1379 3327 1393 3335 1400 C 3348 1411 3349 1408 3345 1379 C 3341 1352 3342 1349 3349 1365 C 3356 1380 3359 1381 3361 1370 C 3362 1362 3366 1378 3370 1405 C 3374 1438 3373 1458 3366 1462 C 3360 1466 3358 1470 3362 1470 C 3365 1470 3376 1473 3385 1476 C 3399 1482 3400 1476 3394 1429 C 3390 1399 3381 1368 3374 1359 C 3355 1338 3356 1330 3380 1330 C 3390 1330 3404 1338 3409 1348 C 3419 1364 3419 1363 3419 1345 C 3419 1322 3398 1290 3382 1290 C 3377 1290 3369 1279 3366 1265 C 3362 1251 3356 1240 3351 1240 C 3345 1240 3345 1252 3350 1270 C 3357 1296 3356 1300 3340 1300 C 3294 1300 3220 1365 3236 1391 C 3240 1398 3235 1400 3222 1396 C 3198 1388 3174 1421 3184 1447 C 3193 1469 3170 1496 3159 1478 C 3152 1468 3150 1468 3150 1479 C 3150 1487 3143 1498 3134 1505 C 3125 1511 3117 1532 3115 1551 C 3112 1595 3080 1606 3080 1564 C 3080 1545 3077 1539 3070 1546 C 3058 1558 3068 1622 3081 1614 C 3086 1611 3087 1616 3084 1624 C 3081 1633 3087 1651 3099 1666 C 3110 1680 3117 1696 3114 1701 C 3111 1706 3115 1710 3123 1710 C 3138 1710 3190 1748 3250 1802 C 3313 1859 3368 1932 3380 1975 C 3388 2002 3401 2022 3416 2031 C 3429 2038 3440 2046 3440 2050 C 3440 2054 3459 2078 3481 2104 C 3504 2130 3520 2153 3517 2156 C 3515 2159 3497 2154 3479 2145 C 3453 2132 3433 2108 3397 2042 C 3348 1952 3261 1861 3252 1889 C 3248 1900 3246 1900 3239 1889 C 3235 1882 3228 1879 3224 1882 C 3217 1889 3248 1934 3265 1940 C 3271 1943 3286 1958 3300 1975 C 3314 1991 3328 2008 3332 2011 C 3355 2027 3390 2087 3390 2109 C 3390 2123 3397 2148 3405 2164 C 3414 2180 3418 2195 3415 2198 C 3412 2201 3410 2198 3410 2192 C 3410 2185 3406 2180 3401 2180 C 3396 2180 3393 2192 3394 2207 C 3397 2235 3441 2280 3466 2280 C 3492 2280 3578 2327 3640 2376 C 3684 2411 3709 2439 3726 2475 C 3745 2515 3749 2520 3750 2500 C 3751 2476 3751 2476 3765 2493 C 3786 2522 3773 2540 3731 2540 C 3711 2540 3689 2545 3683 2551 C 3667 2567 3606 2557 3525 2525 C 3487 2510 3415 2487 3367 2475 C 3241 2442 3240 2437 3357 2440 C 3403 2441 3440 2450 3502 2476 C 3630 2530 3632 2531 3625 2520 C 3621 2514 3631 2510 3647 2510 L 3675 2509 L 3647 2492 C 3632 2483 3622 2470 3625 2463 C 3627 2456 3626 2450 3621 2450 C 3617 2450 3605 2434 3594 2415 C 3574 2377 3552 2364 3536 2380 C 3529 2387 3539 2409 3568 2450 C 3608 2508 3612 2531 3575 2490 C 3553 2466 3466 2420 3442 2420 C 3433 2420 3414 2411 3400 2400 C 3373 2379 3348 2375 3322 2389 C 3313 2393 3286 2400 3263 2403 C 3230 2407 3220 2405 3220 2394 C 3220 2372 3260 2352 3318 2344 C 3367 2338 3373 2339 3400 2365 C 3420 2384 3434 2390 3447 2385 C 3463 2379 3462 2377 3440 2367 C 3426 2361 3412 2352 3409 2348 C 3406 2343 3363 2330 3313 2318 L 3222 2296 L 3201 2251 C 3177 2197 3140 2167 3140 2200 C 3140 2211 3145 2220 3151 2220 C 3156 2220 3158 2225 3155 2230 C 3148 2241 3174 2272 3183 2264 C 3186 2261 3190 2263 3193 2267 C 3196 2272 3188 2277 3175 2278 C 3160 2279 3151 2273 3147 2261 C 3143 2243 3100 2224 3100 2241 C 3100 2246 3107 2250 3115 2250 C 3132 2250 3135 2275 3120 2285 C 3115 2288 3100 2283 3087 2273 C 3065 2257 3064 2254 3078 2227 C 3087 2208 3095 2202 3100 2209 C 3105 2218 3110 2217 3119 2207 C 3128 2196 3127 2190 3118 2182 C 3111 2176 3096 2151 3085 2126 C 3072 2096 3059 2080 3047 2080 C 3033 2080 3030 2075 3035 2058 C 3048 2016 3060 2013 3085 2045 C 3098 2061 3107 2076 3105 2079 C 3099 2084 3147 2150 3170 2167 C 3194 2187 3210 2182 3210 2155 C 3210 2139 3204 2130 3195 2130 C 3187 2130 3180 2124 3180 2118 C 3179 2104 3146 2060 3135 2060 C 3132 2060 3132 2065 3136 2072 C 3141 2079 3139 2080 3131 2076 C 3124 2071 3121 2062 3124 2054 C 3127 2047 3125 2038 3120 2035 C 3115 2032 3101 2016 3090 2000 C 3072 1975 3071 1970 3084 1970 C 3093 1970 3100 1977 3100 1985 C 3100 2004 3126 2005 3133 1986 C 3136 1978 3132 1966 3124 1960 C 3116 1953 3110 1942 3110 1934 C 3110 1927 3101 1915 3090 1907 C 3072 1895 3072 1892 3085 1887 C 3093 1883 3100 1875 3100 1869 C 3100 1860 3097 1860 3086 1869 C 3075 1878 3070 1874 3060 1850 C 3043 1810 3025 1817 3026 1864 C 3028 1908 3017 1910 3000 1870 C 2991 1849 2981 1840 2965 1840 C 2947 1840 2944 1844 2948 1865 C 2950 1879 2957 1890 2962 1890 C 2967 1890 2968 1895 2965 1900 C 2962 1906 2966 1910 2974 1910 C 2983 1910 2990 1905 2990 1899 C 2990 1893 2997 1896 3006 1905 C 3016 1915 3020 1929 3016 1945 C 3013 1958 3014 1972 3020 1975 C 3036 1985 3032 1997 3010 2003 C 2993 2007 2991 2014 2996 2034 C 3000 2053 2997 2062 2981 2072 C 2955 2088 2955 2094 2983 2121 C 2997 2135 3001 2144 2993 2147 C 2985 2150 2984 2159 2989 2173 C 2994 2185 2995 2209 2993 2226 C 2989 2249 2993 2261 3007 2271 C 3032 2289 3050 2323 3050 2352 L 3049 2375 L 3026 2348 C 3013 2333 3000 2315 2997 2308 C 2994 2299 2989 2298 2981 2306 C 2962 2324 2984 2363 3035 2401 C 3060 2420 3105 2453 3133 2476 C 3204 2531 3254 2560 3277 2560 C 3288 2560 3346 2585 3406 2616 C 3523 2676 3566 2686 3725 2689 C 3793 2690 3821 2684 3905 2655 z M 3090 2611 C 3090 2596 3095 2579 3102 2572 C 3111 2563 3111 2557 3102 2548 C 3094 2540 3089 2543 3082 2561 C 3077 2574 3072 2587 3072 2590 C 3072 2593 3067 2607 3061 2621 C 3056 2636 3054 2651 3057 2654 C 3069 2665 3090 2637 3090 2611 z M 3000 2563 C 3000 2545 2987 2521 2964 2496 C 2928 2457 2913 2454 2924 2488 C 2931 2510 2987 2590 2995 2590 C 2998 2590 3000 2578 3000 2563 z M 3719 2484 C 3703 2465 3690 2466 3690 2488 C 3690 2498 3684 2512 3678 2519 C 3670 2527 3678 2526 3698 2516 C 3725 2502 3729 2496 3719 2484 z M 4410 2420 C 4410 2415 4406 2410 4400 2410 C 4395 2410 4390 2415 4390 2420 C 4390 2426 4395 2430 4400 2430 C 4406 2430 4410 2426 4410 2420 z M 4363 2414 C 4372 2411 4376 2401 4373 2390 C 4370 2379 4377 2355 4389 2337 C 4415 2295 4416 2280 4392 2280 C 4367 2280 4340 2331 4340 2379 C 4340 2423 4340 2423 4363 2414 z M 3530 2355 C 3537 2347 3547 2343 3554 2347 C 3561 2351 3562 2350 3555 2343 C 3550 2338 3529 2327 3510 2320 C 3491 2313 3468 2301 3460 2295 C 3452 2288 3434 2279 3420 2275 C 3406 2271 3376 2250 3353 2229 C 3329 2207 3304 2190 3297 2190 C 3275 2190 3240 2229 3240 2253 C 3240 2269 3243 2272 3249 2261 C 3256 2250 3262 2250 3281 2264 C 3294 2273 3311 2280 3320 2280 C 3328 2281 3373 2300 3420 2324 C 3520 2376 3514 2374 3530 2355 z M 4500 2270 C 4509 2239 4509 2238 4491 2254 C 4474 2270 4472 2269 4460 2240 C 4449 2212 4420 2198 4420 2219 C 4420 2243 4441 2280 4455 2280 C 4464 2280 4473 2287 4477 2295 C 4484 2315 4488 2310 4500 2270 z M 2929 2241 C 2919 2234 2910 2217 2910 2204 C 2910 2192 2905 2178 2898 2174 C 2879 2162 2896 2249 2917 2269 C 2933 2285 2936 2285 2942 2271 C 2946 2261 2941 2250 2929 2241 z M 4358 2247 C 4360 2228 4357 2220 4346 2220 C 4335 2220 4330 2230 4330 2251 C 4330 2289 4354 2286 4358 2247 z M 3310 2148 C 3310 2132 3279 2100 3263 2100 C 3256 2100 3250 2093 3250 2084 C 3250 2076 3246 2072 3240 2075 C 3235 2078 3233 2075 3236 2067 C 3239 2059 3230 2046 3214 2035 C 3188 2018 3187 2018 3194 2035 C 3199 2050 3198 2051 3185 2040 C 3151 2012 3162 2039 3200 2076 C 3222 2097 3240 2119 3240 2124 C 3240 2149 3310 2173 3310 2148 z M 4455 2129 C 4463 2104 4462 2104 4427 2095 C 4406 2089 4400 2091 4400 2104 C 4400 2124 4420 2149 4437 2150 C 4443 2150 4452 2141 4455 2129 z M 4650 2120 C 4650 2115 4648 2110 4646 2110 C 4643 2110 4638 2115 4635 2120 C 4632 2126 4634 2130 4639 2130 C 4645 2130 4650 2126 4650 2120 z M 2941 2084 C 2936 2054 2937 2018 2946 1985 C 2953 1957 2952 1956 2936 1969 C 2922 1981 2919 1996 2922 2037 C 2924 2066 2921 2090 2917 2090 C 2912 2090 2912 2095 2915 2101 C 2926 2117 2945 2105 2941 2084 z M 3311 2065 C 3302 2046 3288 2032 3280 2033 C 3271 2034 3266 2028 3267 2015 C 3268 2002 3253 1984 3224 1962 C 3200 1944 3180 1924 3180 1917 C 3180 1910 3171 1899 3159 1892 C 3113 1863 3153 1923 3238 2011 C 3286 2060 3326 2100 3326 2100 C 3327 2100 3320 2084 3311 2065 z M 3085 1790 C 3082 1785 3092 1772 3107 1761 C 3131 1744 3133 1739 3120 1730 C 3096 1714 3072 1718 3055 1743 C 3039 1765 3038 1764 3042 1723 C 3044 1699 3042 1680 3038 1680 C 3033 1680 3030 1686 3030 1694 C 3030 1701 3023 1713 3015 1720 C 2998 1734 2995 1770 3011 1770 C 3017 1770 3019 1779 3015 1790 C 3012 1801 3013 1810 3019 1810 C 3024 1810 3030 1802 3032 1793 C 3035 1779 3040 1782 3055 1808 C 3073 1838 3075 1839 3082 1819 C 3087 1808 3088 1794 3085 1790 z M 4365 1786 C 4382 1774 4383 1769 4372 1746 C 4356 1710 4357 1683 4375 1676 C 4383 1673 4390 1659 4390 1645 C 4390 1631 4391 1620 4393 1620 C 4411 1620 4480 1664 4480 1675 C 4480 1683 4484 1690 4489 1690 C 4498 1690 4464 1551 4453 1540 C 4450 1537 4445 1541 4443 1548 C 4440 1554 4434 1557 4429 1554 C 4415 1545 4390 1569 4390 1592 C 4390 1602 4386 1608 4380 1605 C 4375 1602 4370 1586 4370 1571 C 4370 1556 4361 1535 4350 1525 C 4339 1515 4330 1501 4330 1494 C 4330 1475 4277 1420 4259 1420 C 4232 1420 4226 1467 4249 1498 C 4260 1513 4271 1544 4275 1565 C 4278 1587 4287 1615 4293 1628 C 4301 1646 4301 1655 4292 1668 C 4267 1703 4266 1714 4288 1728 C 4302 1737 4310 1753 4310 1771 C 4310 1804 4333 1810 4365 1786 z M 3170 1766 C 3170 1763 3166 1758 3160 1755 C 3155 1752 3150 1754 3150 1759 C 3150 1765 3155 1770 3160 1770 C 3166 1770 3170 1768 3170 1766 z M 3050 1615 C 3050 1607 3046 1598 3040 1595 C 3034 1591 3030 1600 3030 1615 C 3030 1630 3034 1639 3040 1635 C 3046 1632 3050 1623 3050 1615 z M 4424 1478 C 4416 1400 4385 1360 4333 1360 C 4293 1360 4291 1372 4326 1399 C 4351 1419 4379 1477 4380 1512 C 4380 1528 4393 1538 4417 1539 C 4427 1540 4428 1524 4424 1478 z M 3134 1419 C 3144 1400 3145 1390 3138 1392 C 3128 1396 3106 1450 3115 1450 C 3117 1450 3125 1436 3134 1419 z M 3210 1354 C 3210 1346 3205 1342 3200 1345 C 3194 1349 3192 1356 3195 1361 C 3204 1375 3210 1372 3210 1354 z M 4075 1242 C 4070 1222 4067 1219 4060 1230 C 4054 1239 4055 1249 4060 1254 C 4066 1260 4071 1273 4071 1285 C 4072 1302 4073 1303 4077 1287 C 4080 1277 4079 1257 4075 1242 z M 3884 1193 C 3874 1186 3859 1180 3851 1180 C 3841 1181 3846 1187 3863 1196 C 3878 1204 3890 1216 3891 1223 C 3891 1231 3894 1230 3897 1221 C 3900 1213 3895 1201 3884 1193 z" stroke-linecap="round" />
		</g>
		<g transform="matrix(0.13 0 0 -0.13 -6.6 -235.49)"  >
			 <path vector-effect="non-scaling-stroke"  transform=" translate(-3714.17, -4624.35)" d="M 3565 4659 C 3521 4650 3464 4639 3438 4635 C 3411 4632 3390 4625 3390 4619 C 3390 4607 3514 4608 3563 4620 C 3583 4626 3615 4634 3634 4639 C 3656 4644 3677 4643 3697 4635 C 3713 4628 3766 4619 3815 4615 C 3864 4611 3935 4600 3972 4590 C 4047 4570 4059 4577 4005 4609 C 3968 4631 3916 4642 3750 4662 C 3657 4673 3635 4673 3565 4659 z" stroke-linecap="round" />
		</g>
		<g transform="matrix(0.13 0 0 -0.13 -242.49 77.11)"  >
			 <path vector-effect="non-scaling-stroke"  transform=" translate(-1945, -2279.9)" d="M 2075 2305 C 2008 2232 1993 2220 1965 2220 C 1923 2220 1862 2242 1813 2274 C 1769 2303 1720 2317 1720 2301 C 1720 2282 1839 2191 1877 2181 C 1898 2175 1936 2170 1962 2170 C 2008 2170 2009 2171 2072 2248 C 2143 2332 2170 2370 2170 2382 C 2170 2403 2146 2383 2075 2305 z" stroke-linecap="round" />
		</g>
		<g transform="matrix(0.13 0 0 -0.13 -287.63 81.83)"  >
			 <path vector-effect="non-scaling-stroke"  transform=" translate(-1606.44, -2244.48)" d="M 1533 2262 C 1517 2252 1566 2234 1632 2225 C 1697 2216 1701 2235 1637 2250 C 1550 2269 1545 2269 1533 2262 z" stroke-linecap="round" />
		</g>
		<g transform="matrix(0.13 0 0 -0.13 -407.89 145.93)"  >
			 <path vector-effect="non-scaling-stroke"  transform=" translate(-704.5, -1763.72)" d="M 724 1905 C 721 1897 721 1886 725 1880 C 728 1875 726 1870 721 1870 C 715 1870 710 1861 710 1850 C 710 1840 701 1808 690 1780 C 679 1752 670 1716 670 1699 C 670 1682 665 1660 659 1649 C 654 1638 650 1621 652 1612 C 656 1589 700 1659 700 1690 C 700 1710 721 1783 741 1835 C 745 1846 752 1870 755 1888 C 760 1913 758 1920 745 1920 C 737 1920 727 1913 724 1905 z" stroke-linecap="round" />
		</g>
		<g transform="matrix(0.13 0 0 -0.13 -393.12 133.07)"  >
			 <path vector-effect="non-scaling-stroke"  transform=" translate(-815.25, -1860.18)" d="M 812 1860 C 812 1841 814 1833 817 1843 C 819 1852 819 1868 817 1878 C 814 1887 812 1879 812 1860 z" stroke-linecap="round" />
		</g>
		<g transform="matrix(0.13 0 0 -0.13 -393.8 158.78)"  >
 <path vector-effect="non-scaling-stroke"  transform=" translate(-810.13, -1667.33)" d="M 821 1790 C 820 1771 811 1706 800 1645 C 789 1585 783 1534 785 1532 C 791 1526 820 1600 831 1651 C 837 1680 837 1720 832 1761 C 825 1805 822 1814 821 1790 z" stroke-linecap="round" />
</g>
		<g transform="matrix(0.13 0 0 -0.13 -277.33 176.5)"  >
 <path vector-effect="non-scaling-stroke"  transform=" translate(-1683.65, -1534.44)" d="M 1552 1589 C 1558 1570 1682 1504 1748 1484 C 1849 1454 1836 1475 1719 1532 C 1589 1596 1545 1611 1552 1589 z" stroke-linecap="round" />
</g>
		<g transform="matrix(0.13 0 0 -0.13 39.36 -143.11)"  >
 <path vector-effect="non-scaling-stroke"  transform=" translate(-4058.81, -3931.51)" d="M 4003 4083 C 3964 4062 3887 3990 3842 3933 C 3812 3894 3815 3883 3850 3905 C 3858 3911 3875 3920 3888 3927 L 3911 3939 L 3891 3912 C 3881 3897 3854 3872 3831 3855 C 3791 3825 3781 3807 3800 3795 C 3806 3792 3810 3793 3810 3797 C 3810 3808 3929 3796 3955 3783 C 3985 3767 4040 3759 4040 3770 C 4040 3775 4025 3786 4008 3793 C 3990 3801 3966 3817 3956 3828 C 3943 3843 3929 3848 3914 3845 C 3901 3842 3878 3838 3863 3835 L 3835 3830 L 3865 3846 C 3882 3855 3918 3884 3945 3910 C 4002 3965 4026 3979 4071 3984 C 4117 3989 4159 3973 4202 3932 C 4254 3883 4264 3848 4238 3815 C 4211 3781 4220 3774 4267 3792 C 4311 3810 4334 3848 4325 3889 C 4316 3931 4216 4022 4132 4064 C 4050 4105 4046 4106 4003 4083 z" stroke-linecap="round" />
</g>
		<g transform="matrix(0.13 0 0 -0.13 47.9 -134.81)"  >
 <path vector-effect="non-scaling-stroke"  transform=" translate(-4122.91, -3869.31)" d="M 4105 3953 C 4055 3941 4024 3886 4042 3842 C 4070 3778 4140 3759 4185 3805 C 4220 3839 4217 3873 4174 3920 C 4154 3942 4135 3959 4131 3959 C 4128 3958 4116 3955 4105 3953 z" stroke-linecap="round" />
</g>
		<g transform="matrix(0.13 0 0 -0.13 16.9 -118.9)"  >
 <path vector-effect="non-scaling-stroke"  transform=" translate(-3890.43, -3749.94)" d="M 3810 3771 C 3810 3755 3867 3720 3893 3720 C 3907 3720 3932 3726 3950 3734 C 3991 3751 3971 3760 3895 3760 C 3865 3760 3838 3765 3835 3770 C 3827 3783 3810 3783 3810 3771 z" stroke-linecap="round" />
</g>
		<g transform="matrix(0.13 0 0 -0.13 17.23 -109.33)"  >
 <path vector-effect="non-scaling-stroke"  transform=" translate(-3892.89, -3678.19)" d="M 3820 3725 C 3849 3693 3958 3610 3971 3610 C 4009 3610 3919 3686 3810 3745 C 3802 3750 3806 3741 3820 3725 z" stroke-linecap="round" />
</g>
		<g transform="matrix(0.13 0 0 -0.13 -32.36 -102.26)"  >
 <path vector-effect="non-scaling-stroke"  transform=" translate(-3520.92, -3625.17)" d="M 3451 3648 C 3434 3621 3428 3580 3441 3580 C 3446 3580 3450 3584 3450 3588 C 3450 3599 3495 3620 3519 3620 C 3529 3620 3551 3613 3569 3604 C 3587 3595 3603 3590 3606 3593 C 3613 3600 3599 3630 3588 3630 C 3582 3630 3571 3638 3564 3648 C 3556 3658 3551 3660 3550 3652 C 3550 3643 3546 3642 3531 3652 C 3516 3661 3508 3661 3496 3650 C 3482 3639 3480 3640 3486 3654 C 3495 3679 3467 3674 3451 3648 z" stroke-linecap="round" />
</g>
		<g transform="matrix(0.13 0 0 -0.13 5.63 -69.5)"  >
 <path vector-effect="non-scaling-stroke"  transform=" translate(-3805.91, -3379.45)" d="M 3714 3494 C 3717 3485 3720 3476 3720 3474 C 3720 3472 3727 3470 3735 3470 C 3743 3470 3750 3467 3750 3462 C 3750 3458 3773 3430 3800 3400 C 3829 3369 3850 3336 3850 3323 C 3850 3292 3871 3250 3887 3250 C 3932 3250 3863 3371 3762 3468 C 3713 3514 3705 3519 3714 3494 z" stroke-linecap="round" />
</g>
		<g transform="matrix(0.13 0 0 -0.13 40.74 -75.53)"  >
 <path vector-effect="non-scaling-stroke"  transform=" translate(-4069.21, -3424.65)" d="M 3910 3468 C 3910 3452 3997 3370 4014 3370 C 4021 3370 4048 3379 4074 3391 C 4100 3402 4144 3413 4173 3415 C 4201 3417 4226 3423 4228 3428 C 4233 3443 4193 3450 4104 3450 C 4057 3450 4004 3456 3980 3465 C 3929 3483 3910 3484 3910 3468 z" stroke-linecap="round" />
</g>
		<g transform="matrix(0.13 0 0 -0.13 -46.92 -55.49)"  >
 <path vector-effect="non-scaling-stroke"  transform=" translate(-3411.73, -3274.39)" d="M 3390 3332 C 3345 3284 3338 3262 3356 3224 C 3377 3181 3402 3180 3440 3222 C 3481 3267 3488 3305 3459 3336 C 3431 3366 3421 3365 3390 3332 z" stroke-linecap="round" />
</g>
		<g transform="matrix(0.13 0 0 -0.13 -26.98 -57.36)"  >
 <path vector-effect="non-scaling-stroke"  transform=" translate(-3561.31, -3288.39)" d="M 3560 3307 C 3560 3294 3555 3279 3549 3273 C 3543 3267 3541 3256 3545 3250 C 3550 3242 3557 3249 3566 3270 C 3583 3308 3584 3330 3570 3330 C 3565 3330 3560 3320 3560 3307 z" stroke-linecap="round" />
</g>
		<g transform="matrix(0.13 0 0 -0.13 142.38 -61.53)"  >
 <path vector-effect="non-scaling-stroke"  transform=" translate(-4831.49, -3319.7)" d="M 4793 3514 C 4776 3497 4784 3331 4805 3231 C 4813 3191 4820 3144 4821 3127 C 4821 3103 4829 3118 4851 3184 C 4881 3277 4886 3309 4871 3326 C 4865 3333 4820 3468 4807 3522 C 4806 3525 4799 3522 4793 3514 z" stroke-linecap="round" />
</g>
		<g transform="matrix(0.13 0 0 -0.13 133.76 -22.67)"  >
 <path vector-effect="non-scaling-stroke"  transform=" translate(-4766.87, -3028.21)" d="M 4749 3090 C 4746 3047 4746 3046 4758 2990 L 4767 2945 L 4780 2972 C 4790 2994 4789 3008 4772 3062 C 4753 3121 4752 3123 4749 3090 z" stroke-linecap="round" />
</g>
		<g transform="matrix(0.13 0 0 -0.13 130.82 -9.02)"  >
 <path vector-effect="non-scaling-stroke"  transform=" translate(-4744.81, -2925.86)" d="M 4741 2924 C 4741 2913 4744 2910 4747 2918 C 4750 2925 4749 2934 4746 2937 C 4743 2941 4740 2935 4741 2924 z" stroke-linecap="round" />
</g>
		<g transform="matrix(0.13 0 0 -0.13 9.47 47.89)"  >
 <path vector-effect="non-scaling-stroke"  transform=" translate(-3834.64, -2499.03)" d="M 3858 2562 C 3848 2560 3840 2549 3840 2538 C 3840 2527 3824 2504 3805 2487 C 3764 2452 3756 2422 3793 2441 C 3840 2465 3899 2516 3900 2531 C 3900 2552 3880 2567 3858 2562 z" stroke-linecap="round" />
</g>
		<g transform="matrix(0.13 0 0 -0.13 9.6 63.82)"  >
 <path vector-effect="non-scaling-stroke"  transform=" translate(-3835.65, -2379.54)" d="M 3888 2471 C 3872 2456 3860 2436 3860 2427 C 3860 2417 3849 2405 3835 2400 C 3820 2394 3810 2383 3810 2372 C 3810 2361 3794 2335 3775 2314 C 3739 2275 3732 2260 3751 2260 C 3756 2260 3759 2264 3756 2268 C 3753 2273 3764 2290 3780 2305 C 3797 2321 3810 2328 3810 2322 C 3810 2313 3815 2313 3830 2322 C 3841 2329 3848 2340 3846 2347 C 3843 2353 3854 2375 3870 2397 C 3886 2418 3900 2440 3900 2446 C 3900 2453 3907 2460 3915 2464 C 3930 2469 3937 2501 3923 2499 C 3918 2498 3903 2486 3888 2471 z" stroke-linecap="round" />
</g>
		<g transform="matrix(0.13 0 0 -0.13 -78.13 58.65)"  >
 <path vector-effect="non-scaling-stroke"  transform=" translate(-3177.67, -2418.33)" d="M 3172 2458 C 3158 2444 3156 2402 3169 2382 C 3184 2357 3201 2393 3193 2434 C 3186 2464 3182 2468 3172 2458 z" stroke-linecap="round" />
</g>
		<g transform="matrix(0.13 0 0 -0.13 -15.15 73.73)"  >
 <path vector-effect="non-scaling-stroke"  transform=" translate(-3650, -2305.21)" d="M 3750 2377 C 3725 2364 3701 2354 3697 2353 C 3679 2350 3500 2229 3500 2220 C 3500 2204 3508 2207 3588 2256 C 3648 2292 3670 2301 3693 2296 C 3718 2291 3729 2296 3761 2329 C 3783 2350 3800 2375 3800 2384 C 3800 2393 3799 2400 3798 2399 C 3796 2399 3775 2389 3750 2377 z" stroke-linecap="round" />
</g>
		<g transform="matrix(0.13 0 0 -0.13 -87.93 67.21)"  >
 <path vector-effect="non-scaling-stroke"  transform=" translate(-3104.15, -2354.13)" d="M 3086 2382 C 3077 2368 3090 2335 3109 2323 C 3124 2313 3126 2315 3125 2339 C 3123 2381 3101 2405 3086 2382 z" stroke-linecap="round" />
</g>
		<g transform="matrix(0.13 0 0 -0.13 -81.15 70.73)"  >
 <path vector-effect="non-scaling-stroke"  transform=" translate(-3155, -2327.7)" d="M 3140 2330 C 3140 2324 3147 2320 3155 2320 C 3163 2320 3170 2322 3170 2324 C 3170 2326 3163 2330 3155 2334 C 3147 2337 3140 2335 3140 2330 z" stroke-linecap="round" />
</g>
		<g transform="matrix(0.13 0 0 -0.13 -91.33 73.59)"  >
 <path vector-effect="non-scaling-stroke"  transform=" translate(-3078.66, -2306.32)" d="M 3075 2309 C 3071 2303 3070 2297 3073 2294 C 3075 2291 3080 2296 3083 2305 C 3090 2322 3084 2325 3075 2309 z" stroke-linecap="round" />
</g>
		<g transform="matrix(0.13 0 0 -0.13 -9.15 78.43)"  >
 <path vector-effect="non-scaling-stroke"  transform=" translate(-3695, -2270)" d="M 3680 2270 C 3667 2261 3667 2260 3680 2260 C 3688 2260 3702 2265 3710 2270 C 3723 2279 3723 2280 3710 2280 C 3702 2280 3688 2275 3680 2270 z" stroke-linecap="round" />
</g>
		<g transform="matrix(0.13 0 0 -0.13 5.76 92.8)"  >
 <path vector-effect="non-scaling-stroke"  transform=" translate(-3806.82, -2162.23)" d="M 3825 2250 C 3817 2234 3810 2210 3810 2195 C 3810 2181 3806 2170 3800 2170 C 3795 2170 3790 2157 3790 2141 C 3790 2126 3781 2102 3771 2088 C 3752 2064 3752 2064 3771 2052 C 3787 2042 3794 2042 3806 2055 C 3815 2064 3820 2080 3817 2091 C 3814 2103 3817 2113 3826 2117 C 3839 2122 3843 2137 3855 2233 C 3862 2287 3849 2296 3825 2250 z" stroke-linecap="round" />
</g>
		<g transform="matrix(0.13 0 0 -0.13 -93.77 88.87)"  >
 <path vector-effect="non-scaling-stroke"  transform=" translate(-3060.36, -2191.72)" d="M 3040 2238 C 3040 2229 3037 2215 3034 2206 C 3030 2195 3033 2190 3044 2190 C 3062 2190 3066 2175 3050 2165 C 3045 2162 3040 2152 3040 2143 C 3040 2130 3045 2131 3065 2150 C 3095 2179 3096 2186 3069 2193 C 3057 2196 3051 2203 3055 2209 C 3058 2215 3056 2228 3051 2237 C 3042 2253 3041 2253 3040 2238 z" stroke-linecap="round" />
</g>
		<g transform="matrix(0.13 0 0 -0.13 -26 109.79)"  >
 <path vector-effect="non-scaling-stroke"  transform=" translate(-3568.65, -2034.77)" d="M 3721 2185 C 3664 2131 3651 2122 3641 2134 C 3631 2146 3635 2155 3661 2179 C 3702 2219 3675 2221 3629 2183 C 3611 2167 3580 2150 3561 2145 C 3533 2137 3523 2127 3514 2101 C 3508 2082 3496 2061 3486 2055 C 3477 2048 3470 2039 3470 2035 C 3470 2030 3464 2019 3457 2011 C 3449 2002 3437 1979 3430 1960 C 3422 1941 3399 1906 3378 1883 C 3357 1859 3340 1836 3340 1830 C 3340 1811 3372 1820 3377 1840 C 3380 1851 3387 1860 3392 1860 C 3410 1860 3430 1889 3439 1930 C 3448 1972 3493 2030 3516 2030 C 3531 2030 3542 2072 3529 2081 C 3519 2087 3573 2140 3590 2140 C 3595 2140 3592 2128 3584 2113 C 3564 2074 3567 2058 3587 2095 L 3604 2125 L 3613 2092 C 3621 2067 3619 2051 3607 2024 C 3584 1978 3586 1960 3611 1960 C 3625 1960 3630 1965 3627 1974 C 3624 1981 3628 2000 3636 2015 C 3644 2030 3650 2053 3650 2065 C 3650 2081 3669 2105 3710 2141 C 3759 2184 3811 2250 3794 2250 C 3792 2250 3759 2221 3721 2185 z" stroke-linecap="round" />
</g>
		<g transform="matrix(0.13 0 0 -0.13 13.22 112.47)"  >
 <path vector-effect="non-scaling-stroke"  transform=" translate(-3862.78, -2014.69)" d="M 3940 2165 C 3933 2157 3930 2144 3933 2135 C 3937 2127 3935 2118 3930 2115 C 3924 2111 3920 2098 3920 2085 C 3920 2072 3916 2058 3910 2055 C 3905 2052 3900 2040 3900 2030 C 3900 2019 3879 1989 3854 1963 C 3805 1912 3756 1850 3764 1850 C 3767 1850 3790 1870 3817 1895 C 3843 1919 3869 1940 3874 1940 C 3880 1940 3897 1952 3912 1967 C 3950 2003 3947 1989 3908 1943 C 3890 1922 3883 1911 3893 1919 C 3903 1927 3925 1952 3943 1974 C 3960 1997 3967 2009 3957 2001 C 3937 1985 3936 1993 3954 2044 C 3963 2069 3965 2095 3959 2118 C 3955 2137 3954 2159 3957 2166 C 3964 2184 3956 2184 3940 2165 z" stroke-linecap="round" />
</g>
		<g transform="matrix(0.13 0 0 -0.13 61.8 111.49)"  >
 <path vector-effect="non-scaling-stroke"  transform=" translate(-4227.11, -2022.07)" d="M 4227 2173 C 4224 2169 4228 2146 4236 2122 C 4250 2084 4249 2076 4231 2037 C 4213 1998 4212 1997 4211 2023 C 4210 2041 4205 2050 4194 2050 C 4180 2050 4179 2043 4184 2011 C 4187 1988 4186 1969 4180 1965 C 4165 1956 4168 1907 4184 1884 C 4198 1866 4199 1866 4206 1883 C 4210 1895 4206 1906 4194 1915 C 4183 1923 4180 1929 4188 1930 C 4194 1930 4200 1938 4200 1948 C 4200 1957 4208 1970 4218 1976 C 4227 1983 4246 2008 4259 2033 L 4284 2078 L 4258 2130 C 4244 2158 4230 2178 4227 2173 z" stroke-linecap="round" />
</g>
		<g transform="matrix(0.13 0 0 -0.13 18.18 92.86)"  >
 <path vector-effect="non-scaling-stroke"  transform=" translate(-3900, -2161.8)" d="M 3890 2159 C 3890 2154 3895 2152 3900 2155 C 3906 2158 3910 2163 3910 2166 C 3910 2168 3906 2170 3900 2170 C 3895 2170 3890 2165 3890 2159 z" stroke-linecap="round" />
</g>
		<g transform="matrix(0.13 0 0 -0.13 74.18 105.09)"  >
 <path vector-effect="non-scaling-stroke"  transform=" translate(-4320, -2070)" d="M 4310 2070 C 4310 2065 4315 2060 4320 2060 C 4326 2060 4330 2065 4330 2070 C 4330 2076 4326 2080 4320 2080 C 4315 2080 4310 2076 4310 2070 z" stroke-linecap="round" />
</g>
		<g transform="matrix(0.13 0 0 -0.13 -30.74 123.09)"  >
 <path vector-effect="non-scaling-stroke"  transform=" translate(-3533.09, -1935)" d="M 3550 2031 C 3545 2020 3540 1994 3540 1972 C 3540 1945 3534 1927 3519 1914 C 3506 1902 3501 1888 3504 1874 C 3508 1860 3505 1850 3494 1846 C 3474 1838 3485 1820 3510 1820 C 3537 1820 3561 1861 3565 1912 C 3567 1936 3572 1976 3578 2003 C 3585 2040 3584 2050 3574 2050 C 3567 2050 3556 2041 3550 2031 z" stroke-linecap="round" />
</g>
		<g transform="matrix(0.13 0 0 -0.13 13.49 110.98)"  >
 <path vector-effect="non-scaling-stroke"  transform=" translate(-3864.81, -2025.86)" d="M 3861 2024 C 3861 2013 3864 2010 3867 2018 C 3870 2025 3869 2034 3866 2037 C 3863 2041 3860 2035 3861 2024 z" stroke-linecap="round" />
</g>
		<g transform="matrix(0.13 0 0 -0.13 68.31 117.18)"  >
 <path vector-effect="non-scaling-stroke"  transform=" translate(-4276.01, -1979.38)" d="M 4271 2000 C 4259 1978 4242 1956 4233 1952 C 4224 1947 4220 1938 4223 1933 C 4236 1913 4269 1912 4289 1931 C 4300 1942 4314 1950 4320 1950 C 4325 1950 4330 1970 4330 1995 C 4330 2055 4303 2057 4271 2000 z" stroke-linecap="round" />
</g>
		<g transform="matrix(0.13 0 0 -0.13 -11.83 123.19)"  >
 <path vector-effect="non-scaling-stroke"  transform=" translate(-3674.89, -1934.25)" d="M 3691 2015 C 3663 1999 3641 1964 3640 1934 C 3640 1923 3629 1904 3615 1892 C 3591 1871 3581 1840 3599 1840 C 3604 1840 3613 1847 3620 1855 C 3627 1863 3636 1868 3640 1865 C 3651 1858 3660 1886 3660 1930 C 3660 1963 3664 1971 3692 1984 C 3709 1993 3731 2000 3742 2000 C 3752 2000 3760 2007 3760 2015 C 3760 2033 3725 2033 3691 2015 z" stroke-linecap="round" />
</g>
		<g transform="matrix(0.13 0 0 -0.13 -4.49 120.16)"  >
 <path vector-effect="non-scaling-stroke"  transform=" translate(-3730, -1957)" d="M 3720 1961 C 3720 1955 3725 1948 3730 1945 C 3736 1942 3740 1946 3740 1954 C 3740 1963 3736 1970 3730 1970 C 3725 1970 3720 1966 3720 1961 z" stroke-linecap="round" />
</g>
		<g transform="matrix(0.13 0 0 -0.13 -14.11 142.11)"  >
 <path vector-effect="non-scaling-stroke"  transform=" translate(-3657.84, -1792.41)" d="M 3756 1935 C 3753 1927 3745 1920 3737 1920 C 3730 1920 3709 1905 3691 1886 C 3672 1867 3644 1846 3628 1839 C 3607 1830 3600 1822 3603 1808 C 3606 1798 3604 1787 3599 1784 C 3594 1781 3590 1769 3590 1757 C 3590 1737 3590 1737 3605 1756 C 3613 1766 3620 1783 3620 1793 C 3620 1814 3621 1814 3656 1795 C 3681 1782 3682 1780 3665 1774 C 3638 1763 3529 1650 3536 1639 C 3540 1633 3547 1633 3555 1640 C 3563 1647 3578 1649 3589 1645 C 3606 1640 3613 1646 3627 1674 C 3636 1694 3650 1710 3658 1710 C 3666 1710 3670 1716 3666 1725 C 3663 1734 3669 1744 3681 1750 C 3692 1756 3700 1769 3699 1778 C 3698 1787 3702 1808 3708 1823 C 3715 1839 3720 1855 3720 1859 C 3720 1863 3734 1882 3750 1900 C 3767 1918 3780 1937 3780 1942 C 3780 1956 3762 1951 3756 1935 z M 3610 1686 C 3610 1683 3606 1678 3600 1675 C 3595 1672 3590 1674 3590 1679 C 3590 1685 3595 1690 3600 1690 C 3606 1690 3610 1688 3610 1686 z" stroke-linecap="round" />
</g>
		<g transform="matrix(0.13 0 0 -0.13 71.49 129.09)"  >
 <path vector-effect="non-scaling-stroke"  transform=" translate(-4299.79, -1890.01)" d="M 4291 1897 C 4285 1889 4283 1880 4287 1877 C 4298 1865 4308 1870 4313 1890 C 4319 1913 4308 1916 4291 1897 z" stroke-linecap="round" />
</g>
		<g transform="matrix(0.13 0 0 -0.13 62.16 130.65)"  >
 <path vector-effect="non-scaling-stroke"  transform=" translate(-4229.84, -1878.31)" d="M 4223 1884 C 4220 1876 4221 1865 4227 1859 C 4232 1854 4236 1860 4238 1875 C 4240 1903 4232 1908 4223 1884 z" stroke-linecap="round" />
</g>
		<g transform="matrix(0.13 0 0 -0.13 52.18 140.42)"  >
 <path vector-effect="non-scaling-stroke"  transform=" translate(-4155, -1805.03)" d="M 4120 1879 C 4120 1872 4129 1853 4140 1835 C 4159 1804 4159 1803 4139 1766 C 4128 1745 4121 1725 4124 1723 C 4139 1708 4190 1781 4190 1818 C 4190 1828 4177 1848 4162 1863 C 4132 1892 4120 1896 4120 1879 z" stroke-linecap="round" />
</g>
		<g transform="matrix(0.13 0 0 -0.13 14.47 132.76)"  >
 <path vector-effect="non-scaling-stroke"  transform=" translate(-3872.14, -1862.48)" d="M 3851 1866 C 3836 1848 3857 1839 3885 1852 C 3903 1860 3903 1860 3883 1856 C 3859 1852 3851 1865 3873 1873 C 3880 1877 3881 1879 3874 1879 C 3868 1880 3857 1874 3851 1866 z" stroke-linecap="round" />
</g>
		<g transform="matrix(0.13 0 0 -0.13 69.09 134.43)"  >
 <path vector-effect="non-scaling-stroke"  transform=" translate(-4281.8, -1850)" d="M 4275 1850 C 4272 1845 4274 1840 4279 1840 C 4285 1840 4290 1845 4290 1850 C 4290 1856 4288 1860 4286 1860 C 4283 1860 4278 1856 4275 1850 z" stroke-linecap="round" />
</g>
		<g transform="matrix(0.13 0 0 -0.13 14.88 176.75)"  >
 <path vector-effect="non-scaling-stroke"  transform=" translate(-3875.28, -1532.62)" d="M 4056 1817 C 4039 1777 3973 1700 3955 1700 C 3948 1700 3937 1694 3930 1686 C 3924 1678 3912 1674 3904 1677 C 3896 1680 3890 1677 3890 1671 C 3890 1665 3865 1645 3835 1625 C 3799 1603 3780 1583 3780 1571 C 3780 1553 3786 1555 3850 1587 C 3888 1607 3936 1640 3955 1661 C 3994 1704 3996 1706 3998 1688 C 3999 1681 4002 1659 4004 1640 C 4007 1621 4007 1613 4004 1623 C 3999 1641 3997 1641 3984 1621 C 3975 1609 3964 1600 3959 1600 C 3954 1600 3959 1613 3971 1630 C 3984 1646 3991 1662 3988 1666 C 3985 1669 3969 1654 3953 1634 C 3938 1613 3912 1583 3896 1566 C 3859 1528 3833 1467 3850 1462 C 3856 1460 3851 1453 3838 1446 C 3826 1440 3811 1425 3805 1412 C 3800 1400 3790 1390 3783 1390 C 3776 1390 3766 1382 3761 1373 C 3751 1356 3751 1356 3750 1373 C 3750 1382 3755 1390 3760 1390 C 3769 1390 3769 1405 3761 1449 C 3760 1452 3755 1449 3748 1442 C 3741 1435 3730 1430 3722 1430 C 3710 1430 3710 1433 3720 1445 C 3727 1454 3730 1463 3726 1467 C 3719 1474 3661 1420 3660 1406 C 3660 1401 3652 1391 3643 1384 C 3633 1377 3629 1368 3633 1363 C 3638 1359 3646 1363 3651 1373 C 3657 1382 3667 1390 3674 1390 C 3682 1390 3693 1397 3700 1405 C 3707 1414 3715 1418 3718 1415 C 3727 1406 3667 1350 3648 1350 C 3636 1350 3630 1342 3629 1328 C 3626 1275 3622 1258 3611 1247 C 3596 1232 3597 1220 3615 1220 C 3624 1220 3633 1227 3636 1235 C 3640 1243 3649 1250 3657 1250 C 3665 1250 3678 1256 3685 1263 C 3693 1269 3717 1289 3738 1305 C 3760 1322 3781 1344 3786 1355 C 3791 1366 3807 1376 3823 1378 C 3838 1380 3850 1387 3850 1396 C 3850 1404 3855 1410 3860 1410 C 3866 1410 3870 1416 3870 1424 C 3870 1432 3883 1447 3900 1456 C 3921 1469 3926 1477 3919 1486 C 3912 1495 3914 1502 3928 1509 C 3952 1522 3960 1514 3960 1481 C 3960 1460 3958 1458 3950 1470 C 3942 1483 3940 1482 3940 1468 C 3940 1458 3934 1450 3926 1450 C 3907 1450 3887 1423 3895 1410 C 3900 1402 3908 1404 3922 1417 C 3941 1434 3942 1434 3939 1415 C 3937 1404 3939 1389 3943 1383 C 3954 1365 3980 1367 3980 1385 C 3980 1393 3991 1407 4005 1416 C 4033 1434 4038 1460 4015 1460 C 4007 1460 4000 1465 4000 1471 C 4000 1476 4005 1478 4011 1475 C 4046 1453 4150 1512 4150 1554 C 4150 1590 4139 1592 4108 1563 C 4081 1537 4080 1537 4065 1556 C 4046 1581 4050 1592 4086 1609 L 4115 1624 L 4090 1630 C 4073 1634 4069 1638 4078 1644 C 4095 1654 4094 1684 4077 1677 C 4066 1673 4065 1680 4070 1708 C 4073 1729 4081 1754 4087 1765 C 4101 1791 4099 1838 4083 1845 C 4075 1847 4064 1836 4056 1817 z M 4003 1580 C 4006 1569 4005 1562 4000 1565 C 3991 1571 3976 1541 3979 1523 C 3980 1516 3976 1510 3970 1510 C 3965 1510 3960 1513 3960 1517 C 3960 1524 3993 1600 3996 1600 C 3997 1600 4000 1591 4003 1580 z M 3730 1336 C 3730 1334 3723 1327 3715 1320 C 3702 1309 3701 1310 3706 1324 C 3711 1338 3730 1347 3730 1336 z" stroke-linecap="round" />
</g>
		<g transform="matrix(0.13 0 0 -0.13 60.61 135.76)"  >
 <path vector-effect="non-scaling-stroke"  transform=" translate(-4218.2, -1840)" d="M 4210 1840 C 4210 1835 4215 1830 4221 1830 C 4226 1830 4228 1835 4225 1840 C 4222 1846 4217 1850 4214 1850 C 4212 1850 4210 1846 4210 1840 z" stroke-linecap="round" />
</g>
		<g transform="matrix(0.13 0 0 -0.13 7.53 138.49)"  >
 <path vector-effect="non-scaling-stroke"  transform=" translate(-3820.12, -1819.55)" d="M 3813 1828 C 3788 1816 3782 1800 3803 1800 C 3817 1801 3850 1824 3850 1834 C 3850 1842 3839 1841 3813 1828 z" stroke-linecap="round" />
</g>
		<g transform="matrix(0.13 0 0 -0.13 -49.47 148.35)"  >
 <path vector-effect="non-scaling-stroke"  transform=" translate(-3392.66, -1745.61)" d="M 3425 1817 C 3419 1810 3408 1790 3400 1771 C 3393 1752 3376 1726 3363 1712 C 3337 1684 3334 1670 3353 1670 C 3361 1670 3375 1685 3385 1704 C 3396 1723 3407 1737 3411 1734 C 3426 1725 3451 1781 3443 1805 C 3437 1822 3432 1825 3425 1817 z" stroke-linecap="round" />
</g>
		<g transform="matrix(0.13 0 0 -0.13 67.75 138.43)"  >
 <path vector-effect="non-scaling-stroke"  transform=" translate(-4271.8, -1820)" d="M 4265 1820 C 4268 1815 4273 1810 4276 1810 C 4278 1810 4280 1815 4280 1820 C 4280 1826 4275 1830 4269 1830 C 4264 1830 4262 1826 4265 1820 z" stroke-linecap="round" />
</g>
		<g transform="matrix(0.13 0 0 -0.13 -69.02 155.69)"  >
 <path vector-effect="non-scaling-stroke"  transform=" translate(-3246.03, -1690.53)" d="M 3257 1744 C 3231 1713 3207 1676 3204 1661 C 3200 1647 3188 1625 3177 1613 C 3166 1600 3160 1587 3163 1584 C 3175 1572 3235 1595 3245 1616 C 3251 1627 3263 1644 3273 1654 C 3282 1664 3290 1677 3290 1684 C 3290 1690 3299 1713 3310 1735 C 3352 1818 3324 1823 3257 1744 z" stroke-linecap="round" />
</g>
		<g transform="matrix(0.13 0 0 -0.13 57.31 152.94)"  >
 <path vector-effect="non-scaling-stroke"  transform=" translate(-4193.48, -1711.18)" d="M 4180 1734 C 4167 1701 4167 1673 4180 1665 C 4186 1662 4190 1664 4190 1671 C 4190 1678 4197 1691 4206 1701 C 4216 1712 4219 1726 4215 1739 C 4206 1767 4192 1765 4180 1734 z" stroke-linecap="round" />
</g>
		<g transform="matrix(0.13 0 0 -0.13 -12.27 160.34)"  >
 <path vector-effect="non-scaling-stroke"  transform=" translate(-3671.6, -1655.66)" d="M 3770 1734 C 3756 1727 3716 1700 3680 1675 C 3644 1650 3600 1619 3581 1607 C 3542 1582 3523 1550 3558 1569 C 3569 1575 3589 1580 3602 1580 C 3616 1580 3644 1597 3668 1619 C 3691 1641 3734 1679 3762 1704 C 3815 1750 3817 1760 3770 1734 z" stroke-linecap="round" />
</g>
		<g transform="matrix(0.13 0 0 -0.13 -83.49 164.87)"  >
 <path vector-effect="non-scaling-stroke"  transform=" translate(-3137.5, -1621.72)" d="M 3126 1631 C 3123 1626 3127 1617 3135 1610 C 3148 1600 3150 1601 3150 1619 C 3150 1640 3136 1647 3126 1631 z" stroke-linecap="round" />
</g>
		<g transform="matrix(0.13 0 0 -0.13 -71.15 178.06)"  >
 <path vector-effect="non-scaling-stroke"  transform=" translate(-3230.01, -1522.74)" d="M 3232 1568 C 3226 1555 3219 1532 3215 1515 C 3212 1499 3207 1478 3204 1469 C 3201 1456 3205 1454 3223 1457 C 3241 1461 3247 1468 3247 1488 C 3246 1503 3250 1532 3254 1553 C 3263 1594 3250 1603 3232 1568 z" stroke-linecap="round" />
</g>
		<g transform="matrix(0.13 0 0 -0.13 -61.15 173.76)"  >
 <path vector-effect="non-scaling-stroke"  transform=" translate(-3305, -1555)" d="M 3300 1560 C 3294 1548 3291 1536 3293 1533 C 3296 1531 3304 1538 3310 1550 C 3316 1562 3319 1574 3317 1577 C 3314 1579 3306 1572 3300 1560 z" stroke-linecap="round" />
</g>
		<g transform="matrix(0.13 0 0 -0.13 2.57 181.83)"  >
 <path vector-effect="non-scaling-stroke"  transform=" translate(-3782.92, -1494.5)" d="M 3800 1523 C 3781 1517 3735 1460 3749 1460 C 3760 1460 3782 1480 3809 1513 C 3816 1522 3821 1529 3819 1529 C 3817 1528 3808 1526 3800 1523 z" stroke-linecap="round" />
</g>
		<g transform="matrix(0.13 0 0 -0.13 7.69 182.43)"  >
 <path vector-effect="non-scaling-stroke"  transform=" translate(-3821.35, -1490)" d="M 3815 1490 C 3793 1467 3790 1460 3803 1460 C 3812 1460 3826 1474 3835 1490 C 3844 1507 3849 1520 3847 1520 C 3845 1520 3831 1507 3815 1490 z" stroke-linecap="round" />
</g>
		<g transform="matrix(0.13 0 0 -0.13 196.97 -59.3)"  >
 <path vector-effect="non-scaling-stroke"  transform=" translate(-5240.91, -3302.94)" d="M 5111 3321 C 5100 3314 5101 3311 5116 3307 C 5207 3280 5385 3270 5378 3293 C 5375 3300 5347 3307 5309 3311 C 5274 3314 5218 3320 5185 3324 C 5152 3327 5119 3326 5111 3321 z" stroke-linecap="round" />
</g>
		<g transform="matrix(0.13 0 0 -0.13 259.51 4.8)"  >
 <path vector-effect="non-scaling-stroke"  transform=" translate(-5710, -2822.22)" d="M 5640 2836 C 5602 2823 5575 2807 5575 2799 C 5575 2782 5574 2782 5685 2798 C 5824 2819 5845 2824 5845 2840 C 5845 2866 5717 2864 5640 2836 z" stroke-linecap="round" />
</g>
		<g transform="matrix(0.13 0 0 -0.13 209.28 10.49)"  >
 <path vector-effect="non-scaling-stroke"  transform=" translate(-5333.26, -2779.5)" d="M 5480 2830 C 5467 2805 5427 2784 5364 2770 C 5337 2763 5308 2756 5300 2753 C 5261 2738 5238 2741 5200 2766 C 5151 2798 5139 2792 5171 2751 C 5209 2704 5225 2701 5322 2722 C 5432 2746 5493 2773 5507 2802 C 5525 2844 5501 2869 5480 2830 z" stroke-linecap="round" />
</g>
		<g transform="matrix(0.13 0 0 -0.13 160.8 60.34)"  >
 <path vector-effect="non-scaling-stroke"  transform=" translate(-4969.63, -2405.65)" d="M 4920 2498 C 4920 2471 4995 2300 5007 2300 C 5023 2300 5023 2305 5009 2369 C 4994 2442 4920 2549 4920 2498 z" stroke-linecap="round" />
</g>
		<g transform="matrix(0.13 0 0 -0.13 254.29 193.21)"  >
 <path vector-effect="non-scaling-stroke"  transform=" translate(-5670.79, -1409.16)" d="M 5648 2312 C 5622 2292 5579 2247 5551 2213 C 5499 2149 5465 2120 5443 2120 C 5436 2120 5407 2135 5378 2154 C 5308 2198 5277 2208 5282 2185 C 5283 2175 5294 2162 5304 2156 C 5315 2150 5331 2138 5340 2129 C 5350 2120 5371 2105 5387 2095 C 5404 2085 5425 2065 5433 2050 C 5449 2024 5448 2021 5419 1976 C 5402 1951 5385 1930 5380 1930 C 5376 1930 5369 1923 5366 1914 C 5361 1901 5366 1899 5399 1905 C 5435 1911 5440 1909 5471 1872 C 5501 1837 5557 1736 5582 1675 C 5599 1632 5609 1531 5599 1497 C 5590 1463 5537 1398 5510 1387 C 5497 1382 5497 1380 5509 1372 C 5517 1366 5529 1364 5536 1367 C 5552 1373 5630 1317 5687 1258 C 5727 1217 5748 1179 5755 1135 C 5778 994 5816 834 5872 650 C 5920 492 5929 470 5947 470 C 5968 470 5965 490 5909 675 C 5892 730 5872 798 5865 825 C 5857 853 5844 900 5836 930 C 5827 960 5816 1017 5809 1055 C 5803 1094 5795 1141 5791 1161 C 5783 1195 5795 1230 5814 1230 C 5822 1230 5842 1182 5844 1160 C 5846 1125 5903 1040 5916 1052 C 5922 1059 5872 1181 5855 1200 C 5843 1213 5840 1244 5840 1336 C 5840 1401 5835 1471 5830 1490 C 5825 1509 5807 1575 5791 1635 C 5754 1765 5750 1856 5778 1890 C 5794 1910 5817 1916 5920 1932 C 6039 1949 6073 1961 6056 1977 C 6044 1989 5913 1985 5839 1971 C 5783 1960 5766 1961 5729 1973 C 5600 2018 5550 2055 5550 2104 C 5550 2143 5565 2165 5652 2258 C 5690 2298 5718 2335 5715 2340 C 5706 2355 5699 2352 5648 2312 z" stroke-linecap="round" />
</g>
		<g transform="matrix(0.13 0 0 -0.13 274.99 82.34)"  >
 <path vector-effect="non-scaling-stroke"  transform=" translate(-5826.11, -2240.64)" d="M 5814 2251 C 5724 2193 5697 2170 5720 2170 C 5749 2170 5940 2288 5940 2306 C 5940 2322 5891 2301 5814 2251 z" stroke-linecap="round" />
</g>
		<g transform="matrix(0.13 0 0 -0.13 206.18 175.7)"  >
 <path vector-effect="non-scaling-stroke"  transform=" translate(-5310, -1540.45)" d="M 5160 1698 C 5160 1672 5195 1610 5210 1610 C 5215 1610 5232 1591 5247 1568 C 5292 1499 5369 1406 5398 1388 C 5431 1366 5460 1365 5460 1385 C 5460 1393 5454 1400 5446 1400 C 5421 1400 5384 1442 5349 1510 C 5330 1546 5312 1577 5309 1580 C 5306 1583 5301 1590 5299 1596 C 5297 1602 5265 1633 5228 1664 C 5167 1716 5160 1719 5160 1698 z" stroke-linecap="round" />
</g>
</g>
</g>
</svg>