<?xml version="1.0" standalone="no"?>
<!DOCTYPE svg PUBLIC "-//W3C//DTD SVG 20010904//EN" "http://www.w3.org/TR/2001/REC-SVG-20010904/DTD/svg10.dtd">
    <svg version="1.0" xmlns="http://www.w3.org/2000/svg" width="410pt" height="410pt" viewBox="0 0 410 410" preserveAspectRatio="xMidYMid meet">
        <g class="menck-footer-logo" transform="translate(411,410) scale(-0.100000,-0.100000)" fill="#ffffff" stroke="none">
         fill="#abababab"
            <path d="M12 4088 c-9 -9 -11 -234 -10 -962 l3 -951 5 955 5 955 570 5 570 5 -565 3 c-430 1 -569 -1 -578 -10z"/>
            <path d="M1348 4093 c23 -2 61 -2 85 0 23 2 4 4 -43 4 -47 0 -66 -2 -42 -4z"/>
            <path d="M1978 4093 c46 -2 118 -2 160 0 42 1 5 3 -83 3 -88 0 -123 -2 -77 -3z"/>
            <path d="M2823 4093 c235 -2 619 -2 855 0 235 1 42 2 -428 2 -470 0 -663 -1 -427 -2z"/>
            <path d="M1828 4078 c-7 -4 -24 -6 -38 -3 -42 9 -151 -11 -220 -40 -92 -38 -174 -79 -179 -88 -2 -5 -17 -17 -35 -28 l-31 -19 29 0 c16 0 49 11 73 26 24 14 48 22 55 18 6 -4 8 -3 4 4 -3 6 4 14 16 18 13 4 26 11 29 15 7 12 141 49 173 49 14 0 28 -4 31 -10 3 -6 -4 -10 -17 -10 -13 0 -29 -4 -36 -9 -23 -14 43 -21 100 -10 108 21 294 -13 419 -76 44 -22 132 -88 187 -139 56 -52 125 -157 154 -232 12 -32 26 -61 30 -62 5 -2 6 -7 4 -11 -3 -4 1 -25 9 -47 8 -21 14 -61 15 -89 1 -89 22 -23 24 75 0 48 4 86 9 83 9 -5 8 -141 -2 -212 -6 -41 -15 -60 -35 -78 -46 -40 -62 -29 -27 19 40 54 40 69 1 24 -39 -44 -87 -60 -151 -52 -42 6 -50 4 -61 -14 -9 -13 -23 -20 -44 -20 -29 0 -36 7 -73 70 -54 90 -180 220 -248 254 -55 27 -194 56 -273 56 -62 0 -210 -26 -252 -44 -18 -8 -77 -29 -131 -46 -173 -54 -277 -123 -277 -183 0 -13 -5 -28 -12 -35 -6 -6 -9 -15 -5 -19 4 -3 8 -4 10 -2 46 60 86 103 109 115 15 8 69 23 120 34 127 27 177 43 222 74 35 23 48 26 126 26 121 0 241 -24 326 -66 78 -38 143 -94 109 -94 -10 0 7 -16 42 -39 32 -21 71 -53 86 -72 l26 -34 -20 -21 c-11 -12 -39 -30 -62 -40 -53 -23 -121 -68 -169 -113 -27 -24 -38 -43 -38 -63 0 -33 -10 -35 -36 -7 -19 22 -57 21 -116 -3 -22 -8 -37 -7 -70 7 -69 27 -191 36 -273 19 -38 -9 -92 -19 -120 -24 -27 -5 -81 -16 -118 -24 -73 -16 -92 -14 -101 11 -8 19 13 232 25 255 6 11 4 18 -6 22 -9 3 -15 0 -15 -9 0 -9 -4 -23 -9 -33 -11 -21 -31 -113 -37 -172 -8 -67 -11 -75 -29 -60 -23 19 -18 71 16 155 37 92 36 116 -2 86 -15 -11 -32 -35 -39 -53 -27 -69 -51 -124 -62 -143 -7 -11 -20 -36 -29 -55 -10 -19 -31 -48 -49 -65 -31 -29 -31 -29 -22 -5 6 14 26 57 45 95 19 39 47 104 62 145 107 288 162 410 242 534 75 115 251 277 348 320 23 9 47 26 54 37 11 19 10 20 -11 14 -13 -4 -44 -18 -70 -31 -26 -13 -53 -24 -60 -24 -7 0 -43 -20 -80 -45 -71 -47 -87 -52 -120 -34 -20 11 -19 11 8 29 16 9 33 15 38 12 4 -2 2 -8 -5 -13 -8 -5 -9 -9 -4 -9 19 0 38 18 31 29 -4 6 -19 11 -34 11 -15 0 -49 12 -77 26 -40 20 -59 24 -95 20 l-45 -5 35 13 35 14 -31 1 c-17 1 -48 -6 -67 -14 -20 -8 -52 -15 -71 -15 -51 0 -111 -27 -127 -56 -14 -28 -61 -57 -83 -52 -22 5 -134 -94 -146 -129 -11 -31 -34 -48 -51 -37 -15 9 -220 -204 -262 -273 -20 -33 -37 -67 -37 -75 0 -8 -9 -31 -19 -52 -14 -26 -21 -68 -26 -139 -6 -111 -18 -196 -40 -297 -19 -83 -18 -225 1 -262 8 -15 14 -53 14 -85 0 -34 7 -71 16 -88 27 -50 44 -117 34 -134 -4 -9 -38 -41 -74 -71 -45 -38 -63 -60 -58 -70 4 -8 7 -47 8 -86 1 -38 6 -80 13 -91 6 -12 11 -50 11 -85 1 -75 10 -93 73 -148 26 -23 59 -62 74 -87 14 -24 37 -49 50 -54 15 -5 31 -25 41 -49 11 -25 30 -46 54 -60 20 -11 47 -33 61 -49 13 -16 42 -40 65 -55 45 -28 60 -62 42 -95 -12 -23 -7 -22 -110 -27 -275 -11 -320 -28 -394 -147 -40 -64 -45 -79 -47 -137 -1 -36 -1 -69 1 -75 6 -22 -1 -36 -23 -46 -22 -10 -22 -13 -20 -157 1 -81 2 -263 3 -404 0 -154 4 -258 9 -258 6 0 11 14 13 32 2 25 12 37 50 60 54 34 84 31 94 -8 5 -18 0 -35 -15 -55 l-22 -29 1981 0 1980 0 0 270 0 270 -21 -21 c-15 -15 -27 -19 -42 -14 -12 4 -51 8 -87 9 -75 3 -160 27 -195 54 -21 16 -40 18 -162 17 -114 -2 -145 1 -181 16 -24 11 -54 16 -70 13 -37 -7 -208 21 -236 39 -15 10 -37 13 -67 10 -28 -3 -50 0 -60 9 -9 7 -31 58 -48 113 -25 80 -31 117 -31 188 0 78 -4 98 -31 160 l-32 72 13 110 c14 128 15 336 1 392 -5 21 -22 76 -36 123 -15 47 -26 106 -26 133 1 36 -7 66 -34 119 -19 40 -35 79 -35 87 0 35 -22 91 -35 91 -32 0 -24 -46 49 -268 50 -154 69 -270 66 -409 -1 -51 3 -108 9 -126 9 -26 8 -44 -4 -83 -21 -71 -19 -151 6 -198 11 -21 18 -40 16 -43 -3 -2 4 -28 16 -56 12 -31 21 -80 23 -122 3 -70 3 -70 -7 -20 -19 100 -63 156 -90 114 -11 -17 -12 -32 -1 -25 8 5 7 -48 -3 -101 -5 -27 -9 -33 -16 -22 -5 8 -9 28 -9 44 -1 25 -5 19 -25 -33 -14 -35 -34 -76 -45 -92 -12 -16 -23 -38 -25 -47 -2 -10 -10 -36 -19 -58 -12 -33 -15 -36 -16 -15 l-1 25 -19 -23 c-11 -13 -25 -42 -31 -64 -9 -35 -7 -48 10 -90 25 -61 9 -53 -24 12 -18 36 -23 58 -18 82 6 37 29 68 49 68 7 0 16 9 19 20 3 11 11 20 16 20 5 0 9 8 9 19 0 10 7 35 16 56 8 20 13 39 11 41 -6 6 -107 -103 -107 -116 0 -6 -13 -31 -30 -55 -18 -27 -30 -56 -30 -77 0 -41 -15 -69 -22 -41 -8 34 2 196 15 219 6 12 33 52 60 89 47 66 92 145 82 145 -2 0 -14 -19 -26 -43 -12 -23 -43 -65 -69 -94 -53 -57 -86 -122 -96 -182 -4 -23 -10 -41 -15 -41 -10 0 -24 40 -20 59 1 7 -2 10 -8 7 -16 -10 -23 12 -11 36 10 21 10 21 -9 -2 -24 -29 -24 -34 -12 -78 13 -42 -2 -41 -29 3 -12 19 -24 35 -26 35 -12 0 -1 -40 16 -60 11 -13 20 -27 20 -31 0 -4 3 -15 6 -24 4 -9 -6 -5 -23 12 -16 15 -28 31 -26 35 2 4 -4 11 -12 16 -11 6 -17 24 -18 55 -1 26 -5 47 -9 47 -15 0 -25 -35 -18 -59 4 -14 14 -53 21 -86 7 -33 17 -64 22 -70 6 -6 7 -3 4 10 -4 11 -9 34 -13 50 l-7 30 21 -26 c16 -20 21 -40 21 -83 -1 -57 -10 -70 -28 -39 -8 15 -12 16 -35 3 -28 -14 -50 -5 -26 11 13 8 13 10 0 19 -17 11 -37 14 -27 3 4 -3 2 -12 -3 -18 -7 -9 -1 -20 24 -39 40 -30 48 -32 40 -11 -4 8 -1 15 4 15 18 0 26 -68 11 -86 -18 -22 -95 -66 -111 -63 -13 2 -25 -2 -133 -51 -33 -15 -121 -45 -195 -65 -129 -36 -142 -38 -295 -39 -212 -1 -305 14 -420 69 -78 37 -103 56 -177 133 -53 55 -98 113 -116 148 -29 57 -62 170 -62 210 0 10 -11 57 -24 104 -29 103 -48 311 -34 376 8 36 7 50 -6 69 -9 14 -23 25 -31 25 -20 0 -190 145 -264 226 -131 143 -209 274 -231 389 -23 121 3 187 96 241 46 27 50 36 34 80 -6 15 -28 95 -50 178 -43 167 -61 340 -36 349 9 4 16 -22 25 -101 23 -191 68 -366 115 -447 23 -38 37 -49 126 -89 58 -26 88 -178 45 -226 -17 -19 -21 -39 -23 -139 -5 -135 3 -152 59 -132 18 6 56 11 85 11 53 0 54 -1 54 -28 0 -19 5 -29 15 -29 9 0 14 9 13 23 -1 12 -5 21 -9 18 -4 -2 -10 5 -14 16 -4 11 -24 41 -46 66 -38 44 -39 47 -39 122 0 49 -6 88 -15 106 -19 36 -24 60 -31 167 -5 56 -3 92 4 105 10 16 12 11 12 -31 2 -115 11 -159 44 -210 17 -27 40 -70 50 -95 17 -43 32 -74 83 -170 l24 -45 -3 35 c-2 29 0 35 16 35 30 0 30 17 -4 118 -32 98 -103 233 -145 277 -14 15 -25 35 -25 46 0 35 -12 64 -26 64 -8 0 -14 3 -14 8 1 13 27 42 39 42 6 0 20 9 31 20 13 13 35 20 62 21 40 2 54 3 100 7 10 1 36 27 58 58 26 34 48 54 58 52 8 -2 39 -43 68 -93 29 -49 64 -106 78 -127 15 -20 26 -42 26 -50 0 -7 6 -2 13 11 14 28 10 27 89 11 49 -11 76 -11 130 -2 38 7 81 12 97 12 15 0 44 11 64 24 35 24 36 24 42 5 6 -19 8 -19 24 -5 10 9 26 16 37 16 22 1 91 61 124 108 15 22 28 32 40 29 15 -4 18 5 22 64 3 41 12 79 23 95 27 42 32 145 9 195 -22 49 -13 68 40 88 l37 14 154 -157 c129 -131 164 -161 218 -187 62 -29 66 -29 108 -15 24 7 62 16 84 19 22 3 50 9 62 13 20 5 27 -3 63 -77 22 -46 49 -110 59 -143 l18 -60 8 42 c5 31 2 52 -10 77 -16 35 -24 80 -27 144 -1 23 5 38 19 50 12 9 33 39 47 68 14 28 30 54 35 57 6 4 5 17 -2 35 -6 16 -7 36 -2 47 5 10 8 64 7 119 -1 55 3 114 8 131 7 21 7 46 -2 85 -6 29 -12 80 -12 112 -1 44 -5 61 -18 68 -27 15 -33 73 -14 123 14 35 15 52 6 90 -6 26 -17 57 -24 69 -8 12 -19 39 -26 60 -20 65 -65 146 -93 167 -15 12 -27 26 -27 32 0 18 -73 77 -125 102 -27 12 -56 30 -64 39 -7 10 -17 17 -22 17 -18 0 -109 64 -109 77 0 10 -6 12 -21 8 -11 -4 -33 -2 -47 3 -34 13 -297 21 -314 10z m449 -130 c29 -18 48 -45 24 -36 -40 15 -171 84 -171 90 0 10 103 -28 147 -54z m111 -84 c31 -25 59 -51 61 -57 2 -6 17 -22 34 -36 16 -14 45 -48 63 -77 34 -53 78 -164 68 -173 -7 -8 -23 19 -30 51 -4 16 -11 25 -17 21 -6 -3 -7 -1 -3 6 14 22 -100 174 -188 250 -49 42 -65 61 -51 61 3 0 32 -21 63 -46z m-1328 -50 c0 -12 -74 -74 -89 -75 -9 -1 -2 -4 14 -8 23 -5 33 -2 43 11 7 10 21 18 30 18 9 0 32 9 49 20 31 18 69 18 58 0 -3 -5 -1 -11 5 -15 5 -3 10 -1 10 5 0 6 11 3 25 -6 l26 -17 -28 -19 c-42 -28 -116 -66 -138 -70 -11 -1 -23 -7 -26 -12 -10 -13 -29 2 -29 22 0 14 2 14 9 3 7 -11 21 -7 75 23 37 20 73 36 81 36 8 0 15 6 15 13 0 15 -77 20 -95 7 -5 -4 -18 -6 -27 -5 -10 2 -18 -3 -18 -10 0 -8 -11 -22 -25 -33 -14 -11 -25 -26 -25 -33 0 -8 -9 -3 -20 11 -19 25 -19 25 3 32 20 5 20 6 -5 7 -36 1 -45 19 -14 30 13 6 27 18 30 29 8 23 66 55 66 36z m50 -4 c11 -8 9 -9 -12 -8 -16 1 -28 6 -28 10 0 11 22 10 40 -2z m-265 -189 c-3 -2 0 -10 6 -17 7 -9 6 -14 -2 -20 -7 -4 -15 -2 -17 4 -2 7 -9 18 -16 25 -20 20 -9 39 14 25 11 -7 17 -14 15 -17z m216 -133 c-5 -13 -24 -57 -43 -98 -19 -41 -53 -127 -77 -190 -23 -63 -71 -173 -107 -245 -70 -140 -78 -142 -19 -5 54 124 107 272 95 265 -16 -10 -114 -165 -130 -205 -18 -47 -35 -64 -26 -26 9 36 135 259 265 468 37 59 58 77 42 36z m1625 -313 c18 -27 22 -171 5 -188 -9 -9 -50 40 -69 85 -9 22 -8 27 5 32 13 5 14 9 5 18 -7 7 -12 19 -12 28 1 11 6 9 21 -9 24 -29 37 -20 21 14 -23 49 -5 64 24 20z m-171 -56 c45 -21 65 -57 25 -44 -27 9 -45 -7 -92 -79 -44 -68 -47 -96 -18 -188 11 -34 20 -70 20 -80 0 -9 11 -40 25 -70 29 -63 32 -94 8 -106 -18 -9 -133 -25 -185 -25 -31 0 -100 34 -132 66 -34 33 -86 103 -86 116 0 15 21 13 44 -4 22 -17 56 -20 56 -6 0 12 56 31 90 31 40 0 90 50 90 88 0 65 -97 106 -151 63 -13 -10 -40 -26 -59 -36 -19 -10 -48 -32 -64 -49 l-28 -31 -33 38 c-58 67 -55 129 10 191 75 73 181 118 320 136 98 12 113 11 160 -11z m100 -109 c10 -22 24 -40 31 -40 16 0 20 -15 34 -114 14 -111 3 -147 -68 -213 -30 -29 -60 -53 -66 -53 -13 0 -53 95 -71 170 -7 30 -16 64 -20 75 -4 15 11 41 60 102 36 45 65 88 65 97 0 28 17 17 35 -24z m-958 -146 c45 -34 63 -66 74 -134 5 -36 14 -92 19 -125 8 -46 7 -62 -3 -70 -7 -5 -21 -31 -31 -57 -20 -55 -70 -102 -135 -129 -25 -11 -58 -26 -74 -35 -15 -8 -36 -13 -46 -9 -10 3 -31 0 -47 -6 -36 -14 -96 -23 -150 -23 -30 -1 -51 7 -79 28 -34 27 -36 30 -21 42 10 7 52 20 94 30 98 22 68 31 -34 10 -97 -20 -94 -21 -94 9 0 19 -5 25 -21 25 -13 0 -42 21 -71 52 -29 29 -53 47 -56 41 -15 -23 -12 147 2 175 44 83 169 145 371 182 132 25 264 22 302 -6z m617 0 c8 -3 20 -22 27 -41 9 -29 9 -38 -3 -50 -25 -24 -65 1 -71 46 -2 20 -2 39 0 44 5 8 26 9 47 1z m-1684 -439 c10 -13 8 -22 -14 -54 -36 -51 -72 -85 -85 -77 -19 12 53 146 80 146 3 0 12 -7 19 -15z m-17 -710 c-2 -6 -11 -15 -21 -21 -16 -10 -17 -4 -16 81 1 57 6 100 15 116 13 22 14 16 20 -71 3 -52 4 -100 2 -105z m197 89 c12 -19 20 -37 17 -40 -6 -6 -47 50 -47 65 0 19 7 12 30 -25z m-140 -654 c0 -5 -19 -22 -42 -37 -24 -14 -80 -62 -125 -105 -88 -84 -93 -86 -180 -66 -35 8 -53 18 -56 30 -6 21 23 24 72 7 17 -6 42 -8 56 -5 13 3 73 47 132 96 97 82 143 107 143 80z m-543 -352 c-51 -45 -66 -33 -20 16 24 26 25 31 15 60 -20 54 -12 54 13 1 l23 -50 -31 -27z m2329 -225 c-15 -58 -23 -73 -36 -73 -6 0 -5 11 0 26 6 14 10 36 10 49 0 21 27 61 36 53 2 -2 -3 -27 -10 -55z m464 49 c0 -5 -9 -17 -20 -27 -23 -21 -26 -14 -8 15 13 20 28 27 28 12z m-348 -140 c-3 -15 -8 -20 -14 -14 -6 6 -7 24 -3 44 7 27 9 30 15 14 3 -11 4 -30 2 -44z m848 34 c0 -2 -8 -10 -17 -17 -16 -13 -17 -12 -4 4 13 16 21 21 21 13z m-586 -38 c11 -43 7 -118 -7 -118 -35 0 -49 62 -25 115 14 31 24 32 32 3z m291 2 c-7 -11 16 -27 45 -33 l25 -4 -26 -2 c-24 -1 -45 15 -63 46 -5 9 -2 11 8 7 9 -3 14 -10 11 -14z m276 -22 c-5 -14 -16 -22 -27 -21 -63 8 -93 16 -89 23 3 5 20 6 38 4 17 -3 43 -1 57 5 14 5 26 10 27 10 1 1 -1 -9 -6 -21z m-1001 -19 c0 -6 -4 -7 -10 -4 -5 3 -10 11 -10 16 0 6 5 7 10 4 6 -3 10 -11 10 -16z m-2282 -194 c9 -19 7 -26 -9 -41 -17 -16 -22 -16 -29 -4 -19 29 -8 82 14 74 8 -3 18 -16 24 -29z"/>
            <path d="M2394 3078 l-29 -31 33 22 c17 12 32 27 32 32 0 14 -4 11 -36 -23z"/>
            <path d="M2232 3032 c-55 -20 -79 -36 -99 -62 -15 -19 -42 -52 -60 -73 -35 -40 -36 -57 -1 -57 32 0 76 37 88 75 10 30 17 35 43 37 18 1 41 2 52 3 11 0 32 7 48 15 23 11 27 18 24 49 -2 19 -8 36 -13 37 -5 1 -42 -10 -82 -24z"/>
            <path d="M2181 2624 c8 -10 32 -25 54 -35 43 -20 110 -26 100 -9 -3 6 -20 10 -37 10 l-31 0 23 25 c26 28 22 30 -31 15 -25 -7 -46 -7 -64 0 -26 10 -27 9 -14 -6z"/>
            <path d="M1355 2850 c-44 -11 -219 -96 -234 -114 -23 -28 14 -31 77 -6 31 12 73 28 92 35 53 21 98 18 180 -14 41 -15 97 -31 124 -35 27 -4 55 -10 62 -13 11 -4 14 5 14 35 0 36 -2 40 -21 35 -14 -4 -31 5 -57 29 -20 20 -47 41 -59 47 -24 12 -128 12 -178 1z"/>
            <path d="M1278 2723 l-16 -28 43 0 c75 0 115 -60 55 -85 -51 -21 -110 3 -110 46 0 30 -5 30 -44 1 -17 -13 -39 -26 -48 -30 -27 -10 -22 -47 9 -73 31 -27 109 -40 184 -31 40 5 57 13 84 42 19 19 39 35 45 35 17 0 19 0 62 16 24 8 67 15 96 15 46 1 51 3 35 14 -10 6 -42 15 -71 18 -30 3 -78 17 -108 31 -30 14 -73 28 -95 31 -23 4 -52 10 -66 16 -35 13 -37 12 -55 -18z"/>
            <path d="M1090 2660 c0 -5 4 -10 9 -10 6 0 13 5 16 10 3 6 -1 10 -9 10 -9 0 -16 -4 -16 -10z"/>
            <path d="M1040 2615 c0 -8 7 -15 15 -15 8 0 15 4 15 9 0 5 -7 11 -15 15 -9 3 -15 0 -15 -9z"/>
            <path d="M1593 2602 c-14 -4 -20 -12 -15 -19 5 -8 14 -6 31 8 24 20 21 22 -16 11z"/>
            <path d="M1519 2553 c-13 -16 -12 -17 4 -4 9 7 17 15 17 17 0 8 -8 3 -21 -13z"/>
            <path d="M1050 2536 c0 -9 8 -16 19 -16 10 0 19 -6 18 -12 -1 -33 4 -49 13 -43 6 3 10 1 10 -6 0 -9 3 -10 10 -3 7 7 7 25 2 50 -7 35 -11 39 -40 42 -24 2 -32 -1 -32 -12z"/>
            <path d="M1610 2465 c-53 -85 -76 -107 -64 -60 4 15 2 25 -5 25 -6 0 -11 -17 -11 -40 0 -22 3 -40 6 -40 12 0 117 106 130 132 16 30 19 68 5 68 -4 0 -32 -38 -61 -85z"/>
            <path d="M1416 2503 c10 -40 14 -41 14 -5 0 18 -5 32 -10 32 -6 0 -8 -11 -4 -27z"/>
            <path d="M1155 2500 c4 -6 11 -8 16 -5 14 9 11 15 -7 15 -8 0 -12 -5 -9 -10z"/>
            <path d="M1461 2479 c-15 -26 -11 -31 11 -15 9 7 13 17 9 24 -4 7 -11 5 -20 -9z"/>
            <path d="M1167 3973 c-33 -5 -26 -23 8 -23 14 0 48 -9 77 -20 28 -11 53 -18 56 -16 2 2 -12 15 -30 29 -36 28 -69 37 -111 30z"/>
            <path d="M2160 3886 c0 -3 24 -18 53 -35 67 -38 180 -152 187 -189 4 -17 12 -27 23 -26 9 1 15 -2 12 -6 -3 -4 2 -11 10 -14 21 -8 30 19 13 40 -66 83 -158 167 -218 198 -66 35 -80 41 -80 32z"/>
            <path d="M1820 3571 c8 -5 39 -11 69 -15 29 -4 77 -16 105 -27 28 -10 58 -19 66 -19 8 0 40 -26 72 -57 32 -32 58 -53 58 -47 0 13 -27 49 -70 90 -19 19 -28 34 -21 34 8 0 11 6 7 15 -3 8 0 16 7 16 7 1 -13 5 -43 9 -76 11 -269 11 -250 1z"/>
            <path d="M2506 3500 c4 -25 12 -63 19 -85 6 -23 8 -50 4 -60 -4 -11 -8 -33 -8 -50 l0 -30 20 25 c29 35 22 126 -15 195 l-26 50 6 -45z"/>
            <path d="M1804 3303 c19 -38 48 -48 114 -39 73 10 78 28 7 26 -90 -2 -92 -2 -116 23 l-21 22 16 -32z"/>
            <path d="M1846 3310 c6 -6 21 -6 39 -1 30 9 30 9 -9 10 -26 1 -37 -2 -30 -9z"/>
            <path d="M1940 3233 c-43 -20 -54 -22 -110 -28 -25 -2 -63 -7 -86 -10 -23 -4 -59 -1 -85 6 -62 17 -69 18 -87 11 -10 -3 25 -19 88 -39 57 -18 114 -43 126 -54 l23 -22 6 26 c4 14 4 35 0 46 -8 25 -2 26 30 5 14 -9 25 -25 25 -35 0 -32 19 -31 27 3 7 25 19 38 53 55 30 16 47 20 54 13 8 -8 6 -14 -4 -21 -11 -8 -9 -8 10 -3 35 11 106 7 133 -7 21 -11 21 -11 -2 15 -24 26 -104 56 -145 56 -12 -1 -37 -8 -56 -17z"/>
            <path d="M1925 3114 c-9 -22 -15 -51 -12 -66 2 -15 0 -25 -4 -23 -7 5 -22 -25 -16 -31 2 -2 11 2 20 9 17 11 44 133 33 144 -3 3 -12 -12 -21 -33z"/>
            <path d="M1722 3061 c1 -19 6 -31 15 -31 7 0 13 -7 13 -15 0 -18 34 -37 54 -29 25 9 19 22 -11 26 -20 2 -33 13 -45 36 -23 47 -27 49 -26 13z"/>
            <path d="M1838 2803 c7 -3 16 -2 19 1 4 3 -2 6 -13 5 -11 0 -14 -3 -6 -6z"/>
            <path d="M2240 2462 c0 -5 7 -15 15 -22 8 -7 15 -8 15 -2 0 5 -7 15 -15 22 -8 7 -15 8 -15 2z"/>
            <path d="M2120 2451 c0 -6 4 -13 10 -16 6 -3 7 1 4 9 -7 18 -14 21 -14 7z"/>
            <path d="M2210 2411 c0 -6 4 -13 10 -16 6 -3 7 1 4 9 -7 18 -14 21 -14 7z"/>
            <path d="M1870 2395 c0 -8 4 -15 8 -15 5 0 12 -19 18 -42 8 -38 13 -43 39 -46 36 -3 75 -21 92 -42 10 -12 12 -8 13 25 0 32 -7 48 -34 77 -19 20 -46 40 -60 43 -14 3 -37 7 -51 10 -18 4 -25 1 -25 -10z"/>
            <path d="M1762 2345 c0 -16 2 -22 5 -12 2 9 2 23 0 30 -3 6 -5 -1 -5 -18z"/>
            <path d="M2380 2357 c0 -18 30 -65 47 -71 15 -6 14 -3 -3 16 -12 13 -26 32 -32 43 -6 11 -12 16 -12 12z"/>
            <path d="M976 2315 c-9 -35 -1 -43 14 -15 8 14 8 26 2 32 -6 6 -12 0 -16 -17z"/>
            <path d="M130 2297 c0 -23 4 -36 10 -32 13 8 13 35 0 55 -7 11 -10 5 -10 -23z"/>
            <path d="M2185 2293 c-16 -9 -34 -22 -38 -29 -4 -8 -16 -14 -26 -14 -10 0 -24 -7 -32 -16 -10 -13 -10 -17 2 -25 39 -24 110 14 123 67 9 34 7 35 -29 17z"/>
            <path d="M2239 2277 c-7 -15 -8 -34 -4 -44 6 -14 10 -9 15 22 9 48 5 57 -11 22z"/>
            <path d="M2400 2257 c0 -23 31 -66 45 -61 11 4 20 -5 31 -32 8 -22 34 -76 57 -122 40 -82 41 -84 27 -130 -21 -77 -22 -104 -2 -159 16 -45 20 -49 30 -33 9 15 7 23 -8 43 -24 30 -25 72 -5 120 8 20 15 45 15 56 0 11 -31 89 -70 173 -62 138 -72 153 -95 153 -14 1 -25 -3 -25 -8z"/>
            <path d="M1837 2227 c-55 -21 -59 -21 -68 -4 -11 19 -29 23 -29 5 0 -6 -7 -20 -17 -30 -15 -17 -14 -18 16 -18 19 0 30 4 26 10 -10 16 32 12 113 -11 40 -11 80 -18 88 -15 23 9 26 -12 5 -33 -17 -17 -26 -19 -46 -11 -17 7 -24 7 -20 0 3 -6 1 -10 -5 -10 -6 0 -13 6 -16 14 -3 8 -12 12 -19 10 -7 -3 -31 4 -54 15 -41 21 -91 28 -91 13 0 -5 14 -9 30 -9 17 0 62 -16 101 -36 70 -37 95 -45 85 -28 -8 12 50 25 65 15 9 -5 10 1 6 22 -4 21 0 35 15 51 27 29 18 49 -29 62 -54 15 -90 12 -156 -12z"/>
            <path d="M1570 2210 c-23 -17 -25 -26 -27 -109 -2 -50 1 -91 5 -91 7 0 65 189 64 207 -1 15 -17 12 -42 -7z"/>
            <path d="M2200 2180 c-12 -8 -10 -10 9 -10 14 0 35 -10 48 -22 13 -12 23 -16 23 -10 0 14 -40 52 -54 52 -6 0 -18 -5 -26 -10z"/>
            <path d="M2341 2146 c7 -15 15 -23 17 -16 3 7 -3 19 -13 28 -15 16 -16 15 -4 -12z"/>
            <path d="M2170 2135 c0 -9 -11 -30 -25 -46 -28 -34 -24 -54 16 -75 35 -18 37 -23 5 -17 -14 3 -33 14 -42 24 -9 10 -23 19 -30 19 -17 0 -39 -43 -48 -91 -5 -30 -13 -39 -39 -49 -70 -26 -77 -30 -77 -46 0 -10 -3 -15 -6 -11 -3 3 -1 21 4 39 17 55 24 144 10 130 -16 -16 -59 -14 -82 3 -28 21 -76 20 -76 -2 0 -10 -7 -31 -15 -47 -17 -32 -20 -66 -6 -66 5 0 12 8 14 18 3 9 5 1 6 -18 0 -38 -21 -76 -38 -65 -6 3 -11 16 -12 28 -1 19 -2 18 -14 -8 -8 -16 -14 -23 -15 -15 0 8 -10 -1 -21 -20 l-20 -35 6 49 c4 27 9 55 12 62 3 8 1 14 -5 14 -6 0 -15 -12 -21 -27 -6 -16 -18 -39 -28 -53 -9 -14 -11 -19 -3 -12 19 16 31 15 24 -3 -4 -8 -15 -15 -25 -15 -10 0 -19 -4 -19 -10 0 -5 7 -10 15 -10 8 0 15 -4 15 -10 0 -14 -37 -31 -54 -24 -10 4 -16 1 -17 -7 0 -8 -4 -5 -8 6 -7 17 -10 14 -20 -18 -15 -43 -7 -63 9 -26 l11 24 -6 -25 c-4 -14 -8 -34 -10 -45 -1 -11 -16 -51 -33 -88 -23 -51 -27 -67 -16 -67 8 0 14 5 14 12 0 14 51 90 57 84 2 -2 -5 -27 -16 -55 -12 -33 -15 -51 -8 -48 7 2 19 27 27 55 9 28 18 54 22 57 19 19 147 72 158 65 17 -10 -7 -45 -49 -71 -34 -21 -41 -39 -14 -39 14 0 13 -3 -6 -16 -16 -12 -22 -23 -18 -40 3 -17 0 -24 -10 -24 -9 0 -13 6 -10 14 3 8 8 32 11 53 6 36 5 36 -13 -12 -27 -69 -26 -77 6 -73 19 2 29 10 31 23 2 11 9 25 14 30 16 15 -1 -63 -19 -91 -20 -31 -13 -30 21 1 16 15 40 25 59 26 l32 1 -35 11 -35 11 35 4 c40 4 60 18 60 40 0 12 -4 11 -16 -6 -16 -23 -48 -28 -73 -13 -19 12 -6 28 29 36 47 10 83 75 42 75 -10 0 -23 -5 -29 -11 -6 -6 -16 -8 -22 -5 -10 6 85 134 123 165 14 11 16 11 16 -3 0 -32 -28 -84 -50 -91 -12 -4 -19 -9 -17 -11 2 -3 16 1 30 7 25 11 36 34 51 102 5 22 19 34 69 56 150 69 246 91 397 93 l35 0 -29 13 c-17 7 -41 10 -55 6 -30 -8 -61 -3 -61 9 0 5 -9 18 -21 29 l-21 19 22 7 c13 4 31 0 46 -10 31 -20 40 -14 24 14 -14 27 -2 27 27 -1 14 -13 23 -16 23 -9 0 7 -16 27 -36 44 -20 18 -47 49 -61 70 -13 21 -28 35 -34 32 -5 -4 -16 -1 -24 5 -12 10 -15 9 -15 -5z m-340 -205 c0 -14 -6 -34 -13 -45 -12 -16 -14 -10 -13 44 1 52 3 59 13 44 7 -9 13 -29 13 -43z m246 23 c-11 -11 -17 4 -9 23 7 18 8 18 11 1 2 -10 1 -21 -2 -24z m-167 -65 c-11 -20 -14 -21 -17 -5 -2 9 2 34 10 55 l13 37 3 -32 c2 -18 -2 -42 -9 -55z m-52 4c-14 -17 -22 0 -12 26 5 14 7 14 15 2 5 -9 4 -20 -3 -28z m-62 -62 c3 -5 1 -10 -4 -10 -6 0 -11 5 -11 10 0 6 2 10 4 10 3 0 8 -4 11 -10z m31 -75 c-21 -16 -32 -13 -21 4 3 6 14 11 23 11 15 -1 15 -2 -2 -15z m-226 -42 c0 -10 -20 -40 -20 -31 0 3 -3 13 -6 22 -4 11 -1 16 10 16 9 0 16 -3 16 -7z"/>
            <path d="M263 2109 c-49 -14 -49 -28 0 -27 24 0 59 -4 78 -10 19 -6 46 -13 62 -16 18 -4 33 -18 45 -43 9 -19 21 -34 27 -32 5 2 8 9 6 14 -2 6 -3 20 -3 33 0 12 -5 22 -10 22 -5 0 -42 16 -81 35 -76 38 -76 38 -124 24z"/>
            <path d="M2399 2083 l-24 -28 28 24 c25 23 32 31 24 31 -2 0 -14 -12 -28 -27z"/>
            <path d="M1750 2084 c0 -17 33 -34 67 -34 l38 0 -44 20 c-44 21 -61 24 -61 14z"/>
            <path d="M1996 1980 c-41 -45 -49 -78 -16 -60 11 6 18 15 14 21 -7 12 15 41 26 34 4 -3 10 6 12 20 3 14 4 25 3 25 -2 0 -19 -18 -39 -40z"/>
            <path d="M1644 1977 c-8 -21 4 -40 22 -33 7 3 16 1 19 -4 11 -18 35 -10 35 10 0 22 -10 26 -27 9 -8 -8 -15 -4 -26 12 -14 19 -17 20 -23 6z"/>
            <path d="M1617 1941 c-4 -17 -3 -21 5 -13 5 5 8 16 6 23 -3 8 -7 3 -11 -10z"/>
            <path d="M214 1925 c4 -16 25 -68 48 -114 30 -63 60 -105 121 -168 49 -51 88 -83 100 -83 16 0 9 11 -36 53 -66 61 -89 110 -107 222 -7 44 -17 84 -21 89 -18 20 -21 -29 -6 -96 19 -86 8 -79 -53 37 -48 92 -55 102 -46 60z"/>
            <path d="M2187 1839 c7 -7 15 -10 18 -7 3 3 -2 9 -12 12 -14 6 -15 5 -6 -5z"/>
            <path d="M2464 1812 c5 -13 3 -22 -3 -22 -6 0 -11 -7 -11 -15 0 -13 3 -13 20 -3 24 15 25 31 4 49 -15 12 -16 11 -10 -9z"/>
            <path d="M4 1660 c0 -91 2 -128 3 -82 2 45 2 119 0 165 -1 45 -3 8 -3 -83z"/>
            <path d="M2590 1816 c0 -10 40 -76 46 -76 3 0 -2 12 -10 28 -22 40 -36 58 -36 48z"/>
            <path d="M2060 1782 c-36 -18 -65 -43 -86 -72 -18 -25 -46 -60 -62 -77 -19 -21 -25 -33 -16 -33 20 0 17 -14 -6 -35 -25 -23 -26 -35 -1 -28 11 3 25 18 32 35 7 16 23 36 35 45 13 8 21 19 18 25 -3 5 4 23 16 41 21 30 35 42 119 102 46 33 19 31 -49 -3z"/>
            <path d="M2355 1768 c-17 -18 -20 -24 -8 -14 23 19 43 15 43 -11 0 -9 -16 -38 -36 -65 -34 -48 -40 -85 -6 -41 9 12 28 23 42 25 22 3 25 8 28 48 1 31 -3 52 -16 68 l-18 23 -29 -33z"/>
            <path d="M2180 1780 c-13 -8 -12 -10 3 -10 9 0 17 5 17 10 0 12 -1 12 -20 0z"/>
            <path d="M2261 1698 l-23 -43 26 28 c14 15 26 35 26 43 0 22 -4 17 -29 -28z"/>
            <path d="M2038 1683 c-32 -14 -58 -30 -58 -34 0 -15 15 -10 50 16 39 29 57 31 104 11 20 -8 39 -10 47 -5 11 7 9 9 -7 9 -11 0 -29 7 -40 15 -26 19 -30 19-96 -12z"/>
            <path d="M2440 1688 c0 -12 -12 -36 -27 -52 -16 -17 -21 -25 -13 -18 8 6 22 12 32 12 14 0 18 8 18 40 0 22 -2 40 -5 40 -3 0 -5 -10 -5 -22z"/>
            <path d="M2610 1700 c0 -5 5 -10 11 -10 5 0 7 5 4 10 -3 6 -8 10 -11 10 -2 0 -4 -4 -4 -10z"/>
            <path d="M2510 1678 c0 -7 -6 -25 -14 -40 -12 -23 -12 -27 0 -32 8 -3 14 -2 14 2 0 4 4 24 9 45 5 21 5 37 0 37 -5 0 -9 -6 -9 -12z"/>
            <path d="M2590 1646 c0 -12 25 -62 35 -68 22 -16 26 -7 9 20 -19 29 -44 57 -44 48z"/>
            <path d="M2277 1575 c-9 -25 -12 -43 -7 -40 11 7 34 75 27 81 -3 3 -12 -16 -20 -41z"/>
            <path d="M2566 1580 c9 -65 23 -85 24 -34 0 22 -7 49 -15 60 -15 18 -15 16 -9 -26z"/>
            <path d="M2351 1582 c-7 -13 -11 -26 -8 -28 8 -8 29 25 25 38 -3 8 -9 4 -17 -10z"/>
            <path d="M2098 1565 c-3 -3 -14 -7 -24 -9 -47 -10 -75 -19 -70 -23 3 -3 -9 -17 -25 -31 -36 -29 -26 -47 20 -37 30 6 121 75 122 92 1 10 -15 15 -23 8z"/>
            <path d="M2407 1550 c-9 -14 -17 -32 -17 -40 0 -9 -6 -22 -12 -29 -11 -11 -10 -13 2 -9 17 5 53 74 47 91 -2 6 -11 0 -20 -13z"/>
            <path d="M2213 1538 c-23 -30 -24 -41 -2 -21 12 12 20 25 17 28 -3 3 -10 0 -15 -7z"/>
            <path d="M766 1483 c6 -47 4 -51 -22 -72 -23 -18 -38 -22 -74 -18 -44 4 -45 4 -15 -9 38 -16 77 -17 109 -3 20 10 30 9 50 -5 34 -22 39 -20 22 7 -7 12 -21 45 -30 74 -10 28 -24 57 -32 64 -13 11 -14 6 -8 -38z"/>
            <path d="M2451 1499 c-1 -8 -19 -35 -41 -60 -42 -47 -39 -60 9 -35 40 21 52 46 41 82 -4 16 -9 22 -9 13z"/>
            <path d="M2678 1446 c26 -25 48 -43 50 -41 9 8 -22 48 -51 65 -50 31 -50 24 1 -24z"/>
            <path d="M1470 1438 c-11 -18 -28 -62 -40 -99 -12 -40 -34 -84 -55 -109 -39 -46 -40 -51 -24 -67 7 -7 12 -22 13 -34 0 -12 7 -24 14 -27 8 -2 12 12 12 50 0 42 6 62 30 97 17 24 30 52 30 61 0 9 3 20 6 23 8 7 44 -36 44 -52 0 -22 16 -10 34 24 18 32 18 40 6 93 -19 81 -38 92 -70 40z m32 -30 c-7 -7 -12 -8 -12 -2 0 6 3 14 7 17 3 4 9 5 12 2 2 -3 -1 -11 -7 -17z m18 -64 c0 -8 -4 -12 -10 -9 -5 3 -10 10 -10 16 0 5 5 9 10 9 6 0 10 -7 10 -16z"/>
            <path d="M1788 1441 c-49 -5 -63 -12 -98 -46 -57 -55 -104 -115 -96 -122 3 -4 12 -1 18 5 7 7 21 12 33 12 11 1 42 16 70 35 27 19 51 32 54 30 9 -9 -22 -34 -75 -61 -55 -28 -75 -44 -54 -44 8 0 9 -10 5 -30 -8 -36 11 -41 24 -7 9 24 79 83 87 74 3 -3 -4 -23 -15 -46 -21 -39 -63 -71 -96 -71 -28 0 -95 -53 -94 -75 0 -18 1 -18 12 -5 13 17 87 53 128 63 37 9 76 52 83 92 4 22 13 35 22 35 19 0 11 -28 -21 -76 -27 -40 -60 -132 -51 -142 4 -3 18 6 32 21 25 28 44 35 44 17 0 -5 -12 -17 -27 -27 -50 -30 -73 -56 -73 -80 0 -14 4 -21 10 -18 13 8 13 -5 0 -25 -26 -40 -73 48 -53 99 27 67 27 67 6 41 -11 -14 -33 -62 -49 -108 -27 -80 -51 -111 -75 -97 -15 10 -2 41 48 113 24 35 42 69 40 75 -1 5 -18 -12 -36 -39 -32 -48 -32 -49 -28 -16 2 17 0 32 -5 32 -4 0 -8 -4 -8 -8 0 -5 -13 -28 -29 -53 -16 -24 -32 -61 -35 -81 -11 -58 -30 -61 -22 -3 14 92 14 130 1 163 -8 17 -18 32 -24 32 -5 0 -20 -17 -32 -37 -28 -46 -35 -177 -9 -178 11 0 14 -10 13 -38 -2 -26 2 -37 11 -37 8 0 16 6 19 13 3 7 8 5 13 -8 4 -11 14 -25 22 -31 12 -8 11 -12 -2 -23 -9 -7 -13 -18 -9 -25 4 -6 9 -22 11 -36 1 -14 16 -46 32 -72 22 -37 25 -48 14 -52 -20 -8 -17 -26 4 -26 10 0 27 -7 39 -15 19 -13 21 -19 11 -40 -13 -29 -2 -47 15 -24 7 9 27 16 44 17 46 1 60 12 39 28 -10 7 -24 10 -32 7 -20 -7 -17 18 6 45 24 29 60 22 60 -11 0 -37 12 -44 80 -51 77 -8 100 -14 100 -27 0 -5 5 -9 11 -9 8 0 7 5 -1 15 -10 12 -10 19 -2 27 7 7 12 21 12 31 0 17 2 18 16 6 9 -7 20 -23 25 -36 5 -13 13 -23 19 -23 15 0 12 26 -6 41 -22 18 -51 78 -59 122 -4 20 -5 37 -2 37 5 0 57 -77 57 -85 0 -4 -6 -3 -12 1 -7 4 7 -14 32 -40 24 -25 48 -46 52 -46 14 0 8 23 -9 36 -10 7 -13 13 -8 13 15 0 78 -61 94 -92 16 -30 42 -35 61 -12 10 13 9 15 -9 15 -13 0 -25 9 -30 23 -5 13 -25 37 -45 53 -87 69 -124 106 -129 125 -4 15 -2 19 9 15 12 -5 12 -2 3 15 -6 12 -15 42 -20 68 -8 45 -8 45 -5 -14 4 -57 3 -59 -10 -30 -22 51 -15 135 12 135 8 0 14 7 14 15 0 8 -7 15 -15 15 -14 0 -14 4 0 38 9 20 27 53 40 73 29 42 31 54 8 44 -10 -3 -2 11 18 32 72 77 79 91 79 162 0 51 6 78 25 115 25 49 36 102 14 63 -9 -16 -19 -18 -58 -12 -31 4 -62 1 -90 -9 -44 -15 -44 -15 -70 15 -14 16 -34 28 -46 28 -11 -1 -46 -5 -77 -8z m261 -88 c-6 -21 -18 -55 -26 -76 -7 -21 -9 -36 -4 -33 5 4 17 30 26 59 18 53 40 86 51 75 3 -4 0 -16 -6 -29 -7 -12 -12 -51 -11 -86 l1 -64 -56 -55 c-46 -46 -55 -60 -51 -81 6 -30 -7 -58 -41 -89 -32 -28 -72 -118 -72 -160 0 -19 -5 -34 -11 -34 -7 0 -10 24 -7 73 3 69 2 72 -20 75 -33 5 -49 -13 -67 -75 -17 -57 -15 -73 7 -56 7 6 24 10 38 8 31 -2 38 -37 16 -80 -20 -39 -1 -48 27 -14 l20 24 -7 -72 c-5 -48 -3 -79 4 -93 14 -26 6 -38 -13 -21 -8 6 -17 34 -21 61 -11 85 -36 71 -36 -20 0 -36 5 -52 18 -59 14 -9 11 -10 -16 -11 -18 0 -31 4 -27 9 3 5 -2 25 -11 45 -16 33 -16 36 5 71 24 41 27 92 7 120 -13 17 -16 16 -70 -30 -31 -27 -52 -51 -47 -54 4 -3 12 -17 16 -30 6 -19 0 -31 -30 -61 -22 -22 -44 -36 -52 -33 -10 4 -6 13 17 34 34 33 38 54 14 80 -15 17 -15 20 10 50 15 17 34 45 42 61 8 16 18 27 23 24 4 -3 24 28 44 69 33 66 40 75 76 86 24 7 43 20 50 35 6 13 15 24 21 24 5 0 10 5 10 10 0 17 -25 11 -48 -10 -18 -17 -22 -18 -22 -5 0 8 5 15 10 15 6 0 10 7 10 15 0 8 5 15 10 15 16 0 11 25 -10 48 -12 12 -16 23 -10 27 6 3 10 2 10 -3 0 -12 45 -32 71 -32 23 0 124 81 140 113 8 14 7 22 -2 31 -9 8 -10 8 -4 -2 7 -14 -52 -84 -87 -103 -14 -8 -16 -6 -11 8 3 10 15 28 26 41 27 29 18 28 -52 -7 -50 -26 -61 -28 -82 -18 -33 17 -35 50 -7 95 l23 37 6 -50 c3 -27 7 -41 8 -30 8 69 29 135 42 135 6 0 6 -8 -1 -19 -5 -11 -10 -35 -10 -53 0 -18 -4 -48 -9 -66 -5 -17 -8 -32 -7 -32 14 0 46 43 55 75 9 35 108 151 119 141 2 -3 -2 -22 -9 -43z m-158 19 c-12 -23 -40 -47 -46 -40 -3 3 4 17 16 31 24 31 45 37 30 9z m-61 -47 c0 -2 -13 -11 -30 -20 -16 -9 -30 -12 -30 -7 0 5 10 14 23 20 25 12 37 14 37 7z m-391 -305 c-6 -16 -15 -30 -20 -30 -12 0 -11 4 3 35 16 35 29 31 17 -5z m371 10 c-6 -10 -16 -23 -24 -27 -8 -4 -24 -25 -36 -45 -26 -44 -35 -48 -26 -12 4 15 2 32 -5 40 -7 8 -10 15 -8 17 90 52 116 59 99 27z m-384 -92 c-9 -12 -16 -17 -16 -10 0 14 23 42 29 37 1 -2 -4 -14 -13 -27z m249 -28 c20 0 19 -26 0 -34 -9 -3 -21 -19 -26 -36 -18 -51 -29 -40 -42 43 -3 18 0 27 9 27 8 0 14 11 14 28 l1 27 15 -27 c8 -16 21 -28 29 -28z m145 -30 c0 -32 -1 -33 -24 -24 -12 5 -13 10 -4 30 15 33 28 30 28 -6z m-320 -47 c0 -10 -4 -24 -9 -32 -12 -19 -24 3 -16 29 8 25 25 26 25 3z m62 -15 c-12 -13 -22 -17 -22 -11 0 6 7 19 16 28 9 9 19 13 22 10 3 -3 -4 -15 -16 -27z m-2 -42 c0 -28 -13 -76 -20 -76 -14 0 -18 40 -7 65 13 27 27 33 27 11z m34 -130 c9 -13 7 -20 -8 -32 -25 -18 -39 -5 -30 30 7 29 21 30 38 2z m401 -56 c3 -5 2 -10 -4 -10 -5 0 -13 5 -16 10 -3 6 -2 10 4 10 5 0 13 -4 16 -10z"/>
            <path d="M1848 938 c9 -9 15 -9 24 0 9 9 7 12 -12 12 -19 0 -21 -3 -12 -12z"/>
            <path d="M2204 1428 c-15 -17 -19 -31 -15 -52 7 -35 31 -47 31 -16 0 12 4 19 9 16 5 -3 16 5 25 19 9 14 25 25 36 25 11 0 20 5 20 11 0 7 -10 9 -24 5 -14 -3 -28 -2 -31 4 -10 16 -30 11 -51 -12z"/>
            <path d="M7 1403 c-4 -3 -7 -16 -7 -27 1 -21 1 -21 15 -2 8 11 15 23 15 28 0 10 -14 11 -23 1z"/>
            <path d="M2475 1383 c-4 -13 -14 -23 -22 -23 -11 0 -14 -6 -9 -22 3 -13 6 -27 6 -31 0 -5 5 -5 10 -2 14 9 12 -7 -5 -49 -20 -48 -12 -46 19 7 l26 42 -23 17 c-21 16 -21 17 -3 31 11 8 16 21 13 33 -5 18 -5 17 -12 -3z"/>
            <path d="M2680 1384 c0 -5 7 -18 15 -28 8 -11 15 -16 15 -10 0 5 -7 18 -15 28 -8 11 -15 16 -15 10z"/>
            <path d="M1563 1325 c0 -27 2 -38 4 -22 2 15 2 37 0 50 -2 12 -4 0 -4 -28z"/>
            <path d="M2147 1353 c-4 -3 -7 -11 -7 -17 0 -6 5 -5 12 2 6 6 9 14 7 17 -3 3 -9 2 -12 -2z"/>
            <path d="M2651 1335 c-1 -5 8 -21 19 -35 11 -14 20 -20 20 -14 0 7 -9 22 -20 35 -10 13 -19 20 -19 14z"/>
            <path d="M2270 1307 c0 -7 -11 -29 -26 -48 -14 -19 -33 -52 -43 -74 -10 -22 -26 -48 -35 -58 -10 -9 -13 -17 -7 -17 14 0 50 49 58 79 3 14 19 41 35 59 24 28 38 72 23 72 -3 0 -5 -6 -5 -13z"/>
            <path d="M2610 1296 c0 -5 9 -24 21 -43 21 -34 22 -60 4 -138 -5 -21 -4 -27 3 -20 17 17 29 78 22 112 -7 30 -49 107 -50 89z"/>
            <path d="M2156 1241 c-11 -23 -16 -44 -13 -47 7 -7 39 66 34 79 -1 5 -11 -9 -21 -32z"/>
            <path d="M2340 1240 c-12 -16 -20 -36 -18 -42 2 -6 15 5 27 26 29 46 21 59 -9 16z"/>
            <path d="M1453 1190 l-22 -60 21 0 c12 0 30 7 40 17 17 15 18 13 19 -53 1 -58 2 -64 10 -39 5 17 7 49 4 72 -4 30 -1 50 11 70 10 18 11 22 1 11 -19 -24 -23 -23 -37 12 -7 17 -15 30 -19 30 -3 0 -16 -27 -28 -60z"/>
            <path d="M2390 1195 c-11 -13 -15 -13 -21 -3 -5 8 -9 9 -9 2 0 -6 -11 -28 -25 -48 -35 -52 -17 -44 33 14 24 28 41 50 39 50 -3 0 -10 -7 -17 -15z"/>
            <path d="M2579 1182 c-3 -20 -2 -29 4 -23 5 5 7 19 5 32 -3 20 -5 19 -9 -9z"/>
            <path d="M966 1173 c13 -60 26 -91 38 -96 22 -9 26 30 6 48 -10 9 -20 29 -24 46 -3 16 -10 29 -16 29 -6 0 -8 -11 -4 -27z"/>
            <path d="M2486 1178 c-24 -33 -19 -45 5 -14 12 15 19 29 16 32 -3 3 -12 -5 -21 -18z"/>
            <path d="M0 1150 c0 -46 11 -51 30 -15 11 20 11 27 0 40 -21 25 -30 17 -30 -25z"/>
            <path d="M2742 1170 c0 -14 2 -19 5 -12 2 6 2 18 0 25 -3 6 -5 1 -5 -13z"/>
            <path d="M2241 1148 c-16 -25 -17 -34 -7 -36 7 -2 16 -17 19 -35 7 -43 26 -9 33 -84 3 3 -2 29 -11 57 -9 28 -15 69 -13 91 2 21 3 39 2 39 -1 0 -11 -15 -23 -32z"/>
            <path d="M2415 1133 c-4 -21 -11 -53 -15 -70 -5 -20 -5 -33 1 -33 5 0 9 -5 9 -11 0 -6 -9 -8 -22 -4 -22 6 -22 5 -4 -9 18 -15 18 -16 -8 -46 -14 -17 -26 -39 -26 -48 0 -11 8 -4 20 16 11 18 27 35 34 38 9 4 17 27 22 61 l7 55 33 -5 c32 -5 34 -4 33 21 -1 17 -3 21 -6 10 -9 -36 -55 -14 -55 26 0 41 -16 41 -23 -1z m2 -95 c-3 -8 -6 -5 -6 6 -1 11 2 17 5 13 3 -3 4 -12 1 -19z"/>
            <path d="M2702 1125 c-1 -22 6 -51 14 -65 10 -16 13 -18 8 -5 -4 11 -10 40 -14 65 l-7 45 -1 -40z"/>
            <path d="M2783 1100 c-1 -11 2 -20 8 -20 5 0 9 9 9 20 0 11 -4 20 -8 20 -4 0 -8 -9 -9 -20z"/>
            <path d="M2090 1063 c-22 -8 -80 -65 -95 -93 -9 -17 -10 -38 -5 -65 8 -39 8 -39 9 -7 1 40 22 92 44 111 15 12 17 11 17 -3 0 -10 -5 -26 -11 -37 -5 -11 -9 -32 -7 -47 3 -23 7 -18 25 33 13 33 29 72 37 88 15 27 13 30 -14 20z"/>
            <path d="M2190 1009 c0 -8 -12 -32 -27 -54 l-26 -40 26 23 c25 23 44 69 32 80 -3 3 -5 -1 -5 -9z"/>
            <path d="M2219 996 c12 -14 11 -20 -9 -41 -13 -14 -20 -28 -16 -32 12 -12 47 38 44 60 -2 11 -10 23 -18 25 -13 5 -13 3 -1 -12z"/>
            <path d="M2630 958 c-30 -49 -31 -51 -7 -29 22 20 54 81 42 81 -2 0 -18 -24 -35 -52z"/>
            <path d="M2263 940 c-21 -26 -47 -80 -39 -80 6 0 69 101 65 104 -2 2 -14 -9 -26 -24z"/>
            <path d="M2066 825 c-7 -20 2 -101 14 -124 5 -8 6 16 3 55 -6 86 -8 93 -17 69z"/>
            <path d="M2141 783 c-6 -21 -11 -51 -11 -68 0 -42 19 -105 31 -105 6 0 7 9 4 22 -6 16 -4 20 8 15 12 -4 11 4 -5 46 -13 33 -18 66 -15 90 3 20 3 37 2 37 -2 0 -9 -17 -14 -37z"/>
            <path d="M1986 775 c-3 -8 -1 -15 4 -15 6 0 10 7 10 15 0 8 -2 15 -4 15 -2 0 -6 -7 -10 -15z"/>
            <path d="M2030 735 c0 -19 4 -35 9 -35 12 0 19 29 13 53 -7 30 -22 18 -22 -18z"/>
            <path d="M2281 754 c0 -11 3 -14 6 -6 3 7 2 16 -1 19 -3 4 -6 -2 -5 -13z"/>
            <path d="M2052 624 c10 -10 20 -16 22 -13 3 3 -5 11 -17 18 -21 13 -21 12 -5 -5z"/>
            <path d="M2110 575 c7 -8 20 -15 29 -15 13 1 13 3 -3 15 -26 19 -42 19 -26 0z"/>
            <path d="M1752 449 c3 -8 22 -15 49 -17 54 -4 42 15 -16 25 -30 5 -37 3 -33 -8z"/>
            <path d="M2023 433 c9 -2 25 -2 35 0 9 3 1 5 -18 5 -19 0 -27 -2 -17 -5z"/>
            <path d="M1975 340 c-18 -8 -18 -9 5 -9 14 0 32 4 40 9 12 8 12 10 -5 9 -11 0 -29 -4 -40 -9z"/>
        </g>
    </svg>
